<?xml version="1.0" encoding="UTF-8" standalone="no"?>
<!DOCTYPE svg PUBLIC "-//W3C//DTD SVG 1.1//EN"
 "http://www.w3.org/Graphics/SVG/1.1/DTD/svg11.dtd">
<!-- Generated by graphviz version 2.36.0 (20140111.2315)
 -->
<!-- Title: le_grafo Pages: 1 -->
<svg width="316pt" height="104pt"
 viewBox="0.00 0.00 316.00 104.00" xmlns="http://www.w3.org/2000/svg" xmlns:xlink="http://www.w3.org/1999/xlink">
<g id="graph0" class="graph" transform="scale(1 1) rotate(0) translate(4 100)">
<title>le_grafo</title>
<polygon fill="white" stroke="none" points="-4,4 -4,-100 312,-100 312,4 -4,4"/>
<!-- Node1 -->
<g id="node1" class="node"><title>Node1</title>
<polygon fill="#bfbfbf" stroke="black" points="0.5,-38.5 0.5,-57.5 51.5,-57.5 51.5,-38.5 0.5,-38.5"/>
<text text-anchor="middle" x="26" y="-45.5" font-family="Helvetica,sans-Serif" font-size="10.00">le_grafo</text>
</g>
<!-- Node2 -->
<g id="node2" class="node"><title>Node2</title>
<g id="a_node2"><a xlink:href="grafo_8cc.html#aa0ebaaf04a0e9c455c6571246b5c1e15" target="_top" xlink:title="cria_grafo">
<polygon fill="white" stroke="black" points="110.5,-76.5 110.5,-95.5 169.5,-95.5 169.5,-76.5 110.5,-76.5"/>
<text text-anchor="middle" x="140" y="-83.5" font-family="Helvetica,sans-Serif" font-size="10.00">cria_grafo</text>
</a>
</g>
</g>
<!-- Node1&#45;&gt;Node2 -->
<g id="edge1" class="edge"><title>Node1&#45;&gt;Node2</title>
<path fill="none" stroke="midnightblue" d="M51.5789,-56.3393C66.0833,-61.2604 84.7458,-67.5923 101.1,-73.1412"/>
<polygon fill="midnightblue" stroke="midnightblue" points="100.333,-76.5768 110.927,-76.4754 102.582,-69.9479 100.333,-76.5768"/>
</g>
<!-- Node3 -->
<g id="node3" class="node"><title>Node3</title>
<g id="a_node3"><a xlink:href="grafo_8cc.html#a563a8912631e461ec1d9a2bff50426d9" target="_top" xlink:title="insere_tarefa">
<polygon fill="white" stroke="black" points="103.5,-38.5 103.5,-57.5 176.5,-57.5 176.5,-38.5 103.5,-38.5"/>
<text text-anchor="middle" x="140" y="-45.5" font-family="Helvetica,sans-Serif" font-size="10.00">insere_tarefa</text>
</a>
</g>
</g>
<!-- Node1&#45;&gt;Node3 -->
<g id="edge2" class="edge"><title>Node1&#45;&gt;Node3</title>
<path fill="none" stroke="midnightblue" d="M51.5789,-48C63.8074,-48 78.9915,-48 93.2563,-48"/>
<polygon fill="midnightblue" stroke="midnightblue" points="93.4255,-51.5001 103.425,-48 93.4254,-44.5001 93.4255,-51.5001"/>
</g>
<!-- Node4 -->
<g id="node4" class="node"><title>Node4</title>
<g id="a_node4"><a xlink:href="grafo_8cc.html#a3fe6389b74d0356a95800a3d29d7d664" target="_top" xlink:title="insere_prerequisitos">
<polygon fill="white" stroke="black" points="88,-0.5 88,-19.5 192,-19.5 192,-0.5 88,-0.5"/>
<text text-anchor="middle" x="140" y="-7.5" font-family="Helvetica,sans-Serif" font-size="10.00">insere_prerequisitos</text>
</a>
</g>
</g>
<!-- Node1&#45;&gt;Node4 -->
<g id="edge3" class="edge"><title>Node1&#45;&gt;Node4</title>
<path fill="none" stroke="midnightblue" d="M51.5789,-39.6607C66.0833,-34.7396 84.7458,-28.4077 101.1,-22.8588"/>
<polygon fill="midnightblue" stroke="midnightblue" points="102.582,-26.0521 110.927,-19.5246 100.333,-19.4232 102.582,-26.0521"/>
</g>
<!-- Node5 -->
<g id="node5" class="node"><title>Node5</title>
<g id="a_node5"><a xlink:href="grafo_8cc.html#a0e6585acadedc05719f93fa778cf1dcb" target="_top" xlink:title="procura_tarefa">
<polygon fill="white" stroke="black" points="228.5,-0.5 228.5,-19.5 307.5,-19.5 307.5,-0.5 228.5,-0.5"/>
<text text-anchor="middle" x="268" y="-7.5" font-family="Helvetica,sans-Serif" font-size="10.00">procura_tarefa</text>
</a>
</g>
</g>
<!-- Node4&#45;&gt;Node5 -->
<g id="edge4" class="edge"><title>Node4&#45;&gt;Node5</title>
<path fill="none" stroke="midnightblue" d="M192.249,-10C200.774,-10 209.597,-10 218.062,-10"/>
<polygon fill="midnightblue" stroke="midnightblue" points="218.168,-13.5001 228.168,-10 218.168,-6.5001 218.168,-13.5001"/>
</g>
</g>
</svg>
