<?xml version="1.0" encoding="UTF-8" standalone="no"?>
<!DOCTYPE svg PUBLIC "-//W3C//DTD SVG 1.1//EN"
 "http://www.w3.org/Graphics/SVG/1.1/DTD/svg11.dtd">
<!-- Generated by graphviz version 2.36.0 (20140111.2315)
 -->
<!-- Title: include/grafo.h Pages: 1 -->
<svg width="298pt" height="84pt"
 viewBox="0.00 0.00 298.00 84.00" xmlns="http://www.w3.org/2000/svg" xmlns:xlink="http://www.w3.org/1999/xlink">
<g id="graph0" class="graph" transform="scale(1 1) rotate(0) translate(4 80)">
<title>include/grafo.h</title>
<polygon fill="white" stroke="none" points="-4,4 -4,-80 294,-80 294,4 -4,4"/>
<!-- Node1 -->
<g id="node1" class="node"><title>Node1</title>
<polygon fill="#bfbfbf" stroke="black" points="106,-56.5 106,-75.5 186,-75.5 186,-56.5 106,-56.5"/>
<text text-anchor="middle" x="146" y="-63.5" font-family="Helvetica,sans-Serif" font-size="10.00">include/grafo.h</text>
</g>
<!-- Node2 -->
<g id="node2" class="node"><title>Node2</title>
<g id="a_node2"><a xlink:href="grafo_8cc.html" target="_top" xlink:title="code/grafo.cc">
<polygon fill="white" stroke="black" points="0,-0.5 0,-19.5 76,-19.5 76,-0.5 0,-0.5"/>
<text text-anchor="middle" x="38" y="-7.5" font-family="Helvetica,sans-Serif" font-size="10.00">code/grafo.cc</text>
</a>
</g>
</g>
<!-- Node1&#45;&gt;Node2 -->
<g id="edge1" class="edge"><title>Node1&#45;&gt;Node2</title>
<path fill="none" stroke="midnightblue" d="M119.452,-51.7261C99.4542,-41.7271 72.613,-28.3065 55.309,-19.6545"/>
<polygon fill="midnightblue" stroke="midnightblue" points="118.138,-54.9823 128.648,-56.324 121.269,-48.7213 118.138,-54.9823"/>
</g>
<!-- Node3 -->
<g id="node3" class="node"><title>Node3</title>
<g id="a_node3"><a xlink:href="gtest__grafo_8cc.html" target="_top" xlink:title="code/gtest_grafo.cc">
<polygon fill="white" stroke="black" points="94.5,-0.5 94.5,-19.5 197.5,-19.5 197.5,-0.5 94.5,-0.5"/>
<text text-anchor="middle" x="146" y="-7.5" font-family="Helvetica,sans-Serif" font-size="10.00">code/gtest_grafo.cc</text>
</a>
</g>
</g>
<!-- Node1&#45;&gt;Node3 -->
<g id="edge2" class="edge"><title>Node1&#45;&gt;Node3</title>
<path fill="none" stroke="midnightblue" d="M146,-45.8045C146,-36.9102 146,-26.7798 146,-19.7511"/>
<polygon fill="midnightblue" stroke="midnightblue" points="142.5,-46.083 146,-56.083 149.5,-46.083 142.5,-46.083"/>
</g>
<!-- Node4 -->
<g id="node4" class="node"><title>Node4</title>
<g id="a_node4"><a xlink:href="main_8cc.html" target="_top" xlink:title="code/main.cc">
<polygon fill="white" stroke="black" points="215.5,-0.5 215.5,-19.5 290.5,-19.5 290.5,-0.5 215.5,-0.5"/>
<text text-anchor="middle" x="253" y="-7.5" font-family="Helvetica,sans-Serif" font-size="10.00">code/main.cc</text>
</a>
</g>
</g>
<!-- Node1&#45;&gt;Node4 -->
<g id="edge3" class="edge"><title>Node1&#45;&gt;Node4</title>
<path fill="none" stroke="midnightblue" d="M172.302,-51.7261C192.115,-41.7271 218.707,-28.3065 235.851,-19.6545"/>
<polygon fill="midnightblue" stroke="midnightblue" points="170.542,-48.6938 163.191,-56.324 173.696,-54.9431 170.542,-48.6938"/>
</g>
</g>
</svg>
