<?xml version="1.0" encoding="UTF-8" standalone="no"?>
<!DOCTYPE svg PUBLIC "-//W3C//DTD SVG 1.1//EN"
 "http://www.w3.org/Graphics/SVG/1.1/DTD/svg11.dtd">
<!-- Generated by graphviz version 2.36.0 (20140111.2315)
 -->
<!-- Title: remove_prerequisitos Pages: 1 -->
<svg width="580pt" height="47pt"
 viewBox="0.00 0.00 580.00 47.00" xmlns="http://www.w3.org/2000/svg" xmlns:xlink="http://www.w3.org/1999/xlink">
<g id="graph0" class="graph" transform="scale(1 1) rotate(0) translate(4 43)">
<title>remove_prerequisitos</title>
<polygon fill="white" stroke="none" points="-4,4 -4,-43 576,-43 576,4 -4,4"/>
<!-- Node1 -->
<g id="node1" class="node"><title>Node1</title>
<polygon fill="#bfbfbf" stroke="black" points="0,-0.5 0,-19.5 110,-19.5 110,-0.5 0,-0.5"/>
<text text-anchor="middle" x="55" y="-7.5" font-family="Helvetica,sans-Serif" font-size="10.00">remove_prerequisitos</text>
</g>
<!-- Node2 -->
<g id="node2" class="node"><title>Node2</title>
<g id="a_node2"><a xlink:href="main_8cc.html#ae96b9adf5e390d1a516e3fe5164714cc" target="_top" xlink:title="remover_pre_requisitos">
<polygon fill="white" stroke="black" points="146,-0.5 146,-19.5 264,-19.5 264,-0.5 146,-0.5"/>
<text text-anchor="middle" x="205" y="-7.5" font-family="Helvetica,sans-Serif" font-size="10.00">remover_pre_requisitos</text>
</a>
</g>
</g>
<!-- Node1&#45;&gt;Node2 -->
<g id="edge1" class="edge"><title>Node1&#45;&gt;Node2</title>
<path fill="none" stroke="midnightblue" d="M120.429,-10C128.85,-10 137.44,-10 145.752,-10"/>
<polygon fill="midnightblue" stroke="midnightblue" points="120.269,-6.5001 110.269,-10 120.269,-13.5001 120.269,-6.5001"/>
</g>
<!-- Node3 -->
<g id="node3" class="node"><title>Node3</title>
<g id="a_node3"><a xlink:href="main_8cc.html#af852bc15cf3d5217386a9bb0bf3b9abd" target="_top" xlink:title="operacoes_grafo">
<polygon fill="white" stroke="black" points="300.5,-0.5 300.5,-19.5 389.5,-19.5 389.5,-0.5 300.5,-0.5"/>
<text text-anchor="middle" x="345" y="-7.5" font-family="Helvetica,sans-Serif" font-size="10.00">operacoes_grafo</text>
</a>
</g>
</g>
<!-- Node2&#45;&gt;Node3 -->
<g id="edge2" class="edge"><title>Node2&#45;&gt;Node3</title>
<path fill="none" stroke="midnightblue" d="M274.391,-10C283.172,-10 291.965,-10 300.203,-10"/>
<polygon fill="midnightblue" stroke="midnightblue" points="274.124,-6.5001 264.124,-10 274.124,-13.5001 274.124,-6.5001"/>
</g>
<!-- Node4 -->
<g id="node4" class="node"><title>Node4</title>
<g id="a_node4"><a xlink:href="main_8cc.html#af1ccf694bcf905341f10b534e5a272fa" target="_top" xlink:title="abrir_arquivo">
<polygon fill="white" stroke="black" points="426,-19.5 426,-38.5 498,-38.5 498,-19.5 426,-19.5"/>
<text text-anchor="middle" x="462" y="-26.5" font-family="Helvetica,sans-Serif" font-size="10.00">abrir_arquivo</text>
</a>
</g>
</g>
<!-- Node3&#45;&gt;Node4 -->
<g id="edge3" class="edge"><title>Node3&#45;&gt;Node4</title>
<path fill="none" stroke="midnightblue" d="M399.736,-18.8781C408.617,-20.3454 417.619,-21.8327 425.888,-23.199"/>
<polygon fill="midnightblue" stroke="midnightblue" points="400.241,-15.4143 389.805,-17.2373 399.1,-22.3206 400.241,-15.4143"/>
</g>
<!-- Node5 -->
<g id="node5" class="node"><title>Node5</title>
<g id="a_node5"><a xlink:href="main_8cc.html#ae66f6b31b5ad750f1fe042a706a4e3d4" target="_top" xlink:title="main">
<polygon fill="white" stroke="black" points="534,-0.5 534,-19.5 572,-19.5 572,-0.5 534,-0.5"/>
<text text-anchor="middle" x="553" y="-7.5" font-family="Helvetica,sans-Serif" font-size="10.00">main</text>
</a>
</g>
</g>
<!-- Node3&#45;&gt;Node5 -->
<g id="edge5" class="edge"><title>Node3&#45;&gt;Node5</title>
<path fill="none" stroke="midnightblue" d="M399.725,-10C444.01,-10 504.194,-10 533.894,-10"/>
<polygon fill="midnightblue" stroke="midnightblue" points="399.687,-6.5001 389.687,-10 399.687,-13.5001 399.687,-6.5001"/>
</g>
<!-- Node4&#45;&gt;Node5 -->
<g id="edge4" class="edge"><title>Node4&#45;&gt;Node5</title>
<path fill="none" stroke="midnightblue" d="M508.067,-19.3789C517.24,-17.4207 526.38,-15.4694 533.929,-13.8578"/>
<polygon fill="midnightblue" stroke="midnightblue" points="507.224,-15.98 498.175,-21.4907 508.686,-22.8257 507.224,-15.98"/>
</g>
</g>
</svg>
