<?xml version="1.0" encoding="UTF-8" standalone="no"?>
<!DOCTYPE svg PUBLIC "-//W3C//DTD SVG 1.1//EN"
 "http://www.w3.org/Graphics/SVG/1.1/DTD/svg11.dtd">
<!-- Generated by graphviz version 2.36.0 (20140111.2315)
 -->
<!-- Title: tempo_minimo Pages: 1 -->
<svg width="344pt" height="132pt"
 viewBox="0.00 0.00 344.00 132.00" xmlns="http://www.w3.org/2000/svg" xmlns:xlink="http://www.w3.org/1999/xlink">
<g id="graph0" class="graph" transform="scale(1 1) rotate(0) translate(4 128)">
<title>tempo_minimo</title>
<polygon fill="white" stroke="none" points="-4,4 -4,-128 340,-128 340,4 -4,4"/>
<!-- Node1 -->
<g id="node1" class="node"><title>Node1</title>
<polygon fill="#bfbfbf" stroke="black" points="0,-43.5 0,-62.5 80,-62.5 80,-43.5 0,-43.5"/>
<text text-anchor="middle" x="40" y="-50.5" font-family="Helvetica,sans-Serif" font-size="10.00">tempo_minimo</text>
</g>
<!-- Node2 -->
<g id="node2" class="node"><title>Node2</title>
<g id="a_node2"><a xlink:href="grafo_8h.html#a6884bc1455bdfb3648b3e2514998e599" target="_top" xlink:title="tempo_minimo">
<polygon fill="white" stroke="black" points="116,-62.5 116,-81.5 196,-81.5 196,-62.5 116,-62.5"/>
<text text-anchor="middle" x="156" y="-69.5" font-family="Helvetica,sans-Serif" font-size="10.00">tempo_minimo</text>
</a>
</g>
</g>
<!-- Node1&#45;&gt;Node2 -->
<g id="edge1" class="edge"><title>Node1&#45;&gt;Node2</title>
<path fill="none" stroke="midnightblue" d="M90.1109,-61.1852C98.6608,-62.6101 107.452,-64.0754 115.695,-65.4492"/>
<polygon fill="midnightblue" stroke="midnightblue" points="90.6717,-57.7304 80.2323,-59.5387 89.5208,-64.6352 90.6717,-57.7304"/>
</g>
<!-- Node3 -->
<g id="node3" class="node"><title>Node3</title>
<g id="a_node3"><a xlink:href="grafo_8h.html#a57212202dfe77e7368840b67dd5fd46c" target="_top" xlink:title="tempo_minimo_total">
<polygon fill="white" stroke="black" points="232,-104.5 232,-123.5 336,-123.5 336,-104.5 232,-104.5"/>
<text text-anchor="middle" x="284" y="-111.5" font-family="Helvetica,sans-Serif" font-size="10.00">tempo_minimo_total</text>
</a>
</g>
</g>
<!-- Node1&#45;&gt;Node3 -->
<g id="edge6" class="edge"><title>Node1&#45;&gt;Node3</title>
<path fill="none" stroke="midnightblue" d="M57.4305,-70.0462C71.5413,-83.4108 93.1697,-101.036 116,-109 153.247,-121.993 198.051,-122.593 231.87,-120.299"/>
<polygon fill="midnightblue" stroke="midnightblue" points="59.6221,-67.2925 50.0387,-62.7748 54.7132,-72.2827 59.6221,-67.2925"/>
</g>
<!-- Node4 -->
<g id="node4" class="node"><title>Node4</title>
<g id="a_node4"><a xlink:href="grafo_8h.html#af11c94adb2bfc46d6f00ac0536bcddab" target="_top" xlink:title="caminhos">
<polygon fill="white" stroke="black" points="254.5,-38.5 254.5,-57.5 313.5,-57.5 313.5,-38.5 254.5,-38.5"/>
<text text-anchor="middle" x="284" y="-45.5" font-family="Helvetica,sans-Serif" font-size="10.00">caminhos</text>
</a>
</g>
</g>
<!-- Node1&#45;&gt;Node4 -->
<g id="edge7" class="edge"><title>Node1&#45;&gt;Node4</title>
<path fill="none" stroke="midnightblue" d="M90.2704,-51.982C139.562,-50.9636 213.705,-49.4317 254.156,-48.5959"/>
<polygon fill="midnightblue" stroke="midnightblue" points="90.076,-48.4852 80.1504,-52.1911 90.2206,-55.4837 90.076,-48.4852"/>
</g>
<!-- Node5 -->
<g id="node5" class="node"><title>Node5</title>
<g id="a_node5"><a xlink:href="grafo_8h.html#abce1552216c6841949c616cecd5a4c0b" target="_top" xlink:title="tarefas_concluidas">
<polygon fill="white" stroke="black" points="235,-0.5 235,-19.5 333,-19.5 333,-0.5 235,-0.5"/>
<text text-anchor="middle" x="284" y="-7.5" font-family="Helvetica,sans-Serif" font-size="10.00">tarefas_concluidas</text>
</a>
</g>
</g>
<!-- Node1&#45;&gt;Node5 -->
<g id="edge8" class="edge"><title>Node1&#45;&gt;Node5</title>
<path fill="none" stroke="midnightblue" d="M90.193,-44.2591C132.38,-36.763 192.815,-26.0247 234.732,-18.5765"/>
<polygon fill="midnightblue" stroke="midnightblue" points="89.3839,-40.848 80.1504,-46.0435 90.6086,-47.74 89.3839,-40.848"/>
</g>
<!-- Node2&#45;&gt;Node2 -->
<g id="edge2" class="edge"><title>Node2&#45;&gt;Node2</title>
<path fill="none" stroke="midnightblue" d="M134.52,-91.4C135.954,-96.3146 143.114,-100 156,-100 176.617,-100 182.577,-90.5653 173.879,-81.7571"/>
<polygon fill="midnightblue" stroke="midnightblue" points="137.901,-92.3496 138.121,-81.7571 131.343,-89.9004 137.901,-92.3496"/>
</g>
<!-- Node2&#45;&gt;Node3 -->
<g id="edge3" class="edge"><title>Node2&#45;&gt;Node3</title>
<path fill="none" stroke="midnightblue" d="M195.126,-84.7087C214.07,-91.0232 236.587,-98.5291 254.086,-104.362"/>
<polygon fill="midnightblue" stroke="midnightblue" points="196.185,-81.3724 185.591,-81.5305 193.971,-88.0132 196.185,-81.3724"/>
</g>
<!-- Node2&#45;&gt;Node4 -->
<g id="edge4" class="edge"><title>Node2&#45;&gt;Node4</title>
<path fill="none" stroke="midnightblue" d="M206.113,-62.6451C222.41,-59.5409 240.012,-56.1883 254.256,-53.4751"/>
<polygon fill="midnightblue" stroke="midnightblue" points="205.345,-59.2284 196.177,-64.5378 206.655,-66.1048 205.345,-59.2284"/>
</g>
<!-- Node2&#45;&gt;Node5 -->
<g id="edge5" class="edge"><title>Node2&#45;&gt;Node5</title>
<path fill="none" stroke="midnightblue" d="M180.914,-56.9466C195.385,-48.1794 214.388,-37.2612 232,-29 239.271,-25.5893 247.336,-22.3489 254.867,-19.5416"/>
<polygon fill="midnightblue" stroke="midnightblue" points="178.809,-54.132 172.119,-62.3477 182.472,-60.097 178.809,-54.132"/>
</g>
</g>
</svg>
