<?xml version="1.0" encoding="UTF-8" standalone="no"?>
<!DOCTYPE svg PUBLIC "-//W3C//DTD SVG 1.1//EN"
 "http://www.w3.org/Graphics/SVG/1.1/DTD/svg11.dtd">
<!-- Generated by graphviz version 2.36.0 (20140111.2315)
 -->
<!-- Title: tempo_minimo Pages: 1 -->
<!--zoomable 151 -->
<svg id="main" version="1.1" xmlns="http://www.w3.org/2000/svg" xmlns:xlink="http://www.w3.org/1999/xlink" xml:space="preserve" onload="init(evt)">
<style type="text/css"><![CDATA[
.edge:hover path { stroke: red; }
.edge:hover polygon { stroke: red; fill: red; }
]]></style>
<script type="text/javascript"><![CDATA[
var edges = document.getElementsByTagName('g');
if (edges && edges.length) {
  for (var i=0;i<edges.length;i++) {
    if (edges[i].id.substr(0,4)=='edge') {
      edges[i].setAttribute('class','edge');
    }
  }
}
]]></script>
        <defs>
                <circle id="rim" cx="0" cy="0" r="7"/>
                <circle id="rim2" cx="0" cy="0" r="3.5"/>
                <g id="zoomPlus">
                        <use xlink:href="#rim" fill="#404040">
                                <set attributeName="fill" to="#808080" begin="zoomplus.mouseover" end="zoomplus.mouseout"/>
                        </use>
                        <path d="M-4,0h8M0,-4v8" fill="none" stroke="white" stroke-width="1.5" pointer-events="none"/>
                </g>
                <g id="zoomMin">
                        <use xlink:href="#rim" fill="#404040">
                                <set attributeName="fill" to="#808080" begin="zoomminus.mouseover" end="zoomminus.mouseout"/>
                        </use>
                        <path d="M-4,0h8" fill="none" stroke="white" stroke-width="1.5" pointer-events="none"/>
                </g>
                <g id="dirArrow">
                        <path fill="none" stroke="white" stroke-width="1.5" d="M0,-3.0v7 M-2.5,-0.5L0,-3.0L2.5,-0.5"/>
                </g>
               <g id="resetDef">
                       <use xlink:href="#rim2" fill="#404040">
                               <set attributeName="fill" to="#808080" begin="reset.mouseover" end="reset.mouseout"/>
                       </use>
               </g>
        </defs>

<script type="text/javascript">
var viewWidth = 962;
var viewHeight = 151;
var sectionId = 'dynsection-21';
</script>
<script xlink:href="svgpan.js"/>
<svg id="graph" class="graph">
<g id="viewport">
<title>tempo_minimo</title>
<polygon fill="white" stroke="none" points="-4,4 -4,-147 958,-147 958,4 -4,4"/>
<!-- Node1 -->
<g id="node1" class="node"><title>Node1</title>
<polygon fill="#bfbfbf" stroke="black" points="0,-62.5 0,-81.5 80,-81.5 80,-62.5 0,-62.5"/>
<text text-anchor="middle" x="40" y="-69.5" font-family="Helvetica,sans-Serif" font-size="10.00">tempo_minimo</text>
</g>
<!-- Node2 -->
<g id="node2" class="node"><title>Node2</title>
<g id="a_node2"><a xlink:href="include_2grafo_8h.html#a6884bc1455bdfb3648b3e2514998e599" target="_top" xlink:title="tempo_minimo">
<polygon fill="white" stroke="black" points="116,-81.5 116,-100.5 196,-100.5 196,-81.5 116,-81.5"/>
<text text-anchor="middle" x="156" y="-88.5" font-family="Helvetica,sans-Serif" font-size="10.00">tempo_minimo</text>
</a>
</g>
</g>
<!-- Node1&#45;&gt;Node2 -->
<g id="edge1" class="edge"><title>Node1&#45;&gt;Node2</title>
<path fill="none" stroke="midnightblue" d="M90.1109,-80.1852C98.6608,-81.6101 107.452,-83.0754 115.695,-84.4492"/>
<polygon fill="midnightblue" stroke="midnightblue" points="90.6717,-76.7304 80.2323,-78.5387 89.5208,-83.6352 90.6717,-76.7304"/>
</g>
<!-- Node3 -->
<g id="node3" class="node"><title>Node3</title>
<g id="a_node3"><a xlink:href="include_2grafo_8h.html#a57212202dfe77e7368840b67dd5fd46c" target="_top" xlink:title="tempo_minimo_total">
<polygon fill="white" stroke="black" points="232,-123.5 232,-142.5 336,-142.5 336,-123.5 232,-123.5"/>
<text text-anchor="middle" x="284" y="-130.5" font-family="Helvetica,sans-Serif" font-size="10.00">tempo_minimo_total</text>
</a>
</g>
</g>
<!-- Node1&#45;&gt;Node3 -->
<g id="edge12" class="edge"><title>Node1&#45;&gt;Node3</title>
<path fill="none" stroke="midnightblue" d="M57.4305,-89.0462C71.5413,-102.411 93.1697,-120.036 116,-128 153.247,-140.993 198.051,-141.593 231.87,-139.299"/>
<polygon fill="midnightblue" stroke="midnightblue" points="59.6221,-86.2925 50.0387,-81.7748 54.7132,-91.2827 59.6221,-86.2925"/>
</g>
<!-- Node4 -->
<g id="node4" class="node"><title>Node4</title>
<g id="a_node4"><a xlink:href="include_2grafo_8h.html#af11c94adb2bfc46d6f00ac0536bcddab" target="_top" xlink:title="caminhos">
<polygon fill="white" stroke="black" points="254.5,-57.5 254.5,-76.5 313.5,-76.5 313.5,-57.5 254.5,-57.5"/>
<text text-anchor="middle" x="284" y="-64.5" font-family="Helvetica,sans-Serif" font-size="10.00">caminhos</text>
</a>
</g>
</g>
<!-- Node1&#45;&gt;Node4 -->
<g id="edge13" class="edge"><title>Node1&#45;&gt;Node4</title>
<path fill="none" stroke="midnightblue" d="M90.2704,-70.982C139.562,-69.9636 213.705,-68.4317 254.156,-67.5959"/>
<polygon fill="midnightblue" stroke="midnightblue" points="90.076,-67.4852 80.1504,-71.1911 90.2206,-74.4837 90.076,-67.4852"/>
</g>
<!-- Node5 -->
<g id="node5" class="node"><title>Node5</title>
<g id="a_node5"><a xlink:href="include_2grafo_8h.html#abce1552216c6841949c616cecd5a4c0b" target="_top" xlink:title="tarefas_concluidas">
<polygon fill="white" stroke="black" points="235,-19.5 235,-38.5 333,-38.5 333,-19.5 235,-19.5"/>
<text text-anchor="middle" x="284" y="-26.5" font-family="Helvetica,sans-Serif" font-size="10.00">tarefas_concluidas</text>
</a>
</g>
</g>
<!-- Node1&#45;&gt;Node5 -->
<g id="edge14" class="edge"><title>Node1&#45;&gt;Node5</title>
<path fill="none" stroke="midnightblue" d="M90.193,-63.2591C132.38,-55.763 192.815,-45.0247 234.732,-37.5765"/>
<polygon fill="midnightblue" stroke="midnightblue" points="89.3839,-59.848 80.1504,-65.0435 90.6086,-66.74 89.3839,-59.848"/>
</g>
<!-- Node2&#45;&gt;Node2 -->
<g id="edge2" class="edge"><title>Node2&#45;&gt;Node2</title>
<path fill="none" stroke="midnightblue" d="M134.52,-110.4C135.954,-115.315 143.114,-119 156,-119 176.617,-119 182.577,-109.565 173.879,-100.757"/>
<polygon fill="midnightblue" stroke="midnightblue" points="137.901,-111.35 138.121,-100.757 131.343,-108.9 137.901,-111.35"/>
</g>
<!-- Node2&#45;&gt;Node3 -->
<g id="edge3" class="edge"><title>Node2&#45;&gt;Node3</title>
<path fill="none" stroke="midnightblue" d="M195.126,-103.709C214.07,-110.023 236.587,-117.529 254.086,-123.362"/>
<polygon fill="midnightblue" stroke="midnightblue" points="196.185,-100.372 185.591,-100.53 193.971,-107.013 196.185,-100.372"/>
</g>
<!-- Node2&#45;&gt;Node4 -->
<g id="edge4" class="edge"><title>Node2&#45;&gt;Node4</title>
<path fill="none" stroke="midnightblue" d="M206.113,-81.6451C222.41,-78.5409 240.012,-75.1883 254.256,-72.4751"/>
<polygon fill="midnightblue" stroke="midnightblue" points="205.345,-78.2284 196.177,-83.5378 206.655,-85.1048 205.345,-78.2284"/>
</g>
<!-- Node2&#45;&gt;Node5 -->
<g id="edge5" class="edge"><title>Node2&#45;&gt;Node5</title>
<path fill="none" stroke="midnightblue" d="M180.914,-75.9466C195.385,-67.1794 214.388,-56.2612 232,-48 239.271,-44.5893 247.336,-41.3489 254.867,-38.5416"/>
<polygon fill="midnightblue" stroke="midnightblue" points="178.809,-73.132 172.119,-81.3477 182.472,-79.097 178.809,-73.132"/>
</g>
<!-- Node6 -->
<g id="node6" class="node"><title>Node6</title>
<g id="a_node6"><a xlink:href="main_8cc.html#adcc550070c8292efdd63f7df8bbdd58a" target="_top" xlink:title="filtrar_tarefas_completadas">
<polygon fill="white" stroke="black" points="372,-19.5 372,-38.5 506,-38.5 506,-19.5 372,-19.5"/>
<text text-anchor="middle" x="439" y="-26.5" font-family="Helvetica,sans-Serif" font-size="10.00">filtrar_tarefas_completadas</text>
</a>
</g>
</g>
<!-- Node5&#45;&gt;Node6 -->
<g id="edge6" class="edge"><title>Node5&#45;&gt;Node6</title>
<path fill="none" stroke="midnightblue" d="M343.609,-29C352.807,-29 362.371,-29 371.726,-29"/>
<polygon fill="midnightblue" stroke="midnightblue" points="343.41,-25.5001 333.41,-29 343.41,-32.5001 343.41,-25.5001"/>
</g>
<!-- Node7 -->
<g id="node7" class="node"><title>Node7</title>
<g id="a_node7"><a xlink:href="main_8cc.html#a5d247f6e8ee275a8cd007f922ae2acb3" target="_top" xlink:title="visualizador_tarefas">
<polygon fill="white" stroke="black" points="542,-19.5 542,-38.5 646,-38.5 646,-19.5 542,-19.5"/>
<text text-anchor="middle" x="594" y="-26.5" font-family="Helvetica,sans-Serif" font-size="10.00">visualizador_tarefas</text>
</a>
</g>
</g>
<!-- Node6&#45;&gt;Node7 -->
<g id="edge7" class="edge"><title>Node6&#45;&gt;Node7</title>
<path fill="none" stroke="midnightblue" d="M516.358,-29C525.019,-29 533.682,-29 541.904,-29"/>
<polygon fill="midnightblue" stroke="midnightblue" points="516.218,-25.5001 506.218,-29 516.218,-32.5001 516.218,-25.5001"/>
</g>
<!-- Node8 -->
<g id="node8" class="node"><title>Node8</title>
<g id="a_node8"><a xlink:href="main_8cc.html#af852bc15cf3d5217386a9bb0bf3b9abd" target="_top" xlink:title="operacoes_grafo">
<polygon fill="white" stroke="black" points="682.5,-19.5 682.5,-38.5 771.5,-38.5 771.5,-19.5 682.5,-19.5"/>
<text text-anchor="middle" x="727" y="-26.5" font-family="Helvetica,sans-Serif" font-size="10.00">operacoes_grafo</text>
</a>
</g>
</g>
<!-- Node7&#45;&gt;Node8 -->
<g id="edge8" class="edge"><title>Node7&#45;&gt;Node8</title>
<path fill="none" stroke="midnightblue" d="M656.208,-29C664.956,-29 673.806,-29 682.131,-29"/>
<polygon fill="midnightblue" stroke="midnightblue" points="656.023,-25.5001 646.023,-29 656.023,-32.5001 656.023,-25.5001"/>
</g>
<!-- Node9 -->
<g id="node9" class="node"><title>Node9</title>
<g id="a_node9"><a xlink:href="main_8cc.html#af1ccf694bcf905341f10b534e5a272fa" target="_top" xlink:title="abrir_arquivo">
<polygon fill="white" stroke="black" points="808,-0.5 808,-19.5 880,-19.5 880,-0.5 808,-0.5"/>
<text text-anchor="middle" x="844" y="-7.5" font-family="Helvetica,sans-Serif" font-size="10.00">abrir_arquivo</text>
</a>
</g>
</g>
<!-- Node8&#45;&gt;Node9 -->
<g id="edge9" class="edge"><title>Node8&#45;&gt;Node9</title>
<path fill="none" stroke="midnightblue" d="M781.736,-20.1219C790.617,-18.6546 799.619,-17.1673 807.888,-15.801"/>
<polygon fill="midnightblue" stroke="midnightblue" points="781.1,-16.6794 771.805,-21.7627 782.241,-23.5857 781.1,-16.6794"/>
</g>
<!-- Node10 -->
<g id="node10" class="node"><title>Node10</title>
<g id="a_node10"><a xlink:href="main_8cc.html#ae66f6b31b5ad750f1fe042a706a4e3d4" target="_top" xlink:title="main">
<polygon fill="white" stroke="black" points="916,-19.5 916,-38.5 954,-38.5 954,-19.5 916,-19.5"/>
<text text-anchor="middle" x="935" y="-26.5" font-family="Helvetica,sans-Serif" font-size="10.00">main</text>
</a>
</g>
</g>
<!-- Node8&#45;&gt;Node10 -->
<g id="edge11" class="edge"><title>Node8&#45;&gt;Node10</title>
<path fill="none" stroke="midnightblue" d="M781.725,-29C826.01,-29 886.194,-29 915.894,-29"/>
<polygon fill="midnightblue" stroke="midnightblue" points="781.687,-25.5001 771.687,-29 781.687,-32.5001 781.687,-25.5001"/>
</g>
<!-- Node9&#45;&gt;Node10 -->
<g id="edge10" class="edge"><title>Node9&#45;&gt;Node10</title>
<path fill="none" stroke="midnightblue" d="M890.067,-19.6211C899.24,-21.5793 908.38,-23.5306 915.929,-25.1422"/>
<polygon fill="midnightblue" stroke="midnightblue" points="890.686,-16.1743 880.175,-17.5093 889.224,-23.02 890.686,-16.1743"/>
</g>
</g>
</svg>
        <g id="navigator" transform="translate(0 0)" fill="#404254">
                <rect fill="#f2f5e9" fill-opacity="0.5" stroke="#606060" stroke-width=".5" x="0" y="0" width="60" height="60"/>
                <use id="zoomplus" xlink:href="#zoomPlus" x="17" y="9" onmousedown="handleZoom(evt,'in')"/>
                <use id="zoomminus" xlink:href="#zoomMin" x="42" y="9" onmousedown="handleZoom(evt,'out')"/>
                <use id="reset" xlink:href="#resetDef" x="30" y="36" onmousedown="handleReset()"/>
                <g id="arrowUp" xlink:href="#dirArrow" transform="translate(30 24)" onmousedown="handlePan(0,-1)">
                  <use xlink:href="#rim" fill="#404040">
                        <set attributeName="fill" to="#808080" begin="arrowUp.mouseover" end="arrowUp.mouseout"/>
                  </use>
                  <path fill="none" stroke="white" stroke-width="1.5" d="M0,-3.0v7 M-2.5,-0.5L0,-3.0L2.5,-0.5"/>
                </g>
                <g id="arrowRight" xlink:href="#dirArrow" transform="rotate(90) translate(36 -43)" onmousedown="handlePan(1,0)">
                  <use xlink:href="#rim" fill="#404040">
                        <set attributeName="fill" to="#808080" begin="arrowRight.mouseover" end="arrowRight.mouseout"/>
                  </use>
                  <path fill="none" stroke="white" stroke-width="1.5" d="M0,-3.0v7 M-2.5,-0.5L0,-3.0L2.5,-0.5"/>
                </g>
                <g id="arrowDown" xlink:href="#dirArrow" transform="rotate(180) translate(-30 -48)" onmousedown="handlePan(0,1)">
                  <use xlink:href="#rim" fill="#404040">
                        <set attributeName="fill" to="#808080" begin="arrowDown.mouseover" end="arrowDown.mouseout"/>
                  </use>
                  <path fill="none" stroke="white" stroke-width="1.5" d="M0,-3.0v7 M-2.5,-0.5L0,-3.0L2.5,-0.5"/>
                </g>
                <g id="arrowLeft" xlink:href="#dirArrow" transform="rotate(270) translate(-36 17)" onmousedown="handlePan(-1,0)">
                  <use xlink:href="#rim" fill="#404040">
                        <set attributeName="fill" to="#808080" begin="arrowLeft.mouseover" end="arrowLeft.mouseout"/>
                  </use>
                  <path fill="none" stroke="white" stroke-width="1.5" d="M0,-3.0v7 M-2.5,-0.5L0,-3.0L2.5,-0.5"/>
                </g>
        </g>
        <svg viewBox="0 0 15 15" width="100%" height="30px" preserveAspectRatio="xMaxYMin meet">
         <g id="arrow_out" transform="scale(0.3 0.3)">
          <a xlink:href="grafo_8cc_a6884bc1455bdfb3648b3e2514998e599_icgraph_org.svg" target="_base">
           <rect id="button" ry="5" rx="5" y="6" x="6" height="38" width="38"
                fill="#f2f5e9" fill-opacity="0.5" stroke="#606060" stroke-width="1.0"/>
           <path id="arrow"
             d="M 11.500037,31.436501 C 11.940474,20.09759 22.043105,11.32322 32.158766,21.979434 L 37.068811,17.246167 C 37.068811,17.246167 37.088388,32 37.088388,32 L 22.160133,31.978069 C 22.160133,31.978069 26.997745,27.140456 26.997745,27.140456 C 18.528582,18.264221 13.291696,25.230495 11.500037,31.436501 z"
             style="fill:#404040;"/>
          </a>
         </g>
        </svg>
</svg>
