<?xml version="1.0" encoding="UTF-8" standalone="no"?>
<!DOCTYPE svg PUBLIC "-//W3C//DTD SVG 1.1//EN"
 "http://www.w3.org/Graphics/SVG/1.1/DTD/svg11.dtd">
<!-- Generated by graphviz version 2.36.0 (20140111.2315)
 -->
<!-- Title: remove_lista Pages: 1 -->
<svg width="220pt" height="104pt"
 viewBox="0.00 0.00 220.00 104.00" xmlns="http://www.w3.org/2000/svg" xmlns:xlink="http://www.w3.org/1999/xlink">
<g id="graph0" class="graph" transform="scale(1 1) rotate(0) translate(4 100)">
<title>remove_lista</title>
<polygon fill="white" stroke="none" points="-4,4 -4,-100 216,-100 216,4 -4,4"/>
<!-- Node1 -->
<g id="node1" class="node"><title>Node1</title>
<polygon fill="#bfbfbf" stroke="black" points="0,-38.5 0,-57.5 72,-57.5 72,-38.5 0,-38.5"/>
<text text-anchor="middle" x="36" y="-45.5" font-family="Helvetica,sans-Serif" font-size="10.00">remove_lista</text>
</g>
<!-- Node2 -->
<g id="node2" class="node"><title>Node2</title>
<g id="a_node2"><a xlink:href="grafo_8h.html#a57212202dfe77e7368840b67dd5fd46c" target="_top" xlink:title="tempo_minimo_total">
<polygon fill="white" stroke="black" points="108,-76.5 108,-95.5 212,-95.5 212,-76.5 108,-76.5"/>
<text text-anchor="middle" x="160" y="-83.5" font-family="Helvetica,sans-Serif" font-size="10.00">tempo_minimo_total</text>
</a>
</g>
</g>
<!-- Node1&#45;&gt;Node2 -->
<g id="edge1" class="edge"><title>Node1&#45;&gt;Node2</title>
<path fill="none" stroke="midnightblue" d="M77.7108,-60.6804C94.195,-65.8148 112.91,-71.6441 128.224,-76.4141"/>
<polygon fill="midnightblue" stroke="midnightblue" points="78.3742,-57.2213 67.7858,-57.589 76.2925,-63.9046 78.3742,-57.2213"/>
</g>
<!-- Node3 -->
<g id="node3" class="node"><title>Node3</title>
<g id="a_node3"><a xlink:href="grafo_8h.html#af11c94adb2bfc46d6f00ac0536bcddab" target="_top" xlink:title="caminhos">
<polygon fill="white" stroke="black" points="130.5,-38.5 130.5,-57.5 189.5,-57.5 189.5,-38.5 130.5,-38.5"/>
<text text-anchor="middle" x="160" y="-45.5" font-family="Helvetica,sans-Serif" font-size="10.00">caminhos</text>
</a>
</g>
</g>
<!-- Node1&#45;&gt;Node3 -->
<g id="edge2" class="edge"><title>Node1&#45;&gt;Node3</title>
<path fill="none" stroke="midnightblue" d="M82.5474,-48C98.5713,-48 116.118,-48 130.355,-48"/>
<polygon fill="midnightblue" stroke="midnightblue" points="82.2875,-44.5001 72.2875,-48 82.2874,-51.5001 82.2875,-44.5001"/>
</g>
<!-- Node4 -->
<g id="node4" class="node"><title>Node4</title>
<g id="a_node4"><a xlink:href="grafo_8h.html#abce1552216c6841949c616cecd5a4c0b" target="_top" xlink:title="tarefas_concluidas">
<polygon fill="white" stroke="black" points="111,-0.5 111,-19.5 209,-19.5 209,-0.5 111,-0.5"/>
<text text-anchor="middle" x="160" y="-7.5" font-family="Helvetica,sans-Serif" font-size="10.00">tarefas_concluidas</text>
</a>
</g>
</g>
<!-- Node1&#45;&gt;Node4 -->
<g id="edge3" class="edge"><title>Node1&#45;&gt;Node4</title>
<path fill="none" stroke="midnightblue" d="M77.7108,-35.3196C94.195,-30.1852 112.91,-24.3559 128.224,-19.5859"/>
<polygon fill="midnightblue" stroke="midnightblue" points="76.2925,-32.0954 67.7858,-38.411 78.3742,-38.7787 76.2925,-32.0954"/>
</g>
</g>
</svg>
