<?xml version="1.0" encoding="UTF-8" standalone="no"?>
<!DOCTYPE svg PUBLIC "-//W3C//DTD SVG 1.1//EN"
 "http://www.w3.org/Graphics/SVG/1.1/DTD/svg11.dtd">
<!-- Generated by graphviz version 2.36.0 (20140111.2315)
 -->
<!-- Title: compara Pages: 1 -->
<svg width="814pt" height="66pt"
 viewBox="0.00 0.00 814.00 66.00" xmlns="http://www.w3.org/2000/svg" xmlns:xlink="http://www.w3.org/1999/xlink">
<g id="graph0" class="graph" transform="scale(1 1) rotate(0) translate(4 62)">
<title>compara</title>
<polygon fill="white" stroke="none" points="-4,4 -4,-62 810,-62 810,4 -4,4"/>
<!-- Node1 -->
<g id="node1" class="node"><title>Node1</title>
<polygon fill="#bfbfbf" stroke="black" points="0,-19.5 0,-38.5 54,-38.5 54,-19.5 0,-19.5"/>
<text text-anchor="middle" x="27" y="-26.5" font-family="Helvetica,sans-Serif" font-size="10.00">compara</text>
</g>
<!-- Node2 -->
<g id="node2" class="node"><title>Node2</title>
<g id="a_node2"><a xlink:href="include_2grafo_8h.html#af11c94adb2bfc46d6f00ac0536bcddab" target="_top" xlink:title="caminhos">
<polygon fill="white" stroke="black" points="109.5,-38.5 109.5,-57.5 168.5,-57.5 168.5,-38.5 109.5,-38.5"/>
<text text-anchor="middle" x="139" y="-45.5" font-family="Helvetica,sans-Serif" font-size="10.00">caminhos</text>
</a>
</g>
</g>
<!-- Node1&#45;&gt;Node2 -->
<g id="edge1" class="edge"><title>Node1&#45;&gt;Node2</title>
<path fill="none" stroke="midnightblue" d="M64.3171,-35.273C78.976,-37.8049 95.6442,-40.684 109.415,-43.0626"/>
<polygon fill="midnightblue" stroke="midnightblue" points="64.5183,-31.756 54.0685,-33.5027 63.3268,-38.6538 64.5183,-31.756"/>
</g>
<!-- Node3 -->
<g id="node3" class="node"><title>Node3</title>
<g id="a_node3"><a xlink:href="include_2grafo_8h.html#abce1552216c6841949c616cecd5a4c0b" target="_top" xlink:title="tarefas_concluidas">
<polygon fill="white" stroke="black" points="90,-0.5 90,-19.5 188,-19.5 188,-0.5 90,-0.5"/>
<text text-anchor="middle" x="139" y="-7.5" font-family="Helvetica,sans-Serif" font-size="10.00">tarefas_concluidas</text>
</a>
</g>
</g>
<!-- Node1&#45;&gt;Node3 -->
<g id="edge2" class="edge"><title>Node1&#45;&gt;Node3</title>
<path fill="none" stroke="midnightblue" d="M64.0468,-22.7737C72.2461,-21.3575 81.0856,-19.8307 89.7024,-18.3423"/>
<polygon fill="midnightblue" stroke="midnightblue" points="63.3268,-19.3462 54.0685,-24.4973 64.5183,-26.244 63.3268,-19.3462"/>
</g>
<!-- Node4 -->
<g id="node4" class="node"><title>Node4</title>
<g id="a_node4"><a xlink:href="main_8cc.html#adcc550070c8292efdd63f7df8bbdd58a" target="_top" xlink:title="filtrar_tarefas_completadas">
<polygon fill="white" stroke="black" points="224,-0.5 224,-19.5 358,-19.5 358,-0.5 224,-0.5"/>
<text text-anchor="middle" x="291" y="-7.5" font-family="Helvetica,sans-Serif" font-size="10.00">filtrar_tarefas_completadas</text>
</a>
</g>
</g>
<!-- Node3&#45;&gt;Node4 -->
<g id="edge3" class="edge"><title>Node3&#45;&gt;Node4</title>
<path fill="none" stroke="midnightblue" d="M198.294,-10C206.641,-10 215.278,-10 223.764,-10"/>
<polygon fill="midnightblue" stroke="midnightblue" points="198.287,-6.5001 188.287,-10 198.287,-13.5001 198.287,-6.5001"/>
</g>
<!-- Node5 -->
<g id="node5" class="node"><title>Node5</title>
<g id="a_node5"><a xlink:href="main_8cc.html#a5d247f6e8ee275a8cd007f922ae2acb3" target="_top" xlink:title="visualizador_tarefas">
<polygon fill="white" stroke="black" points="394,-0.5 394,-19.5 498,-19.5 498,-0.5 394,-0.5"/>
<text text-anchor="middle" x="446" y="-7.5" font-family="Helvetica,sans-Serif" font-size="10.00">visualizador_tarefas</text>
</a>
</g>
</g>
<!-- Node4&#45;&gt;Node5 -->
<g id="edge4" class="edge"><title>Node4&#45;&gt;Node5</title>
<path fill="none" stroke="midnightblue" d="M368.358,-10C377.019,-10 385.682,-10 393.904,-10"/>
<polygon fill="midnightblue" stroke="midnightblue" points="368.218,-6.5001 358.218,-10 368.218,-13.5001 368.218,-6.5001"/>
</g>
<!-- Node6 -->
<g id="node6" class="node"><title>Node6</title>
<g id="a_node6"><a xlink:href="main_8cc.html#af852bc15cf3d5217386a9bb0bf3b9abd" target="_top" xlink:title="operacoes_grafo">
<polygon fill="white" stroke="black" points="534.5,-0.5 534.5,-19.5 623.5,-19.5 623.5,-0.5 534.5,-0.5"/>
<text text-anchor="middle" x="579" y="-7.5" font-family="Helvetica,sans-Serif" font-size="10.00">operacoes_grafo</text>
</a>
</g>
</g>
<!-- Node5&#45;&gt;Node6 -->
<g id="edge5" class="edge"><title>Node5&#45;&gt;Node6</title>
<path fill="none" stroke="midnightblue" d="M508.208,-10C516.956,-10 525.806,-10 534.131,-10"/>
<polygon fill="midnightblue" stroke="midnightblue" points="508.023,-6.5001 498.023,-10 508.023,-13.5001 508.023,-6.5001"/>
</g>
<!-- Node7 -->
<g id="node7" class="node"><title>Node7</title>
<g id="a_node7"><a xlink:href="main_8cc.html#af1ccf694bcf905341f10b534e5a272fa" target="_top" xlink:title="abrir_arquivo">
<polygon fill="white" stroke="black" points="660,-19.5 660,-38.5 732,-38.5 732,-19.5 660,-19.5"/>
<text text-anchor="middle" x="696" y="-26.5" font-family="Helvetica,sans-Serif" font-size="10.00">abrir_arquivo</text>
</a>
</g>
</g>
<!-- Node6&#45;&gt;Node7 -->
<g id="edge6" class="edge"><title>Node6&#45;&gt;Node7</title>
<path fill="none" stroke="midnightblue" d="M633.736,-18.8781C642.617,-20.3454 651.619,-21.8327 659.888,-23.199"/>
<polygon fill="midnightblue" stroke="midnightblue" points="634.241,-15.4143 623.805,-17.2373 633.1,-22.3206 634.241,-15.4143"/>
</g>
<!-- Node8 -->
<g id="node8" class="node"><title>Node8</title>
<g id="a_node8"><a xlink:href="main_8cc.html#ae66f6b31b5ad750f1fe042a706a4e3d4" target="_top" xlink:title="main">
<polygon fill="white" stroke="black" points="768,-0.5 768,-19.5 806,-19.5 806,-0.5 768,-0.5"/>
<text text-anchor="middle" x="787" y="-7.5" font-family="Helvetica,sans-Serif" font-size="10.00">main</text>
</a>
</g>
</g>
<!-- Node6&#45;&gt;Node8 -->
<g id="edge8" class="edge"><title>Node6&#45;&gt;Node8</title>
<path fill="none" stroke="midnightblue" d="M633.725,-10C678.01,-10 738.194,-10 767.894,-10"/>
<polygon fill="midnightblue" stroke="midnightblue" points="633.687,-6.5001 623.687,-10 633.687,-13.5001 633.687,-6.5001"/>
</g>
<!-- Node7&#45;&gt;Node8 -->
<g id="edge7" class="edge"><title>Node7&#45;&gt;Node8</title>
<path fill="none" stroke="midnightblue" d="M742.067,-19.3789C751.24,-17.4207 760.38,-15.4694 767.929,-13.8578"/>
<polygon fill="midnightblue" stroke="midnightblue" points="741.224,-15.98 732.175,-21.4907 742.686,-22.8257 741.224,-15.98"/>
</g>
</g>
</svg>
