<?xml version="1.0" encoding="UTF-8" standalone="no"?>
<!DOCTYPE svg PUBLIC "-//W3C//DTD SVG 1.1//EN"
 "http://www.w3.org/Graphics/SVG/1.1/DTD/svg11.dtd">
<!-- Generated by graphviz version 2.36.0 (20140111.2315)
 -->
<!-- Title: insere_lista Pages: 1 -->
<svg width="832pt" height="104pt"
 viewBox="0.00 0.00 832.00 104.00" xmlns="http://www.w3.org/2000/svg" xmlns:xlink="http://www.w3.org/1999/xlink">
<g id="graph0" class="graph" transform="scale(1 1) rotate(0) translate(4 100)">
<title>insere_lista</title>
<polygon fill="white" stroke="none" points="-4,4 -4,-100 828,-100 828,4 -4,4"/>
<!-- Node1 -->
<g id="node1" class="node"><title>Node1</title>
<polygon fill="#bfbfbf" stroke="black" points="0,-38.5 0,-57.5 66,-57.5 66,-38.5 0,-38.5"/>
<text text-anchor="middle" x="33" y="-45.5" font-family="Helvetica,sans-Serif" font-size="10.00">insere_lista</text>
</g>
<!-- Node2 -->
<g id="node2" class="node"><title>Node2</title>
<g id="a_node2"><a xlink:href="include_2grafo_8h.html#a57212202dfe77e7368840b67dd5fd46c" target="_top" xlink:title="tempo_minimo_total">
<polygon fill="white" stroke="black" points="102,-76.5 102,-95.5 206,-95.5 206,-76.5 102,-76.5"/>
<text text-anchor="middle" x="154" y="-83.5" font-family="Helvetica,sans-Serif" font-size="10.00">tempo_minimo_total</text>
</a>
</g>
</g>
<!-- Node1&#45;&gt;Node2 -->
<g id="edge1" class="edge"><title>Node1&#45;&gt;Node2</title>
<path fill="none" stroke="midnightblue" d="M73.7098,-60.6804C89.7886,-65.8148 108.043,-71.6441 122.981,-76.4141"/>
<polygon fill="midnightblue" stroke="midnightblue" points="74.6195,-57.2969 64.0287,-57.589 72.4901,-63.9652 74.6195,-57.2969"/>
</g>
<!-- Node3 -->
<g id="node3" class="node"><title>Node3</title>
<g id="a_node3"><a xlink:href="include_2grafo_8h.html#af11c94adb2bfc46d6f00ac0536bcddab" target="_top" xlink:title="caminhos">
<polygon fill="white" stroke="black" points="124.5,-38.5 124.5,-57.5 183.5,-57.5 183.5,-38.5 124.5,-38.5"/>
<text text-anchor="middle" x="154" y="-45.5" font-family="Helvetica,sans-Serif" font-size="10.00">caminhos</text>
</a>
</g>
</g>
<!-- Node1&#45;&gt;Node3 -->
<g id="edge2" class="edge"><title>Node1&#45;&gt;Node3</title>
<path fill="none" stroke="midnightblue" d="M76.365,-48C92.3037,-48 110.036,-48 124.426,-48"/>
<polygon fill="midnightblue" stroke="midnightblue" points="76.2031,-44.5001 66.2031,-48 76.2031,-51.5001 76.2031,-44.5001"/>
</g>
<!-- Node4 -->
<g id="node4" class="node"><title>Node4</title>
<g id="a_node4"><a xlink:href="include_2grafo_8h.html#abce1552216c6841949c616cecd5a4c0b" target="_top" xlink:title="tarefas_concluidas">
<polygon fill="white" stroke="black" points="105,-0.5 105,-19.5 203,-19.5 203,-0.5 105,-0.5"/>
<text text-anchor="middle" x="154" y="-7.5" font-family="Helvetica,sans-Serif" font-size="10.00">tarefas_concluidas</text>
</a>
</g>
</g>
<!-- Node1&#45;&gt;Node4 -->
<g id="edge3" class="edge"><title>Node1&#45;&gt;Node4</title>
<path fill="none" stroke="midnightblue" d="M73.7098,-35.3196C89.7886,-30.1852 108.043,-24.3559 122.981,-19.5859"/>
<polygon fill="midnightblue" stroke="midnightblue" points="72.4901,-32.0348 64.0287,-38.411 74.6195,-38.7031 72.4901,-32.0348"/>
</g>
<!-- Node5 -->
<g id="node5" class="node"><title>Node5</title>
<g id="a_node5"><a xlink:href="main_8cc.html#adcc550070c8292efdd63f7df8bbdd58a" target="_top" xlink:title="filtrar_tarefas_completadas">
<polygon fill="white" stroke="black" points="242,-0.5 242,-19.5 376,-19.5 376,-0.5 242,-0.5"/>
<text text-anchor="middle" x="309" y="-7.5" font-family="Helvetica,sans-Serif" font-size="10.00">filtrar_tarefas_completadas</text>
</a>
</g>
</g>
<!-- Node4&#45;&gt;Node5 -->
<g id="edge4" class="edge"><title>Node4&#45;&gt;Node5</title>
<path fill="none" stroke="midnightblue" d="M213.609,-10C222.807,-10 232.371,-10 241.726,-10"/>
<polygon fill="midnightblue" stroke="midnightblue" points="213.41,-6.5001 203.41,-10 213.41,-13.5001 213.41,-6.5001"/>
</g>
<!-- Node6 -->
<g id="node6" class="node"><title>Node6</title>
<g id="a_node6"><a xlink:href="main_8cc.html#a5d247f6e8ee275a8cd007f922ae2acb3" target="_top" xlink:title="visualizador_tarefas">
<polygon fill="white" stroke="black" points="412,-0.5 412,-19.5 516,-19.5 516,-0.5 412,-0.5"/>
<text text-anchor="middle" x="464" y="-7.5" font-family="Helvetica,sans-Serif" font-size="10.00">visualizador_tarefas</text>
</a>
</g>
</g>
<!-- Node5&#45;&gt;Node6 -->
<g id="edge5" class="edge"><title>Node5&#45;&gt;Node6</title>
<path fill="none" stroke="midnightblue" d="M386.358,-10C395.019,-10 403.682,-10 411.904,-10"/>
<polygon fill="midnightblue" stroke="midnightblue" points="386.218,-6.5001 376.218,-10 386.218,-13.5001 386.218,-6.5001"/>
</g>
<!-- Node7 -->
<g id="node7" class="node"><title>Node7</title>
<g id="a_node7"><a xlink:href="main_8cc.html#af852bc15cf3d5217386a9bb0bf3b9abd" target="_top" xlink:title="operacoes_grafo">
<polygon fill="white" stroke="black" points="552.5,-0.5 552.5,-19.5 641.5,-19.5 641.5,-0.5 552.5,-0.5"/>
<text text-anchor="middle" x="597" y="-7.5" font-family="Helvetica,sans-Serif" font-size="10.00">operacoes_grafo</text>
</a>
</g>
</g>
<!-- Node6&#45;&gt;Node7 -->
<g id="edge6" class="edge"><title>Node6&#45;&gt;Node7</title>
<path fill="none" stroke="midnightblue" d="M526.208,-10C534.956,-10 543.806,-10 552.131,-10"/>
<polygon fill="midnightblue" stroke="midnightblue" points="526.023,-6.5001 516.023,-10 526.023,-13.5001 526.023,-6.5001"/>
</g>
<!-- Node8 -->
<g id="node8" class="node"><title>Node8</title>
<g id="a_node8"><a xlink:href="main_8cc.html#af1ccf694bcf905341f10b534e5a272fa" target="_top" xlink:title="abrir_arquivo">
<polygon fill="white" stroke="black" points="678,-19.5 678,-38.5 750,-38.5 750,-19.5 678,-19.5"/>
<text text-anchor="middle" x="714" y="-26.5" font-family="Helvetica,sans-Serif" font-size="10.00">abrir_arquivo</text>
</a>
</g>
</g>
<!-- Node7&#45;&gt;Node8 -->
<g id="edge7" class="edge"><title>Node7&#45;&gt;Node8</title>
<path fill="none" stroke="midnightblue" d="M651.736,-18.8781C660.617,-20.3454 669.619,-21.8327 677.888,-23.199"/>
<polygon fill="midnightblue" stroke="midnightblue" points="652.241,-15.4143 641.805,-17.2373 651.1,-22.3206 652.241,-15.4143"/>
</g>
<!-- Node9 -->
<g id="node9" class="node"><title>Node9</title>
<g id="a_node9"><a xlink:href="main_8cc.html#ae66f6b31b5ad750f1fe042a706a4e3d4" target="_top" xlink:title="main">
<polygon fill="white" stroke="black" points="786,-0.5 786,-19.5 824,-19.5 824,-0.5 786,-0.5"/>
<text text-anchor="middle" x="805" y="-7.5" font-family="Helvetica,sans-Serif" font-size="10.00">main</text>
</a>
</g>
</g>
<!-- Node7&#45;&gt;Node9 -->
<g id="edge9" class="edge"><title>Node7&#45;&gt;Node9</title>
<path fill="none" stroke="midnightblue" d="M651.725,-10C696.01,-10 756.194,-10 785.894,-10"/>
<polygon fill="midnightblue" stroke="midnightblue" points="651.687,-6.5001 641.687,-10 651.687,-13.5001 651.687,-6.5001"/>
</g>
<!-- Node8&#45;&gt;Node9 -->
<g id="edge8" class="edge"><title>Node8&#45;&gt;Node9</title>
<path fill="none" stroke="midnightblue" d="M760.067,-19.3789C769.24,-17.4207 778.38,-15.4694 785.929,-13.8578"/>
<polygon fill="midnightblue" stroke="midnightblue" points="759.224,-15.98 750.175,-21.4907 760.686,-22.8257 759.224,-15.98"/>
</g>
</g>
</svg>
