<?xml version="1.0" encoding="UTF-8" standalone="no"?>
<!DOCTYPE svg PUBLIC "-//W3C//DTD SVG 1.1//EN"
 "http://www.w3.org/Graphics/SVG/1.1/DTD/svg11.dtd">
<!-- Generated by graphviz version 2.36.0 (20140111.2315)
 -->
<!-- Title: tempo_minimo_total Pages: 1 -->
<svg width="228pt" height="122pt"
 viewBox="0.00 0.00 228.00 122.00" xmlns="http://www.w3.org/2000/svg" xmlns:xlink="http://www.w3.org/1999/xlink">
<g id="graph0" class="graph" transform="scale(1 1) rotate(0) translate(4 118)">
<title>tempo_minimo_total</title>
<polygon fill="white" stroke="none" points="-4,4 -4,-118 224,-118 224,4 -4,4"/>
<!-- Node1 -->
<g id="node1" class="node"><title>Node1</title>
<polygon fill="#bfbfbf" stroke="black" points="0,-38.5 0,-57.5 104,-57.5 104,-38.5 0,-38.5"/>
<text text-anchor="middle" x="52" y="-45.5" font-family="Helvetica,sans-Serif" font-size="10.00">tempo_minimo_total</text>
</g>
<!-- Node2 -->
<g id="node2" class="node"><title>Node2</title>
<g id="a_node2"><a xlink:href="grafo_8cc.html#acbf9093cdf86cc258309a203729436b2" target="_top" xlink:title="insere_lista">
<polygon fill="white" stroke="black" points="147,-94.5 147,-113.5 213,-113.5 213,-94.5 147,-94.5"/>
<text text-anchor="middle" x="180" y="-101.5" font-family="Helvetica,sans-Serif" font-size="10.00">insere_lista</text>
</a>
</g>
</g>
<!-- Node1&#45;&gt;Node2 -->
<g id="edge1" class="edge"><title>Node1&#45;&gt;Node2</title>
<path fill="none" stroke="midnightblue" d="M74.6602,-57.6267C94.9772,-66.6565 125.564,-80.2506 148.375,-90.3889"/>
<polygon fill="midnightblue" stroke="midnightblue" points="147.063,-93.6358 157.622,-94.4989 149.906,-87.2391 147.063,-93.6358"/>
</g>
<!-- Node3 -->
<g id="node3" class="node"><title>Node3</title>
<g id="a_node3"><a xlink:href="grafo_8cc.html#a6884bc1455bdfb3648b3e2514998e599" target="_top" xlink:title="tempo_minimo">
<polygon fill="white" stroke="black" points="140,-38.5 140,-57.5 220,-57.5 220,-38.5 140,-38.5"/>
<text text-anchor="middle" x="180" y="-45.5" font-family="Helvetica,sans-Serif" font-size="10.00">tempo_minimo</text>
</a>
</g>
</g>
<!-- Node1&#45;&gt;Node3 -->
<g id="edge2" class="edge"><title>Node1&#45;&gt;Node3</title>
<path fill="none" stroke="midnightblue" d="M104.249,-48C112.677,-48 121.396,-48 129.774,-48"/>
<polygon fill="midnightblue" stroke="midnightblue" points="129.78,-51.5001 139.78,-48 129.78,-44.5001 129.78,-51.5001"/>
</g>
<!-- Node4 -->
<g id="node4" class="node"><title>Node4</title>
<g id="a_node4"><a xlink:href="grafo_8cc.html#ae12d615ab927bce766dcc94b9f1b404d" target="_top" xlink:title="remove_lista">
<polygon fill="white" stroke="black" points="144,-0.5 144,-19.5 216,-19.5 216,-0.5 144,-0.5"/>
<text text-anchor="middle" x="180" y="-7.5" font-family="Helvetica,sans-Serif" font-size="10.00">remove_lista</text>
</a>
</g>
</g>
<!-- Node1&#45;&gt;Node4 -->
<g id="edge4" class="edge"><title>Node1&#45;&gt;Node4</title>
<path fill="none" stroke="midnightblue" d="M84.7951,-38.411C100.762,-33.5956 120.307,-27.7012 137.447,-22.532"/>
<polygon fill="midnightblue" stroke="midnightblue" points="138.652,-25.8244 147.215,-19.5859 136.63,-19.1225 138.652,-25.8244"/>
</g>
<!-- Node3&#45;&gt;Node3 -->
<g id="edge3" class="edge"><title>Node3&#45;&gt;Node3</title>
<path fill="none" stroke="midnightblue" d="M160.271,-57.7571C150.674,-66.5653 157.25,-76 180,-76 194.574,-76 202.511,-72.128 203.809,-67.0292"/>
<polygon fill="midnightblue" stroke="midnightblue" points="206.96,-65.4998 199.729,-57.7571 200.553,-68.3197 206.96,-65.4998"/>
</g>
</g>
</svg>
