<?xml version="1.0" encoding="UTF-8" standalone="no"?>
<!DOCTYPE svg PUBLIC "-//W3C//DTD SVG 1.1//EN"
 "http://www.w3.org/Graphics/SVG/1.1/DTD/svg11.dtd">
<!-- Generated by graphviz version 2.36.0 (20140111.2315)
 -->
<!-- Title: tarefas_concluidas Pages: 1 -->
<svg width="222pt" height="160pt"
 viewBox="0.00 0.00 222.00 160.00" xmlns="http://www.w3.org/2000/svg" xmlns:xlink="http://www.w3.org/1999/xlink">
<g id="graph0" class="graph" transform="scale(1 1) rotate(0) translate(4 156)">
<title>tarefas_concluidas</title>
<polygon fill="white" stroke="none" points="-4,4 -4,-156 218,-156 218,4 -4,4"/>
<!-- Node1 -->
<g id="node1" class="node"><title>Node1</title>
<polygon fill="#bfbfbf" stroke="black" points="0,-57.5 0,-76.5 98,-76.5 98,-57.5 0,-57.5"/>
<text text-anchor="middle" x="49" y="-64.5" font-family="Helvetica,sans-Serif" font-size="10.00">tarefas_concluidas</text>
</g>
<!-- Node2 -->
<g id="node2" class="node"><title>Node2</title>
<g id="a_node2"><a xlink:href="grafo_8cc.html#acbf9093cdf86cc258309a203729436b2" target="_top" xlink:title="insere_lista">
<polygon fill="white" stroke="black" points="141,-132.5 141,-151.5 207,-151.5 207,-132.5 141,-132.5"/>
<text text-anchor="middle" x="174" y="-139.5" font-family="Helvetica,sans-Serif" font-size="10.00">insere_lista</text>
</a>
</g>
</g>
<!-- Node1&#45;&gt;Node2 -->
<g id="edge1" class="edge"><title>Node1&#45;&gt;Node2</title>
<path fill="none" stroke="midnightblue" d="M63.319,-76.6951C79.5915,-88.3464 108.153,-108.178 134,-123 136.875,-124.649 139.913,-126.292 142.975,-127.883"/>
<polygon fill="midnightblue" stroke="midnightblue" points="141.577,-131.097 152.085,-132.452 144.715,-124.84 141.577,-131.097"/>
</g>
<!-- Node3 -->
<g id="node3" class="node"><title>Node3</title>
<g id="a_node3"><a xlink:href="grafo_8cc.html#a6884bc1455bdfb3648b3e2514998e599" target="_top" xlink:title="tempo_minimo">
<polygon fill="white" stroke="black" points="134,-76.5 134,-95.5 214,-95.5 214,-76.5 134,-76.5"/>
<text text-anchor="middle" x="174" y="-83.5" font-family="Helvetica,sans-Serif" font-size="10.00">tempo_minimo</text>
</a>
</g>
</g>
<!-- Node1&#45;&gt;Node3 -->
<g id="edge2" class="edge"><title>Node1&#45;&gt;Node3</title>
<path fill="none" stroke="midnightblue" d="M98.2598,-74.4548C106.681,-75.7556 115.45,-77.1102 123.894,-78.4145"/>
<polygon fill="midnightblue" stroke="midnightblue" points="123.57,-81.9059 133.987,-79.9736 124.639,-74.9879 123.57,-81.9059"/>
</g>
<!-- Node4 -->
<g id="node4" class="node"><title>Node4</title>
<g id="a_node4"><a xlink:href="grafo_8cc.html#ae12d615ab927bce766dcc94b9f1b404d" target="_top" xlink:title="remove_lista">
<polygon fill="white" stroke="black" points="138,-38.5 138,-57.5 210,-57.5 210,-38.5 138,-38.5"/>
<text text-anchor="middle" x="174" y="-45.5" font-family="Helvetica,sans-Serif" font-size="10.00">remove_lista</text>
</a>
</g>
</g>
<!-- Node1&#45;&gt;Node4 -->
<g id="edge4" class="edge"><title>Node1&#45;&gt;Node4</title>
<path fill="none" stroke="midnightblue" d="M98.2598,-59.5452C107.947,-58.0488 118.095,-56.4813 127.678,-55.0009"/>
<polygon fill="midnightblue" stroke="midnightblue" points="128.459,-58.422 137.807,-53.4363 127.39,-51.504 128.459,-58.422"/>
</g>
<!-- Node5 -->
<g id="node5" class="node"><title>Node5</title>
<g id="a_node5"><a xlink:href="grafo_8cc.html#a755ed9b778398a7614e61bdb3084717b" target="_top" xlink:title="compara">
<polygon fill="white" stroke="black" points="147,-0.5 147,-19.5 201,-19.5 201,-0.5 147,-0.5"/>
<text text-anchor="middle" x="174" y="-7.5" font-family="Helvetica,sans-Serif" font-size="10.00">compara</text>
</a>
</g>
</g>
<!-- Node1&#45;&gt;Node5 -->
<g id="edge5" class="edge"><title>Node1&#45;&gt;Node5</title>
<path fill="none" stroke="midnightblue" d="M70.5874,-57.4595C90.4544,-48.2528 120.746,-34.2153 143.237,-23.7926"/>
<polygon fill="midnightblue" stroke="midnightblue" points="144.744,-26.9519 152.345,-19.5716 141.801,-20.6007 144.744,-26.9519"/>
</g>
<!-- Node3&#45;&gt;Node3 -->
<g id="edge3" class="edge"><title>Node3&#45;&gt;Node3</title>
<path fill="none" stroke="midnightblue" d="M154.888,-95.7571C145.59,-104.565 151.961,-114 174,-114 188.119,-114 195.807,-110.128 197.065,-105.029"/>
<polygon fill="midnightblue" stroke="midnightblue" points="200.254,-103.583 193.112,-95.7571 193.815,-106.329 200.254,-103.583"/>
</g>
</g>
</svg>
