<?xml version="1.0" encoding="UTF-8" standalone="no"?>
<!DOCTYPE svg PUBLIC "-//W3C//DTD SVG 1.1//EN"
 "http://www.w3.org/Graphics/SVG/1.1/DTD/svg11.dtd">
<!-- Generated by graphviz version 2.36.0 (20140111.2315)
 -->
<!-- Title: caminhos Pages: 1 -->
<svg width="184pt" height="160pt"
 viewBox="0.00 0.00 184.00 160.00" xmlns="http://www.w3.org/2000/svg" xmlns:xlink="http://www.w3.org/1999/xlink">
<g id="graph0" class="graph" transform="scale(1 1) rotate(0) translate(4 156)">
<title>caminhos</title>
<polygon fill="white" stroke="none" points="-4,4 -4,-156 180,-156 180,4 -4,4"/>
<!-- Node1 -->
<g id="node1" class="node"><title>Node1</title>
<polygon fill="#bfbfbf" stroke="black" points="0.5,-57.5 0.5,-76.5 59.5,-76.5 59.5,-57.5 0.5,-57.5"/>
<text text-anchor="middle" x="30" y="-64.5" font-family="Helvetica,sans-Serif" font-size="10.00">caminhos</text>
</g>
<!-- Node2 -->
<g id="node2" class="node"><title>Node2</title>
<g id="a_node2"><a xlink:href="grafo_8cc.html#acbf9093cdf86cc258309a203729436b2" target="_top" xlink:title="insere_lista">
<polygon fill="white" stroke="black" points="103,-132.5 103,-151.5 169,-151.5 169,-132.5 103,-132.5"/>
<text text-anchor="middle" x="136" y="-139.5" font-family="Helvetica,sans-Serif" font-size="10.00">insere_lista</text>
</a>
</g>
</g>
<!-- Node1&#45;&gt;Node2 -->
<g id="edge1" class="edge"><title>Node1&#45;&gt;Node2</title>
<path fill="none" stroke="midnightblue" d="M40.4906,-76.5807C52.6153,-88.4752 74.6017,-108.912 96,-123 98.418,-124.592 100.989,-126.134 103.613,-127.606"/>
<polygon fill="midnightblue" stroke="midnightblue" points="102.107,-130.768 112.59,-132.306 105.354,-124.567 102.107,-130.768"/>
</g>
<!-- Node3 -->
<g id="node3" class="node"><title>Node3</title>
<g id="a_node3"><a xlink:href="grafo_8cc.html#a6884bc1455bdfb3648b3e2514998e599" target="_top" xlink:title="tempo_minimo">
<polygon fill="white" stroke="black" points="96,-76.5 96,-95.5 176,-95.5 176,-76.5 96,-76.5"/>
<text text-anchor="middle" x="136" y="-83.5" font-family="Helvetica,sans-Serif" font-size="10.00">tempo_minimo</text>
</a>
</g>
</g>
<!-- Node1&#45;&gt;Node3 -->
<g id="edge2" class="edge"><title>Node1&#45;&gt;Node3</title>
<path fill="none" stroke="midnightblue" d="M59.6938,-72.2421C67.8189,-73.7265 76.9013,-75.3858 85.8695,-77.0242"/>
<polygon fill="midnightblue" stroke="midnightblue" points="85.423,-80.5005 95.8893,-78.8548 86.6811,-73.6145 85.423,-80.5005"/>
</g>
<!-- Node4 -->
<g id="node4" class="node"><title>Node4</title>
<g id="a_node4"><a xlink:href="grafo_8cc.html#ae12d615ab927bce766dcc94b9f1b404d" target="_top" xlink:title="remove_lista">
<polygon fill="white" stroke="black" points="100,-38.5 100,-57.5 172,-57.5 172,-38.5 100,-38.5"/>
<text text-anchor="middle" x="136" y="-45.5" font-family="Helvetica,sans-Serif" font-size="10.00">remove_lista</text>
</a>
</g>
</g>
<!-- Node1&#45;&gt;Node4 -->
<g id="edge4" class="edge"><title>Node1&#45;&gt;Node4</title>
<path fill="none" stroke="midnightblue" d="M59.6938,-61.7579C68.9829,-60.0608 79.5231,-58.1352 89.7135,-56.2735"/>
<polygon fill="midnightblue" stroke="midnightblue" points="90.5199,-59.6842 99.728,-54.4439 89.2618,-52.7982 90.5199,-59.6842"/>
</g>
<!-- Node5 -->
<g id="node5" class="node"><title>Node5</title>
<g id="a_node5"><a xlink:href="grafo_8cc.html#a755ed9b778398a7614e61bdb3084717b" target="_top" xlink:title="compara">
<polygon fill="white" stroke="black" points="109,-0.5 109,-19.5 163,-19.5 163,-0.5 109,-0.5"/>
<text text-anchor="middle" x="136" y="-7.5" font-family="Helvetica,sans-Serif" font-size="10.00">compara</text>
</a>
</g>
</g>
<!-- Node1&#45;&gt;Node5 -->
<g id="edge5" class="edge"><title>Node1&#45;&gt;Node5</title>
<path fill="none" stroke="midnightblue" d="M46.5729,-57.4485C59.6241,-49.5523 78.8259,-38.1866 96,-29 99.0819,-27.3514 102.328,-25.6762 105.578,-24.0382"/>
<polygon fill="midnightblue" stroke="midnightblue" points="107.197,-27.1419 114.611,-19.5732 104.095,-20.8666 107.197,-27.1419"/>
</g>
<!-- Node3&#45;&gt;Node3 -->
<g id="edge3" class="edge"><title>Node3&#45;&gt;Node3</title>
<path fill="none" stroke="midnightblue" d="M119.662,-95.7571C111.714,-104.565 117.16,-114 136,-114 147.775,-114 154.318,-110.315 155.629,-105.4"/>
<polygon fill="midnightblue" stroke="midnightblue" points="158.88,-104.091 152.338,-95.7571 152.255,-106.352 158.88,-104.091"/>
</g>
</g>
</svg>
