<?xml version="1.0" encoding="UTF-8" standalone="no"?>
<!DOCTYPE svg PUBLIC "-//W3C//DTD SVG 1.1//EN"
 "http://www.w3.org/Graphics/SVG/1.1/DTD/svg11.dtd">
<!-- Generated by graphviz version 2.36.0 (20140111.2315)
 -->
<!-- Title: tarefas_concluidas Pages: 1 -->
<svg width="724pt" height="47pt"
 viewBox="0.00 0.00 724.00 47.00" xmlns="http://www.w3.org/2000/svg" xmlns:xlink="http://www.w3.org/1999/xlink">
<g id="graph0" class="graph" transform="scale(1 1) rotate(0) translate(4 43)">
<title>tarefas_concluidas</title>
<polygon fill="white" stroke="none" points="-4,4 -4,-43 720,-43 720,4 -4,4"/>
<!-- Node1 -->
<g id="node1" class="node"><title>Node1</title>
<polygon fill="#bfbfbf" stroke="black" points="0,-0.5 0,-19.5 98,-19.5 98,-0.5 0,-0.5"/>
<text text-anchor="middle" x="49" y="-7.5" font-family="Helvetica,sans-Serif" font-size="10.00">tarefas_concluidas</text>
</g>
<!-- Node2 -->
<g id="node2" class="node"><title>Node2</title>
<g id="a_node2"><a xlink:href="main_8cc.html#adcc550070c8292efdd63f7df8bbdd58a" target="_top" xlink:title="filtrar_tarefas_completadas">
<polygon fill="white" stroke="black" points="134,-0.5 134,-19.5 268,-19.5 268,-0.5 134,-0.5"/>
<text text-anchor="middle" x="201" y="-7.5" font-family="Helvetica,sans-Serif" font-size="10.00">filtrar_tarefas_completadas</text>
</a>
</g>
</g>
<!-- Node1&#45;&gt;Node2 -->
<g id="edge1" class="edge"><title>Node1&#45;&gt;Node2</title>
<path fill="none" stroke="midnightblue" d="M108.294,-10C116.641,-10 125.278,-10 133.764,-10"/>
<polygon fill="midnightblue" stroke="midnightblue" points="108.287,-6.5001 98.2866,-10 108.287,-13.5001 108.287,-6.5001"/>
</g>
<!-- Node3 -->
<g id="node3" class="node"><title>Node3</title>
<g id="a_node3"><a xlink:href="main_8cc.html#a5d247f6e8ee275a8cd007f922ae2acb3" target="_top" xlink:title="visualizador_tarefas">
<polygon fill="white" stroke="black" points="304,-0.5 304,-19.5 408,-19.5 408,-0.5 304,-0.5"/>
<text text-anchor="middle" x="356" y="-7.5" font-family="Helvetica,sans-Serif" font-size="10.00">visualizador_tarefas</text>
</a>
</g>
</g>
<!-- Node2&#45;&gt;Node3 -->
<g id="edge2" class="edge"><title>Node2&#45;&gt;Node3</title>
<path fill="none" stroke="midnightblue" d="M278.358,-10C287.019,-10 295.682,-10 303.904,-10"/>
<polygon fill="midnightblue" stroke="midnightblue" points="278.218,-6.5001 268.218,-10 278.218,-13.5001 278.218,-6.5001"/>
</g>
<!-- Node4 -->
<g id="node4" class="node"><title>Node4</title>
<g id="a_node4"><a xlink:href="main_8cc.html#af852bc15cf3d5217386a9bb0bf3b9abd" target="_top" xlink:title="operacoes_grafo">
<polygon fill="white" stroke="black" points="444.5,-0.5 444.5,-19.5 533.5,-19.5 533.5,-0.5 444.5,-0.5"/>
<text text-anchor="middle" x="489" y="-7.5" font-family="Helvetica,sans-Serif" font-size="10.00">operacoes_grafo</text>
</a>
</g>
</g>
<!-- Node3&#45;&gt;Node4 -->
<g id="edge3" class="edge"><title>Node3&#45;&gt;Node4</title>
<path fill="none" stroke="midnightblue" d="M418.208,-10C426.956,-10 435.806,-10 444.131,-10"/>
<polygon fill="midnightblue" stroke="midnightblue" points="418.023,-6.5001 408.023,-10 418.023,-13.5001 418.023,-6.5001"/>
</g>
<!-- Node5 -->
<g id="node5" class="node"><title>Node5</title>
<g id="a_node5"><a xlink:href="main_8cc.html#af1ccf694bcf905341f10b534e5a272fa" target="_top" xlink:title="abrir_arquivo">
<polygon fill="white" stroke="black" points="570,-19.5 570,-38.5 642,-38.5 642,-19.5 570,-19.5"/>
<text text-anchor="middle" x="606" y="-26.5" font-family="Helvetica,sans-Serif" font-size="10.00">abrir_arquivo</text>
</a>
</g>
</g>
<!-- Node4&#45;&gt;Node5 -->
<g id="edge4" class="edge"><title>Node4&#45;&gt;Node5</title>
<path fill="none" stroke="midnightblue" d="M543.736,-18.8781C552.617,-20.3454 561.619,-21.8327 569.888,-23.199"/>
<polygon fill="midnightblue" stroke="midnightblue" points="544.241,-15.4143 533.805,-17.2373 543.1,-22.3206 544.241,-15.4143"/>
</g>
<!-- Node6 -->
<g id="node6" class="node"><title>Node6</title>
<g id="a_node6"><a xlink:href="main_8cc.html#ae66f6b31b5ad750f1fe042a706a4e3d4" target="_top" xlink:title="main">
<polygon fill="white" stroke="black" points="678,-0.5 678,-19.5 716,-19.5 716,-0.5 678,-0.5"/>
<text text-anchor="middle" x="697" y="-7.5" font-family="Helvetica,sans-Serif" font-size="10.00">main</text>
</a>
</g>
</g>
<!-- Node4&#45;&gt;Node6 -->
<g id="edge6" class="edge"><title>Node4&#45;&gt;Node6</title>
<path fill="none" stroke="midnightblue" d="M543.725,-10C588.01,-10 648.194,-10 677.894,-10"/>
<polygon fill="midnightblue" stroke="midnightblue" points="543.687,-6.5001 533.687,-10 543.687,-13.5001 543.687,-6.5001"/>
</g>
<!-- Node5&#45;&gt;Node6 -->
<g id="edge5" class="edge"><title>Node5&#45;&gt;Node6</title>
<path fill="none" stroke="midnightblue" d="M652.067,-19.3789C661.24,-17.4207 670.38,-15.4694 677.929,-13.8578"/>
<polygon fill="midnightblue" stroke="midnightblue" points="651.224,-15.98 642.175,-21.4907 652.686,-22.8257 651.224,-15.98"/>
</g>
</g>
</svg>
