<?xml version="1.0" encoding="UTF-8" standalone="no"?>
<!DOCTYPE svg PUBLIC "-//W3C//DTD SVG 1.1//EN"
 "http://www.w3.org/Graphics/SVG/1.1/DTD/svg11.dtd">
<!-- Generated by graphviz version 2.36.0 (20140111.2315)
 -->
<!-- Title: remove_lista Pages: 1 -->
<svg width="838pt" height="104pt"
 viewBox="0.00 0.00 838.00 104.00" xmlns="http://www.w3.org/2000/svg" xmlns:xlink="http://www.w3.org/1999/xlink">
<g id="graph0" class="graph" transform="scale(1 1) rotate(0) translate(4 100)">
<title>remove_lista</title>
<polygon fill="white" stroke="none" points="-4,4 -4,-100 834,-100 834,4 -4,4"/>
<!-- Node1 -->
<g id="node1" class="node"><title>Node1</title>
<polygon fill="#bfbfbf" stroke="black" points="0,-38.5 0,-57.5 72,-57.5 72,-38.5 0,-38.5"/>
<text text-anchor="middle" x="36" y="-45.5" font-family="Helvetica,sans-Serif" font-size="10.00">remove_lista</text>
</g>
<!-- Node2 -->
<g id="node2" class="node"><title>Node2</title>
<g id="a_node2"><a xlink:href="include_2grafo_8h.html#a57212202dfe77e7368840b67dd5fd46c" target="_top" xlink:title="tempo_minimo_total">
<polygon fill="white" stroke="black" points="108,-76.5 108,-95.5 212,-95.5 212,-76.5 108,-76.5"/>
<text text-anchor="middle" x="160" y="-83.5" font-family="Helvetica,sans-Serif" font-size="10.00">tempo_minimo_total</text>
</a>
</g>
</g>
<!-- Node1&#45;&gt;Node2 -->
<g id="edge1" class="edge"><title>Node1&#45;&gt;Node2</title>
<path fill="none" stroke="midnightblue" d="M77.7108,-60.6804C94.195,-65.8148 112.91,-71.6441 128.224,-76.4141"/>
<polygon fill="midnightblue" stroke="midnightblue" points="78.3742,-57.2213 67.7858,-57.589 76.2925,-63.9046 78.3742,-57.2213"/>
</g>
<!-- Node3 -->
<g id="node3" class="node"><title>Node3</title>
<g id="a_node3"><a xlink:href="include_2grafo_8h.html#af11c94adb2bfc46d6f00ac0536bcddab" target="_top" xlink:title="caminhos">
<polygon fill="white" stroke="black" points="130.5,-38.5 130.5,-57.5 189.5,-57.5 189.5,-38.5 130.5,-38.5"/>
<text text-anchor="middle" x="160" y="-45.5" font-family="Helvetica,sans-Serif" font-size="10.00">caminhos</text>
</a>
</g>
</g>
<!-- Node1&#45;&gt;Node3 -->
<g id="edge2" class="edge"><title>Node1&#45;&gt;Node3</title>
<path fill="none" stroke="midnightblue" d="M82.5474,-48C98.5713,-48 116.118,-48 130.355,-48"/>
<polygon fill="midnightblue" stroke="midnightblue" points="82.2875,-44.5001 72.2875,-48 82.2874,-51.5001 82.2875,-44.5001"/>
</g>
<!-- Node4 -->
<g id="node4" class="node"><title>Node4</title>
<g id="a_node4"><a xlink:href="include_2grafo_8h.html#abce1552216c6841949c616cecd5a4c0b" target="_top" xlink:title="tarefas_concluidas">
<polygon fill="white" stroke="black" points="111,-0.5 111,-19.5 209,-19.5 209,-0.5 111,-0.5"/>
<text text-anchor="middle" x="160" y="-7.5" font-family="Helvetica,sans-Serif" font-size="10.00">tarefas_concluidas</text>
</a>
</g>
</g>
<!-- Node1&#45;&gt;Node4 -->
<g id="edge3" class="edge"><title>Node1&#45;&gt;Node4</title>
<path fill="none" stroke="midnightblue" d="M77.7108,-35.3196C94.195,-30.1852 112.91,-24.3559 128.224,-19.5859"/>
<polygon fill="midnightblue" stroke="midnightblue" points="76.2925,-32.0954 67.7858,-38.411 78.3742,-38.7787 76.2925,-32.0954"/>
</g>
<!-- Node5 -->
<g id="node5" class="node"><title>Node5</title>
<g id="a_node5"><a xlink:href="main_8cc.html#adcc550070c8292efdd63f7df8bbdd58a" target="_top" xlink:title="filtrar_tarefas_completadas">
<polygon fill="white" stroke="black" points="248,-0.5 248,-19.5 382,-19.5 382,-0.5 248,-0.5"/>
<text text-anchor="middle" x="315" y="-7.5" font-family="Helvetica,sans-Serif" font-size="10.00">filtrar_tarefas_completadas</text>
</a>
</g>
</g>
<!-- Node4&#45;&gt;Node5 -->
<g id="edge4" class="edge"><title>Node4&#45;&gt;Node5</title>
<path fill="none" stroke="midnightblue" d="M219.609,-10C228.807,-10 238.371,-10 247.726,-10"/>
<polygon fill="midnightblue" stroke="midnightblue" points="219.41,-6.5001 209.41,-10 219.41,-13.5001 219.41,-6.5001"/>
</g>
<!-- Node6 -->
<g id="node6" class="node"><title>Node6</title>
<g id="a_node6"><a xlink:href="main_8cc.html#a5d247f6e8ee275a8cd007f922ae2acb3" target="_top" xlink:title="visualizador_tarefas">
<polygon fill="white" stroke="black" points="418,-0.5 418,-19.5 522,-19.5 522,-0.5 418,-0.5"/>
<text text-anchor="middle" x="470" y="-7.5" font-family="Helvetica,sans-Serif" font-size="10.00">visualizador_tarefas</text>
</a>
</g>
</g>
<!-- Node5&#45;&gt;Node6 -->
<g id="edge5" class="edge"><title>Node5&#45;&gt;Node6</title>
<path fill="none" stroke="midnightblue" d="M392.358,-10C401.019,-10 409.682,-10 417.904,-10"/>
<polygon fill="midnightblue" stroke="midnightblue" points="392.218,-6.5001 382.218,-10 392.218,-13.5001 392.218,-6.5001"/>
</g>
<!-- Node7 -->
<g id="node7" class="node"><title>Node7</title>
<g id="a_node7"><a xlink:href="main_8cc.html#af852bc15cf3d5217386a9bb0bf3b9abd" target="_top" xlink:title="operacoes_grafo">
<polygon fill="white" stroke="black" points="558.5,-0.5 558.5,-19.5 647.5,-19.5 647.5,-0.5 558.5,-0.5"/>
<text text-anchor="middle" x="603" y="-7.5" font-family="Helvetica,sans-Serif" font-size="10.00">operacoes_grafo</text>
</a>
</g>
</g>
<!-- Node6&#45;&gt;Node7 -->
<g id="edge6" class="edge"><title>Node6&#45;&gt;Node7</title>
<path fill="none" stroke="midnightblue" d="M532.208,-10C540.956,-10 549.806,-10 558.131,-10"/>
<polygon fill="midnightblue" stroke="midnightblue" points="532.023,-6.5001 522.023,-10 532.023,-13.5001 532.023,-6.5001"/>
</g>
<!-- Node8 -->
<g id="node8" class="node"><title>Node8</title>
<g id="a_node8"><a xlink:href="main_8cc.html#af1ccf694bcf905341f10b534e5a272fa" target="_top" xlink:title="abrir_arquivo">
<polygon fill="white" stroke="black" points="684,-19.5 684,-38.5 756,-38.5 756,-19.5 684,-19.5"/>
<text text-anchor="middle" x="720" y="-26.5" font-family="Helvetica,sans-Serif" font-size="10.00">abrir_arquivo</text>
</a>
</g>
</g>
<!-- Node7&#45;&gt;Node8 -->
<g id="edge7" class="edge"><title>Node7&#45;&gt;Node8</title>
<path fill="none" stroke="midnightblue" d="M657.736,-18.8781C666.617,-20.3454 675.619,-21.8327 683.888,-23.199"/>
<polygon fill="midnightblue" stroke="midnightblue" points="658.241,-15.4143 647.805,-17.2373 657.1,-22.3206 658.241,-15.4143"/>
</g>
<!-- Node9 -->
<g id="node9" class="node"><title>Node9</title>
<g id="a_node9"><a xlink:href="main_8cc.html#ae66f6b31b5ad750f1fe042a706a4e3d4" target="_top" xlink:title="main">
<polygon fill="white" stroke="black" points="792,-0.5 792,-19.5 830,-19.5 830,-0.5 792,-0.5"/>
<text text-anchor="middle" x="811" y="-7.5" font-family="Helvetica,sans-Serif" font-size="10.00">main</text>
</a>
</g>
</g>
<!-- Node7&#45;&gt;Node9 -->
<g id="edge9" class="edge"><title>Node7&#45;&gt;Node9</title>
<path fill="none" stroke="midnightblue" d="M657.725,-10C702.01,-10 762.194,-10 791.894,-10"/>
<polygon fill="midnightblue" stroke="midnightblue" points="657.687,-6.5001 647.687,-10 657.687,-13.5001 657.687,-6.5001"/>
</g>
<!-- Node8&#45;&gt;Node9 -->
<g id="edge8" class="edge"><title>Node8&#45;&gt;Node9</title>
<path fill="none" stroke="midnightblue" d="M766.067,-19.3789C775.24,-17.4207 784.38,-15.4694 791.929,-13.8578"/>
<polygon fill="midnightblue" stroke="midnightblue" points="765.224,-15.98 756.175,-21.4907 766.686,-22.8257 765.224,-15.98"/>
</g>
</g>
</svg>
