<?xml version="1.0" encoding="UTF-8" standalone="no"?>
<!DOCTYPE svg PUBLIC "-//W3C//DTD SVG 1.1//EN"
 "http://www.w3.org/Graphics/SVG/1.1/DTD/svg11.dtd">
<!-- Generated by graphviz version 2.36.0 (20140111.2315)
 -->
<!-- Title: pesquisa_tarefa Pages: 1 -->
<svg width="848pt" height="291pt"
 viewBox="0.00 0.00 848.00 291.00" xmlns="http://www.w3.org/2000/svg" xmlns:xlink="http://www.w3.org/1999/xlink">
<g id="graph0" class="graph" transform="scale(1 1) rotate(0) translate(4 287)">
<title>pesquisa_tarefa</title>
<polygon fill="white" stroke="none" points="-4,4 -4,-287 844,-287 844,4 -4,4"/>
<!-- Node1 -->
<g id="node1" class="node"><title>Node1</title>
<polygon fill="#bfbfbf" stroke="black" points="0,-130.5 0,-149.5 86,-149.5 86,-130.5 0,-130.5"/>
<text text-anchor="middle" x="43" y="-137.5" font-family="Helvetica,sans-Serif" font-size="10.00">pesquisa_tarefa</text>
</g>
<!-- Node2 -->
<g id="node2" class="node"><title>Node2</title>
<g id="a_node2"><a xlink:href="grafo_8h.html#adaeb2e2aa0bf8a2fbb149376a33bd443" target="_top" xlink:title="edita_tarefa">
<polygon fill="white" stroke="black" points="151,-263.5 151,-282.5 219,-282.5 219,-263.5 151,-263.5"/>
<text text-anchor="middle" x="185" y="-270.5" font-family="Helvetica,sans-Serif" font-size="10.00">edita_tarefa</text>
</a>
</g>
</g>
<!-- Node1&#45;&gt;Node2 -->
<g id="edge1" class="edge"><title>Node1&#45;&gt;Node2</title>
<path fill="none" stroke="midnightblue" d="M53.0057,-158.698C65.4317,-182.692 89.9785,-224.173 122,-249 130.483,-255.577 140.985,-260.543 150.92,-264.2"/>
<polygon fill="midnightblue" stroke="midnightblue" points="56.0472,-156.955 48.4359,-149.585 49.7899,-160.093 56.0472,-156.955"/>
</g>
<!-- Node3 -->
<g id="node3" class="node"><title>Node3</title>
<g id="a_node3"><a xlink:href="main_8cc.html#a8d8002aa0f76981dad9ce30329767981" target="_top" xlink:title="edicao_tarefa">
<polygon fill="white" stroke="black" points="287.5,-225.5 287.5,-244.5 362.5,-244.5 362.5,-225.5 287.5,-225.5"/>
<text text-anchor="middle" x="325" y="-232.5" font-family="Helvetica,sans-Serif" font-size="10.00">edicao_tarefa</text>
</a>
</g>
</g>
<!-- Node1&#45;&gt;Node3 -->
<g id="edge14" class="edge"><title>Node1&#45;&gt;Node3</title>
<path fill="none" stroke="midnightblue" d="M57.6372,-157.57C71.7682,-174.372 95.4747,-198.888 122,-211 175.649,-235.498 245.265,-238.247 287.185,-237.197"/>
<polygon fill="midnightblue" stroke="midnightblue" points="60.1786,-155.148 51.1562,-149.593 54.7458,-159.562 60.1786,-155.148"/>
</g>
<!-- Node4 -->
<g id="node4" class="node"><title>Node4</title>
<g id="a_node4"><a xlink:href="main_8cc.html#a7769e05575359d89d7467b1e46940ecf" target="_top" xlink:title="editar_tarefa">
<polygon fill="white" stroke="black" points="431.5,-187.5 431.5,-206.5 502.5,-206.5 502.5,-187.5 431.5,-187.5"/>
<text text-anchor="middle" x="467" y="-194.5" font-family="Helvetica,sans-Serif" font-size="10.00">editar_tarefa</text>
</a>
</g>
</g>
<!-- Node1&#45;&gt;Node4 -->
<g id="edge15" class="edge"><title>Node1&#45;&gt;Node4</title>
<path fill="none" stroke="midnightblue" d="M89.1386,-152.041C99.8544,-154.608 111.286,-157.111 122,-159 234.133,-178.766 368.75,-190.091 431.122,-194.641"/>
<polygon fill="midnightblue" stroke="midnightblue" points="89.6775,-148.569 79.1307,-149.577 88.0043,-155.366 89.6775,-148.569"/>
</g>
<!-- Node8 -->
<g id="node8" class="node"><title>Node8</title>
<g id="a_node8"><a xlink:href="main_8cc.html#a16c89e840263b1af21caf3211b6640b2" target="_top" xlink:title="inserir_novo_pre_requisito">
<polygon fill="white" stroke="black" points="402,-147.5 402,-166.5 532,-166.5 532,-147.5 402,-147.5"/>
<text text-anchor="middle" x="467" y="-154.5" font-family="Helvetica,sans-Serif" font-size="10.00">inserir_novo_pre_requisito</text>
</a>
</g>
</g>
<!-- Node1&#45;&gt;Node8 -->
<g id="edge8" class="edge"><title>Node1&#45;&gt;Node8</title>
<path fill="none" stroke="midnightblue" d="M96.4664,-142.114C173.855,-145.231 318.438,-151.056 401.968,-154.421"/>
<polygon fill="midnightblue" stroke="midnightblue" points="96.1386,-138.598 86.0058,-141.692 95.8568,-145.592 96.1386,-138.598"/>
</g>
<!-- Node9 -->
<g id="node9" class="node"><title>Node9</title>
<g id="a_node9"><a xlink:href="main_8cc.html#a5c0ceb9634231b92e0dfc9db33b727fa" target="_top" xlink:title="tela_inserir_pre_requisito">
<polygon fill="white" stroke="black" points="122.5,-111.5 122.5,-130.5 247.5,-130.5 247.5,-111.5 122.5,-111.5"/>
<text text-anchor="middle" x="185" y="-118.5" font-family="Helvetica,sans-Serif" font-size="10.00">tela_inserir_pre_requisito</text>
</a>
</g>
</g>
<!-- Node1&#45;&gt;Node9 -->
<g id="edge10" class="edge"><title>Node1&#45;&gt;Node9</title>
<path fill="none" stroke="midnightblue" d="M96.1847,-132.918C104.715,-131.76 113.623,-130.551 122.355,-129.366"/>
<polygon fill="midnightblue" stroke="midnightblue" points="95.4431,-129.486 86.0046,-134.299 96.3845,-136.423 95.4431,-129.486"/>
</g>
<!-- Node10 -->
<g id="node10" class="node"><title>Node10</title>
<g id="a_node10"><a xlink:href="main_8cc.html#adb3b0c3b009c68f86673eb7bdeef601c" target="_top" xlink:title="inserir_tarefa">
<polygon fill="white" stroke="black" points="288.5,-104.5 288.5,-123.5 361.5,-123.5 361.5,-104.5 288.5,-104.5"/>
<text text-anchor="middle" x="325" y="-111.5" font-family="Helvetica,sans-Serif" font-size="10.00">inserir_tarefa</text>
</a>
</g>
</g>
<!-- Node1&#45;&gt;Node10 -->
<g id="edge13" class="edge"><title>Node1&#45;&gt;Node10</title>
<path fill="none" stroke="midnightblue" d="M67.0855,-125.295C82.0877,-116.633 102.43,-106.513 122,-102 179.168,-88.8151 247.712,-97.939 288.461,-105.877"/>
<polygon fill="midnightblue" stroke="midnightblue" points="65.2746,-122.3 58.4892,-130.437 68.8679,-128.307 65.2746,-122.3"/>
</g>
<!-- Node11 -->
<g id="node11" class="node"><title>Node11</title>
<g id="a_node11"><a xlink:href="main_8cc.html#ab5f698491708904442d9d4f8583cd809" target="_top" xlink:title="remover_tarefa">
<polygon fill="white" stroke="black" points="284,-46.5 284,-65.5 366,-65.5 366,-46.5 284,-46.5"/>
<text text-anchor="middle" x="325" y="-53.5" font-family="Helvetica,sans-Serif" font-size="10.00">remover_tarefa</text>
</a>
</g>
</g>
<!-- Node1&#45;&gt;Node11 -->
<g id="edge16" class="edge"><title>Node1&#45;&gt;Node11</title>
<path fill="none" stroke="midnightblue" d="M63.9785,-124.367C79.084,-113.341 100.781,-99.1382 122,-91 175.669,-70.416 242.016,-61.8738 283.685,-58.3721"/>
<polygon fill="midnightblue" stroke="midnightblue" points="61.8025,-121.624 55.8997,-130.422 66.0007,-127.225 61.8025,-121.624"/>
</g>
<!-- Node12 -->
<g id="node12" class="node"><title>Node12</title>
<g id="a_node12"><a xlink:href="main_8cc.html#ae96b9adf5e390d1a516e3fe5164714cc" target="_top" xlink:title="remover_pre_requisitos">
<polygon fill="white" stroke="black" points="408,-0.5 408,-19.5 526,-19.5 526,-0.5 408,-0.5"/>
<text text-anchor="middle" x="467" y="-7.5" font-family="Helvetica,sans-Serif" font-size="10.00">remover_pre_requisitos</text>
</a>
</g>
</g>
<!-- Node1&#45;&gt;Node12 -->
<g id="edge18" class="edge"><title>Node1&#45;&gt;Node12</title>
<path fill="none" stroke="midnightblue" d="M55.6294,-121.897C69.0957,-102.595 93.1627,-72.8126 122,-58 213.722,-10.8862 336.396,-5.29673 407.747,-6.77904"/>
<polygon fill="midnightblue" stroke="midnightblue" points="52.574,-120.169 49.8957,-130.419 58.3819,-124.076 52.574,-120.169"/>
</g>
<!-- Node2&#45;&gt;Node3 -->
<g id="edge2" class="edge"><title>Node2&#45;&gt;Node3</title>
<path fill="none" stroke="midnightblue" d="M228.875,-261.194C248.297,-255.846 270.958,-249.606 289.29,-244.558"/>
<polygon fill="midnightblue" stroke="midnightblue" points="227.766,-257.869 219.054,-263.898 229.625,-264.618 227.766,-257.869"/>
</g>
<!-- Node3&#45;&gt;Node4 -->
<g id="edge3" class="edge"><title>Node3&#45;&gt;Node4</title>
<path fill="none" stroke="midnightblue" d="M371.195,-222.733C390.647,-217.453 413.035,-211.376 431.168,-206.454"/>
<polygon fill="midnightblue" stroke="midnightblue" points="370.062,-219.414 361.328,-225.411 371.896,-226.169 370.062,-219.414"/>
</g>
<!-- Node5 -->
<g id="node5" class="node"><title>Node5</title>
<g id="a_node5"><a xlink:href="main_8cc.html#af852bc15cf3d5217386a9bb0bf3b9abd" target="_top" xlink:title="operacoes_grafo">
<polygon fill="white" stroke="black" points="568.5,-104.5 568.5,-123.5 657.5,-123.5 657.5,-104.5 568.5,-104.5"/>
<text text-anchor="middle" x="613" y="-111.5" font-family="Helvetica,sans-Serif" font-size="10.00">operacoes_grafo</text>
</a>
</g>
</g>
<!-- Node4&#45;&gt;Node5 -->
<g id="edge4" class="edge"><title>Node4&#45;&gt;Node5</title>
<path fill="none" stroke="midnightblue" d="M512.501,-184.597C519.194,-182.108 525.894,-179.243 532,-176 559.624,-161.33 587.51,-137.086 601.939,-123.674"/>
<polygon fill="midnightblue" stroke="midnightblue" points="511.069,-181.389 502.769,-187.974 513.364,-188.002 511.069,-181.389"/>
</g>
<!-- Node6 -->
<g id="node6" class="node"><title>Node6</title>
<g id="a_node6"><a xlink:href="main_8cc.html#af1ccf694bcf905341f10b534e5a272fa" target="_top" xlink:title="abrir_arquivo">
<polygon fill="white" stroke="black" points="694,-123.5 694,-142.5 766,-142.5 766,-123.5 694,-123.5"/>
<text text-anchor="middle" x="730" y="-130.5" font-family="Helvetica,sans-Serif" font-size="10.00">abrir_arquivo</text>
</a>
</g>
</g>
<!-- Node5&#45;&gt;Node6 -->
<g id="edge5" class="edge"><title>Node5&#45;&gt;Node6</title>
<path fill="none" stroke="midnightblue" d="M667.736,-122.878C676.617,-124.345 685.619,-125.833 693.888,-127.199"/>
<polygon fill="midnightblue" stroke="midnightblue" points="668.241,-119.414 657.805,-121.237 667.1,-126.321 668.241,-119.414"/>
</g>
<!-- Node7 -->
<g id="node7" class="node"><title>Node7</title>
<g id="a_node7"><a xlink:href="main_8cc.html#ae66f6b31b5ad750f1fe042a706a4e3d4" target="_top" xlink:title="main">
<polygon fill="white" stroke="black" points="802,-104.5 802,-123.5 840,-123.5 840,-104.5 802,-104.5"/>
<text text-anchor="middle" x="821" y="-111.5" font-family="Helvetica,sans-Serif" font-size="10.00">main</text>
</a>
</g>
</g>
<!-- Node5&#45;&gt;Node7 -->
<g id="edge7" class="edge"><title>Node5&#45;&gt;Node7</title>
<path fill="none" stroke="midnightblue" d="M667.725,-114C712.01,-114 772.194,-114 801.894,-114"/>
<polygon fill="midnightblue" stroke="midnightblue" points="667.687,-110.5 657.687,-114 667.687,-117.5 667.687,-110.5"/>
</g>
<!-- Node6&#45;&gt;Node7 -->
<g id="edge6" class="edge"><title>Node6&#45;&gt;Node7</title>
<path fill="none" stroke="midnightblue" d="M776.067,-123.379C785.24,-121.421 794.38,-119.469 801.929,-117.858"/>
<polygon fill="midnightblue" stroke="midnightblue" points="775.224,-119.98 766.175,-125.491 776.686,-126.826 775.224,-119.98"/>
</g>
<!-- Node8&#45;&gt;Node5 -->
<g id="edge9" class="edge"><title>Node8&#45;&gt;Node5</title>
<path fill="none" stroke="midnightblue" d="M509.579,-144.584C532.049,-137.874 559.363,-129.718 580.131,-123.516"/>
<polygon fill="midnightblue" stroke="midnightblue" points="508.539,-141.242 499.958,-147.457 510.542,-147.949 508.539,-141.242"/>
</g>
<!-- Node9&#45;&gt;Node10 -->
<g id="edge11" class="edge"><title>Node9&#45;&gt;Node10</title>
<path fill="none" stroke="midnightblue" d="M257.888,-117.354C268.482,-116.816 278.986,-116.283 288.397,-115.806"/>
<polygon fill="midnightblue" stroke="midnightblue" points="257.544,-113.866 247.735,-117.869 257.899,-120.857 257.544,-113.866"/>
</g>
<!-- Node10&#45;&gt;Node5 -->
<g id="edge12" class="edge"><title>Node10&#45;&gt;Node5</title>
<path fill="none" stroke="midnightblue" d="M371.981,-114C426.111,-114 515.339,-114 568.41,-114"/>
<polygon fill="midnightblue" stroke="midnightblue" points="371.644,-110.5 361.644,-114 371.644,-117.5 371.644,-110.5"/>
</g>
<!-- Node11&#45;&gt;Node5 -->
<g id="edge17" class="edge"><title>Node11&#45;&gt;Node5</title>
<path fill="none" stroke="midnightblue" d="M376.187,-66.1779C430.654,-77.2234 516.746,-94.6828 568.459,-105.17"/>
<polygon fill="midnightblue" stroke="midnightblue" points="376.564,-62.6831 366.068,-64.1257 375.173,-69.5435 376.564,-62.6831"/>
</g>
<!-- Node12&#45;&gt;Node5 -->
<g id="edge19" class="edge"><title>Node12&#45;&gt;Node5</title>
<path fill="none" stroke="midnightblue" d="M491.599,-25.3687C503.783,-33.4257 518.818,-43.559 532,-53 556.565,-70.594 584.463,-92.2661 599.971,-104.47"/>
<polygon fill="midnightblue" stroke="midnightblue" points="493.194,-22.2285 482.915,-19.6581 489.347,-28.0771 493.194,-22.2285"/>
</g>
</g>
</svg>
