<?xml version="1.0" encoding="UTF-8" standalone="no"?>
<!DOCTYPE svg PUBLIC "-//W3C//DTD SVG 1.1//EN"
 "http://www.w3.org/Graphics/SVG/1.1/DTD/svg11.dtd">
<!-- Generated by graphviz version 2.36.0 (20140111.2315)
 -->
<!-- Title: TEST Pages: 1 -->
<svg width="394pt" height="104pt"
 viewBox="0.00 0.00 394.00 104.00" xmlns="http://www.w3.org/2000/svg" xmlns:xlink="http://www.w3.org/1999/xlink">
<g id="graph0" class="graph" transform="scale(1 1) rotate(0) translate(4 100)">
<title>TEST</title>
<polygon fill="white" stroke="none" points="-4,4 -4,-100 390,-100 390,4 -4,4"/>
<!-- Node1 -->
<g id="node1" class="node"><title>Node1</title>
<polygon fill="#bfbfbf" stroke="black" points="0,-38.5 0,-57.5 42,-57.5 42,-38.5 0,-38.5"/>
<text text-anchor="middle" x="21" y="-45.5" font-family="Helvetica,sans-Serif" font-size="10.00">TEST</text>
</g>
<!-- Node2 -->
<g id="node2" class="node"><title>Node2</title>
<g id="a_node2"><a xlink:href="grafo_8cc.html#a07e2bda52af22bd5988dfab266b696f3" target="_top" xlink:title="le_grafo">
<polygon fill="white" stroke="black" points="78.5,-38.5 78.5,-57.5 129.5,-57.5 129.5,-38.5 78.5,-38.5"/>
<text text-anchor="middle" x="104" y="-45.5" font-family="Helvetica,sans-Serif" font-size="10.00">le_grafo</text>
</a>
</g>
</g>
<!-- Node1&#45;&gt;Node2 -->
<g id="edge1" class="edge"><title>Node1&#45;&gt;Node2</title>
<path fill="none" stroke="midnightblue" d="M42.0225,-48C49.9018,-48 59.1844,-48 68.0982,-48"/>
<polygon fill="midnightblue" stroke="midnightblue" points="68.2865,-51.5001 78.2865,-48 68.2865,-44.5001 68.2865,-51.5001"/>
</g>
<!-- Node3 -->
<g id="node3" class="node"><title>Node3</title>
<g id="a_node3"><a xlink:href="grafo_8cc.html#aa0ebaaf04a0e9c455c6571246b5c1e15" target="_top" xlink:title="cria_grafo">
<polygon fill="white" stroke="black" points="188.5,-76.5 188.5,-95.5 247.5,-95.5 247.5,-76.5 188.5,-76.5"/>
<text text-anchor="middle" x="218" y="-83.5" font-family="Helvetica,sans-Serif" font-size="10.00">cria_grafo</text>
</a>
</g>
</g>
<!-- Node2&#45;&gt;Node3 -->
<g id="edge2" class="edge"><title>Node2&#45;&gt;Node3</title>
<path fill="none" stroke="midnightblue" d="M129.579,-56.3393C144.083,-61.2604 162.746,-67.5923 179.1,-73.1412"/>
<polygon fill="midnightblue" stroke="midnightblue" points="178.333,-76.5768 188.927,-76.4754 180.582,-69.9479 178.333,-76.5768"/>
</g>
<!-- Node4 -->
<g id="node4" class="node"><title>Node4</title>
<g id="a_node4"><a xlink:href="grafo_8cc.html#a563a8912631e461ec1d9a2bff50426d9" target="_top" xlink:title="insere_tarefa">
<polygon fill="white" stroke="black" points="181.5,-38.5 181.5,-57.5 254.5,-57.5 254.5,-38.5 181.5,-38.5"/>
<text text-anchor="middle" x="218" y="-45.5" font-family="Helvetica,sans-Serif" font-size="10.00">insere_tarefa</text>
</a>
</g>
</g>
<!-- Node2&#45;&gt;Node4 -->
<g id="edge3" class="edge"><title>Node2&#45;&gt;Node4</title>
<path fill="none" stroke="midnightblue" d="M129.579,-48C141.807,-48 156.992,-48 171.256,-48"/>
<polygon fill="midnightblue" stroke="midnightblue" points="171.425,-51.5001 181.425,-48 171.425,-44.5001 171.425,-51.5001"/>
</g>
<!-- Node5 -->
<g id="node5" class="node"><title>Node5</title>
<g id="a_node5"><a xlink:href="grafo_8cc.html#a3fe6389b74d0356a95800a3d29d7d664" target="_top" xlink:title="insere_prerequisitos">
<polygon fill="white" stroke="black" points="166,-0.5 166,-19.5 270,-19.5 270,-0.5 166,-0.5"/>
<text text-anchor="middle" x="218" y="-7.5" font-family="Helvetica,sans-Serif" font-size="10.00">insere_prerequisitos</text>
</a>
</g>
</g>
<!-- Node2&#45;&gt;Node5 -->
<g id="edge4" class="edge"><title>Node2&#45;&gt;Node5</title>
<path fill="none" stroke="midnightblue" d="M129.579,-39.6607C144.083,-34.7396 162.746,-28.4077 179.1,-22.8588"/>
<polygon fill="midnightblue" stroke="midnightblue" points="180.582,-26.0521 188.927,-19.5246 178.333,-19.4232 180.582,-26.0521"/>
</g>
<!-- Node6 -->
<g id="node6" class="node"><title>Node6</title>
<g id="a_node6"><a xlink:href="grafo_8cc.html#a0e6585acadedc05719f93fa778cf1dcb" target="_top" xlink:title="procura_tarefa">
<polygon fill="white" stroke="black" points="306.5,-0.5 306.5,-19.5 385.5,-19.5 385.5,-0.5 306.5,-0.5"/>
<text text-anchor="middle" x="346" y="-7.5" font-family="Helvetica,sans-Serif" font-size="10.00">procura_tarefa</text>
</a>
</g>
</g>
<!-- Node5&#45;&gt;Node6 -->
<g id="edge5" class="edge"><title>Node5&#45;&gt;Node6</title>
<path fill="none" stroke="midnightblue" d="M270.249,-10C278.774,-10 287.597,-10 296.062,-10"/>
<polygon fill="midnightblue" stroke="midnightblue" points="296.168,-13.5001 306.168,-10 296.168,-6.5001 296.168,-13.5001"/>
</g>
</g>
</svg>
