<?xml version="1.0" encoding="UTF-8" standalone="no"?>
<!DOCTYPE svg PUBLIC "-//W3C//DTD SVG 1.1//EN"
 "http://www.w3.org/Graphics/SVG/1.1/DTD/svg11.dtd">
<!-- Generated by graphviz version 2.36.0 (20140111.2315)
 -->
<!-- Title: code/gtest_grafo.cc Pages: 1 -->
<svg width="143pt" height="84pt"
 viewBox="0.00 0.00 143.00 84.00" xmlns="http://www.w3.org/2000/svg" xmlns:xlink="http://www.w3.org/1999/xlink">
<g id="graph0" class="graph" transform="scale(1 1) rotate(0) translate(4 80)">
<title>code/gtest_grafo.cc</title>
<polygon fill="white" stroke="none" points="-4,4 -4,-80 139,-80 139,4 -4,4"/>
<!-- Node1 -->
<g id="node1" class="node"><title>Node1</title>
<polygon fill="#bfbfbf" stroke="black" points="21.5,-56.5 21.5,-75.5 124.5,-75.5 124.5,-56.5 21.5,-56.5"/>
<text text-anchor="middle" x="73" y="-63.5" font-family="Helvetica,sans-Serif" font-size="10.00">code/gtest_grafo.cc</text>
</g>
<!-- Node2 -->
<g id="node2" class="node"><title>Node2</title>
<polygon fill="white" stroke="#bfbfbf" points="-0.5,-0.5 -0.5,-19.5 70.5,-19.5 70.5,-0.5 -0.5,-0.5"/>
<text text-anchor="middle" x="35" y="-7.5" font-family="Helvetica,sans-Serif" font-size="10.00">gtest/gtest.h</text>
</g>
<!-- Node1&#45;&gt;Node2 -->
<g id="edge1" class="edge"><title>Node1&#45;&gt;Node2</title>
<path fill="none" stroke="midnightblue" d="M66.7251,-56.083C61.3575,-48.4554 53.4824,-37.2645 46.9213,-27.9408"/>
<polygon fill="midnightblue" stroke="midnightblue" points="49.7755,-25.9149 41.1582,-19.7511 44.0508,-29.9434 49.7755,-25.9149"/>
</g>
<!-- Node3 -->
<g id="node3" class="node"><title>Node3</title>
<g id="a_node3"><a xlink:href="code_2grafo_8h.html" target="_top" xlink:title="grafo.h">
<polygon fill="white" stroke="black" points="88.5,-0.5 88.5,-19.5 135.5,-19.5 135.5,-0.5 88.5,-0.5"/>
<text text-anchor="middle" x="112" y="-7.5" font-family="Helvetica,sans-Serif" font-size="10.00">grafo.h</text>
</a>
</g>
</g>
<!-- Node1&#45;&gt;Node3 -->
<g id="edge2" class="edge"><title>Node1&#45;&gt;Node3</title>
<path fill="none" stroke="midnightblue" d="M79.4401,-56.083C84.9489,-48.4554 93.0312,-37.2645 99.765,-27.9408"/>
<polygon fill="midnightblue" stroke="midnightblue" points="102.662,-29.9071 105.68,-19.7511 96.9874,-25.8087 102.662,-29.9071"/>
</g>
</g>
</svg>
