<?xml version="1.0" encoding="UTF-8" standalone="no"?>
<!DOCTYPE svg PUBLIC "-//W3C//DTD SVG 1.1//EN"
 "http://www.w3.org/Graphics/SVG/1.1/DTD/svg11.dtd">
<!-- Generated by graphviz version 2.36.0 (20140111.2315)
 -->
<!-- Title: TEST Pages: 1 -->
<svg width="420pt" height="170pt"
 viewBox="0.00 0.00 420.00 170.00" xmlns="http://www.w3.org/2000/svg" xmlns:xlink="http://www.w3.org/1999/xlink">
<g id="graph0" class="graph" transform="scale(1 1) rotate(0) translate(4 166)">
<title>TEST</title>
<polygon fill="white" stroke="none" points="-4,4 -4,-166 416,-166 416,4 -4,4"/>
<!-- Node1 -->
<g id="node1" class="node"><title>Node1</title>
<polygon fill="#bfbfbf" stroke="black" points="0,-76.5 0,-95.5 42,-95.5 42,-76.5 0,-76.5"/>
<text text-anchor="middle" x="21" y="-83.5" font-family="Helvetica,sans-Serif" font-size="10.00">TEST</text>
</g>
<!-- Node2 -->
<g id="node2" class="node"><title>Node2</title>
<g id="a_node2"><a xlink:href="grafo_8cc.html#aa0ebaaf04a0e9c455c6571246b5c1e15" target="_top" xlink:title="cria_grafo">
<polygon fill="white" stroke="black" points="214.5,-142.5 214.5,-161.5 273.5,-161.5 273.5,-142.5 214.5,-142.5"/>
<text text-anchor="middle" x="244" y="-149.5" font-family="Helvetica,sans-Serif" font-size="10.00">cria_grafo</text>
</a>
</g>
</g>
<!-- Node1&#45;&gt;Node2 -->
<g id="edge1" class="edge"><title>Node1&#45;&gt;Node2</title>
<path fill="none" stroke="midnightblue" d="M35.1067,-95.8096C46.0341,-103.519 62.2974,-113.935 78,-120 119.565,-136.055 170.252,-144.342 204.389,-148.416"/>
<polygon fill="midnightblue" stroke="midnightblue" points="204.094,-151.905 214.423,-149.549 204.879,-144.949 204.094,-151.905"/>
</g>
<!-- Node3 -->
<g id="node3" class="node"><title>Node3</title>
<g id="a_node3"><a xlink:href="grafo_8cc.html#a563a8912631e461ec1d9a2bff50426d9" target="_top" xlink:title="insere_tarefa">
<polygon fill="white" stroke="black" points="207.5,-85.5 207.5,-104.5 280.5,-104.5 280.5,-85.5 207.5,-85.5"/>
<text text-anchor="middle" x="244" y="-92.5" font-family="Helvetica,sans-Serif" font-size="10.00">insere_tarefa</text>
</a>
</g>
</g>
<!-- Node1&#45;&gt;Node3 -->
<g id="edge2" class="edge"><title>Node1&#45;&gt;Node3</title>
<path fill="none" stroke="midnightblue" d="M42.0691,-94.5911C52.5623,-98.6221 65.7432,-102.977 78,-105 118.031,-111.606 164.169,-107.866 197.46,-103.192"/>
<polygon fill="midnightblue" stroke="midnightblue" points="197.982,-106.653 207.359,-101.722 196.953,-99.7294 197.982,-106.653"/>
</g>
<!-- Node4 -->
<g id="node4" class="node"><title>Node4</title>
<g id="a_node4"><a xlink:href="grafo_8cc.html#a3fe6389b74d0356a95800a3d29d7d664" target="_top" xlink:title="insere_prerequisitos">
<polygon fill="white" stroke="black" points="192,-47.5 192,-66.5 296,-66.5 296,-47.5 192,-47.5"/>
<text text-anchor="middle" x="244" y="-54.5" font-family="Helvetica,sans-Serif" font-size="10.00">insere_prerequisitos</text>
</a>
</g>
</g>
<!-- Node1&#45;&gt;Node4 -->
<g id="edge3" class="edge"><title>Node1&#45;&gt;Node4</title>
<path fill="none" stroke="midnightblue" d="M42.1248,-77.7176C52.6328,-73.7682 65.81,-69.3926 78,-67 111.777,-60.3703 150.123,-57.7578 181.342,-56.8535"/>
<polygon fill="midnightblue" stroke="midnightblue" points="181.725,-60.3455 191.639,-56.609 181.559,-53.3475 181.725,-60.3455"/>
</g>
<!-- Node6 -->
<g id="node6" class="node"><title>Node6</title>
<g id="a_node6"><a xlink:href="grafo_8cc.html#ac7a63f8753e7dbbb4117e6d4ebaa5933" target="_top" xlink:title="imprime_grafo">
<polygon fill="white" stroke="black" points="78,-0.5 78,-19.5 156,-19.5 156,-0.5 78,-0.5"/>
<text text-anchor="middle" x="117" y="-7.5" font-family="Helvetica,sans-Serif" font-size="10.00">imprime_grafo</text>
</a>
</g>
</g>
<!-- Node1&#45;&gt;Node6 -->
<g id="edge5" class="edge"><title>Node1&#45;&gt;Node6</title>
<path fill="none" stroke="midnightblue" d="M31.4256,-76.218C42.1809,-65.308 60.5455,-47.4308 78,-34 81.9655,-30.9487 86.3287,-27.9201 90.6414,-25.0944"/>
<polygon fill="midnightblue" stroke="midnightblue" points="92.6952,-27.9369 99.2798,-19.6367 88.9562,-22.0191 92.6952,-27.9369"/>
</g>
<!-- Node7 -->
<g id="node7" class="node"><title>Node7</title>
<g id="a_node7"><a xlink:href="grafo_8cc.html#a07e2bda52af22bd5988dfab266b696f3" target="_top" xlink:title="le_grafo">
<polygon fill="white" stroke="black" points="91.5,-76.5 91.5,-95.5 142.5,-95.5 142.5,-76.5 91.5,-76.5"/>
<text text-anchor="middle" x="117" y="-83.5" font-family="Helvetica,sans-Serif" font-size="10.00">le_grafo</text>
</a>
</g>
</g>
<!-- Node1&#45;&gt;Node7 -->
<g id="edge6" class="edge"><title>Node1&#45;&gt;Node7</title>
<path fill="none" stroke="midnightblue" d="M42.3966,-86C53.7299,-86 68.1405,-86 81.2007,-86"/>
<polygon fill="midnightblue" stroke="midnightblue" points="81.3007,-89.5001 91.3007,-86 81.3007,-82.5001 81.3007,-89.5001"/>
</g>
<!-- Node5 -->
<g id="node5" class="node"><title>Node5</title>
<g id="a_node5"><a xlink:href="grafo_8cc.html#a0e6585acadedc05719f93fa778cf1dcb" target="_top" xlink:title="procura_tarefa">
<polygon fill="white" stroke="black" points="332.5,-47.5 332.5,-66.5 411.5,-66.5 411.5,-47.5 332.5,-47.5"/>
<text text-anchor="middle" x="372" y="-54.5" font-family="Helvetica,sans-Serif" font-size="10.00">procura_tarefa</text>
</a>
</g>
</g>
<!-- Node4&#45;&gt;Node5 -->
<g id="edge4" class="edge"><title>Node4&#45;&gt;Node5</title>
<path fill="none" stroke="midnightblue" d="M296.249,-57C304.774,-57 313.597,-57 322.062,-57"/>
<polygon fill="midnightblue" stroke="midnightblue" points="322.168,-60.5001 332.168,-57 322.168,-53.5001 322.168,-60.5001"/>
</g>
<!-- Node7&#45;&gt;Node2 -->
<g id="edge7" class="edge"><title>Node7&#45;&gt;Node2</title>
<path fill="none" stroke="midnightblue" d="M136.176,-95.597C157.098,-106.644 191.672,-124.899 215.802,-137.639"/>
<polygon fill="midnightblue" stroke="midnightblue" points="214.325,-140.817 224.802,-142.391 217.593,-134.627 214.325,-140.817"/>
</g>
<!-- Node7&#45;&gt;Node3 -->
<g id="edge8" class="edge"><title>Node7&#45;&gt;Node3</title>
<path fill="none" stroke="midnightblue" d="M142.696,-87.7781C158.305,-88.9019 178.952,-90.3885 197.454,-91.7207"/>
<polygon fill="midnightblue" stroke="midnightblue" points="197.242,-95.2144 207.467,-92.4417 197.745,-88.2325 197.242,-95.2144"/>
</g>
<!-- Node7&#45;&gt;Node4 -->
<g id="edge9" class="edge"><title>Node7&#45;&gt;Node4</title>
<path fill="none" stroke="midnightblue" d="M142.696,-80.2705C156.733,-77.014 174.844,-72.8122 191.806,-68.877"/>
<polygon fill="midnightblue" stroke="midnightblue" points="192.671,-72.2694 201.621,-66.5999 191.089,-65.4506 192.671,-72.2694"/>
</g>
</g>
</svg>
