<?xml version="1.0" encoding="UTF-8" standalone="no"?>
<!DOCTYPE svg PUBLIC "-//W3C//DTD SVG 1.1//EN"
 "http://www.w3.org/Graphics/SVG/1.1/DTD/svg11.dtd">
<!-- Generated by graphviz version 2.36.0 (20140111.2315)
 -->
<!-- Title: procura_tarefa Pages: 1 -->
<!--zoomable 180 -->
<svg id="main" version="1.1" xmlns="http://www.w3.org/2000/svg" xmlns:xlink="http://www.w3.org/1999/xlink" xml:space="preserve" onload="init(evt)">
<style type="text/css"><![CDATA[
.edge:hover path { stroke: red; }
.edge:hover polygon { stroke: red; fill: red; }
]]></style>
<script type="text/javascript"><![CDATA[
var edges = document.getElementsByTagName('g');
if (edges && edges.length) {
  for (var i=0;i<edges.length;i++) {
    if (edges[i].id.substr(0,4)=='edge') {
      edges[i].setAttribute('class','edge');
    }
  }
}
]]></script>
        <defs>
                <circle id="rim" cx="0" cy="0" r="7"/>
                <circle id="rim2" cx="0" cy="0" r="3.5"/>
                <g id="zoomPlus">
                        <use xlink:href="#rim" fill="#404040">
                                <set attributeName="fill" to="#808080" begin="zoomplus.mouseover" end="zoomplus.mouseout"/>
                        </use>
                        <path d="M-4,0h8M0,-4v8" fill="none" stroke="white" stroke-width="1.5" pointer-events="none"/>
                </g>
                <g id="zoomMin">
                        <use xlink:href="#rim" fill="#404040">
                                <set attributeName="fill" to="#808080" begin="zoomminus.mouseover" end="zoomminus.mouseout"/>
                        </use>
                        <path d="M-4,0h8" fill="none" stroke="white" stroke-width="1.5" pointer-events="none"/>
                </g>
                <g id="dirArrow">
                        <path fill="none" stroke="white" stroke-width="1.5" d="M0,-3.0v7 M-2.5,-0.5L0,-3.0L2.5,-0.5"/>
                </g>
               <g id="resetDef">
                       <use xlink:href="#rim2" fill="#404040">
                               <set attributeName="fill" to="#808080" begin="reset.mouseover" end="reset.mouseout"/>
                       </use>
               </g>
        </defs>

<script type="text/javascript">
var viewWidth = 976;
var viewHeight = 180;
var sectionId = 'dynsection-9';
</script>
<script xlink:href="svgpan.js"/>
<svg id="graph" class="graph">
<g id="viewport">
<title>procura_tarefa</title>
<polygon fill="white" stroke="none" points="-4,4 -4,-176 972,-176 972,4 -4,4"/>
<!-- Node1 -->
<g id="node1" class="node"><title>Node1</title>
<polygon fill="#bfbfbf" stroke="black" points="0.5,-113.5 0.5,-132.5 79.5,-132.5 79.5,-113.5 0.5,-113.5"/>
<text text-anchor="middle" x="40" y="-120.5" font-family="Helvetica,sans-Serif" font-size="10.00">procura_tarefa</text>
</g>
<!-- Node2 -->
<g id="node2" class="node"><title>Node2</title>
<g id="a_node2"><a xlink:href="include_2grafo_8h.html#a3fe6389b74d0356a95800a3d29d7d664" target="_top" xlink:title="insere_prerequisitos">
<polygon fill="white" stroke="black" points="116,-85.5 116,-104.5 220,-104.5 220,-85.5 116,-85.5"/>
<text text-anchor="middle" x="168" y="-92.5" font-family="Helvetica,sans-Serif" font-size="10.00">insere_prerequisitos</text>
</a>
</g>
</g>
<!-- Node1&#45;&gt;Node2 -->
<g id="edge1" class="edge"><title>Node1&#45;&gt;Node2</title>
<path fill="none" stroke="midnightblue" d="M89.6169,-112.196C100.99,-109.669 113.024,-106.995 124.126,-104.527"/>
<polygon fill="midnightblue" stroke="midnightblue" points="88.8349,-108.785 79.8323,-114.371 90.3534,-115.618 88.8349,-108.785"/>
</g>
<!-- Node13 -->
<g id="node13" class="node"><title>Node13</title>
<g id="a_node13"><a xlink:href="main_8cc.html#a5c0ceb9634231b92e0dfc9db33b727fa" target="_top" xlink:title="tela_inserir_pre_requisito">
<polygon fill="white" stroke="black" points="256.5,-152.5 256.5,-171.5 381.5,-171.5 381.5,-152.5 256.5,-152.5"/>
<text text-anchor="middle" x="319" y="-159.5" font-family="Helvetica,sans-Serif" font-size="10.00">tela_inserir_pre_requisito</text>
</a>
</g>
</g>
<!-- Node1&#45;&gt;Node13 -->
<g id="edge18" class="edge"><title>Node1&#45;&gt;Node13</title>
<path fill="none" stroke="midnightblue" d="M89.6178,-129.845C136.017,-136.378 206.107,-146.246 256.396,-153.326"/>
<polygon fill="midnightblue" stroke="midnightblue" points="89.906,-126.351 79.5157,-128.423 88.93,-133.283 89.906,-126.351"/>
</g>
<!-- Node3 -->
<g id="node3" class="node"><title>Node3</title>
<g id="a_node3"><a xlink:href="include_2grafo_8h.html#adaeb2e2aa0bf8a2fbb149376a33bd443" target="_top" xlink:title="edita_tarefa">
<polygon fill="white" stroke="black" points="285,-76.5 285,-95.5 353,-95.5 353,-76.5 285,-76.5"/>
<text text-anchor="middle" x="319" y="-83.5" font-family="Helvetica,sans-Serif" font-size="10.00">edita_tarefa</text>
</a>
</g>
</g>
<!-- Node2&#45;&gt;Node3 -->
<g id="edge2" class="edge"><title>Node2&#45;&gt;Node3</title>
<path fill="none" stroke="midnightblue" d="M230.477,-91.2866C249.099,-90.1618 268.842,-88.9693 284.854,-88.0021"/>
<polygon fill="midnightblue" stroke="midnightblue" points="230.048,-87.8061 220.277,-91.9027 230.47,-94.7933 230.048,-87.8061"/>
</g>
<!-- Node9 -->
<g id="node9" class="node"><title>Node9</title>
<g id="a_node9"><a xlink:href="code_2grafo_8h.html#a0a4567a2f65956112b02ab39cbdeb152" target="_top" xlink:title="le_grafo">
<polygon fill="white" stroke="black" points="293.5,-0.5 293.5,-19.5 344.5,-19.5 344.5,-0.5 293.5,-0.5"/>
<text text-anchor="middle" x="319" y="-7.5" font-family="Helvetica,sans-Serif" font-size="10.00">le_grafo</text>
</a>
</g>
</g>
<!-- Node2&#45;&gt;Node9 -->
<g id="edge9" class="edge"><title>Node2&#45;&gt;Node9</title>
<path fill="none" stroke="midnightblue" d="M187.008,-78.2913C203.762,-63.5231 229.989,-42.3168 256,-29 267.725,-22.9973 281.683,-18.5128 293.383,-15.4126"/>
<polygon fill="midnightblue" stroke="midnightblue" points="184.254,-76.0608 179.161,-85.3514 188.936,-81.2645 184.254,-76.0608"/>
</g>
<!-- Node11 -->
<g id="node11" class="node"><title>Node11</title>
<g id="a_node11"><a xlink:href="gtest__grafo_8cc.html#a207d91b43a907a510504a2f7d4c3ae7d" target="_top" xlink:title="TEST">
<polygon fill="white" stroke="black" points="298,-38.5 298,-57.5 340,-57.5 340,-38.5 298,-38.5"/>
<text text-anchor="middle" x="319" y="-45.5" font-family="Helvetica,sans-Serif" font-size="10.00">TEST</text>
</a>
</g>
</g>
<!-- Node2&#45;&gt;Node11 -->
<g id="edge12" class="edge"><title>Node2&#45;&gt;Node11</title>
<path fill="none" stroke="midnightblue" d="M208.293,-82.2253C223.217,-77.4071 240.38,-71.9068 256,-67 269.963,-62.6139 285.733,-57.7829 297.874,-54.0898"/>
<polygon fill="midnightblue" stroke="midnightblue" points="206.802,-79.0287 198.365,-85.4363 208.957,-85.6891 206.802,-79.0287"/>
</g>
<!-- Node12 -->
<g id="node12" class="node"><title>Node12</title>
<g id="a_node12"><a xlink:href="main_8cc.html#a16c89e840263b1af21caf3211b6640b2" target="_top" xlink:title="inserir_novo_pre_requisito">
<polygon fill="white" stroke="black" points="530,-114.5 530,-133.5 660,-133.5 660,-114.5 530,-114.5"/>
<text text-anchor="middle" x="595" y="-121.5" font-family="Helvetica,sans-Serif" font-size="10.00">inserir_novo_pre_requisito</text>
</a>
</g>
</g>
<!-- Node2&#45;&gt;Node12 -->
<g id="edge13" class="edge"><title>Node2&#45;&gt;Node12</title>
<path fill="none" stroke="midnightblue" d="M230.108,-102.479C238.791,-103.409 247.616,-104.283 256,-105 351.159,-113.137 461.7,-118.599 529.753,-121.504"/>
<polygon fill="midnightblue" stroke="midnightblue" points="230.337,-98.9829 220.014,-101.367 229.571,-105.941 230.337,-98.9829"/>
</g>
<!-- Node2&#45;&gt;Node13 -->
<g id="edge15" class="edge"><title>Node2&#45;&gt;Node13</title>
<path fill="none" stroke="midnightblue" d="M196.425,-109.343C213.405,-118.025 235.758,-129.101 256,-138 267.623,-143.11 280.704,-148.259 291.845,-152.471"/>
<polygon fill="midnightblue" stroke="midnightblue" points="197.598,-106.01 187.105,-104.542 194.393,-112.233 197.598,-106.01"/>
</g>
<!-- Node4 -->
<g id="node4" class="node"><title>Node4</title>
<g id="a_node4"><a xlink:href="main_8cc.html#a8d8002aa0f76981dad9ce30329767981" target="_top" xlink:title="edicao_tarefa">
<polygon fill="white" stroke="black" points="418.5,-76.5 418.5,-95.5 493.5,-95.5 493.5,-76.5 418.5,-76.5"/>
<text text-anchor="middle" x="456" y="-83.5" font-family="Helvetica,sans-Serif" font-size="10.00">edicao_tarefa</text>
</a>
</g>
</g>
<!-- Node3&#45;&gt;Node4 -->
<g id="edge3" class="edge"><title>Node3&#45;&gt;Node4</title>
<path fill="none" stroke="midnightblue" d="M363.093,-86C380.776,-86 401.042,-86 418.035,-86"/>
<polygon fill="midnightblue" stroke="midnightblue" points="363.025,-82.5001 353.025,-86 363.025,-89.5001 363.025,-82.5001"/>
</g>
<!-- Node5 -->
<g id="node5" class="node"><title>Node5</title>
<g id="a_node5"><a xlink:href="main_8cc.html#a7769e05575359d89d7467b1e46940ecf" target="_top" xlink:title="editar_tarefa">
<polygon fill="white" stroke="black" points="559.5,-76.5 559.5,-95.5 630.5,-95.5 630.5,-76.5 559.5,-76.5"/>
<text text-anchor="middle" x="595" y="-83.5" font-family="Helvetica,sans-Serif" font-size="10.00">editar_tarefa</text>
</a>
</g>
</g>
<!-- Node4&#45;&gt;Node5 -->
<g id="edge4" class="edge"><title>Node4&#45;&gt;Node5</title>
<path fill="none" stroke="midnightblue" d="M503.79,-86C521.905,-86 542.279,-86 559.075,-86"/>
<polygon fill="midnightblue" stroke="midnightblue" points="503.714,-82.5001 493.713,-86 503.713,-89.5001 503.714,-82.5001"/>
</g>
<!-- Node6 -->
<g id="node6" class="node"><title>Node6</title>
<g id="a_node6"><a xlink:href="main_8cc.html#af852bc15cf3d5217386a9bb0bf3b9abd" target="_top" xlink:title="operacoes_grafo">
<polygon fill="white" stroke="black" points="696.5,-95.5 696.5,-114.5 785.5,-114.5 785.5,-95.5 696.5,-95.5"/>
<text text-anchor="middle" x="741" y="-102.5" font-family="Helvetica,sans-Serif" font-size="10.00">operacoes_grafo</text>
</a>
</g>
</g>
<!-- Node5&#45;&gt;Node6 -->
<g id="edge5" class="edge"><title>Node5&#45;&gt;Node6</title>
<path fill="none" stroke="midnightblue" d="M640.942,-91.9298C658.636,-94.2644 678.881,-96.9357 696.438,-99.2522"/>
<polygon fill="midnightblue" stroke="midnightblue" points="641.23,-88.4376 630.858,-90.5994 640.315,-95.3775 641.23,-88.4376"/>
</g>
<!-- Node7 -->
<g id="node7" class="node"><title>Node7</title>
<g id="a_node7"><a xlink:href="main_8cc.html#af1ccf694bcf905341f10b534e5a272fa" target="_top" xlink:title="abrir_arquivo">
<polygon fill="white" stroke="black" points="822,-57.5 822,-76.5 894,-76.5 894,-57.5 822,-57.5"/>
<text text-anchor="middle" x="858" y="-64.5" font-family="Helvetica,sans-Serif" font-size="10.00">abrir_arquivo</text>
</a>
</g>
</g>
<!-- Node6&#45;&gt;Node7 -->
<g id="edge6" class="edge"><title>Node6&#45;&gt;Node7</title>
<path fill="none" stroke="midnightblue" d="M780.815,-92.1741C796.246,-87.0753 813.691,-81.3109 827.99,-76.5859"/>
<polygon fill="midnightblue" stroke="midnightblue" points="779.416,-88.9502 771.019,-95.411 781.613,-95.5967 779.416,-88.9502"/>
</g>
<!-- Node8 -->
<g id="node8" class="node"><title>Node8</title>
<g id="a_node8"><a xlink:href="main_8cc.html#ae66f6b31b5ad750f1fe042a706a4e3d4" target="_top" xlink:title="main">
<polygon fill="white" stroke="black" points="930,-76.5 930,-95.5 968,-95.5 968,-76.5 930,-76.5"/>
<text text-anchor="middle" x="949" y="-83.5" font-family="Helvetica,sans-Serif" font-size="10.00">main</text>
</a>
</g>
</g>
<!-- Node6&#45;&gt;Node8 -->
<g id="edge8" class="edge"><title>Node6&#45;&gt;Node8</title>
<path fill="none" stroke="midnightblue" d="M795.725,-100.045C840.01,-95.9602 900.194,-90.4092 929.894,-87.67"/>
<polygon fill="midnightblue" stroke="midnightblue" points="795.324,-96.5669 785.687,-100.971 795.967,-103.537 795.324,-96.5669"/>
</g>
<!-- Node7&#45;&gt;Node8 -->
<g id="edge7" class="edge"><title>Node7&#45;&gt;Node8</title>
<path fill="none" stroke="midnightblue" d="M904.067,-76.6211C913.24,-78.5793 922.38,-80.5306 929.929,-82.1422"/>
<polygon fill="midnightblue" stroke="midnightblue" points="904.686,-73.1743 894.175,-74.5093 903.224,-80.02 904.686,-73.1743"/>
</g>
<!-- Node9&#45;&gt;Node7 -->
<g id="edge11" class="edge"><title>Node9&#45;&gt;Node7</title>
<path fill="none" stroke="midnightblue" d="M354.989,-13.714C452.108,-24.0227 724.261,-52.9104 821.724,-63.2556"/>
<polygon fill="midnightblue" stroke="midnightblue" points="355.137,-10.2101 344.824,-12.6349 354.398,-17.171 355.137,-10.2101"/>
</g>
<!-- Node10 -->
<g id="node10" class="node"><title>Node10</title>
<g id="a_node10"><a xlink:href="gtest__grafo_8cc.html#acdd61f8b660ae6979528c7e3da0e134d" target="_top" xlink:title="TEST">
<polygon fill="white" stroke="black" points="435,-38.5 435,-57.5 477,-57.5 477,-38.5 435,-38.5"/>
<text text-anchor="middle" x="456" y="-45.5" font-family="Helvetica,sans-Serif" font-size="10.00">TEST</text>
</a>
</g>
</g>
<!-- Node9&#45;&gt;Node10 -->
<g id="edge10" class="edge"><title>Node9&#45;&gt;Node10</title>
<path fill="none" stroke="midnightblue" d="M354.398,-19.6823C379.824,-26.8394 413.579,-36.3409 434.798,-42.3136"/>
<polygon fill="midnightblue" stroke="midnightblue" points="355.335,-16.3103 344.761,-16.9698 353.439,-23.0485 355.335,-16.3103"/>
</g>
<!-- Node12&#45;&gt;Node6 -->
<g id="edge14" class="edge"><title>Node12&#45;&gt;Node6</title>
<path fill="none" stroke="midnightblue" d="M670.407,-114.182C679.26,-113.014 688.065,-111.853 696.285,-110.768"/>
<polygon fill="midnightblue" stroke="midnightblue" points="669.875,-110.722 660.419,-115.5 670.791,-117.662 669.875,-110.722"/>
</g>
<!-- Node14 -->
<g id="node14" class="node"><title>Node14</title>
<g id="a_node14"><a xlink:href="main_8cc.html#adb3b0c3b009c68f86673eb7bdeef601c" target="_top" xlink:title="inserir_tarefa">
<polygon fill="white" stroke="black" points="558.5,-152.5 558.5,-171.5 631.5,-171.5 631.5,-152.5 558.5,-152.5"/>
<text text-anchor="middle" x="595" y="-159.5" font-family="Helvetica,sans-Serif" font-size="10.00">inserir_tarefa</text>
</a>
</g>
</g>
<!-- Node13&#45;&gt;Node14 -->
<g id="edge16" class="edge"><title>Node13&#45;&gt;Node14</title>
<path fill="none" stroke="midnightblue" d="M391.964,-162C445.54,-162 516.395,-162 558.388,-162"/>
<polygon fill="midnightblue" stroke="midnightblue" points="391.833,-158.5 381.833,-162 391.833,-165.5 391.833,-158.5"/>
</g>
<!-- Node14&#45;&gt;Node6 -->
<g id="edge17" class="edge"><title>Node14&#45;&gt;Node6</title>
<path fill="none" stroke="midnightblue" d="M641.356,-149.487C647.67,-147.47 654.034,-145.287 660,-143 681.824,-134.635 705.935,-122.807 721.923,-114.577"/>
<polygon fill="midnightblue" stroke="midnightblue" points="640.064,-146.223 631.539,-152.513 642.126,-152.912 640.064,-146.223"/>
</g>
</g>
</svg>
        <g id="navigator" transform="translate(0 0)" fill="#404254">
                <rect fill="#f2f5e9" fill-opacity="0.5" stroke="#606060" stroke-width=".5" x="0" y="0" width="60" height="60"/>
                <use id="zoomplus" xlink:href="#zoomPlus" x="17" y="9" onmousedown="handleZoom(evt,'in')"/>
                <use id="zoomminus" xlink:href="#zoomMin" x="42" y="9" onmousedown="handleZoom(evt,'out')"/>
                <use id="reset" xlink:href="#resetDef" x="30" y="36" onmousedown="handleReset()"/>
                <g id="arrowUp" xlink:href="#dirArrow" transform="translate(30 24)" onmousedown="handlePan(0,-1)">
                  <use xlink:href="#rim" fill="#404040">
                        <set attributeName="fill" to="#808080" begin="arrowUp.mouseover" end="arrowUp.mouseout"/>
                  </use>
                  <path fill="none" stroke="white" stroke-width="1.5" d="M0,-3.0v7 M-2.5,-0.5L0,-3.0L2.5,-0.5"/>
                </g>
                <g id="arrowRight" xlink:href="#dirArrow" transform="rotate(90) translate(36 -43)" onmousedown="handlePan(1,0)">
                  <use xlink:href="#rim" fill="#404040">
                        <set attributeName="fill" to="#808080" begin="arrowRight.mouseover" end="arrowRight.mouseout"/>
                  </use>
                  <path fill="none" stroke="white" stroke-width="1.5" d="M0,-3.0v7 M-2.5,-0.5L0,-3.0L2.5,-0.5"/>
                </g>
                <g id="arrowDown" xlink:href="#dirArrow" transform="rotate(180) translate(-30 -48)" onmousedown="handlePan(0,1)">
                  <use xlink:href="#rim" fill="#404040">
                        <set attributeName="fill" to="#808080" begin="arrowDown.mouseover" end="arrowDown.mouseout"/>
                  </use>
                  <path fill="none" stroke="white" stroke-width="1.5" d="M0,-3.0v7 M-2.5,-0.5L0,-3.0L2.5,-0.5"/>
                </g>
                <g id="arrowLeft" xlink:href="#dirArrow" transform="rotate(270) translate(-36 17)" onmousedown="handlePan(-1,0)">
                  <use xlink:href="#rim" fill="#404040">
                        <set attributeName="fill" to="#808080" begin="arrowLeft.mouseover" end="arrowLeft.mouseout"/>
                  </use>
                  <path fill="none" stroke="white" stroke-width="1.5" d="M0,-3.0v7 M-2.5,-0.5L0,-3.0L2.5,-0.5"/>
                </g>
        </g>
        <svg viewBox="0 0 15 15" width="100%" height="30px" preserveAspectRatio="xMaxYMin meet">
         <g id="arrow_out" transform="scale(0.3 0.3)">
          <a xlink:href="include_2grafo_8h_a0e6585acadedc05719f93fa778cf1dcb_icgraph_org.svg" target="_base">
           <rect id="button" ry="5" rx="5" y="6" x="6" height="38" width="38"
                fill="#f2f5e9" fill-opacity="0.5" stroke="#606060" stroke-width="1.0"/>
           <path id="arrow"
             d="M 11.500037,31.436501 C 11.940474,20.09759 22.043105,11.32322 32.158766,21.979434 L 37.068811,17.246167 C 37.068811,17.246167 37.088388,32 37.088388,32 L 22.160133,31.978069 C 22.160133,31.978069 26.997745,27.140456 26.997745,27.140456 C 18.528582,18.264221 13.291696,25.230495 11.500037,31.436501 z"
             style="fill:#404040;"/>
          </a>
         </g>
        </svg>
</svg>
