<?xml version="1.0" encoding="UTF-8" standalone="no"?>
<!DOCTYPE svg PUBLIC "-//W3C//DTD SVG 1.1//EN"
 "http://www.w3.org/Graphics/SVG/1.1/DTD/svg11.dtd">
<!-- Generated by graphviz version 2.36.0 (20140111.2315)
 -->
<!-- Title: procura_tarefa Pages: 1 -->
<svg width="1034pt" height="218pt"
 viewBox="0.00 0.00 1034.00 218.00" xmlns="http://www.w3.org/2000/svg" xmlns:xlink="http://www.w3.org/1999/xlink">
<g id="graph0" class="graph" transform="scale(1 1) rotate(0) translate(4 214)">
<title>procura_tarefa</title>
<polygon fill="white" stroke="none" points="-4,4 -4,-214 1030,-214 1030,4 -4,4"/>
<!-- Node1 -->
<g id="node1" class="node"><title>Node1</title>
<polygon fill="#bfbfbf" stroke="black" points="0.5,-38.5 0.5,-57.5 79.5,-57.5 79.5,-38.5 0.5,-38.5"/>
<text text-anchor="middle" x="40" y="-45.5" font-family="Helvetica,sans-Serif" font-size="10.00">procura_tarefa</text>
</g>
<!-- Node2 -->
<g id="node2" class="node"><title>Node2</title>
<g id="a_node2"><a xlink:href="include_2grafo_8h.html#a3fe6389b74d0356a95800a3d29d7d664" target="_top" xlink:title="insere_prerequisitos">
<polygon fill="white" stroke="black" points="127,-95.5 127,-114.5 231,-114.5 231,-95.5 127,-95.5"/>
<text text-anchor="middle" x="179" y="-102.5" font-family="Helvetica,sans-Serif" font-size="10.00">insere_prerequisitos</text>
</a>
</g>
</g>
<!-- Node1&#45;&gt;Node2 -->
<g id="edge1" class="edge"><title>Node1&#45;&gt;Node2</title>
<path fill="none" stroke="midnightblue" d="M73.3976,-61.4793C98.4939,-71.9208 132.642,-86.1285 154.994,-95.4284"/>
<polygon fill="midnightblue" stroke="midnightblue" points="74.508,-58.1505 63.9307,-57.5405 71.819,-64.6134 74.508,-58.1505"/>
</g>
<!-- Node13 -->
<g id="node13" class="node"><title>Node13</title>
<g id="a_node13"><a xlink:href="main_8cc.html#a5c0ceb9634231b92e0dfc9db33b727fa" target="_top" xlink:title="tela_inserir_pre_requisito">
<polygon fill="white" stroke="black" points="282.5,-38.5 282.5,-57.5 407.5,-57.5 407.5,-38.5 282.5,-38.5"/>
<text text-anchor="middle" x="345" y="-45.5" font-family="Helvetica,sans-Serif" font-size="10.00">tela_inserir_pre_requisito</text>
</a>
</g>
</g>
<!-- Node1&#45;&gt;Node13 -->
<g id="edge18" class="edge"><title>Node1&#45;&gt;Node13</title>
<path fill="none" stroke="midnightblue" d="M89.7332,-48C142.139,-48 225.58,-48 282.475,-48"/>
<polygon fill="midnightblue" stroke="midnightblue" points="89.683,-44.5001 79.6829,-48 89.6829,-51.5001 89.683,-44.5001"/>
</g>
<!-- Node15 -->
<g id="node15" class="node"><title>Node15</title>
<g id="a_node15"><a xlink:href="main_8cc.html#aaaa25a5b0eda0fab944a03026249b324" target="_top" xlink:title="mostrar_tarefas_filtradas">
<polygon fill="white" stroke="black" points="116.5,-0.5 116.5,-19.5 241.5,-19.5 241.5,-0.5 116.5,-0.5"/>
<text text-anchor="middle" x="179" y="-7.5" font-family="Helvetica,sans-Serif" font-size="10.00">mostrar_tarefas_filtradas</text>
</a>
</g>
</g>
<!-- Node1&#45;&gt;Node15 -->
<g id="edge19" class="edge"><title>Node1&#45;&gt;Node15</title>
<path fill="none" stroke="midnightblue" d="M85.4108,-35.6817C104.234,-30.4607 125.838,-24.4684 143.44,-19.5859"/>
<polygon fill="midnightblue" stroke="midnightblue" points="84.2716,-32.3654 75.5709,-38.411 86.1426,-39.1108 84.2716,-32.3654"/>
</g>
<!-- Node3 -->
<g id="node3" class="node"><title>Node3</title>
<g id="a_node3"><a xlink:href="include_2grafo_8h.html#adaeb2e2aa0bf8a2fbb149376a33bd443" target="_top" xlink:title="edita_tarefa">
<polygon fill="white" stroke="black" points="311,-114.5 311,-133.5 379,-133.5 379,-114.5 311,-114.5"/>
<text text-anchor="middle" x="345" y="-121.5" font-family="Helvetica,sans-Serif" font-size="10.00">edita_tarefa</text>
</a>
</g>
</g>
<!-- Node2&#45;&gt;Node3 -->
<g id="edge2" class="edge"><title>Node2&#45;&gt;Node3</title>
<path fill="none" stroke="midnightblue" d="M241.677,-112.146C265.146,-114.865 290.986,-117.858 310.828,-120.157"/>
<polygon fill="midnightblue" stroke="midnightblue" points="241.777,-108.634 231.441,-110.96 240.971,-115.587 241.777,-108.634"/>
</g>
<!-- Node9 -->
<g id="node9" class="node"><title>Node9</title>
<g id="a_node9"><a xlink:href="code_2grafo_8h.html#a0a4567a2f65956112b02ab39cbdeb152" target="_top" xlink:title="le_grafo">
<polygon fill="white" stroke="black" points="319.5,-190.5 319.5,-209.5 370.5,-209.5 370.5,-190.5 319.5,-190.5"/>
<text text-anchor="middle" x="345" y="-197.5" font-family="Helvetica,sans-Serif" font-size="10.00">le_grafo</text>
</a>
</g>
</g>
<!-- Node2&#45;&gt;Node9 -->
<g id="edge9" class="edge"><title>Node2&#45;&gt;Node9</title>
<path fill="none" stroke="midnightblue" d="M197.051,-121.543C215.576,-138.676 246.73,-165.117 278,-181 290.97,-187.588 306.567,-192.212 319.342,-195.247"/>
<polygon fill="midnightblue" stroke="midnightblue" points="199.375,-118.925 189.697,-114.614 194.574,-124.019 199.375,-118.925"/>
</g>
<!-- Node11 -->
<g id="node11" class="node"><title>Node11</title>
<g id="a_node11"><a xlink:href="gtest__grafo_8cc.html#a207d91b43a907a510504a2f7d4c3ae7d" target="_top" xlink:title="TEST">
<polygon fill="white" stroke="black" points="324,-152.5 324,-171.5 366,-171.5 366,-152.5 324,-152.5"/>
<text text-anchor="middle" x="345" y="-159.5" font-family="Helvetica,sans-Serif" font-size="10.00">TEST</text>
</a>
</g>
</g>
<!-- Node2&#45;&gt;Node11 -->
<g id="edge12" class="edge"><title>Node2&#45;&gt;Node11</title>
<path fill="none" stroke="midnightblue" d="M212.518,-118.452C231.468,-126.079 255.912,-135.555 278,-143 293.254,-148.141 310.774,-153.144 323.928,-156.724"/>
<polygon fill="midnightblue" stroke="midnightblue" points="213.733,-115.168 203.15,-114.653 211.102,-121.655 213.733,-115.168"/>
</g>
<!-- Node12 -->
<g id="node12" class="node"><title>Node12</title>
<g id="a_node12"><a xlink:href="main_8cc.html#a16c89e840263b1af21caf3211b6640b2" target="_top" xlink:title="inserir_novo_pre_requisito">
<polygon fill="white" stroke="black" points="588,-76.5 588,-95.5 718,-95.5 718,-76.5 588,-76.5"/>
<text text-anchor="middle" x="653" y="-83.5" font-family="Helvetica,sans-Serif" font-size="10.00">inserir_novo_pre_requisito</text>
</a>
</g>
</g>
<!-- Node2&#45;&gt;Node12 -->
<g id="edge13" class="edge"><title>Node2&#45;&gt;Node12</title>
<path fill="none" stroke="midnightblue" d="M241.423,-102.527C331.032,-98.9203 496.815,-92.2469 587.908,-88.58"/>
<polygon fill="midnightblue" stroke="midnightblue" points="241.262,-99.031 231.411,-102.93 241.544,-106.025 241.262,-99.031"/>
</g>
<!-- Node2&#45;&gt;Node13 -->
<g id="edge15" class="edge"><title>Node2&#45;&gt;Node13</title>
<path fill="none" stroke="midnightblue" d="M217.198,-92.0715C247.373,-81.5836 289.23,-67.0361 316.461,-57.5716"/>
<polygon fill="midnightblue" stroke="midnightblue" points="215.747,-88.8704 207.45,-95.4595 218.045,-95.4825 215.747,-88.8704"/>
</g>
<!-- Node4 -->
<g id="node4" class="node"><title>Node4</title>
<g id="a_node4"><a xlink:href="main_8cc.html#a8d8002aa0f76981dad9ce30329767981" target="_top" xlink:title="edicao_tarefa">
<polygon fill="white" stroke="black" points="462.5,-114.5 462.5,-133.5 537.5,-133.5 537.5,-114.5 462.5,-114.5"/>
<text text-anchor="middle" x="500" y="-121.5" font-family="Helvetica,sans-Serif" font-size="10.00">edicao_tarefa</text>
</a>
</g>
</g>
<!-- Node3&#45;&gt;Node4 -->
<g id="edge3" class="edge"><title>Node3&#45;&gt;Node4</title>
<path fill="none" stroke="midnightblue" d="M389.397,-124C412.441,-124 440.45,-124 462.385,-124"/>
<polygon fill="midnightblue" stroke="midnightblue" points="389.199,-120.5 379.199,-124 389.199,-127.5 389.199,-120.5"/>
</g>
<!-- Node5 -->
<g id="node5" class="node"><title>Node5</title>
<g id="a_node5"><a xlink:href="main_8cc.html#a7769e05575359d89d7467b1e46940ecf" target="_top" xlink:title="editar_tarefa">
<polygon fill="white" stroke="black" points="617.5,-114.5 617.5,-133.5 688.5,-133.5 688.5,-114.5 617.5,-114.5"/>
<text text-anchor="middle" x="653" y="-121.5" font-family="Helvetica,sans-Serif" font-size="10.00">editar_tarefa</text>
</a>
</g>
</g>
<!-- Node4&#45;&gt;Node5 -->
<g id="edge4" class="edge"><title>Node4&#45;&gt;Node5</title>
<path fill="none" stroke="midnightblue" d="M547.576,-124C570.089,-124 596.643,-124 617.34,-124"/>
<polygon fill="midnightblue" stroke="midnightblue" points="547.553,-120.5 537.553,-124 547.553,-127.5 547.553,-120.5"/>
</g>
<!-- Node6 -->
<g id="node6" class="node"><title>Node6</title>
<g id="a_node6"><a xlink:href="main_8cc.html#af852bc15cf3d5217386a9bb0bf3b9abd" target="_top" xlink:title="operacoes_grafo">
<polygon fill="white" stroke="black" points="754.5,-76.5 754.5,-95.5 843.5,-95.5 843.5,-76.5 754.5,-76.5"/>
<text text-anchor="middle" x="799" y="-83.5" font-family="Helvetica,sans-Serif" font-size="10.00">operacoes_grafo</text>
</a>
</g>
</g>
<!-- Node5&#45;&gt;Node6 -->
<g id="edge5" class="edge"><title>Node5&#45;&gt;Node6</title>
<path fill="none" stroke="midnightblue" d="M698.547,-112.245C718.918,-106.869 742.738,-100.583 761.959,-95.5109"/>
<polygon fill="midnightblue" stroke="midnightblue" points="697.634,-108.865 688.858,-114.801 699.42,-115.634 697.634,-108.865"/>
</g>
<!-- Node7 -->
<g id="node7" class="node"><title>Node7</title>
<g id="a_node7"><a xlink:href="main_8cc.html#af1ccf694bcf905341f10b534e5a272fa" target="_top" xlink:title="abrir_arquivo">
<polygon fill="white" stroke="black" points="880,-114.5 880,-133.5 952,-133.5 952,-114.5 880,-114.5"/>
<text text-anchor="middle" x="916" y="-121.5" font-family="Helvetica,sans-Serif" font-size="10.00">abrir_arquivo</text>
</a>
</g>
</g>
<!-- Node6&#45;&gt;Node7 -->
<g id="edge6" class="edge"><title>Node6&#45;&gt;Node7</title>
<path fill="none" stroke="midnightblue" d="M838.815,-98.8259C854.246,-103.925 871.691,-109.689 885.99,-114.414"/>
<polygon fill="midnightblue" stroke="midnightblue" points="839.613,-95.4033 829.019,-95.589 837.416,-102.05 839.613,-95.4033"/>
</g>
<!-- Node8 -->
<g id="node8" class="node"><title>Node8</title>
<g id="a_node8"><a xlink:href="main_8cc.html#ae66f6b31b5ad750f1fe042a706a4e3d4" target="_top" xlink:title="main">
<polygon fill="white" stroke="black" points="988,-95.5 988,-114.5 1026,-114.5 1026,-95.5 988,-95.5"/>
<text text-anchor="middle" x="1007" y="-102.5" font-family="Helvetica,sans-Serif" font-size="10.00">main</text>
</a>
</g>
</g>
<!-- Node6&#45;&gt;Node8 -->
<g id="edge8" class="edge"><title>Node6&#45;&gt;Node8</title>
<path fill="none" stroke="midnightblue" d="M853.725,-90.9552C898.01,-95.0398 958.194,-100.591 987.894,-103.33"/>
<polygon fill="midnightblue" stroke="midnightblue" points="853.967,-87.4627 843.687,-90.0294 853.324,-94.4331 853.967,-87.4627"/>
</g>
<!-- Node7&#45;&gt;Node8 -->
<g id="edge7" class="edge"><title>Node7&#45;&gt;Node8</title>
<path fill="none" stroke="midnightblue" d="M962.067,-114.379C971.24,-112.421 980.38,-110.469 987.929,-108.858"/>
<polygon fill="midnightblue" stroke="midnightblue" points="961.224,-110.98 952.175,-116.491 962.686,-117.826 961.224,-110.98"/>
</g>
<!-- Node9&#45;&gt;Node7 -->
<g id="edge11" class="edge"><title>Node9&#45;&gt;Node7</title>
<path fill="none" stroke="midnightblue" d="M380.812,-197.47C421.83,-194.332 492.001,-188.47 552,-181 672.753,-165.966 815.093,-141.69 879.809,-130.291"/>
<polygon fill="midnightblue" stroke="midnightblue" points="380.497,-193.984 370.789,-198.227 381.024,-200.964 380.497,-193.984"/>
</g>
<!-- Node10 -->
<g id="node10" class="node"><title>Node10</title>
<g id="a_node10"><a xlink:href="gtest__grafo_8cc.html#acdd61f8b660ae6979528c7e3da0e134d" target="_top" xlink:title="TEST">
<polygon fill="white" stroke="black" points="479,-152.5 479,-171.5 521,-171.5 521,-152.5 479,-152.5"/>
<text text-anchor="middle" x="500" y="-159.5" font-family="Helvetica,sans-Serif" font-size="10.00">TEST</text>
</a>
</g>
</g>
<!-- Node9&#45;&gt;Node10 -->
<g id="edge10" class="edge"><title>Node9&#45;&gt;Node10</title>
<path fill="none" stroke="midnightblue" d="M380.327,-191.474C410.647,-183.944 453.824,-173.22 478.875,-166.998"/>
<polygon fill="midnightblue" stroke="midnightblue" points="379.444,-188.087 370.582,-193.895 381.131,-194.881 379.444,-188.087"/>
</g>
<!-- Node12&#45;&gt;Node6 -->
<g id="edge14" class="edge"><title>Node12&#45;&gt;Node6</title>
<path fill="none" stroke="midnightblue" d="M728.692,-86C737.45,-86 746.154,-86 754.285,-86"/>
<polygon fill="midnightblue" stroke="midnightblue" points="728.419,-82.5001 718.419,-86 728.419,-89.5001 728.419,-82.5001"/>
</g>
<!-- Node14 -->
<g id="node14" class="node"><title>Node14</title>
<g id="a_node14"><a xlink:href="main_8cc.html#adb3b0c3b009c68f86673eb7bdeef601c" target="_top" xlink:title="inserir_tarefa">
<polygon fill="white" stroke="black" points="616.5,-38.5 616.5,-57.5 689.5,-57.5 689.5,-38.5 616.5,-38.5"/>
<text text-anchor="middle" x="653" y="-45.5" font-family="Helvetica,sans-Serif" font-size="10.00">inserir_tarefa</text>
</a>
</g>
</g>
<!-- Node13&#45;&gt;Node14 -->
<g id="edge16" class="edge"><title>Node13&#45;&gt;Node14</title>
<path fill="none" stroke="midnightblue" d="M417.726,-48C480.105,-48 567.879,-48 616.345,-48"/>
<polygon fill="midnightblue" stroke="midnightblue" points="417.556,-44.5001 407.556,-48 417.556,-51.5001 417.556,-44.5001"/>
</g>
<!-- Node14&#45;&gt;Node6 -->
<g id="edge17" class="edge"><title>Node14&#45;&gt;Node6</title>
<path fill="none" stroke="midnightblue" d="M699.478,-60.001C719.59,-65.3083 742.911,-71.4626 761.814,-76.4509"/>
<polygon fill="midnightblue" stroke="midnightblue" points="700.158,-56.5607 689.596,-57.3933 698.371,-63.329 700.158,-56.5607"/>
</g>
<!-- Node16 -->
<g id="node16" class="node"><title>Node16</title>
<g id="a_node16"><a xlink:href="main_8cc.html#adcc550070c8292efdd63f7df8bbdd58a" target="_top" xlink:title="filtrar_tarefas_completadas">
<polygon fill="white" stroke="black" points="278,-0.5 278,-19.5 412,-19.5 412,-0.5 278,-0.5"/>
<text text-anchor="middle" x="345" y="-7.5" font-family="Helvetica,sans-Serif" font-size="10.00">filtrar_tarefas_completadas</text>
</a>
</g>
</g>
<!-- Node15&#45;&gt;Node16 -->
<g id="edge20" class="edge"><title>Node15&#45;&gt;Node16</title>
<path fill="none" stroke="midnightblue" d="M251.624,-10C260.3,-10 269.134,-10 277.729,-10"/>
<polygon fill="midnightblue" stroke="midnightblue" points="251.534,-6.5001 241.534,-10 251.534,-13.5001 251.534,-6.5001"/>
</g>
<!-- Node17 -->
<g id="node17" class="node"><title>Node17</title>
<g id="a_node17"><a xlink:href="main_8cc.html#a5d247f6e8ee275a8cd007f922ae2acb3" target="_top" xlink:title="visualizador_tarefas">
<polygon fill="white" stroke="black" points="448,-0.5 448,-19.5 552,-19.5 552,-0.5 448,-0.5"/>
<text text-anchor="middle" x="500" y="-7.5" font-family="Helvetica,sans-Serif" font-size="10.00">visualizador_tarefas</text>
</a>
</g>
</g>
<!-- Node16&#45;&gt;Node17 -->
<g id="edge21" class="edge"><title>Node16&#45;&gt;Node17</title>
<path fill="none" stroke="midnightblue" d="M422.358,-10C431.019,-10 439.682,-10 447.904,-10"/>
<polygon fill="midnightblue" stroke="midnightblue" points="422.218,-6.5001 412.218,-10 422.218,-13.5001 422.218,-6.5001"/>
</g>
<!-- Node17&#45;&gt;Node6 -->
<g id="edge22" class="edge"><title>Node17&#45;&gt;Node6</title>
<path fill="none" stroke="midnightblue" d="M562.286,-6.89396C606.807,-6.63858 667.798,-10.4927 718,-29 746.482,-39.5001 774.033,-62.9557 788.178,-76.2742"/>
<polygon fill="midnightblue" stroke="midnightblue" points="562.149,-3.39534 552.194,-7.02347 562.238,-10.3948 562.149,-3.39534"/>
</g>
</g>
</svg>
