<?xml version="1.0" encoding="UTF-8" standalone="no"?>
<!DOCTYPE svg PUBLIC "-//W3C//DTD SVG 1.1//EN"
 "http://www.w3.org/Graphics/SVG/1.1/DTD/svg11.dtd">
<!-- Generated by graphviz version 2.36.0 (20140111.2315)
 -->
<!-- Title: cria_grafo Pages: 1 -->
<svg width="338pt" height="142pt"
 viewBox="0.00 0.00 338.00 142.00" xmlns="http://www.w3.org/2000/svg" xmlns:xlink="http://www.w3.org/1999/xlink">
<g id="graph0" class="graph" transform="scale(1 1) rotate(0) translate(4 138)">
<title>cria_grafo</title>
<polygon fill="white" stroke="none" points="-4,4 -4,-138 334,-138 334,4 -4,4"/>
<!-- Node1 -->
<g id="node1" class="node"><title>Node1</title>
<polygon fill="#bfbfbf" stroke="black" points="0.5,-57.5 0.5,-76.5 59.5,-76.5 59.5,-57.5 0.5,-57.5"/>
<text text-anchor="middle" x="30" y="-64.5" font-family="Helvetica,sans-Serif" font-size="10.00">cria_grafo</text>
</g>
<!-- Node2 -->
<g id="node2" class="node"><title>Node2</title>
<g id="a_node2"><a xlink:href="code_2grafo_8h.html#a0a4567a2f65956112b02ab39cbdeb152" target="_top" xlink:title="le_grafo">
<polygon fill="white" stroke="black" points="96.5,-114.5 96.5,-133.5 147.5,-133.5 147.5,-114.5 96.5,-114.5"/>
<text text-anchor="middle" x="122" y="-121.5" font-family="Helvetica,sans-Serif" font-size="10.00">le_grafo</text>
</a>
</g>
</g>
<!-- Node1&#45;&gt;Node2 -->
<g id="edge1" class="edge"><title>Node1&#45;&gt;Node2</title>
<path fill="none" stroke="midnightblue" d="M54.7167,-82.0206C70.9503,-92.3018 91.985,-105.624 105.958,-114.474"/>
<polygon fill="midnightblue" stroke="midnightblue" points="56.5882,-79.063 46.2673,-76.6693 52.8428,-84.9767 56.5882,-79.063"/>
</g>
<!-- Node4 -->
<g id="node4" class="node"><title>Node4</title>
<g id="a_node4"><a xlink:href="main_8cc.html#af1ccf694bcf905341f10b534e5a272fa" target="_top" xlink:title="abrir_arquivo">
<polygon fill="white" stroke="black" points="184,-76.5 184,-95.5 256,-95.5 256,-76.5 184,-76.5"/>
<text text-anchor="middle" x="220" y="-83.5" font-family="Helvetica,sans-Serif" font-size="10.00">abrir_arquivo</text>
</a>
</g>
</g>
<!-- Node1&#45;&gt;Node4 -->
<g id="edge6" class="edge"><title>Node1&#45;&gt;Node4</title>
<path fill="none" stroke="midnightblue" d="M69.8871,-70.9301C103.396,-74.3167 151.352,-79.1632 183.756,-82.4381"/>
<polygon fill="midnightblue" stroke="midnightblue" points="69.8544,-67.409 59.5532,-69.8857 69.1505,-74.3736 69.8544,-67.409"/>
</g>
<!-- Node5 -->
<g id="node5" class="node"><title>Node5</title>
<g id="a_node5"><a xlink:href="main_8cc.html#ae66f6b31b5ad750f1fe042a706a4e3d4" target="_top" xlink:title="main">
<polygon fill="white" stroke="black" points="292,-57.5 292,-76.5 330,-76.5 330,-57.5 292,-57.5"/>
<text text-anchor="middle" x="311" y="-64.5" font-family="Helvetica,sans-Serif" font-size="10.00">main</text>
</a>
</g>
</g>
<!-- Node1&#45;&gt;Node5 -->
<g id="edge7" class="edge"><title>Node1&#45;&gt;Node5</title>
<path fill="none" stroke="midnightblue" d="M69.5643,-67C130.641,-67 247.276,-67 291.963,-67"/>
<polygon fill="midnightblue" stroke="midnightblue" points="69.5468,-63.5001 59.5467,-67 69.5467,-70.5001 69.5468,-63.5001"/>
</g>
<!-- Node6 -->
<g id="node6" class="node"><title>Node6</title>
<g id="a_node6"><a xlink:href="gtest__grafo_8cc.html#a207d91b43a907a510504a2f7d4c3ae7d" target="_top" xlink:title="TEST">
<polygon fill="white" stroke="black" points="101,-0.5 101,-19.5 143,-19.5 143,-0.5 101,-0.5"/>
<text text-anchor="middle" x="122" y="-7.5" font-family="Helvetica,sans-Serif" font-size="10.00">TEST</text>
</a>
</g>
</g>
<!-- Node1&#45;&gt;Node6 -->
<g id="edge5" class="edge"><title>Node1&#45;&gt;Node6</title>
<path fill="none" stroke="midnightblue" d="M54.7167,-51.9794C70.9503,-41.6982 91.985,-28.3762 105.958,-19.5265"/>
<polygon fill="midnightblue" stroke="midnightblue" points="52.8428,-49.0233 46.2673,-57.3307 56.5882,-54.937 52.8428,-49.0233"/>
</g>
<!-- Node3 -->
<g id="node3" class="node"><title>Node3</title>
<g id="a_node3"><a xlink:href="gtest__grafo_8cc.html#acdd61f8b660ae6979528c7e3da0e134d" target="_top" xlink:title="TEST">
<polygon fill="white" stroke="black" points="199,-114.5 199,-133.5 241,-133.5 241,-114.5 199,-114.5"/>
<text text-anchor="middle" x="220" y="-121.5" font-family="Helvetica,sans-Serif" font-size="10.00">TEST</text>
</a>
</g>
</g>
<!-- Node2&#45;&gt;Node3 -->
<g id="edge2" class="edge"><title>Node2&#45;&gt;Node3</title>
<path fill="none" stroke="midnightblue" d="M157.877,-124C171.664,-124 187.015,-124 198.884,-124"/>
<polygon fill="midnightblue" stroke="midnightblue" points="157.722,-120.5 147.722,-124 157.722,-127.5 157.722,-120.5"/>
</g>
<!-- Node2&#45;&gt;Node4 -->
<g id="edge3" class="edge"><title>Node2&#45;&gt;Node4</title>
<path fill="none" stroke="midnightblue" d="M156.882,-110.589C169.389,-105.638 183.301,-100.131 194.783,-95.5859"/>
<polygon fill="midnightblue" stroke="midnightblue" points="155.235,-107.476 147.225,-114.411 157.811,-113.985 155.235,-107.476"/>
</g>
<!-- Node4&#45;&gt;Node5 -->
<g id="edge4" class="edge"><title>Node4&#45;&gt;Node5</title>
<path fill="none" stroke="midnightblue" d="M266.067,-76.3789C275.24,-74.4207 284.38,-72.4694 291.929,-70.8578"/>
<polygon fill="midnightblue" stroke="midnightblue" points="265.224,-72.98 256.175,-78.4907 266.686,-79.8257 265.224,-72.98"/>
</g>
</g>
</svg>
