<?xml version="1.0" encoding="UTF-8" standalone="no"?>
<!DOCTYPE svg PUBLIC "-//W3C//DTD SVG 1.1//EN"
 "http://www.w3.org/Graphics/SVG/1.1/DTD/svg11.dtd">
<!-- Generated by graphviz version 2.36.0 (20140111.2315)
 -->
<!-- Title: remove_tarefa Pages: 1 -->
<svg width="514pt" height="47pt"
 viewBox="0.00 0.00 514.00 47.00" xmlns="http://www.w3.org/2000/svg" xmlns:xlink="http://www.w3.org/1999/xlink">
<g id="graph0" class="graph" transform="scale(1 1) rotate(0) translate(4 43)">
<title>remove_tarefa</title>
<polygon fill="white" stroke="none" points="-4,4 -4,-43 510,-43 510,4 -4,4"/>
<!-- Node1 -->
<g id="node1" class="node"><title>Node1</title>
<polygon fill="#bfbfbf" stroke="black" points="0.5,-0.5 0.5,-19.5 79.5,-19.5 79.5,-0.5 0.5,-0.5"/>
<text text-anchor="middle" x="40" y="-7.5" font-family="Helvetica,sans-Serif" font-size="10.00">remove_tarefa</text>
</g>
<!-- Node2 -->
<g id="node2" class="node"><title>Node2</title>
<g id="a_node2"><a xlink:href="main_8cc.html#ab5f698491708904442d9d4f8583cd809" target="_top" xlink:title="remover_tarefa">
<polygon fill="white" stroke="black" points="116,-0.5 116,-19.5 198,-19.5 198,-0.5 116,-0.5"/>
<text text-anchor="middle" x="157" y="-7.5" font-family="Helvetica,sans-Serif" font-size="10.00">remover_tarefa</text>
</a>
</g>
</g>
<!-- Node1&#45;&gt;Node2 -->
<g id="edge1" class="edge"><title>Node1&#45;&gt;Node2</title>
<path fill="none" stroke="midnightblue" d="M89.6385,-10C98.3287,-10 107.296,-10 115.719,-10"/>
<polygon fill="midnightblue" stroke="midnightblue" points="89.6133,-6.5001 79.6133,-10 89.6132,-13.5001 89.6133,-6.5001"/>
</g>
<!-- Node3 -->
<g id="node3" class="node"><title>Node3</title>
<g id="a_node3"><a xlink:href="main_8cc.html#af852bc15cf3d5217386a9bb0bf3b9abd" target="_top" xlink:title="operacoes_grafo">
<polygon fill="white" stroke="black" points="234.5,-0.5 234.5,-19.5 323.5,-19.5 323.5,-0.5 234.5,-0.5"/>
<text text-anchor="middle" x="279" y="-7.5" font-family="Helvetica,sans-Serif" font-size="10.00">operacoes_grafo</text>
</a>
</g>
</g>
<!-- Node2&#45;&gt;Node3 -->
<g id="edge2" class="edge"><title>Node2&#45;&gt;Node3</title>
<path fill="none" stroke="midnightblue" d="M208.557,-10C217.12,-10 225.945,-10 234.313,-10"/>
<polygon fill="midnightblue" stroke="midnightblue" points="208.292,-6.5001 198.292,-10 208.292,-13.5001 208.292,-6.5001"/>
</g>
<!-- Node4 -->
<g id="node4" class="node"><title>Node4</title>
<g id="a_node4"><a xlink:href="main_8cc.html#af1ccf694bcf905341f10b534e5a272fa" target="_top" xlink:title="abrir_arquivo">
<polygon fill="white" stroke="black" points="360,-19.5 360,-38.5 432,-38.5 432,-19.5 360,-19.5"/>
<text text-anchor="middle" x="396" y="-26.5" font-family="Helvetica,sans-Serif" font-size="10.00">abrir_arquivo</text>
</a>
</g>
</g>
<!-- Node3&#45;&gt;Node4 -->
<g id="edge3" class="edge"><title>Node3&#45;&gt;Node4</title>
<path fill="none" stroke="midnightblue" d="M333.736,-18.8781C342.617,-20.3454 351.619,-21.8327 359.888,-23.199"/>
<polygon fill="midnightblue" stroke="midnightblue" points="334.241,-15.4143 323.805,-17.2373 333.1,-22.3206 334.241,-15.4143"/>
</g>
<!-- Node5 -->
<g id="node5" class="node"><title>Node5</title>
<g id="a_node5"><a xlink:href="main_8cc.html#ae66f6b31b5ad750f1fe042a706a4e3d4" target="_top" xlink:title="main">
<polygon fill="white" stroke="black" points="468,-0.5 468,-19.5 506,-19.5 506,-0.5 468,-0.5"/>
<text text-anchor="middle" x="487" y="-7.5" font-family="Helvetica,sans-Serif" font-size="10.00">main</text>
</a>
</g>
</g>
<!-- Node3&#45;&gt;Node5 -->
<g id="edge5" class="edge"><title>Node3&#45;&gt;Node5</title>
<path fill="none" stroke="midnightblue" d="M333.725,-10C378.01,-10 438.194,-10 467.894,-10"/>
<polygon fill="midnightblue" stroke="midnightblue" points="333.687,-6.5001 323.687,-10 333.687,-13.5001 333.687,-6.5001"/>
</g>
<!-- Node4&#45;&gt;Node5 -->
<g id="edge4" class="edge"><title>Node4&#45;&gt;Node5</title>
<path fill="none" stroke="midnightblue" d="M442.067,-19.3789C451.24,-17.4207 460.38,-15.4694 467.929,-13.8578"/>
<polygon fill="midnightblue" stroke="midnightblue" points="441.224,-15.98 432.175,-21.4907 442.686,-22.8257 441.224,-15.98"/>
</g>
</g>
</svg>
