<?xml version="1.0" encoding="UTF-8" standalone="no"?>
<!DOCTYPE svg PUBLIC "-//W3C//DTD SVG 1.1//EN"
 "http://www.w3.org/Graphics/SVG/1.1/DTD/svg11.dtd">
<!-- Generated by graphviz version 2.36.0 (20140111.2315)
 -->
<!-- Title: edita_tarefa Pages: 1 -->
<svg width="604pt" height="47pt"
 viewBox="0.00 0.00 604.00 47.00" xmlns="http://www.w3.org/2000/svg" xmlns:xlink="http://www.w3.org/1999/xlink">
<g id="graph0" class="graph" transform="scale(1 1) rotate(0) translate(4 43)">
<title>edita_tarefa</title>
<polygon fill="white" stroke="none" points="-4,4 -4,-43 600,-43 600,4 -4,4"/>
<!-- Node1 -->
<g id="node1" class="node"><title>Node1</title>
<polygon fill="#bfbfbf" stroke="black" points="0,-0.5 0,-19.5 68,-19.5 68,-0.5 0,-0.5"/>
<text text-anchor="middle" x="34" y="-7.5" font-family="Helvetica,sans-Serif" font-size="10.00">edita_tarefa</text>
</g>
<!-- Node2 -->
<g id="node2" class="node"><title>Node2</title>
<g id="a_node2"><a xlink:href="main_8cc.html#a8d8002aa0f76981dad9ce30329767981" target="_top" xlink:title="edicao_tarefa">
<polygon fill="white" stroke="black" points="104.5,-0.5 104.5,-19.5 179.5,-19.5 179.5,-0.5 104.5,-0.5"/>
<text text-anchor="middle" x="142" y="-7.5" font-family="Helvetica,sans-Serif" font-size="10.00">edicao_tarefa</text>
</a>
</g>
</g>
<!-- Node1&#45;&gt;Node2 -->
<g id="edge1" class="edge"><title>Node1&#45;&gt;Node2</title>
<path fill="none" stroke="midnightblue" d="M78.4418,-10C86.9894,-10 95.8801,-10 104.184,-10"/>
<polygon fill="midnightblue" stroke="midnightblue" points="78.2483,-6.5001 68.2482,-10 78.2482,-13.5001 78.2483,-6.5001"/>
</g>
<!-- Node3 -->
<g id="node3" class="node"><title>Node3</title>
<g id="a_node3"><a xlink:href="main_8cc.html#a7769e05575359d89d7467b1e46940ecf" target="_top" xlink:title="editar_tarefa">
<polygon fill="white" stroke="black" points="216.5,-0.5 216.5,-19.5 287.5,-19.5 287.5,-0.5 216.5,-0.5"/>
<text text-anchor="middle" x="252" y="-7.5" font-family="Helvetica,sans-Serif" font-size="10.00">editar_tarefa</text>
</a>
</g>
</g>
<!-- Node2&#45;&gt;Node3 -->
<g id="edge2" class="edge"><title>Node2&#45;&gt;Node3</title>
<path fill="none" stroke="midnightblue" d="M189.82,-10C198.711,-10 207.866,-10 216.299,-10"/>
<polygon fill="midnightblue" stroke="midnightblue" points="189.564,-6.5001 179.564,-10 189.564,-13.5001 189.564,-6.5001"/>
</g>
<!-- Node4 -->
<g id="node4" class="node"><title>Node4</title>
<g id="a_node4"><a xlink:href="main_8cc.html#af852bc15cf3d5217386a9bb0bf3b9abd" target="_top" xlink:title="operacoes_grafo">
<polygon fill="white" stroke="black" points="324.5,-0.5 324.5,-19.5 413.5,-19.5 413.5,-0.5 324.5,-0.5"/>
<text text-anchor="middle" x="369" y="-7.5" font-family="Helvetica,sans-Serif" font-size="10.00">operacoes_grafo</text>
</a>
</g>
</g>
<!-- Node3&#45;&gt;Node4 -->
<g id="edge3" class="edge"><title>Node3&#45;&gt;Node4</title>
<path fill="none" stroke="midnightblue" d="M297.514,-10C306.251,-10 315.41,-10 324.126,-10"/>
<polygon fill="midnightblue" stroke="midnightblue" points="297.504,-6.5001 287.504,-10 297.504,-13.5001 297.504,-6.5001"/>
</g>
<!-- Node5 -->
<g id="node5" class="node"><title>Node5</title>
<g id="a_node5"><a xlink:href="main_8cc.html#af1ccf694bcf905341f10b534e5a272fa" target="_top" xlink:title="abrir_arquivo">
<polygon fill="white" stroke="black" points="450,-19.5 450,-38.5 522,-38.5 522,-19.5 450,-19.5"/>
<text text-anchor="middle" x="486" y="-26.5" font-family="Helvetica,sans-Serif" font-size="10.00">abrir_arquivo</text>
</a>
</g>
</g>
<!-- Node4&#45;&gt;Node5 -->
<g id="edge4" class="edge"><title>Node4&#45;&gt;Node5</title>
<path fill="none" stroke="midnightblue" d="M423.736,-18.8781C432.617,-20.3454 441.619,-21.8327 449.888,-23.199"/>
<polygon fill="midnightblue" stroke="midnightblue" points="424.241,-15.4143 413.805,-17.2373 423.1,-22.3206 424.241,-15.4143"/>
</g>
<!-- Node6 -->
<g id="node6" class="node"><title>Node6</title>
<g id="a_node6"><a xlink:href="main_8cc.html#ae66f6b31b5ad750f1fe042a706a4e3d4" target="_top" xlink:title="main">
<polygon fill="white" stroke="black" points="558,-0.5 558,-19.5 596,-19.5 596,-0.5 558,-0.5"/>
<text text-anchor="middle" x="577" y="-7.5" font-family="Helvetica,sans-Serif" font-size="10.00">main</text>
</a>
</g>
</g>
<!-- Node4&#45;&gt;Node6 -->
<g id="edge6" class="edge"><title>Node4&#45;&gt;Node6</title>
<path fill="none" stroke="midnightblue" d="M423.725,-10C468.01,-10 528.194,-10 557.894,-10"/>
<polygon fill="midnightblue" stroke="midnightblue" points="423.687,-6.5001 413.687,-10 423.687,-13.5001 423.687,-6.5001"/>
</g>
<!-- Node5&#45;&gt;Node6 -->
<g id="edge5" class="edge"><title>Node5&#45;&gt;Node6</title>
<path fill="none" stroke="midnightblue" d="M532.067,-19.3789C541.24,-17.4207 550.38,-15.4694 557.929,-13.8578"/>
<polygon fill="midnightblue" stroke="midnightblue" points="531.224,-15.98 522.175,-21.4907 532.686,-22.8257 531.224,-15.98"/>
</g>
</g>
</svg>
