<?xml version="1.0" encoding="UTF-8" standalone="no"?>
<!DOCTYPE svg PUBLIC "-//W3C//DTD SVG 1.1//EN"
 "http://www.w3.org/Graphics/SVG/1.1/DTD/svg11.dtd">
<!-- Generated by graphviz version 2.36.0 (20140111.2315)
 -->
<!-- Title: insere_tarefa Pages: 1 -->
<svg width="500pt" height="104pt"
 viewBox="0.00 0.00 500.00 104.00" xmlns="http://www.w3.org/2000/svg" xmlns:xlink="http://www.w3.org/1999/xlink">
<g id="graph0" class="graph" transform="scale(1 1) rotate(0) translate(4 100)">
<title>insere_tarefa</title>
<polygon fill="white" stroke="none" points="-4,4 -4,-100 496,-100 496,4 -4,4"/>
<!-- Node1 -->
<g id="node1" class="node"><title>Node1</title>
<polygon fill="#bfbfbf" stroke="black" points="0.5,-38.5 0.5,-57.5 73.5,-57.5 73.5,-38.5 0.5,-38.5"/>
<text text-anchor="middle" x="37" y="-45.5" font-family="Helvetica,sans-Serif" font-size="10.00">insere_tarefa</text>
</g>
<!-- Node2 -->
<g id="node2" class="node"><title>Node2</title>
<g id="a_node2"><a xlink:href="code_2grafo_8h.html#a0a4567a2f65956112b02ab39cbdeb152" target="_top" xlink:title="le_grafo">
<polygon fill="white" stroke="black" points="121.5,-76.5 121.5,-95.5 172.5,-95.5 172.5,-76.5 121.5,-76.5"/>
<text text-anchor="middle" x="147" y="-83.5" font-family="Helvetica,sans-Serif" font-size="10.00">le_grafo</text>
</a>
</g>
</g>
<!-- Node1&#45;&gt;Node2 -->
<g id="edge1" class="edge"><title>Node1&#45;&gt;Node2</title>
<path fill="none" stroke="midnightblue" d="M74.9623,-61.0052C90.2739,-66.3927 107.622,-72.4965 121.341,-77.3237"/>
<polygon fill="midnightblue" stroke="midnightblue" points="75.8478,-57.6065 65.253,-57.589 73.5244,-64.2097 75.8478,-57.6065"/>
</g>
<!-- Node6 -->
<g id="node6" class="node"><title>Node6</title>
<g id="a_node6"><a xlink:href="gtest__grafo_8cc.html#a207d91b43a907a510504a2f7d4c3ae7d" target="_top" xlink:title="TEST">
<polygon fill="white" stroke="black" points="126,-38.5 126,-57.5 168,-57.5 168,-38.5 126,-38.5"/>
<text text-anchor="middle" x="147" y="-45.5" font-family="Helvetica,sans-Serif" font-size="10.00">TEST</text>
</a>
</g>
</g>
<!-- Node1&#45;&gt;Node6 -->
<g id="edge5" class="edge"><title>Node1&#45;&gt;Node6</title>
<path fill="none" stroke="midnightblue" d="M84.0793,-48C98.662,-48 114.033,-48 125.812,-48"/>
<polygon fill="midnightblue" stroke="midnightblue" points="83.6626,-44.5001 73.6626,-48 83.6625,-51.5001 83.6626,-44.5001"/>
</g>
<!-- Node7 -->
<g id="node7" class="node"><title>Node7</title>
<g id="a_node7"><a xlink:href="main_8cc.html#adb3b0c3b009c68f86673eb7bdeef601c" target="_top" xlink:title="inserir_tarefa">
<polygon fill="white" stroke="black" points="110.5,-0.5 110.5,-19.5 183.5,-19.5 183.5,-0.5 110.5,-0.5"/>
<text text-anchor="middle" x="147" y="-7.5" font-family="Helvetica,sans-Serif" font-size="10.00">inserir_tarefa</text>
</a>
</g>
</g>
<!-- Node1&#45;&gt;Node7 -->
<g id="edge6" class="edge"><title>Node1&#45;&gt;Node7</title>
<path fill="none" stroke="midnightblue" d="M74.8672,-35.0282C89.2558,-29.9656 105.455,-24.2659 118.756,-19.5859"/>
<polygon fill="midnightblue" stroke="midnightblue" points="73.5244,-31.7903 65.253,-38.411 75.8478,-38.3935 73.5244,-31.7903"/>
</g>
<!-- Node3 -->
<g id="node3" class="node"><title>Node3</title>
<g id="a_node3"><a xlink:href="gtest__grafo_8cc.html#acdd61f8b660ae6979528c7e3da0e134d" target="_top" xlink:title="TEST">
<polygon fill="white" stroke="black" points="244,-76.5 244,-95.5 286,-95.5 286,-76.5 244,-76.5"/>
<text text-anchor="middle" x="265" y="-83.5" font-family="Helvetica,sans-Serif" font-size="10.00">TEST</text>
</a>
</g>
</g>
<!-- Node2&#45;&gt;Node3 -->
<g id="edge2" class="edge"><title>Node2&#45;&gt;Node3</title>
<path fill="none" stroke="midnightblue" d="M182.824,-86C202.692,-86 226.902,-86 243.687,-86"/>
<polygon fill="midnightblue" stroke="midnightblue" points="182.601,-82.5001 172.601,-86 182.601,-89.5001 182.601,-82.5001"/>
</g>
<!-- Node4 -->
<g id="node4" class="node"><title>Node4</title>
<g id="a_node4"><a xlink:href="main_8cc.html#af1ccf694bcf905341f10b534e5a272fa" target="_top" xlink:title="abrir_arquivo">
<polygon fill="white" stroke="black" points="346,-38.5 346,-57.5 418,-57.5 418,-38.5 346,-38.5"/>
<text text-anchor="middle" x="382" y="-45.5" font-family="Helvetica,sans-Serif" font-size="10.00">abrir_arquivo</text>
</a>
</g>
</g>
<!-- Node2&#45;&gt;Node4 -->
<g id="edge3" class="edge"><title>Node2&#45;&gt;Node4</title>
<path fill="none" stroke="midnightblue" d="M182.682,-75.7932C194.448,-72.6134 207.721,-69.3327 220,-67 262.997,-58.8316 313.162,-53.5763 345.923,-50.7089"/>
<polygon fill="midnightblue" stroke="midnightblue" points="181.495,-72.4903 172.794,-78.5354 183.365,-79.2357 181.495,-72.4903"/>
</g>
<!-- Node5 -->
<g id="node5" class="node"><title>Node5</title>
<g id="a_node5"><a xlink:href="main_8cc.html#ae66f6b31b5ad750f1fe042a706a4e3d4" target="_top" xlink:title="main">
<polygon fill="white" stroke="black" points="454,-19.5 454,-38.5 492,-38.5 492,-19.5 454,-19.5"/>
<text text-anchor="middle" x="473" y="-26.5" font-family="Helvetica,sans-Serif" font-size="10.00">main</text>
</a>
</g>
</g>
<!-- Node4&#45;&gt;Node5 -->
<g id="edge4" class="edge"><title>Node4&#45;&gt;Node5</title>
<path fill="none" stroke="midnightblue" d="M428.067,-38.3789C437.24,-36.4207 446.38,-34.4694 453.929,-32.8578"/>
<polygon fill="midnightblue" stroke="midnightblue" points="427.224,-34.98 418.175,-40.4907 428.686,-41.8257 427.224,-34.98"/>
</g>
<!-- Node8 -->
<g id="node8" class="node"><title>Node8</title>
<g id="a_node8"><a xlink:href="main_8cc.html#af852bc15cf3d5217386a9bb0bf3b9abd" target="_top" xlink:title="operacoes_grafo">
<polygon fill="white" stroke="black" points="220.5,-0.5 220.5,-19.5 309.5,-19.5 309.5,-0.5 220.5,-0.5"/>
<text text-anchor="middle" x="265" y="-7.5" font-family="Helvetica,sans-Serif" font-size="10.00">operacoes_grafo</text>
</a>
</g>
</g>
<!-- Node7&#45;&gt;Node8 -->
<g id="edge7" class="edge"><title>Node7&#45;&gt;Node8</title>
<path fill="none" stroke="midnightblue" d="M193.804,-10C202.563,-10 211.712,-10 220.4,-10"/>
<polygon fill="midnightblue" stroke="midnightblue" points="193.75,-6.5001 183.75,-10 193.75,-13.5001 193.75,-6.5001"/>
</g>
<!-- Node8&#45;&gt;Node4 -->
<g id="edge8" class="edge"><title>Node8&#45;&gt;Node4</title>
<path fill="none" stroke="midnightblue" d="M304.815,-22.8259C320.246,-27.9247 337.691,-33.6891 351.99,-38.4141"/>
<polygon fill="midnightblue" stroke="midnightblue" points="305.613,-19.4033 295.019,-19.589 303.416,-26.0498 305.613,-19.4033"/>
</g>
<!-- Node8&#45;&gt;Node5 -->
<g id="edge9" class="edge"><title>Node8&#45;&gt;Node5</title>
<path fill="none" stroke="midnightblue" d="M319.725,-14.9552C364.01,-19.0398 424.194,-24.5908 453.894,-27.33"/>
<polygon fill="midnightblue" stroke="midnightblue" points="319.967,-11.4627 309.687,-14.0294 319.324,-18.4331 319.967,-11.4627"/>
</g>
</g>
</svg>
