<?xml version="1.0" encoding="UTF-8" standalone="no"?>
<!DOCTYPE svg PUBLIC "-//W3C//DTD SVG 1.1//EN"
 "http://www.w3.org/Graphics/SVG/1.1/DTD/svg11.dtd">
<!-- Generated by graphviz version 2.36.0 (20140111.2315)
 -->
<!-- Title: tempo_minimo Pages: 1 -->
<svg width="846pt" height="104pt"
 viewBox="0.00 0.00 846.00 104.00" xmlns="http://www.w3.org/2000/svg" xmlns:xlink="http://www.w3.org/1999/xlink">
<g id="graph0" class="graph" transform="scale(1 1) rotate(0) translate(4 100)">
<title>tempo_minimo</title>
<polygon fill="white" stroke="none" points="-4,4 -4,-100 842,-100 842,4 -4,4"/>
<!-- Node1 -->
<g id="node1" class="node"><title>Node1</title>
<polygon fill="#bfbfbf" stroke="black" points="0,-38.5 0,-57.5 80,-57.5 80,-38.5 0,-38.5"/>
<text text-anchor="middle" x="40" y="-45.5" font-family="Helvetica,sans-Serif" font-size="10.00">tempo_minimo</text>
</g>
<!-- Node1&#45;&gt;Node1 -->
<g id="edge1" class="edge"><title>Node1&#45;&gt;Node1</title>
<path fill="none" stroke="midnightblue" d="M16.1906,-67.0292C17.4893,-72.128 25.4258,-76 40,-76 62.75,-76 69.3262,-66.5653 59.7285,-57.7571"/>
<polygon fill="midnightblue" stroke="midnightblue" points="19.4465,-68.3197 20.2715,-57.7571 13.0396,-65.4998 19.4465,-68.3197"/>
</g>
<!-- Node2 -->
<g id="node2" class="node"><title>Node2</title>
<g id="a_node2"><a xlink:href="include_2grafo_8h.html#a57212202dfe77e7368840b67dd5fd46c" target="_top" xlink:title="tempo_minimo_total">
<polygon fill="white" stroke="black" points="116,-76.5 116,-95.5 220,-95.5 220,-76.5 116,-76.5"/>
<text text-anchor="middle" x="168" y="-83.5" font-family="Helvetica,sans-Serif" font-size="10.00">tempo_minimo_total</text>
</a>
</g>
</g>
<!-- Node1&#45;&gt;Node2 -->
<g id="edge2" class="edge"><title>Node1&#45;&gt;Node2</title>
<path fill="none" stroke="midnightblue" d="M82.5644,-60.5353C99.7052,-65.7048 119.25,-71.5991 135.215,-76.4141"/>
<polygon fill="midnightblue" stroke="midnightblue" points="83.3798,-57.1256 72.7951,-57.589 81.3586,-63.8274 83.3798,-57.1256"/>
</g>
<!-- Node3 -->
<g id="node3" class="node"><title>Node3</title>
<g id="a_node3"><a xlink:href="include_2grafo_8h.html#af11c94adb2bfc46d6f00ac0536bcddab" target="_top" xlink:title="caminhos">
<polygon fill="white" stroke="black" points="138.5,-38.5 138.5,-57.5 197.5,-57.5 197.5,-38.5 138.5,-38.5"/>
<text text-anchor="middle" x="168" y="-45.5" font-family="Helvetica,sans-Serif" font-size="10.00">caminhos</text>
</a>
</g>
</g>
<!-- Node1&#45;&gt;Node3 -->
<g id="edge3" class="edge"><title>Node1&#45;&gt;Node3</title>
<path fill="none" stroke="midnightblue" d="M90.5749,-48C106.742,-48 124.146,-48 138.256,-48"/>
<polygon fill="midnightblue" stroke="midnightblue" points="90.1765,-44.5001 80.1765,-48 90.1765,-51.5001 90.1765,-44.5001"/>
</g>
<!-- Node4 -->
<g id="node4" class="node"><title>Node4</title>
<g id="a_node4"><a xlink:href="include_2grafo_8h.html#abce1552216c6841949c616cecd5a4c0b" target="_top" xlink:title="tarefas_concluidas">
<polygon fill="white" stroke="black" points="119,-0.5 119,-19.5 217,-19.5 217,-0.5 119,-0.5"/>
<text text-anchor="middle" x="168" y="-7.5" font-family="Helvetica,sans-Serif" font-size="10.00">tarefas_concluidas</text>
</a>
</g>
</g>
<!-- Node1&#45;&gt;Node4 -->
<g id="edge4" class="edge"><title>Node1&#45;&gt;Node4</title>
<path fill="none" stroke="midnightblue" d="M82.5644,-35.4647C99.7052,-30.2952 119.25,-24.4009 135.215,-19.5859"/>
<polygon fill="midnightblue" stroke="midnightblue" points="81.3586,-32.1726 72.7951,-38.411 83.3798,-38.8744 81.3586,-32.1726"/>
</g>
<!-- Node5 -->
<g id="node5" class="node"><title>Node5</title>
<g id="a_node5"><a xlink:href="main_8cc.html#adcc550070c8292efdd63f7df8bbdd58a" target="_top" xlink:title="filtrar_tarefas_completadas">
<polygon fill="white" stroke="black" points="256,-0.5 256,-19.5 390,-19.5 390,-0.5 256,-0.5"/>
<text text-anchor="middle" x="323" y="-7.5" font-family="Helvetica,sans-Serif" font-size="10.00">filtrar_tarefas_completadas</text>
</a>
</g>
</g>
<!-- Node4&#45;&gt;Node5 -->
<g id="edge5" class="edge"><title>Node4&#45;&gt;Node5</title>
<path fill="none" stroke="midnightblue" d="M227.609,-10C236.807,-10 246.371,-10 255.726,-10"/>
<polygon fill="midnightblue" stroke="midnightblue" points="227.41,-6.5001 217.41,-10 227.41,-13.5001 227.41,-6.5001"/>
</g>
<!-- Node6 -->
<g id="node6" class="node"><title>Node6</title>
<g id="a_node6"><a xlink:href="main_8cc.html#a5d247f6e8ee275a8cd007f922ae2acb3" target="_top" xlink:title="visualizador_tarefas">
<polygon fill="white" stroke="black" points="426,-0.5 426,-19.5 530,-19.5 530,-0.5 426,-0.5"/>
<text text-anchor="middle" x="478" y="-7.5" font-family="Helvetica,sans-Serif" font-size="10.00">visualizador_tarefas</text>
</a>
</g>
</g>
<!-- Node5&#45;&gt;Node6 -->
<g id="edge6" class="edge"><title>Node5&#45;&gt;Node6</title>
<path fill="none" stroke="midnightblue" d="M400.358,-10C409.019,-10 417.682,-10 425.904,-10"/>
<polygon fill="midnightblue" stroke="midnightblue" points="400.218,-6.5001 390.218,-10 400.218,-13.5001 400.218,-6.5001"/>
</g>
<!-- Node7 -->
<g id="node7" class="node"><title>Node7</title>
<g id="a_node7"><a xlink:href="main_8cc.html#af852bc15cf3d5217386a9bb0bf3b9abd" target="_top" xlink:title="operacoes_grafo">
<polygon fill="white" stroke="black" points="566.5,-0.5 566.5,-19.5 655.5,-19.5 655.5,-0.5 566.5,-0.5"/>
<text text-anchor="middle" x="611" y="-7.5" font-family="Helvetica,sans-Serif" font-size="10.00">operacoes_grafo</text>
</a>
</g>
</g>
<!-- Node6&#45;&gt;Node7 -->
<g id="edge7" class="edge"><title>Node6&#45;&gt;Node7</title>
<path fill="none" stroke="midnightblue" d="M540.208,-10C548.956,-10 557.806,-10 566.131,-10"/>
<polygon fill="midnightblue" stroke="midnightblue" points="540.023,-6.5001 530.023,-10 540.023,-13.5001 540.023,-6.5001"/>
</g>
<!-- Node8 -->
<g id="node8" class="node"><title>Node8</title>
<g id="a_node8"><a xlink:href="main_8cc.html#af1ccf694bcf905341f10b534e5a272fa" target="_top" xlink:title="abrir_arquivo">
<polygon fill="white" stroke="black" points="692,-19.5 692,-38.5 764,-38.5 764,-19.5 692,-19.5"/>
<text text-anchor="middle" x="728" y="-26.5" font-family="Helvetica,sans-Serif" font-size="10.00">abrir_arquivo</text>
</a>
</g>
</g>
<!-- Node7&#45;&gt;Node8 -->
<g id="edge8" class="edge"><title>Node7&#45;&gt;Node8</title>
<path fill="none" stroke="midnightblue" d="M665.736,-18.8781C674.617,-20.3454 683.619,-21.8327 691.888,-23.199"/>
<polygon fill="midnightblue" stroke="midnightblue" points="666.241,-15.4143 655.805,-17.2373 665.1,-22.3206 666.241,-15.4143"/>
</g>
<!-- Node9 -->
<g id="node9" class="node"><title>Node9</title>
<g id="a_node9"><a xlink:href="main_8cc.html#ae66f6b31b5ad750f1fe042a706a4e3d4" target="_top" xlink:title="main">
<polygon fill="white" stroke="black" points="800,-0.5 800,-19.5 838,-19.5 838,-0.5 800,-0.5"/>
<text text-anchor="middle" x="819" y="-7.5" font-family="Helvetica,sans-Serif" font-size="10.00">main</text>
</a>
</g>
</g>
<!-- Node7&#45;&gt;Node9 -->
<g id="edge10" class="edge"><title>Node7&#45;&gt;Node9</title>
<path fill="none" stroke="midnightblue" d="M665.725,-10C710.01,-10 770.194,-10 799.894,-10"/>
<polygon fill="midnightblue" stroke="midnightblue" points="665.687,-6.5001 655.687,-10 665.687,-13.5001 665.687,-6.5001"/>
</g>
<!-- Node8&#45;&gt;Node9 -->
<g id="edge9" class="edge"><title>Node8&#45;&gt;Node9</title>
<path fill="none" stroke="midnightblue" d="M774.067,-19.3789C783.24,-17.4207 792.38,-15.4694 799.929,-13.8578"/>
<polygon fill="midnightblue" stroke="midnightblue" points="773.224,-15.98 764.175,-21.4907 774.686,-22.8257 773.224,-15.98"/>
</g>
</g>
</svg>
