<?xml version="1.0" encoding="UTF-8" standalone="no"?>
<!DOCTYPE svg PUBLIC "-//W3C//DTD SVG 1.1//EN"
 "http://www.w3.org/Graphics/SVG/1.1/DTD/svg11.dtd">
<!-- Generated by graphviz version 2.36.0 (20140111.2315)
 -->
<!-- Title: insere_prerequisitos Pages: 1 -->
<svg width="852pt" height="180pt"
 viewBox="0.00 0.00 852.00 180.00" xmlns="http://www.w3.org/2000/svg" xmlns:xlink="http://www.w3.org/1999/xlink">
<g id="graph0" class="graph" transform="scale(1 1) rotate(0) translate(4 176)">
<title>insere_prerequisitos</title>
<polygon fill="white" stroke="none" points="-4,4 -4,-176 848,-176 848,4 -4,4"/>
<!-- Node1 -->
<g id="node1" class="node"><title>Node1</title>
<polygon fill="#bfbfbf" stroke="black" points="0,-76.5 0,-95.5 104,-95.5 104,-76.5 0,-76.5"/>
<text text-anchor="middle" x="52" y="-83.5" font-family="Helvetica,sans-Serif" font-size="10.00">insere_prerequisitos</text>
</g>
<!-- Node2 -->
<g id="node2" class="node"><title>Node2</title>
<g id="a_node2"><a xlink:href="include_2grafo_8h.html#adaeb2e2aa0bf8a2fbb149376a33bd443" target="_top" xlink:title="edita_tarefa">
<polygon fill="white" stroke="black" points="140,-114.5 140,-133.5 208,-133.5 208,-114.5 140,-114.5"/>
<text text-anchor="middle" x="174" y="-121.5" font-family="Helvetica,sans-Serif" font-size="10.00">edita_tarefa</text>
</a>
</g>
</g>
<!-- Node1&#45;&gt;Node2 -->
<g id="edge1" class="edge"><title>Node1&#45;&gt;Node2</title>
<path fill="none" stroke="midnightblue" d="M93.0435,-98.6804C109.257,-103.815 127.666,-109.644 142.729,-114.414"/>
<polygon fill="midnightblue" stroke="midnightblue" points="93.8711,-95.2713 83.2811,-95.589 91.7578,-101.945 93.8711,-95.2713"/>
</g>
<!-- Node8 -->
<g id="node8" class="node"><title>Node8</title>
<g id="a_node8"><a xlink:href="code_2grafo_8h.html#a0a4567a2f65956112b02ab39cbdeb152" target="_top" xlink:title="le_grafo">
<polygon fill="white" stroke="black" points="148.5,-152.5 148.5,-171.5 199.5,-171.5 199.5,-152.5 148.5,-152.5"/>
<text text-anchor="middle" x="174" y="-159.5" font-family="Helvetica,sans-Serif" font-size="10.00">le_grafo</text>
</a>
</g>
</g>
<!-- Node1&#45;&gt;Node8 -->
<g id="edge8" class="edge"><title>Node1&#45;&gt;Node8</title>
<path fill="none" stroke="midnightblue" d="M75.3892,-101.179C92.8269,-112.876 117.731,-129.31 140,-143 145.069,-146.116 150.652,-149.389 155.762,-152.324"/>
<polygon fill="midnightblue" stroke="midnightblue" points="77.2544,-98.2149 67.0045,-95.5332 73.3448,-104.021 77.2544,-98.2149"/>
</g>
<!-- Node10 -->
<g id="node10" class="node"><title>Node10</title>
<g id="a_node10"><a xlink:href="gtest__grafo_8cc.html#a207d91b43a907a510504a2f7d4c3ae7d" target="_top" xlink:title="TEST">
<polygon fill="white" stroke="black" points="153,-76.5 153,-95.5 195,-95.5 195,-76.5 153,-76.5"/>
<text text-anchor="middle" x="174" y="-83.5" font-family="Helvetica,sans-Serif" font-size="10.00">TEST</text>
</a>
</g>
</g>
<!-- Node1&#45;&gt;Node10 -->
<g id="edge11" class="edge"><title>Node1&#45;&gt;Node10</title>
<path fill="none" stroke="midnightblue" d="M114.386,-86C128.356,-86 142.226,-86 152.964,-86"/>
<polygon fill="midnightblue" stroke="midnightblue" points="114.239,-82.5001 104.239,-86 114.239,-89.5001 114.239,-82.5001"/>
</g>
<!-- Node11 -->
<g id="node11" class="node"><title>Node11</title>
<g id="a_node11"><a xlink:href="main_8cc.html#a16c89e840263b1af21caf3211b6640b2" target="_top" xlink:title="inserir_novo_pre_requisito">
<polygon fill="white" stroke="black" points="406,-0.5 406,-19.5 536,-19.5 536,-0.5 406,-0.5"/>
<text text-anchor="middle" x="471" y="-7.5" font-family="Helvetica,sans-Serif" font-size="10.00">inserir_novo_pre_requisito</text>
</a>
</g>
</g>
<!-- Node1&#45;&gt;Node11 -->
<g id="edge12" class="edge"><title>Node1&#45;&gt;Node11</title>
<path fill="none" stroke="midnightblue" d="M86.2523,-72.7344C102.338,-66.5844 122.016,-59.4488 140,-54 185.497,-40.2157 197.067,-36.5687 244,-29 298.227,-20.255 360.463,-15.3988 405.878,-12.79"/>
<polygon fill="midnightblue" stroke="midnightblue" points="84.8113,-69.539 76.7486,-76.4124 87.3378,-76.0672 84.8113,-69.539"/>
</g>
<!-- Node12 -->
<g id="node12" class="node"><title>Node12</title>
<g id="a_node12"><a xlink:href="main_8cc.html#a5c0ceb9634231b92e0dfc9db33b727fa" target="_top" xlink:title="tela_inserir_pre_requisito">
<polygon fill="white" stroke="black" points="244.5,-38.5 244.5,-57.5 369.5,-57.5 369.5,-38.5 244.5,-38.5"/>
<text text-anchor="middle" x="307" y="-45.5" font-family="Helvetica,sans-Serif" font-size="10.00">tela_inserir_pre_requisito</text>
</a>
</g>
</g>
<!-- Node1&#45;&gt;Node12 -->
<g id="edge14" class="edge"><title>Node1&#45;&gt;Node12</title>
<path fill="none" stroke="midnightblue" d="M102.664,-74.2476C114.829,-71.6198 127.846,-69.0173 140,-67 174.339,-61.3001 212.96,-56.769 244.303,-53.5635"/>
<polygon fill="midnightblue" stroke="midnightblue" points="101.695,-70.8772 92.683,-76.4486 103.202,-77.7129 101.695,-70.8772"/>
</g>
<!-- Node3 -->
<g id="node3" class="node"><title>Node3</title>
<g id="a_node3"><a xlink:href="main_8cc.html#a8d8002aa0f76981dad9ce30329767981" target="_top" xlink:title="edicao_tarefa">
<polygon fill="white" stroke="black" points="269.5,-76.5 269.5,-95.5 344.5,-95.5 344.5,-76.5 269.5,-76.5"/>
<text text-anchor="middle" x="307" y="-83.5" font-family="Helvetica,sans-Serif" font-size="10.00">edicao_tarefa</text>
</a>
</g>
</g>
<!-- Node2&#45;&gt;Node3 -->
<g id="edge2" class="edge"><title>Node2&#45;&gt;Node3</title>
<path fill="none" stroke="midnightblue" d="M217.715,-111.609C235.655,-106.406 256.2,-100.446 272.954,-95.5859"/>
<polygon fill="midnightblue" stroke="midnightblue" points="216.686,-108.264 208.057,-114.411 218.636,-114.986 216.686,-108.264"/>
</g>
<!-- Node4 -->
<g id="node4" class="node"><title>Node4</title>
<g id="a_node4"><a xlink:href="main_8cc.html#a7769e05575359d89d7467b1e46940ecf" target="_top" xlink:title="editar_tarefa">
<polygon fill="white" stroke="black" points="435.5,-76.5 435.5,-95.5 506.5,-95.5 506.5,-76.5 435.5,-76.5"/>
<text text-anchor="middle" x="471" y="-83.5" font-family="Helvetica,sans-Serif" font-size="10.00">editar_tarefa</text>
</a>
</g>
</g>
<!-- Node3&#45;&gt;Node4 -->
<g id="edge3" class="edge"><title>Node3&#45;&gt;Node4</title>
<path fill="none" stroke="midnightblue" d="M355.015,-86C380.677,-86 411.897,-86 435.326,-86"/>
<polygon fill="midnightblue" stroke="midnightblue" points="354.76,-82.5001 344.76,-86 354.76,-89.5001 354.76,-82.5001"/>
</g>
<!-- Node5 -->
<g id="node5" class="node"><title>Node5</title>
<g id="a_node5"><a xlink:href="main_8cc.html#af852bc15cf3d5217386a9bb0bf3b9abd" target="_top" xlink:title="operacoes_grafo">
<polygon fill="white" stroke="black" points="572.5,-57.5 572.5,-76.5 661.5,-76.5 661.5,-57.5 572.5,-57.5"/>
<text text-anchor="middle" x="617" y="-64.5" font-family="Helvetica,sans-Serif" font-size="10.00">operacoes_grafo</text>
</a>
</g>
</g>
<!-- Node4&#45;&gt;Node5 -->
<g id="edge4" class="edge"><title>Node4&#45;&gt;Node5</title>
<path fill="none" stroke="midnightblue" d="M516.942,-80.0702C534.636,-77.7356 554.881,-75.0643 572.438,-72.7478"/>
<polygon fill="midnightblue" stroke="midnightblue" points="516.315,-76.6225 506.858,-81.4006 517.23,-83.5624 516.315,-76.6225"/>
</g>
<!-- Node6 -->
<g id="node6" class="node"><title>Node6</title>
<g id="a_node6"><a xlink:href="main_8cc.html#af1ccf694bcf905341f10b534e5a272fa" target="_top" xlink:title="abrir_arquivo">
<polygon fill="white" stroke="black" points="698,-95.5 698,-114.5 770,-114.5 770,-95.5 698,-95.5"/>
<text text-anchor="middle" x="734" y="-102.5" font-family="Helvetica,sans-Serif" font-size="10.00">abrir_arquivo</text>
</a>
</g>
</g>
<!-- Node5&#45;&gt;Node6 -->
<g id="edge5" class="edge"><title>Node5&#45;&gt;Node6</title>
<path fill="none" stroke="midnightblue" d="M656.815,-79.8259C672.246,-84.9247 689.691,-90.6891 703.99,-95.4141"/>
<polygon fill="midnightblue" stroke="midnightblue" points="657.613,-76.4033 647.019,-76.589 655.416,-83.0498 657.613,-76.4033"/>
</g>
<!-- Node7 -->
<g id="node7" class="node"><title>Node7</title>
<g id="a_node7"><a xlink:href="main_8cc.html#ae66f6b31b5ad750f1fe042a706a4e3d4" target="_top" xlink:title="main">
<polygon fill="white" stroke="black" points="806,-76.5 806,-95.5 844,-95.5 844,-76.5 806,-76.5"/>
<text text-anchor="middle" x="825" y="-83.5" font-family="Helvetica,sans-Serif" font-size="10.00">main</text>
</a>
</g>
</g>
<!-- Node5&#45;&gt;Node7 -->
<g id="edge7" class="edge"><title>Node5&#45;&gt;Node7</title>
<path fill="none" stroke="midnightblue" d="M671.725,-71.9552C716.01,-76.0398 776.194,-81.5908 805.894,-84.33"/>
<polygon fill="midnightblue" stroke="midnightblue" points="671.967,-68.4627 661.687,-71.0294 671.324,-75.4331 671.967,-68.4627"/>
</g>
<!-- Node6&#45;&gt;Node7 -->
<g id="edge6" class="edge"><title>Node6&#45;&gt;Node7</title>
<path fill="none" stroke="midnightblue" d="M780.067,-95.3789C789.24,-93.4207 798.38,-91.4694 805.929,-89.8578"/>
<polygon fill="midnightblue" stroke="midnightblue" points="779.224,-91.98 770.175,-97.4907 780.686,-98.8257 779.224,-91.98"/>
</g>
<!-- Node8&#45;&gt;Node6 -->
<g id="edge10" class="edge"><title>Node8&#45;&gt;Node6</title>
<path fill="none" stroke="midnightblue" d="M209.919,-158.674C248.944,-154.939 314.01,-148.658 370,-143 490.414,-130.831 633.214,-115.668 697.966,-108.752"/>
<polygon fill="midnightblue" stroke="midnightblue" points="209.253,-155.221 199.632,-159.657 209.919,-162.19 209.253,-155.221"/>
</g>
<!-- Node9 -->
<g id="node9" class="node"><title>Node9</title>
<g id="a_node9"><a xlink:href="gtest__grafo_8cc.html#acdd61f8b660ae6979528c7e3da0e134d" target="_top" xlink:title="TEST">
<polygon fill="white" stroke="black" points="286,-114.5 286,-133.5 328,-133.5 328,-114.5 286,-114.5"/>
<text text-anchor="middle" x="307" y="-121.5" font-family="Helvetica,sans-Serif" font-size="10.00">TEST</text>
</a>
</g>
</g>
<!-- Node8&#45;&gt;Node9 -->
<g id="edge9" class="edge"><title>Node8&#45;&gt;Node9</title>
<path fill="none" stroke="midnightblue" d="M209.539,-151.981C233.817,-144.938 265.466,-135.758 285.765,-129.87"/>
<polygon fill="midnightblue" stroke="midnightblue" points="208.269,-148.705 199.64,-154.852 210.219,-155.428 208.269,-148.705"/>
</g>
<!-- Node11&#45;&gt;Node5 -->
<g id="edge13" class="edge"><title>Node11&#45;&gt;Node5</title>
<path fill="none" stroke="midnightblue" d="M517.581,-22.5848C523.821,-24.5824 530.105,-26.7405 536,-29 557.824,-37.3647 581.935,-49.1928 597.923,-57.4226"/>
<polygon fill="midnightblue" stroke="midnightblue" points="518.461,-19.1933 507.873,-19.5863 516.395,-25.8816 518.461,-19.1933"/>
</g>
<!-- Node13 -->
<g id="node13" class="node"><title>Node13</title>
<g id="a_node13"><a xlink:href="main_8cc.html#adb3b0c3b009c68f86673eb7bdeef601c" target="_top" xlink:title="inserir_tarefa">
<polygon fill="white" stroke="black" points="434.5,-38.5 434.5,-57.5 507.5,-57.5 507.5,-38.5 434.5,-38.5"/>
<text text-anchor="middle" x="471" y="-45.5" font-family="Helvetica,sans-Serif" font-size="10.00">inserir_tarefa</text>
</a>
</g>
</g>
<!-- Node12&#45;&gt;Node13 -->
<g id="edge15" class="edge"><title>Node12&#45;&gt;Node13</title>
<path fill="none" stroke="midnightblue" d="M379.793,-48C398.664,-48 418.21,-48 434.264,-48"/>
<polygon fill="midnightblue" stroke="midnightblue" points="379.707,-44.5001 369.707,-48 379.707,-51.5001 379.707,-44.5001"/>
</g>
<!-- Node13&#45;&gt;Node5 -->
<g id="edge16" class="edge"><title>Node13&#45;&gt;Node5</title>
<path fill="none" stroke="midnightblue" d="M517.584,-54.0146C535.088,-56.3241 555.01,-58.9527 572.33,-61.2379"/>
<polygon fill="midnightblue" stroke="midnightblue" points="517.967,-50.5349 507.596,-52.6966 517.052,-57.4747 517.967,-50.5349"/>
</g>
</g>
</svg>
