<?xml version="1.0" encoding="UTF-8" standalone="no"?>
<!DOCTYPE svg PUBLIC "-//W3C//DTD SVG 1.1//EN"
 "http://www.w3.org/Graphics/SVG/1.1/DTD/svg11.dtd">
<!-- Generated by graphviz version 2.36.0 (20140111.2315)
 -->
<!-- Title: tela_inserir_pre_requisito Pages: 1 -->
<svg width="412pt" height="186pt"
 viewBox="0.00 0.00 412.00 186.15" xmlns="http://www.w3.org/2000/svg" xmlns:xlink="http://www.w3.org/1999/xlink">
<g id="graph0" class="graph" transform="scale(1 1) rotate(0) translate(4 182.147)">
<title>tela_inserir_pre_requisito</title>
<polygon fill="white" stroke="none" points="-4,4 -4,-182.147 408,-182.147 408,4 -4,4"/>
<!-- Node1 -->
<g id="node1" class="node"><title>Node1</title>
<polygon fill="#bfbfbf" stroke="black" points="0.5,-79.573 0.5,-98.573 125.5,-98.573 125.5,-79.573 0.5,-79.573"/>
<text text-anchor="middle" x="63" y="-86.573" font-family="Helvetica,sans-Serif" font-size="10.00">tela_inserir_pre_requisito</text>
</g>
<!-- Node2 -->
<g id="node2" class="node"><title>Node2</title>
<g id="a_node2"><a xlink:href="main_8cc.html#ad2a06ffdf1033b3b1c11f337fa12553b" target="_top" xlink:title="imprimirRotulo">
<polygon fill="white" stroke="black" points="324,-155.573 324,-174.573 404,-174.573 404,-155.573 324,-155.573"/>
<text text-anchor="middle" x="364" y="-162.573" font-family="Helvetica,sans-Serif" font-size="10.00">imprimirRotulo</text>
</a>
</g>
</g>
<!-- Node1&#45;&gt;Node2 -->
<g id="edge1" class="edge"><title>Node1&#45;&gt;Node2</title>
<path fill="none" stroke="midnightblue" d="M72.2206,-98.7079C87.6903,-116.004 123.093,-151.755 162,-165.073 211.61,-182.056 272.233,-179.101 313.847,-173.764"/>
<polygon fill="midnightblue" stroke="midnightblue" points="314.57,-177.198 324,-172.367 313.616,-170.263 314.57,-177.198"/>
</g>
<!-- Node3 -->
<g id="node3" class="node"><title>Node3</title>
<g id="a_node3"><a xlink:href="grafo_8cc.html#a1e996ff4a17fa0e42fc8ff6bdc605dc1" target="_top" xlink:title="pesquisa_tarefa">
<polygon fill="white" stroke="black" points="182,-136.573 182,-155.573 268,-155.573 268,-136.573 182,-136.573"/>
<text text-anchor="middle" x="225" y="-143.573" font-family="Helvetica,sans-Serif" font-size="10.00">pesquisa_tarefa</text>
</a>
</g>
</g>
<!-- Node1&#45;&gt;Node3 -->
<g id="edge2" class="edge"><title>Node1&#45;&gt;Node3</title>
<path fill="none" stroke="midnightblue" d="M87.1892,-98.6123C106.937,-106.604 136.137,-118.109 162,-127.073 168.361,-129.278 175.133,-131.489 181.777,-133.584"/>
<polygon fill="midnightblue" stroke="midnightblue" points="180.769,-136.935 191.357,-136.555 182.842,-130.249 180.769,-136.935"/>
</g>
<!-- Node4 -->
<g id="node4" class="node"><title>Node4</title>
<g id="a_node4"><a xlink:href="grafo_8cc.html#a3fe6389b74d0356a95800a3d29d7d664" target="_top" xlink:title="insere_prerequisitos">
<polygon fill="white" stroke="black" points="173,-22.573 173,-41.573 277,-41.573 277,-22.573 173,-22.573"/>
<text text-anchor="middle" x="225" y="-29.573" font-family="Helvetica,sans-Serif" font-size="10.00">insere_prerequisitos</text>
</a>
</g>
</g>
<!-- Node1&#45;&gt;Node4 -->
<g id="edge3" class="edge"><title>Node1&#45;&gt;Node4</title>
<path fill="none" stroke="midnightblue" d="M90.7804,-79.5325C117.316,-70.0793 158.148,-55.5328 187.613,-45.036"/>
<polygon fill="midnightblue" stroke="midnightblue" points="188.887,-48.2977 197.132,-41.6447 186.538,-41.7036 188.887,-48.2977"/>
</g>
<!-- Node5 -->
<g id="node5" class="node"><title>Node5</title>
<g id="a_node5"><a xlink:href="grafo_8cc.html#a0e6585acadedc05719f93fa778cf1dcb" target="_top" xlink:title="procura_tarefa">
<polygon fill="white" stroke="black" points="324.5,-3.57305 324.5,-22.573 403.5,-22.573 403.5,-3.57305 324.5,-3.57305"/>
<text text-anchor="middle" x="364" y="-10.573" font-family="Helvetica,sans-Serif" font-size="10.00">procura_tarefa</text>
</a>
</g>
</g>
<!-- Node1&#45;&gt;Node5 -->
<g id="edge9" class="edge"><title>Node1&#45;&gt;Node5</title>
<path fill="none" stroke="midnightblue" d="M72.2206,-79.4382C87.6903,-62.1422 123.093,-26.3916 162,-13.073 211.762,3.9615 272.605,0.936995 314.23,-4.43114"/>
<polygon fill="midnightblue" stroke="midnightblue" points="313.995,-7.93185 324.38,-5.83563 314.954,-0.997918 313.995,-7.93185"/>
</g>
<!-- Node6 -->
<g id="node6" class="node"><title>Node6</title>
<g id="a_node6"><a xlink:href="main_8cc.html#abe7109d6b800c7cd9f5c2097bc8df894" target="_top" xlink:title="destruir_menu">
<polygon fill="white" stroke="black" points="325,-79.573 325,-98.573 403,-98.573 403,-79.573 325,-79.573"/>
<text text-anchor="middle" x="364" y="-86.573" font-family="Helvetica,sans-Serif" font-size="10.00">destruir_menu</text>
</a>
</g>
</g>
<!-- Node1&#45;&gt;Node6 -->
<g id="edge5" class="edge"><title>Node1&#45;&gt;Node6</title>
<path fill="none" stroke="midnightblue" d="M125.59,-89.073C181.568,-89.073 263.048,-89.073 314.516,-89.073"/>
<polygon fill="midnightblue" stroke="midnightblue" points="314.708,-92.5731 324.708,-89.073 314.708,-85.5731 314.708,-92.5731"/>
</g>
<!-- Node7 -->
<g id="node7" class="node"><title>Node7</title>
<g id="a_node7"><a xlink:href="main_8cc.html#aef0e5ebaf10f94ec3baf710468b2bca8" target="_top" xlink:title="erro_insere_pre_requisito">
<polygon fill="white" stroke="black" points="162.5,-98.573 162.5,-117.573 287.5,-117.573 287.5,-98.573 162.5,-98.573"/>
<text text-anchor="middle" x="225" y="-105.573" font-family="Helvetica,sans-Serif" font-size="10.00">erro_insere_pre_requisito</text>
</a>
</g>
</g>
<!-- Node1&#45;&gt;Node7 -->
<g id="edge6" class="edge"><title>Node1&#45;&gt;Node7</title>
<path fill="none" stroke="midnightblue" d="M125.86,-96.4189C134.456,-97.4397 143.347,-98.4955 152.107,-99.5357"/>
<polygon fill="midnightblue" stroke="midnightblue" points="151.961,-103.043 162.304,-100.747 152.787,-96.0918 151.961,-103.043"/>
</g>
<!-- Node4&#45;&gt;Node5 -->
<g id="edge4" class="edge"><title>Node4&#45;&gt;Node5</title>
<path fill="none" stroke="midnightblue" d="M277.014,-24.9981C289.257,-23.3001 302.3,-21.4914 314.429,-19.8092"/>
<polygon fill="midnightblue" stroke="midnightblue" points="314.94,-23.2718 324.365,-18.4312 313.979,-16.3382 314.94,-23.2718"/>
</g>
<!-- Node7&#45;&gt;Node2 -->
<g id="edge7" class="edge"><title>Node7&#45;&gt;Node2</title>
<path fill="none" stroke="midnightblue" d="M260.801,-117.59C269.769,-120.354 279.333,-123.58 288,-127.073 304.72,-133.813 322.762,-142.893 336.96,-150.488"/>
<polygon fill="midnightblue" stroke="midnightblue" points="335.654,-153.761 346.112,-155.461 338.997,-147.611 335.654,-153.761"/>
</g>
<!-- Node7&#45;&gt;Node6 -->
<g id="edge8" class="edge"><title>Node7&#45;&gt;Node6</title>
<path fill="none" stroke="midnightblue" d="M287.687,-99.5179C296.773,-98.2578 306.021,-96.9752 314.782,-95.7602"/>
<polygon fill="midnightblue" stroke="midnightblue" points="315.381,-99.2108 324.805,-94.3701 314.419,-92.2771 315.381,-99.2108"/>
</g>
</g>
</svg>
