<?xml version="1.0" encoding="UTF-8" standalone="no"?>
<!DOCTYPE svg PUBLIC "-//W3C//DTD SVG 1.1//EN"
 "http://www.w3.org/Graphics/SVG/1.1/DTD/svg11.dtd">
<!-- Generated by graphviz version 2.36.0 (20140111.2315)
 -->
<!-- Title: visualizador_tarefas Pages: 1 -->
<svg width="560pt" height="426pt"
 viewBox="0.00 0.00 560.00 426.00" xmlns="http://www.w3.org/2000/svg" xmlns:xlink="http://www.w3.org/1999/xlink">
<g id="graph0" class="graph" transform="scale(1 1) rotate(0) translate(4 422)">
<title>visualizador_tarefas</title>
<polygon fill="white" stroke="none" points="-4,4 -4,-422 556,-422 556,4 -4,4"/>
<!-- Node1 -->
<g id="node1" class="node"><title>Node1</title>
<polygon fill="#bfbfbf" stroke="black" points="0,-283.5 0,-302.5 104,-302.5 104,-283.5 0,-283.5"/>
<text text-anchor="middle" x="52" y="-290.5" font-family="Helvetica,sans-Serif" font-size="10.00">visualizador_tarefas</text>
</g>
<!-- Node2 -->
<g id="node2" class="node"><title>Node2</title>
<g id="a_node2"><a xlink:href="main_8cc.html#a4611d53166aabe6d0fb24bcfd407bd53" target="_top" xlink:title="print_visualizador">
<polygon fill="white" stroke="black" points="161,-398.5 161,-417.5 253,-417.5 253,-398.5 161,-398.5"/>
<text text-anchor="middle" x="207" y="-405.5" font-family="Helvetica,sans-Serif" font-size="10.00">print_visualizador</text>
</a>
</g>
</g>
<!-- Node1&#45;&gt;Node2 -->
<g id="edge1" class="edge"><title>Node1&#45;&gt;Node2</title>
<path fill="none" stroke="midnightblue" d="M59.7955,-302.632C73.1652,-320.929 104.676,-360.941 140,-384 146.317,-388.124 153.436,-391.656 160.601,-394.642"/>
<polygon fill="midnightblue" stroke="midnightblue" points="159.737,-398.06 170.327,-398.379 162.248,-391.525 159.737,-398.06"/>
</g>
<!-- Node3 -->
<g id="node3" class="node"><title>Node3</title>
<g id="a_node3"><a xlink:href="main_8cc.html#abe7109d6b800c7cd9f5c2097bc8df894" target="_top" xlink:title="destruir_menu">
<polygon fill="white" stroke="black" points="473,-265.5 473,-284.5 551,-284.5 551,-265.5 473,-265.5"/>
<text text-anchor="middle" x="512" y="-272.5" font-family="Helvetica,sans-Serif" font-size="10.00">destruir_menu</text>
</a>
</g>
</g>
<!-- Node1&#45;&gt;Node3 -->
<g id="edge2" class="edge"><title>Node1&#45;&gt;Node3</title>
<path fill="none" stroke="midnightblue" d="M71.7994,-302.622C128.957,-330.486 304.772,-405.866 436,-351 463.945,-339.316 486.771,-311.586 499.628,-293.053"/>
<polygon fill="midnightblue" stroke="midnightblue" points="502.647,-294.835 505.268,-284.569 496.817,-290.96 502.647,-294.835"/>
</g>
<!-- Node4 -->
<g id="node4" class="node"><title>Node4</title>
<g id="a_node4"><a xlink:href="main_8cc.html#aa0ac4a2d1125c89ec5acc37dfde748c6" target="_top" xlink:title="ver_tarefas">
<polygon fill="white" stroke="black" points="340.5,-322.5 340.5,-341.5 405.5,-341.5 405.5,-322.5 340.5,-322.5"/>
<text text-anchor="middle" x="373" y="-329.5" font-family="Helvetica,sans-Serif" font-size="10.00">ver_tarefas</text>
</a>
</g>
</g>
<!-- Node1&#45;&gt;Node4 -->
<g id="edge3" class="edge"><title>Node1&#45;&gt;Node4</title>
<path fill="none" stroke="midnightblue" d="M104.253,-299.266C167.056,-306.944 272.253,-319.805 330.329,-326.905"/>
<polygon fill="midnightblue" stroke="midnightblue" points="329.91,-330.38 340.261,-328.12 330.759,-323.432 329.91,-330.38"/>
</g>
<!-- Node6 -->
<g id="node6" class="node"><title>Node6</title>
<g id="a_node6"><a xlink:href="main_8cc.html#a4f8f29b1eba21e0b51992f8de173a582" target="_top" xlink:title="mostrar_pre_requisitos">
<polygon fill="white" stroke="black" points="315,-246.5 315,-265.5 431,-265.5 431,-246.5 315,-246.5"/>
<text text-anchor="middle" x="373" y="-253.5" font-family="Helvetica,sans-Serif" font-size="10.00">mostrar_pre_requisitos</text>
</a>
</g>
</g>
<!-- Node1&#45;&gt;Node6 -->
<g id="edge6" class="edge"><title>Node1&#45;&gt;Node6</title>
<path fill="none" stroke="midnightblue" d="M104.253,-287.055C158.695,-280.741 244.995,-270.731 304.84,-263.79"/>
<polygon fill="midnightblue" stroke="midnightblue" points="305.419,-267.246 314.949,-262.617 304.612,-260.293 305.419,-267.246"/>
</g>
<!-- Node7 -->
<g id="node7" class="node"><title>Node7</title>
<g id="a_node7"><a xlink:href="main_8cc.html#ab05b93d97a47c67aab51426cdad29a86" target="_top" xlink:title="ver_tarefas_concluidas">
<polygon fill="white" stroke="black" points="314.5,-208.5 314.5,-227.5 431.5,-227.5 431.5,-208.5 314.5,-208.5"/>
<text text-anchor="middle" x="373" y="-215.5" font-family="Helvetica,sans-Serif" font-size="10.00">ver_tarefas_concluidas</text>
</a>
</g>
</g>
<!-- Node1&#45;&gt;Node7 -->
<g id="edge9" class="edge"><title>Node1&#45;&gt;Node7</title>
<path fill="none" stroke="midnightblue" d="M77.8384,-283.392C95.0859,-276.979 118.703,-268.707 140,-263 194.643,-248.357 257.726,-236.433 304.306,-228.548"/>
<polygon fill="midnightblue" stroke="midnightblue" points="304.998,-231.98 314.283,-226.877 303.842,-225.077 304.998,-231.98"/>
</g>
<!-- Node8 -->
<g id="node8" class="node"><title>Node8</title>
<g id="a_node8"><a xlink:href="main_8cc.html#adcc550070c8292efdd63f7df8bbdd58a" target="_top" xlink:title="filtrar_tarefas_completadas">
<polygon fill="white" stroke="black" points="140,-170.5 140,-189.5 274,-189.5 274,-170.5 140,-170.5"/>
<text text-anchor="middle" x="207" y="-177.5" font-family="Helvetica,sans-Serif" font-size="10.00">filtrar_tarefas_completadas</text>
</a>
</g>
</g>
<!-- Node1&#45;&gt;Node8 -->
<g id="edge12" class="edge"><title>Node1&#45;&gt;Node8</title>
<path fill="none" stroke="midnightblue" d="M60.0565,-283.309C73.6299,-265.304 105.135,-226.484 140,-204 146.41,-199.866 153.63,-196.319 160.879,-193.32"/>
<polygon fill="midnightblue" stroke="midnightblue" points="162.618,-196.402 170.711,-189.564 160.12,-189.863 162.618,-196.402"/>
</g>
<!-- Node4&#45;&gt;Node3 -->
<g id="edge5" class="edge"><title>Node4&#45;&gt;Node3</title>
<path fill="none" stroke="midnightblue" d="M399.442,-322.449C410.692,-318.149 424.053,-312.938 436,-308 450.811,-301.879 467.11,-294.754 480.72,-288.695"/>
<polygon fill="midnightblue" stroke="midnightblue" points="482.396,-291.779 490.095,-284.501 479.538,-285.39 482.396,-291.779"/>
</g>
<!-- Node5 -->
<g id="node5" class="node"><title>Node5</title>
<g id="a_node5"><a xlink:href="main_8cc.html#ad2a06ffdf1033b3b1c11f337fa12553b" target="_top" xlink:title="imprimirRotulo">
<polygon fill="white" stroke="black" points="472,-208.5 472,-227.5 552,-227.5 552,-208.5 472,-208.5"/>
<text text-anchor="middle" x="512" y="-215.5" font-family="Helvetica,sans-Serif" font-size="10.00">imprimirRotulo</text>
</a>
</g>
</g>
<!-- Node4&#45;&gt;Node5 -->
<g id="edge4" class="edge"><title>Node4&#45;&gt;Node5</title>
<path fill="none" stroke="midnightblue" d="M385.681,-322.28C409.238,-302.678 462.656,-258.228 491.559,-234.177"/>
<polygon fill="midnightblue" stroke="midnightblue" points="493.901,-236.782 499.349,-227.695 489.423,-231.401 493.901,-236.782"/>
</g>
<!-- Node6&#45;&gt;Node3 -->
<g id="edge8" class="edge"><title>Node6&#45;&gt;Node3</title>
<path fill="none" stroke="midnightblue" d="M431.307,-263.948C441.646,-265.382 452.336,-266.864 462.398,-268.26"/>
<polygon fill="midnightblue" stroke="midnightblue" points="462.23,-271.77 472.616,-269.677 463.191,-264.836 462.23,-271.77"/>
</g>
<!-- Node6&#45;&gt;Node5 -->
<g id="edge7" class="edge"><title>Node6&#45;&gt;Node5</title>
<path fill="none" stroke="midnightblue" d="M408.571,-246.411C426.175,-241.528 447.779,-235.536 466.601,-230.315"/>
<polygon fill="midnightblue" stroke="midnightblue" points="467.739,-233.631 476.44,-227.586 465.868,-226.886 467.739,-233.631"/>
</g>
<!-- Node7&#45;&gt;Node3 -->
<g id="edge11" class="edge"><title>Node7&#45;&gt;Node3</title>
<path fill="none" stroke="midnightblue" d="M408.801,-227.517C417.769,-230.281 427.333,-233.507 436,-237 452.72,-243.74 470.762,-252.82 484.96,-260.415"/>
<polygon fill="midnightblue" stroke="midnightblue" points="483.654,-263.688 494.112,-265.388 486.997,-257.538 483.654,-263.688"/>
</g>
<!-- Node7&#45;&gt;Node5 -->
<g id="edge10" class="edge"><title>Node7&#45;&gt;Node5</title>
<path fill="none" stroke="midnightblue" d="M431.703,-218C441.585,-218 451.773,-218 461.419,-218"/>
<polygon fill="midnightblue" stroke="midnightblue" points="461.632,-221.5 471.632,-218 461.632,-214.5 461.632,-221.5"/>
</g>
<!-- Node8&#45;&gt;Node3 -->
<g id="edge14" class="edge"><title>Node8&#45;&gt;Node3</title>
<path fill="none" stroke="midnightblue" d="M214.469,-189.717C228.78,-210.219 265.414,-257.453 310,-275 359.347,-294.421 420.938,-290.784 462.847,-284.621"/>
<polygon fill="midnightblue" stroke="midnightblue" points="463.459,-288.068 472.794,-283.057 462.371,-281.153 463.459,-288.068"/>
</g>
<!-- Node8&#45;&gt;Node5 -->
<g id="edge13" class="edge"><title>Node8&#45;&gt;Node5</title>
<path fill="none" stroke="midnightblue" d="M233.194,-170.445C276.595,-155.572 367.402,-131.494 436,-161 457.371,-170.192 453.241,-185.24 472,-199 474.201,-200.615 476.561,-202.153 478.991,-203.605"/>
<polygon fill="midnightblue" stroke="midnightblue" points="477.476,-206.765 487.934,-208.46 480.816,-200.613 477.476,-206.765"/>
</g>
<!-- Node9 -->
<g id="node9" class="node"><title>Node9</title>
<g id="a_node9"><a xlink:href="grafo_8cc.html#abce1552216c6841949c616cecd5a4c0b" target="_top" xlink:title="tarefas_concluidas">
<polygon fill="white" stroke="black" points="324,-94.5 324,-113.5 422,-113.5 422,-94.5 324,-94.5"/>
<text text-anchor="middle" x="373" y="-101.5" font-family="Helvetica,sans-Serif" font-size="10.00">tarefas_concluidas</text>
</a>
</g>
</g>
<!-- Node8&#45;&gt;Node9 -->
<g id="edge15" class="edge"><title>Node8&#45;&gt;Node9</title>
<path fill="none" stroke="midnightblue" d="M225.425,-170.427C245.523,-159.548 279.696,-141.547 310,-128 318.345,-124.269 327.46,-120.55 336.071,-117.192"/>
<polygon fill="midnightblue" stroke="midnightblue" points="337.425,-120.421 345.51,-113.573 334.919,-113.885 337.425,-120.421"/>
</g>
<!-- Node14 -->
<g id="node14" class="node"><title>Node14</title>
<g id="a_node14"><a xlink:href="main_8cc.html#aaaa25a5b0eda0fab944a03026249b324" target="_top" xlink:title="mostrar_tarefas_filtradas">
<polygon fill="white" stroke="black" points="310.5,-170.5 310.5,-189.5 435.5,-189.5 435.5,-170.5 310.5,-170.5"/>
<text text-anchor="middle" x="373" y="-177.5" font-family="Helvetica,sans-Serif" font-size="10.00">mostrar_tarefas_filtradas</text>
</a>
</g>
</g>
<!-- Node8&#45;&gt;Node14 -->
<g id="edge21" class="edge"><title>Node8&#45;&gt;Node14</title>
<path fill="none" stroke="midnightblue" d="M274.232,-180C282.794,-180 291.595,-180 300.241,-180"/>
<polygon fill="midnightblue" stroke="midnightblue" points="300.296,-183.5 310.296,-180 300.296,-176.5 300.296,-183.5"/>
</g>
<!-- Node10 -->
<g id="node10" class="node"><title>Node10</title>
<g id="a_node10"><a xlink:href="grafo_8cc.html#acbf9093cdf86cc258309a203729436b2" target="_top" xlink:title="insere_lista">
<polygon fill="white" stroke="black" points="479,-94.5 479,-113.5 545,-113.5 545,-94.5 479,-94.5"/>
<text text-anchor="middle" x="512" y="-101.5" font-family="Helvetica,sans-Serif" font-size="10.00">insere_lista</text>
</a>
</g>
</g>
<!-- Node9&#45;&gt;Node10 -->
<g id="edge16" class="edge"><title>Node9&#45;&gt;Node10</title>
<path fill="none" stroke="midnightblue" d="M422.301,-104C437.427,-104 453.996,-104 468.676,-104"/>
<polygon fill="midnightblue" stroke="midnightblue" points="468.985,-107.5 478.985,-104 468.985,-100.5 468.985,-107.5"/>
</g>
<!-- Node11 -->
<g id="node11" class="node"><title>Node11</title>
<g id="a_node11"><a xlink:href="grafo_8cc.html#a6884bc1455bdfb3648b3e2514998e599" target="_top" xlink:title="tempo_minimo">
<polygon fill="white" stroke="black" points="472,-38.5 472,-57.5 552,-57.5 552,-38.5 472,-38.5"/>
<text text-anchor="middle" x="512" y="-45.5" font-family="Helvetica,sans-Serif" font-size="10.00">tempo_minimo</text>
</a>
</g>
</g>
<!-- Node9&#45;&gt;Node11 -->
<g id="edge17" class="edge"><title>Node9&#45;&gt;Node11</title>
<path fill="none" stroke="midnightblue" d="M397.551,-94.3733C419.839,-85.2629 453.494,-71.5062 478.364,-61.3404"/>
<polygon fill="midnightblue" stroke="midnightblue" points="479.824,-64.5247 487.756,-57.5011 477.175,-58.0451 479.824,-64.5247"/>
</g>
<!-- Node12 -->
<g id="node12" class="node"><title>Node12</title>
<g id="a_node12"><a xlink:href="grafo_8cc.html#ae12d615ab927bce766dcc94b9f1b404d" target="_top" xlink:title="remove_lista">
<polygon fill="white" stroke="black" points="476,-0.5 476,-19.5 548,-19.5 548,-0.5 476,-0.5"/>
<text text-anchor="middle" x="512" y="-7.5" font-family="Helvetica,sans-Serif" font-size="10.00">remove_lista</text>
</a>
</g>
</g>
<!-- Node9&#45;&gt;Node12 -->
<g id="edge19" class="edge"><title>Node9&#45;&gt;Node12</title>
<path fill="none" stroke="midnightblue" d="M384.936,-94.4551C402.507,-79.3974 438.46,-49.7152 472,-29 474.669,-27.3514 477.503,-25.7362 480.376,-24.1872"/>
<polygon fill="midnightblue" stroke="midnightblue" points="482.225,-27.1725 489.537,-19.5052 479.04,-20.9393 482.225,-27.1725"/>
</g>
<!-- Node13 -->
<g id="node13" class="node"><title>Node13</title>
<g id="a_node13"><a xlink:href="grafo_8cc.html#a755ed9b778398a7614e61bdb3084717b" target="_top" xlink:title="compara">
<polygon fill="white" stroke="black" points="485,-132.5 485,-151.5 539,-151.5 539,-132.5 485,-132.5"/>
<text text-anchor="middle" x="512" y="-139.5" font-family="Helvetica,sans-Serif" font-size="10.00">compara</text>
</a>
</g>
</g>
<!-- Node9&#45;&gt;Node13 -->
<g id="edge20" class="edge"><title>Node9&#45;&gt;Node13</title>
<path fill="none" stroke="midnightblue" d="M408.571,-113.589C428.779,-119.194 454.257,-126.261 474.747,-131.944"/>
<polygon fill="midnightblue" stroke="midnightblue" points="474.084,-135.393 484.656,-134.693 475.955,-128.647 474.084,-135.393"/>
</g>
<!-- Node11&#45;&gt;Node11 -->
<g id="edge18" class="edge"><title>Node11&#45;&gt;Node11</title>
<path fill="none" stroke="midnightblue" d="M490.73,-57.7571C480.383,-66.5653 487.473,-76 512,-76 527.713,-76 536.269,-72.128 537.67,-67.0292"/>
<polygon fill="midnightblue" stroke="midnightblue" points="540.719,-65.2911 533.27,-57.7571 534.395,-68.292 540.719,-65.2911"/>
</g>
<!-- Node14&#45;&gt;Node3 -->
<g id="edge24" class="edge"><title>Node14&#45;&gt;Node3</title>
<path fill="none" stroke="midnightblue" d="M415.652,-189.509C422.722,-192.022 429.78,-195.145 436,-199 455.774,-211.257 455.665,-220.435 472,-237 478.965,-244.064 486.773,-251.721 493.563,-258.299"/>
<polygon fill="midnightblue" stroke="midnightblue" points="491.325,-261.004 500.954,-265.425 496.184,-255.965 491.325,-261.004"/>
</g>
<!-- Node14&#45;&gt;Node5 -->
<g id="edge22" class="edge"><title>Node14&#45;&gt;Node5</title>
<path fill="none" stroke="midnightblue" d="M408.571,-189.589C426.175,-194.472 447.779,-200.464 466.601,-205.685"/>
<polygon fill="midnightblue" stroke="midnightblue" points="465.868,-209.114 476.44,-208.414 467.739,-202.369 465.868,-209.114"/>
</g>
<!-- Node15 -->
<g id="node15" class="node"><title>Node15</title>
<g id="a_node15"><a xlink:href="grafo_8cc.html#a0e6585acadedc05719f93fa778cf1dcb" target="_top" xlink:title="procura_tarefa">
<polygon fill="white" stroke="black" points="472.5,-170.5 472.5,-189.5 551.5,-189.5 551.5,-170.5 472.5,-170.5"/>
<text text-anchor="middle" x="512" y="-177.5" font-family="Helvetica,sans-Serif" font-size="10.00">procura_tarefa</text>
</a>
</g>
</g>
<!-- Node14&#45;&gt;Node15 -->
<g id="edge23" class="edge"><title>Node14&#45;&gt;Node15</title>
<path fill="none" stroke="midnightblue" d="M435.687,-180C444.573,-180 453.615,-180 462.204,-180"/>
<polygon fill="midnightblue" stroke="midnightblue" points="462.416,-183.5 472.416,-180 462.416,-176.5 462.416,-183.5"/>
</g>
</g>
</svg>
