<?xml version="1.0" encoding="UTF-8" standalone="no"?>
<!DOCTYPE svg PUBLIC "-//W3C//DTD SVG 1.1//EN"
 "http://www.w3.org/Graphics/SVG/1.1/DTD/svg11.dtd">
<!-- Generated by graphviz version 2.36.0 (20140111.2315)
 -->
<!-- Title: visualizador_tarefas Pages: 1 -->
<svg width="382pt" height="180pt"
 viewBox="0.00 0.00 382.00 180.00" xmlns="http://www.w3.org/2000/svg" xmlns:xlink="http://www.w3.org/1999/xlink">
<g id="graph0" class="graph" transform="scale(1 1) rotate(0) translate(4 176)">
<title>visualizador_tarefas</title>
<polygon fill="white" stroke="none" points="-4,4 -4,-176 378,-176 378,4 -4,4"/>
<!-- Node1 -->
<g id="node1" class="node"><title>Node1</title>
<polygon fill="#bfbfbf" stroke="black" points="0,-76.5 0,-95.5 104,-95.5 104,-76.5 0,-76.5"/>
<text text-anchor="middle" x="52" y="-83.5" font-family="Helvetica,sans-Serif" font-size="10.00">visualizador_tarefas</text>
</g>
<!-- Node2 -->
<g id="node2" class="node"><title>Node2</title>
<g id="a_node2"><a xlink:href="main_8cc.html#a4611d53166aabe6d0fb24bcfd407bd53" target="_top" xlink:title="print_visualizador">
<polygon fill="white" stroke="black" points="153,-152.5 153,-171.5 245,-171.5 245,-152.5 153,-152.5"/>
<text text-anchor="middle" x="199" y="-159.5" font-family="Helvetica,sans-Serif" font-size="10.00">print_visualizador</text>
</a>
</g>
</g>
<!-- Node1&#45;&gt;Node2 -->
<g id="edge1" class="edge"><title>Node1&#45;&gt;Node2</title>
<path fill="none" stroke="midnightblue" d="M67.4088,-95.505C84.3711,-106.482 113.584,-124.73 140,-138 147.326,-141.68 155.356,-145.27 163.042,-148.505"/>
<polygon fill="midnightblue" stroke="midnightblue" points="161.936,-151.835 172.516,-152.393 164.594,-145.359 161.936,-151.835"/>
</g>
<!-- Node3 -->
<g id="node3" class="node"><title>Node3</title>
<g id="a_node3"><a xlink:href="main_8cc.html#abe7109d6b800c7cd9f5c2097bc8df894" target="_top" xlink:title="destruir_menu">
<polygon fill="white" stroke="black" points="295,-76.5 295,-95.5 373,-95.5 373,-76.5 295,-76.5"/>
<text text-anchor="middle" x="334" y="-83.5" font-family="Helvetica,sans-Serif" font-size="10.00">destruir_menu</text>
</a>
</g>
</g>
<!-- Node1&#45;&gt;Node3 -->
<g id="edge2" class="edge"><title>Node1&#45;&gt;Node3</title>
<path fill="none" stroke="midnightblue" d="M88.2726,-95.5084C103.98,-99.2731 122.785,-103.142 140,-105 192.142,-110.627 205.959,-111.489 258,-105 269.43,-103.575 281.617,-100.973 292.772,-98.1417"/>
<polygon fill="midnightblue" stroke="midnightblue" points="293.913,-101.46 302.676,-95.505 292.112,-94.6958 293.913,-101.46"/>
</g>
<!-- Node4 -->
<g id="node4" class="node"><title>Node4</title>
<g id="a_node4"><a xlink:href="main_8cc.html#aa0ac4a2d1125c89ec5acc37dfde748c6" target="_top" xlink:title="ver_tarefas">
<polygon fill="white" stroke="black" points="166.5,-76.5 166.5,-95.5 231.5,-95.5 231.5,-76.5 166.5,-76.5"/>
<text text-anchor="middle" x="199" y="-83.5" font-family="Helvetica,sans-Serif" font-size="10.00">ver_tarefas</text>
</a>
</g>
</g>
<!-- Node1&#45;&gt;Node4 -->
<g id="edge3" class="edge"><title>Node1&#45;&gt;Node4</title>
<path fill="none" stroke="midnightblue" d="M104.122,-86C121.11,-86 139.819,-86 156.034,-86"/>
<polygon fill="midnightblue" stroke="midnightblue" points="156.287,-89.5001 166.287,-86 156.287,-82.5001 156.287,-89.5001"/>
</g>
<!-- Node6 -->
<g id="node6" class="node"><title>Node6</title>
<g id="a_node6"><a xlink:href="main_8cc.html#a4f8f29b1eba21e0b51992f8de173a582" target="_top" xlink:title="mostrar_pre_requisitos">
<polygon fill="white" stroke="black" points="141,-38.5 141,-57.5 257,-57.5 257,-38.5 141,-38.5"/>
<text text-anchor="middle" x="199" y="-45.5" font-family="Helvetica,sans-Serif" font-size="10.00">mostrar_pre_requisitos</text>
</a>
</g>
</g>
<!-- Node1&#45;&gt;Node6 -->
<g id="edge6" class="edge"><title>Node1&#45;&gt;Node6</title>
<path fill="none" stroke="midnightblue" d="M89.5896,-76.411C108.465,-71.4642 131.686,-65.3789 151.788,-60.1108"/>
<polygon fill="midnightblue" stroke="midnightblue" points="152.887,-63.4409 161.673,-57.5201 151.113,-56.6695 152.887,-63.4409"/>
</g>
<!-- Node7 -->
<g id="node7" class="node"><title>Node7</title>
<g id="a_node7"><a xlink:href="main_8cc.html#ab05b93d97a47c67aab51426cdad29a86" target="_top" xlink:title="ver_tarefas_concluidas">
<polygon fill="white" stroke="black" points="140.5,-0.5 140.5,-19.5 257.5,-19.5 257.5,-0.5 140.5,-0.5"/>
<text text-anchor="middle" x="199" y="-7.5" font-family="Helvetica,sans-Serif" font-size="10.00">ver_tarefas_concluidas</text>
</a>
</g>
</g>
<!-- Node1&#45;&gt;Node7 -->
<g id="edge9" class="edge"><title>Node1&#45;&gt;Node7</title>
<path fill="none" stroke="midnightblue" d="M65.3449,-76.3935C81.6688,-64.0566 111.685,-42.6179 140,-29 144.422,-26.8731 149.143,-24.8939 153.909,-23.0786"/>
<polygon fill="midnightblue" stroke="midnightblue" points="155.436,-26.2495 163.675,-19.5878 153.08,-19.658 155.436,-26.2495"/>
</g>
<!-- Node4&#45;&gt;Node3 -->
<g id="edge5" class="edge"><title>Node4&#45;&gt;Node3</title>
<path fill="none" stroke="midnightblue" d="M231.519,-86C247.316,-86 266.794,-86 284.448,-86"/>
<polygon fill="midnightblue" stroke="midnightblue" points="284.589,-89.5001 294.589,-86 284.589,-82.5001 284.589,-89.5001"/>
</g>
<!-- Node5 -->
<g id="node5" class="node"><title>Node5</title>
<g id="a_node5"><a xlink:href="main_8cc.html#ad2a06ffdf1033b3b1c11f337fa12553b" target="_top" xlink:title="imprimirRotulo">
<polygon fill="white" stroke="black" points="294,-38.5 294,-57.5 374,-57.5 374,-38.5 294,-38.5"/>
<text text-anchor="middle" x="334" y="-45.5" font-family="Helvetica,sans-Serif" font-size="10.00">imprimirRotulo</text>
</a>
</g>
</g>
<!-- Node4&#45;&gt;Node5 -->
<g id="edge4" class="edge"><title>Node4&#45;&gt;Node5</title>
<path fill="none" stroke="midnightblue" d="M231.519,-76.9945C248.919,-72.0231 270.786,-65.7754 289.762,-60.3538"/>
<polygon fill="midnightblue" stroke="midnightblue" points="290.728,-63.7177 299.382,-57.6051 288.805,-56.9871 290.728,-63.7177"/>
</g>
<!-- Node6&#45;&gt;Node3 -->
<g id="edge8" class="edge"><title>Node6&#45;&gt;Node3</title>
<path fill="none" stroke="midnightblue" d="M233.562,-57.589C250.573,-62.4494 271.432,-68.4091 289.645,-73.6127"/>
<polygon fill="midnightblue" stroke="midnightblue" points="288.872,-77.0321 299.449,-76.4141 290.796,-70.3014 288.872,-77.0321"/>
</g>
<!-- Node6&#45;&gt;Node5 -->
<g id="edge7" class="edge"><title>Node6&#45;&gt;Node5</title>
<path fill="none" stroke="midnightblue" d="M257.176,-48C265.985,-48 275.017,-48 283.637,-48"/>
<polygon fill="midnightblue" stroke="midnightblue" points="283.905,-51.5001 293.905,-48 283.905,-44.5001 283.905,-51.5001"/>
</g>
<!-- Node7&#45;&gt;Node3 -->
<g id="edge11" class="edge"><title>Node7&#45;&gt;Node3</title>
<path fill="none" stroke="midnightblue" d="M238.353,-19.5664C245.171,-22.0905 252.002,-25.202 258,-29 277.655,-41.4462 275.241,-53.2398 294,-67 296.201,-68.6148 298.561,-70.1533 300.991,-71.6047"/>
<polygon fill="midnightblue" stroke="midnightblue" points="299.476,-74.7648 309.934,-76.46 302.816,-68.6129 299.476,-74.7648"/>
</g>
<!-- Node7&#45;&gt;Node5 -->
<g id="edge10" class="edge"><title>Node7&#45;&gt;Node5</title>
<path fill="none" stroke="midnightblue" d="M233.562,-19.589C250.573,-24.4494 271.432,-30.4091 289.645,-35.6127"/>
<polygon fill="midnightblue" stroke="midnightblue" points="288.872,-39.0321 299.449,-38.4141 290.796,-32.3014 288.872,-39.0321"/>
</g>
</g>
</svg>
