<?xml version="1.0" encoding="UTF-8" standalone="no"?>
<!DOCTYPE svg PUBLIC "-//W3C//DTD SVG 1.1//EN"
 "http://www.w3.org/Graphics/SVG/1.1/DTD/svg11.dtd">
<!-- Generated by graphviz version 2.36.0 (20140111.2315)
 -->
<!-- Title: ver_tarefas_concluidas Pages: 1 -->
<svg width="242pt" height="66pt"
 viewBox="0.00 0.00 242.00 66.00" xmlns="http://www.w3.org/2000/svg" xmlns:xlink="http://www.w3.org/1999/xlink">
<g id="graph0" class="graph" transform="scale(1 1) rotate(0) translate(4 62)">
<title>ver_tarefas_concluidas</title>
<polygon fill="white" stroke="none" points="-4,4 -4,-62 238,-62 238,4 -4,4"/>
<!-- Node1 -->
<g id="node1" class="node"><title>Node1</title>
<polygon fill="#bfbfbf" stroke="black" points="0.5,-19.5 0.5,-38.5 117.5,-38.5 117.5,-19.5 0.5,-19.5"/>
<text text-anchor="middle" x="59" y="-26.5" font-family="Helvetica,sans-Serif" font-size="10.00">ver_tarefas_concluidas</text>
</g>
<!-- Node2 -->
<g id="node2" class="node"><title>Node2</title>
<g id="a_node2"><a xlink:href="main_8cc.html#ad2a06ffdf1033b3b1c11f337fa12553b" target="_top" xlink:title="imprimirRotulo">
<polygon fill="white" stroke="black" points="154,-38.5 154,-57.5 234,-57.5 234,-38.5 154,-38.5"/>
<text text-anchor="middle" x="194" y="-45.5" font-family="Helvetica,sans-Serif" font-size="10.00">imprimirRotulo</text>
</a>
</g>
</g>
<!-- Node1&#45;&gt;Node2 -->
<g id="edge1" class="edge"><title>Node1&#45;&gt;Node2</title>
<path fill="none" stroke="midnightblue" d="M117.562,-37.2232C126.247,-38.4638 135.138,-39.7341 143.63,-40.9472"/>
<polygon fill="midnightblue" stroke="midnightblue" points="143.355,-44.4433 153.749,-42.3927 144.345,-37.5136 143.355,-44.4433"/>
</g>
<!-- Node3 -->
<g id="node3" class="node"><title>Node3</title>
<g id="a_node3"><a xlink:href="main_8cc.html#abe7109d6b800c7cd9f5c2097bc8df894" target="_top" xlink:title="destruir_menu">
<polygon fill="white" stroke="black" points="155,-0.5 155,-19.5 233,-19.5 233,-0.5 155,-0.5"/>
<text text-anchor="middle" x="194" y="-7.5" font-family="Helvetica,sans-Serif" font-size="10.00">destruir_menu</text>
</a>
</g>
</g>
<!-- Node1&#45;&gt;Node3 -->
<g id="edge2" class="edge"><title>Node1&#45;&gt;Node3</title>
<path fill="none" stroke="midnightblue" d="M117.562,-20.7768C126.645,-19.4793 135.954,-18.1494 144.796,-16.8863"/>
<polygon fill="midnightblue" stroke="midnightblue" points="145.514,-20.3194 154.918,-15.4403 144.524,-13.3897 145.514,-20.3194"/>
</g>
</g>
</svg>
