<?xml version="1.0" encoding="UTF-8" standalone="no"?>
<!DOCTYPE svg PUBLIC "-//W3C//DTD SVG 1.1//EN"
 "http://www.w3.org/Graphics/SVG/1.1/DTD/svg11.dtd">
<!-- Generated by graphviz version 2.36.0 (20140111.2315)
 -->
<!-- Title: editar_tarefa Pages: 1 -->
<!--zoomable 342 -->
<svg id="main" version="1.1" xmlns="http://www.w3.org/2000/svg" xmlns:xlink="http://www.w3.org/1999/xlink" xml:space="preserve" onload="init(evt)">
<style type="text/css"><![CDATA[
.edge:hover path { stroke: red; }
.edge:hover polygon { stroke: red; fill: red; }
]]></style>
<script type="text/javascript"><![CDATA[
var edges = document.getElementsByTagName('g');
if (edges && edges.length) {
  for (var i=0;i<edges.length;i++) {
    if (edges[i].id.substr(0,4)=='edge') {
      edges[i].setAttribute('class','edge');
    }
  }
}
]]></script>
        <defs>
                <circle id="rim" cx="0" cy="0" r="7"/>
                <circle id="rim2" cx="0" cy="0" r="3.5"/>
                <g id="zoomPlus">
                        <use xlink:href="#rim" fill="#404040">
                                <set attributeName="fill" to="#808080" begin="zoomplus.mouseover" end="zoomplus.mouseout"/>
                        </use>
                        <path d="M-4,0h8M0,-4v8" fill="none" stroke="white" stroke-width="1.5" pointer-events="none"/>
                </g>
                <g id="zoomMin">
                        <use xlink:href="#rim" fill="#404040">
                                <set attributeName="fill" to="#808080" begin="zoomminus.mouseover" end="zoomminus.mouseout"/>
                        </use>
                        <path d="M-4,0h8" fill="none" stroke="white" stroke-width="1.5" pointer-events="none"/>
                </g>
                <g id="dirArrow">
                        <path fill="none" stroke="white" stroke-width="1.5" d="M0,-3.0v7 M-2.5,-0.5L0,-3.0L2.5,-0.5"/>
                </g>
               <g id="resetDef">
                       <use xlink:href="#rim2" fill="#404040">
                               <set attributeName="fill" to="#808080" begin="reset.mouseover" end="reset.mouseout"/>
                       </use>
               </g>
        </defs>

<script type="text/javascript">
var viewWidth = 610;
var viewHeight = 342;
var sectionId = 'dynsection-6';
</script>
<script xlink:href="svgpan.js"/>
<svg id="graph" class="graph">
<g id="viewport">
<title>editar_tarefa</title>
<polygon fill="white" stroke="none" points="-4,4 -4,-337.859 606,-337.859 606,4 -4,4"/>
<!-- Node1 -->
<g id="node1" class="node"><title>Node1</title>
<polygon fill="#bfbfbf" stroke="black" points="0.5,-148.036 0.5,-167.036 71.5,-167.036 71.5,-148.036 0.5,-148.036"/>
<text text-anchor="middle" x="36" y="-155.036" font-family="Helvetica,sans-Serif" font-size="10.00">editar_tarefa</text>
</g>
<!-- Node2 -->
<g id="node2" class="node"><title>Node2</title>
<g id="a_node2"><a xlink:href="main_8cc.html#ad2a06ffdf1033b3b1c11f337fa12553b" target="_top" xlink:title="imprimirRotulo">
<polygon fill="white" stroke="black" points="394,-249.036 394,-268.036 474,-268.036 474,-249.036 394,-249.036"/>
<text text-anchor="middle" x="434" y="-256.036" font-family="Helvetica,sans-Serif" font-size="10.00">imprimirRotulo</text>
</a>
</g>
</g>
<!-- Node1&#45;&gt;Node2 -->
<g id="edge1" class="edge"><title>Node1&#45;&gt;Node2</title>
<path fill="none" stroke="midnightblue" d="M42.4543,-167.093C53.209,-185.344 78.669,-225.724 108,-252.536 151.153,-291.983 163.748,-305.599 220,-321.536 273.879,-336.801 292.727,-338.799 346,-321.536 373.797,-312.528 400.159,-290.946 416.429,-275.557"/>
<polygon fill="midnightblue" stroke="midnightblue" points="419.274,-277.669 423.972,-268.173 414.377,-272.667 419.274,-277.669"/>
</g>
<!-- Node3 -->
<g id="node3" class="node"><title>Node3</title>
<g id="a_node3"><a xlink:href="grafo_8cc.html#a1e996ff4a17fa0e42fc8ff6bdc605dc1" target="_top" xlink:title="pesquisa_tarefa">
<polygon fill="white" stroke="black" points="391,-15.0359 391,-34.0359 477,-34.0359 477,-15.0359 391,-15.0359"/>
<text text-anchor="middle" x="434" y="-22.0359" font-family="Helvetica,sans-Serif" font-size="10.00">pesquisa_tarefa</text>
</a>
</g>
</g>
<!-- Node1&#45;&gt;Node3 -->
<g id="edge2" class="edge"><title>Node1&#45;&gt;Node3</title>
<path fill="none" stroke="midnightblue" d="M44.7994,-147.819C67.9064,-119.915 139.442,-39.7339 220,-11.5359 276.771,8.33583 347.203,-2.22611 391.136,-12.6125"/>
<polygon fill="midnightblue" stroke="midnightblue" points="390.353,-16.0243 400.901,-15.022 392.03,-9.22818 390.353,-16.0243"/>
</g>
<!-- Node4 -->
<g id="node4" class="node"><title>Node4</title>
<g id="a_node4"><a xlink:href="main_8cc.html#abe7109d6b800c7cd9f5c2097bc8df894" target="_top" xlink:title="destruir_menu">
<polygon fill="white" stroke="black" points="395,-148.036 395,-167.036 473,-167.036 473,-148.036 395,-148.036"/>
<text text-anchor="middle" x="434" y="-155.036" font-family="Helvetica,sans-Serif" font-size="10.00">destruir_menu</text>
</a>
</g>
</g>
<!-- Node1&#45;&gt;Node4 -->
<g id="edge3" class="edge"><title>Node1&#45;&gt;Node4</title>
<path fill="none" stroke="midnightblue" d="M65.6717,-148.032C78.4696,-144.269 93.8306,-140.399 108,-138.536 205.672,-125.693 320.999,-139.146 384.665,-149.041"/>
<polygon fill="midnightblue" stroke="midnightblue" points="384.379,-152.539 394.805,-150.655 385.48,-145.626 384.379,-152.539"/>
</g>
<!-- Node5 -->
<g id="node5" class="node"><title>Node5</title>
<g id="a_node5"><a xlink:href="main_8cc.html#a8e3083a90f6cf70bdfd6abd70494c74e" target="_top" xlink:title="erro_id_inexistente">
<polygon fill="white" stroke="black" points="234,-293.036 234,-312.036 332,-312.036 332,-293.036 234,-293.036"/>
<text text-anchor="middle" x="283" y="-300.036" font-family="Helvetica,sans-Serif" font-size="10.00">erro_id_inexistente</text>
</a>
</g>
</g>
<!-- Node1&#45;&gt;Node5 -->
<g id="edge4" class="edge"><title>Node1&#45;&gt;Node5</title>
<path fill="none" stroke="midnightblue" d="M48.6765,-167.31C76.6178,-190.28 150.21,-248.335 220,-282.536 225.335,-285.15 231.091,-287.534 236.871,-289.671"/>
<polygon fill="midnightblue" stroke="midnightblue" points="235.956,-293.059 246.551,-293.034 238.253,-286.446 235.956,-293.059"/>
</g>
<!-- Node6 -->
<g id="node6" class="node"><title>Node6</title>
<g id="a_node6"><a xlink:href="main_8cc.html#a8d8002aa0f76981dad9ce30329767981" target="_top" xlink:title="edicao_tarefa">
<polygon fill="white" stroke="black" points="108.5,-148.036 108.5,-167.036 183.5,-167.036 183.5,-148.036 108.5,-148.036"/>
<text text-anchor="middle" x="146" y="-155.036" font-family="Helvetica,sans-Serif" font-size="10.00">edicao_tarefa</text>
</a>
</g>
</g>
<!-- Node1&#45;&gt;Node6 -->
<g id="edge7" class="edge"><title>Node1&#45;&gt;Node6</title>
<path fill="none" stroke="midnightblue" d="M71.7664,-157.536C80.1873,-157.536 89.3261,-157.536 98.2007,-157.536"/>
<polygon fill="midnightblue" stroke="midnightblue" points="98.4385,-161.036 108.438,-157.536 98.4384,-154.036 98.4385,-161.036"/>
</g>
<!-- Node5&#45;&gt;Node2 -->
<g id="edge5" class="edge"><title>Node5&#45;&gt;Node2</title>
<path fill="none" stroke="midnightblue" d="M316.331,-292.989C338.199,-286.531 367.295,-277.939 390.96,-270.95"/>
<polygon fill="midnightblue" stroke="midnightblue" points="392.133,-274.254 400.732,-268.065 390.15,-267.54 392.133,-274.254"/>
</g>
<!-- Node5&#45;&gt;Node4 -->
<g id="edge6" class="edge"><title>Node5&#45;&gt;Node4</title>
<path fill="none" stroke="midnightblue" d="M326.496,-292.93C333.399,-290.247 340.183,-286.844 346,-282.536 365.94,-267.77 403.406,-207.466 421.981,-176.334"/>
<polygon fill="midnightblue" stroke="midnightblue" points="425.219,-177.734 427.302,-167.346 419.196,-174.168 425.219,-177.734"/>
</g>
<!-- Node6&#45;&gt;Node2 -->
<g id="edge8" class="edge"><title>Node6&#45;&gt;Node2</title>
<path fill="none" stroke="midnightblue" d="M163.098,-167.065C177.614,-175.376 199.73,-187.351 220,-195.536 228.049,-198.786 330.174,-228.638 390.037,-246.058"/>
<polygon fill="midnightblue" stroke="midnightblue" points="389.396,-249.517 399.976,-248.949 391.352,-242.795 389.396,-249.517"/>
</g>
<!-- Node6&#45;&gt;Node3 -->
<g id="edge9" class="edge"><title>Node6&#45;&gt;Node3</title>
<path fill="none" stroke="midnightblue" d="M149.955,-147.744C157.423,-124.899 179.407,-68.1511 220,-43.5359 268.55,-14.0963 335.108,-13.0501 380.833,-16.9797"/>
<polygon fill="midnightblue" stroke="midnightblue" points="380.542,-20.4678 390.833,-17.9465 381.216,-13.5003 380.542,-20.4678"/>
</g>
<!-- Node6&#45;&gt;Node4 -->
<g id="edge10" class="edge"><title>Node6&#45;&gt;Node4</title>
<path fill="none" stroke="midnightblue" d="M183.513,-157.536C234.69,-157.536 327.848,-157.536 384.708,-157.536"/>
<polygon fill="midnightblue" stroke="midnightblue" points="384.885,-161.036 394.885,-157.536 384.885,-154.036 384.885,-161.036"/>
</g>
<!-- Node7 -->
<g id="node7" class="node"><title>Node7</title>
<g id="a_node7"><a xlink:href="main_8cc.html#acec6efd5f1ee225764d814040f142268" target="_top" xlink:title="erro_id_existente">
<polygon fill="white" stroke="black" points="237.5,-167.036 237.5,-186.036 328.5,-186.036 328.5,-167.036 237.5,-167.036"/>
<text text-anchor="middle" x="283" y="-174.036" font-family="Helvetica,sans-Serif" font-size="10.00">erro_id_existente</text>
</a>
</g>
</g>
<!-- Node6&#45;&gt;Node7 -->
<g id="edge11" class="edge"><title>Node6&#45;&gt;Node7</title>
<path fill="none" stroke="midnightblue" d="M183.533,-162.678C196.984,-164.571 212.529,-166.758 227.236,-168.828"/>
<polygon fill="midnightblue" stroke="midnightblue" points="226.859,-172.31 237.249,-170.238 227.835,-165.378 226.859,-172.31"/>
</g>
<!-- Node8 -->
<g id="node8" class="node"><title>Node8</title>
<g id="a_node8"><a xlink:href="main_8cc.html#a5f90fb7a7aa9c2393d70b4f95d675955" target="_top" xlink:title="tela_inserir_pre_requisito\l_edicao">
<polygon fill="white" stroke="black" points="220.5,-243.536 220.5,-273.536 345.5,-273.536 345.5,-243.536 220.5,-243.536"/>
<text text-anchor="start" x="228.5" y="-261.536" font-family="Helvetica,sans-Serif" font-size="10.00">tela_inserir_pre_requisito</text>
<text text-anchor="middle" x="283" y="-250.536" font-family="Helvetica,sans-Serif" font-size="10.00">_edicao</text>
</a>
</g>
</g>
<!-- Node6&#45;&gt;Node8 -->
<g id="edge14" class="edge"><title>Node6&#45;&gt;Node8</title>
<path fill="none" stroke="midnightblue" d="M155.167,-167.276C167.868,-181.977 193.647,-210.074 220,-228.536 225.206,-232.183 230.923,-235.609 236.715,-238.748"/>
<polygon fill="midnightblue" stroke="midnightblue" points="235.322,-241.968 245.814,-243.436 238.528,-235.745 235.322,-241.968"/>
</g>
<!-- Node9 -->
<g id="node9" class="node"><title>Node9</title>
<g id="a_node9"><a xlink:href="grafo_8cc.html#adaeb2e2aa0bf8a2fbb149376a33bd443" target="_top" xlink:title="edita_tarefa">
<polygon fill="white" stroke="black" points="249,-53.0359 249,-72.0359 317,-72.0359 317,-53.0359 249,-53.0359"/>
<text text-anchor="middle" x="283" y="-60.0359" font-family="Helvetica,sans-Serif" font-size="10.00">edita_tarefa</text>
</a>
</g>
</g>
<!-- Node6&#45;&gt;Node9 -->
<g id="edge16" class="edge"><title>Node6&#45;&gt;Node9</title>
<path fill="none" stroke="midnightblue" d="M160.687,-147.904C184.035,-131.474 231.758,-97.8911 259.888,-78.0964"/>
<polygon fill="midnightblue" stroke="midnightblue" points="262.112,-80.8106 268.276,-72.1933 258.084,-75.086 262.112,-80.8106"/>
</g>
<!-- Node7&#45;&gt;Node2 -->
<g id="edge12" class="edge"><title>Node7&#45;&gt;Node2</title>
<path fill="none" stroke="midnightblue" d="M312.659,-186.139C323.35,-190.106 335.448,-195.06 346,-200.536 369.875,-212.925 395.258,-230.403 412.405,-242.928"/>
<polygon fill="midnightblue" stroke="midnightblue" points="410.45,-245.836 420.569,-248.974 414.615,-240.21 410.45,-245.836"/>
</g>
<!-- Node7&#45;&gt;Node4 -->
<g id="edge13" class="edge"><title>Node7&#45;&gt;Node4</title>
<path fill="none" stroke="midnightblue" d="M328.705,-170.835C346.415,-168.577 366.814,-165.976 384.849,-163.676"/>
<polygon fill="midnightblue" stroke="midnightblue" points="385.397,-167.135 394.874,-162.398 384.511,-160.191 385.397,-167.135"/>
</g>
<!-- Node8&#45;&gt;Node2 -->
<g id="edge15" class="edge"><title>Node8&#45;&gt;Node2</title>
<path fill="none" stroke="midnightblue" d="M345.895,-258.536C358.387,-258.536 371.366,-258.536 383.371,-258.536"/>
<polygon fill="midnightblue" stroke="midnightblue" points="383.634,-262.036 393.634,-258.536 383.634,-255.036 383.634,-262.036"/>
</g>
<!-- Node9&#45;&gt;Node3 -->
<g id="edge19" class="edge"><title>Node9&#45;&gt;Node3</title>
<path fill="none" stroke="midnightblue" d="M317.068,-54.1025C337.216,-48.964 363.293,-42.3135 385.611,-36.6216"/>
<polygon fill="midnightblue" stroke="midnightblue" points="386.741,-39.9455 395.566,-34.0828 385.012,-33.1626 386.741,-39.9455"/>
</g>
<!-- Node10 -->
<g id="node10" class="node"><title>Node10</title>
<g id="a_node10"><a xlink:href="grafo_8cc.html#a3fe6389b74d0356a95800a3d29d7d664" target="_top" xlink:title="insere_prerequisitos">
<polygon fill="white" stroke="black" points="382,-53.0359 382,-72.0359 486,-72.0359 486,-53.0359 382,-53.0359"/>
<text text-anchor="middle" x="434" y="-60.0359" font-family="Helvetica,sans-Serif" font-size="10.00">insere_prerequisitos</text>
</a>
</g>
</g>
<!-- Node9&#45;&gt;Node10 -->
<g id="edge17" class="edge"><title>Node9&#45;&gt;Node10</title>
<path fill="none" stroke="midnightblue" d="M317.068,-62.5359C333.127,-62.5359 352.953,-62.5359 371.639,-62.5359"/>
<polygon fill="midnightblue" stroke="midnightblue" points="371.873,-66.036 381.873,-62.5359 371.872,-59.036 371.873,-66.036"/>
</g>
<!-- Node11 -->
<g id="node11" class="node"><title>Node11</title>
<g id="a_node11"><a xlink:href="grafo_8cc.html#a0e6585acadedc05719f93fa778cf1dcb" target="_top" xlink:title="procura_tarefa">
<polygon fill="white" stroke="black" points="522.5,-53.0359 522.5,-72.0359 601.5,-72.0359 601.5,-53.0359 522.5,-53.0359"/>
<text text-anchor="middle" x="562" y="-60.0359" font-family="Helvetica,sans-Serif" font-size="10.00">procura_tarefa</text>
</a>
</g>
</g>
<!-- Node10&#45;&gt;Node11 -->
<g id="edge18" class="edge"><title>Node10&#45;&gt;Node11</title>
<path fill="none" stroke="midnightblue" d="M486.249,-62.5359C494.774,-62.5359 503.597,-62.5359 512.062,-62.5359"/>
<polygon fill="midnightblue" stroke="midnightblue" points="512.168,-66.036 522.168,-62.5359 512.168,-59.036 512.168,-66.036"/>
</g>
</g>
</svg>
        <g id="navigator" transform="translate(0 0)" fill="#404254">
                <rect fill="#f2f5e9" fill-opacity="0.5" stroke="#606060" stroke-width=".5" x="0" y="0" width="60" height="60"/>
                <use id="zoomplus" xlink:href="#zoomPlus" x="17" y="9" onmousedown="handleZoom(evt,'in')"/>
                <use id="zoomminus" xlink:href="#zoomMin" x="42" y="9" onmousedown="handleZoom(evt,'out')"/>
                <use id="reset" xlink:href="#resetDef" x="30" y="36" onmousedown="handleReset()"/>
                <g id="arrowUp" xlink:href="#dirArrow" transform="translate(30 24)" onmousedown="handlePan(0,-1)">
                  <use xlink:href="#rim" fill="#404040">
                        <set attributeName="fill" to="#808080" begin="arrowUp.mouseover" end="arrowUp.mouseout"/>
                  </use>
                  <path fill="none" stroke="white" stroke-width="1.5" d="M0,-3.0v7 M-2.5,-0.5L0,-3.0L2.5,-0.5"/>
                </g>
                <g id="arrowRight" xlink:href="#dirArrow" transform="rotate(90) translate(36 -43)" onmousedown="handlePan(1,0)">
                  <use xlink:href="#rim" fill="#404040">
                        <set attributeName="fill" to="#808080" begin="arrowRight.mouseover" end="arrowRight.mouseout"/>
                  </use>
                  <path fill="none" stroke="white" stroke-width="1.5" d="M0,-3.0v7 M-2.5,-0.5L0,-3.0L2.5,-0.5"/>
                </g>
                <g id="arrowDown" xlink:href="#dirArrow" transform="rotate(180) translate(-30 -48)" onmousedown="handlePan(0,1)">
                  <use xlink:href="#rim" fill="#404040">
                        <set attributeName="fill" to="#808080" begin="arrowDown.mouseover" end="arrowDown.mouseout"/>
                  </use>
                  <path fill="none" stroke="white" stroke-width="1.5" d="M0,-3.0v7 M-2.5,-0.5L0,-3.0L2.5,-0.5"/>
                </g>
                <g id="arrowLeft" xlink:href="#dirArrow" transform="rotate(270) translate(-36 17)" onmousedown="handlePan(-1,0)">
                  <use xlink:href="#rim" fill="#404040">
                        <set attributeName="fill" to="#808080" begin="arrowLeft.mouseover" end="arrowLeft.mouseout"/>
                  </use>
                  <path fill="none" stroke="white" stroke-width="1.5" d="M0,-3.0v7 M-2.5,-0.5L0,-3.0L2.5,-0.5"/>
                </g>
        </g>
        <svg viewBox="0 0 15 15" width="100%" height="30px" preserveAspectRatio="xMaxYMin meet">
         <g id="arrow_out" transform="scale(0.3 0.3)">
          <a xlink:href="main_8cc_a7769e05575359d89d7467b1e46940ecf_cgraph_org.svg" target="_base">
           <rect id="button" ry="5" rx="5" y="6" x="6" height="38" width="38"
                fill="#f2f5e9" fill-opacity="0.5" stroke="#606060" stroke-width="1.0"/>
           <path id="arrow"
             d="M 11.500037,31.436501 C 11.940474,20.09759 22.043105,11.32322 32.158766,21.979434 L 37.068811,17.246167 C 37.068811,17.246167 37.088388,32 37.088388,32 L 22.160133,31.978069 C 22.160133,31.978069 26.997745,27.140456 26.997745,27.140456 C 18.528582,18.264221 13.291696,25.230495 11.500037,31.436501 z"
             style="fill:#404040;"/>
          </a>
         </g>
        </svg>
</svg>
