<?xml version="1.0" encoding="UTF-8" standalone="no"?>
<!DOCTYPE svg PUBLIC "-//W3C//DTD SVG 1.1//EN"
 "http://www.w3.org/Graphics/SVG/1.1/DTD/svg11.dtd">
<!-- Generated by graphviz version 2.36.0 (20140111.2315)
 -->
<!-- Title: inserir_tarefa Pages: 1 -->
<svg width="522pt" height="311pt"
 viewBox="0.00 0.00 522.00 311.25" xmlns="http://www.w3.org/2000/svg" xmlns:xlink="http://www.w3.org/1999/xlink">
<g id="graph0" class="graph" transform="scale(1 1) rotate(0) translate(4 307.253)">
<title>inserir_tarefa</title>
<polygon fill="white" stroke="none" points="-4,4 -4,-307.253 518,-307.253 518,4 -4,4"/>
<!-- Node1 -->
<g id="node1" class="node"><title>Node1</title>
<polygon fill="#bfbfbf" stroke="black" points="0.5,-171.5 0.5,-190.5 73.5,-190.5 73.5,-171.5 0.5,-171.5"/>
<text text-anchor="middle" x="37" y="-178.5" font-family="Helvetica,sans-Serif" font-size="10.00">inserir_tarefa</text>
</g>
<!-- Node2 -->
<g id="node2" class="node"><title>Node2</title>
<g id="a_node2"><a xlink:href="main_8cc.html#ad2a06ffdf1033b3b1c11f337fa12553b" target="_top" xlink:title="imprimirRotulo">
<polygon fill="white" stroke="black" points="434,-171.5 434,-190.5 514,-190.5 514,-171.5 434,-171.5"/>
<text text-anchor="middle" x="474" y="-178.5" font-family="Helvetica,sans-Serif" font-size="10.00">imprimirRotulo</text>
</a>
</g>
</g>
<!-- Node1&#45;&gt;Node2 -->
<g id="edge1" class="edge"><title>Node1&#45;&gt;Node2</title>
<path fill="none" stroke="midnightblue" d="M73.5979,-181C151.086,-181 335.173,-181 423.737,-181"/>
<polygon fill="midnightblue" stroke="midnightblue" points="423.795,-184.5 433.795,-181 423.795,-177.5 423.795,-184.5"/>
</g>
<!-- Node3 -->
<g id="node3" class="node"><title>Node3</title>
<g id="a_node3"><a xlink:href="grafo_8cc.html#a1e996ff4a17fa0e42fc8ff6bdc605dc1" target="_top" xlink:title="pesquisa_tarefa">
<polygon fill="white" stroke="black" points="292,-0.5 292,-19.5 378,-19.5 378,-0.5 292,-0.5"/>
<text text-anchor="middle" x="335" y="-7.5" font-family="Helvetica,sans-Serif" font-size="10.00">pesquisa_tarefa</text>
</a>
</g>
</g>
<!-- Node1&#45;&gt;Node3 -->
<g id="edge2" class="edge"><title>Node1&#45;&gt;Node3</title>
<path fill="none" stroke="midnightblue" d="M47.8605,-171.154C60.9851,-158.559 85.4105,-136.841 110,-124 161.847,-96.9238 189.443,-121.407 236,-86 259.849,-67.8622 248.191,-47.1909 272,-29 275.229,-26.533 278.78,-24.384 282.498,-22.5123"/>
<polygon fill="midnightblue" stroke="midnightblue" points="284.204,-25.5879 291.995,-18.408 281.427,-19.1622 284.204,-25.5879"/>
</g>
<!-- Node4 -->
<g id="node4" class="node"><title>Node4</title>
<g id="a_node4"><a xlink:href="main_8cc.html#abe7109d6b800c7cd9f5c2097bc8df894" target="_top" xlink:title="destruir_menu">
<polygon fill="white" stroke="black" points="435,-247.5 435,-266.5 513,-266.5 513,-247.5 435,-247.5"/>
<text text-anchor="middle" x="474" y="-254.5" font-family="Helvetica,sans-Serif" font-size="10.00">destruir_menu</text>
</a>
</g>
</g>
<!-- Node1&#45;&gt;Node4 -->
<g id="edge3" class="edge"><title>Node1&#45;&gt;Node4</title>
<path fill="none" stroke="midnightblue" d="M46.2904,-190.844C58.7322,-205.015 83.6048,-231.096 110,-246 175.5,-282.986 197.588,-283.993 272,-295 327.397,-303.195 343.532,-308.011 398,-295 416.75,-290.521 436.116,-280.55 450.471,-271.945"/>
<polygon fill="midnightblue" stroke="midnightblue" points="452.483,-274.815 459.124,-266.559 448.785,-268.872 452.483,-274.815"/>
</g>
<!-- Node5 -->
<g id="node5" class="node"><title>Node5</title>
<g id="a_node5"><a xlink:href="main_8cc.html#acec6efd5f1ee225764d814040f142268" target="_top" xlink:title="erro_id_existente">
<polygon fill="white" stroke="black" points="289.5,-266.5 289.5,-285.5 380.5,-285.5 380.5,-266.5 289.5,-266.5"/>
<text text-anchor="middle" x="335" y="-273.5" font-family="Helvetica,sans-Serif" font-size="10.00">erro_id_existente</text>
</a>
</g>
</g>
<!-- Node1&#45;&gt;Node5 -->
<g id="edge4" class="edge"><title>Node1&#45;&gt;Node5</title>
<path fill="none" stroke="midnightblue" d="M56.6042,-190.525C70.943,-197.619 91.3992,-207.212 110,-214 167.619,-235.026 235.786,-252.941 281.662,-264.027"/>
<polygon fill="midnightblue" stroke="midnightblue" points="281.134,-267.5 291.674,-266.424 282.763,-260.692 281.134,-267.5"/>
</g>
<!-- Node6 -->
<g id="node6" class="node"><title>Node6</title>
<g id="a_node6"><a xlink:href="grafo_8cc.html#a563a8912631e461ec1d9a2bff50426d9" target="_top" xlink:title="insere_tarefa">
<polygon fill="white" stroke="black" points="136.5,-57.5 136.5,-76.5 209.5,-76.5 209.5,-57.5 136.5,-57.5"/>
<text text-anchor="middle" x="173" y="-64.5" font-family="Helvetica,sans-Serif" font-size="10.00">insere_tarefa</text>
</a>
</g>
</g>
<!-- Node1&#45;&gt;Node6 -->
<g id="edge7" class="edge"><title>Node1&#45;&gt;Node6</title>
<path fill="none" stroke="midnightblue" d="M43.2769,-171.48C53.7485,-153.393 78.8563,-113.836 110,-91 115.566,-86.9188 121.914,-83.4347 128.376,-80.4915"/>
<polygon fill="midnightblue" stroke="midnightblue" points="129.953,-83.6266 137.847,-76.5598 127.269,-77.1616 129.953,-83.6266"/>
</g>
<!-- Node7 -->
<g id="node7" class="node"><title>Node7</title>
<g id="a_node7"><a xlink:href="main_8cc.html#a5c0ceb9634231b92e0dfc9db33b727fa" target="_top" xlink:title="tela_inserir_pre_requisito">
<polygon fill="white" stroke="black" points="110.5,-133.5 110.5,-152.5 235.5,-152.5 235.5,-133.5 110.5,-133.5"/>
<text text-anchor="middle" x="173" y="-140.5" font-family="Helvetica,sans-Serif" font-size="10.00">tela_inserir_pre_requisito</text>
</a>
</g>
</g>
<!-- Node1&#45;&gt;Node7 -->
<g id="edge8" class="edge"><title>Node1&#45;&gt;Node7</title>
<path fill="none" stroke="midnightblue" d="M71.8139,-171.411C89.0326,-166.528 110.164,-160.536 128.573,-155.315"/>
<polygon fill="midnightblue" stroke="midnightblue" points="129.531,-158.681 138.197,-152.586 127.621,-151.947 129.531,-158.681"/>
</g>
<!-- Node5&#45;&gt;Node2 -->
<g id="edge5" class="edge"><title>Node5&#45;&gt;Node2</title>
<path fill="none" stroke="midnightblue" d="M349.89,-266.368C373.584,-249.938 422.014,-216.355 450.56,-196.561"/>
<polygon fill="midnightblue" stroke="midnightblue" points="452.85,-199.232 459.073,-190.657 448.861,-193.48 452.85,-199.232"/>
</g>
<!-- Node5&#45;&gt;Node4 -->
<g id="edge6" class="edge"><title>Node5&#45;&gt;Node4</title>
<path fill="none" stroke="midnightblue" d="M380.859,-269.779C394.925,-267.828 410.507,-265.667 424.795,-263.685"/>
<polygon fill="midnightblue" stroke="midnightblue" points="425.504,-267.121 434.929,-262.28 424.543,-260.187 425.504,-267.121"/>
</g>
<!-- Node7&#45;&gt;Node2 -->
<g id="edge9" class="edge"><title>Node7&#45;&gt;Node2</title>
<path fill="none" stroke="midnightblue" d="M235.745,-135.367C281.244,-131.573 344.289,-130.17 398,-143 416.75,-147.479 436.116,-157.45 450.471,-166.055"/>
<polygon fill="midnightblue" stroke="midnightblue" points="448.785,-169.128 459.124,-171.441 452.483,-163.185 448.785,-169.128"/>
</g>
<!-- Node7&#45;&gt;Node3 -->
<g id="edge10" class="edge"><title>Node7&#45;&gt;Node3</title>
<path fill="none" stroke="midnightblue" d="M213.278,-133.373C221.554,-129.91 229.681,-125.249 236,-119 266.633,-88.7076 240.297,-58.1708 272,-29 275.169,-26.0842 278.775,-23.6156 282.617,-21.5256"/>
<polygon fill="midnightblue" stroke="midnightblue" points="284.256,-24.6253 291.914,-17.3039 281.362,-18.2516 284.256,-24.6253"/>
</g>
<!-- Node7&#45;&gt;Node4 -->
<g id="edge13" class="edge"><title>Node7&#45;&gt;Node4</title>
<path fill="none" stroke="midnightblue" d="M198.546,-152.583C218.354,-160.302 246.949,-171.407 272,-181 330.134,-203.261 397.877,-228.79 438.006,-243.87"/>
<polygon fill="midnightblue" stroke="midnightblue" points="436.998,-247.23 447.59,-247.471 439.46,-240.677 436.998,-247.23"/>
</g>
<!-- Node8 -->
<g id="node8" class="node"><title>Node8</title>
<g id="a_node8"><a xlink:href="grafo_8cc.html#a3fe6389b74d0356a95800a3d29d7d664" target="_top" xlink:title="insere_prerequisitos">
<polygon fill="white" stroke="black" points="283,-38.5 283,-57.5 387,-57.5 387,-38.5 283,-38.5"/>
<text text-anchor="middle" x="335" y="-45.5" font-family="Helvetica,sans-Serif" font-size="10.00">insere_prerequisitos</text>
</a>
</g>
</g>
<!-- Node7&#45;&gt;Node8 -->
<g id="edge11" class="edge"><title>Node7&#45;&gt;Node8</title>
<path fill="none" stroke="midnightblue" d="M208.558,-133.429C218.007,-129.832 227.873,-125.092 236,-119 257.054,-103.218 250.946,-87.7821 272,-72 277.461,-67.9068 283.706,-64.4241 290.082,-61.4883"/>
<polygon fill="midnightblue" stroke="midnightblue" points="291.569,-64.6604 299.442,-57.5708 288.866,-58.2031 291.569,-64.6604"/>
</g>
<!-- Node9 -->
<g id="node9" class="node"><title>Node9</title>
<g id="a_node9"><a xlink:href="grafo_8cc.html#a0e6585acadedc05719f93fa778cf1dcb" target="_top" xlink:title="procura_tarefa">
<polygon fill="white" stroke="black" points="434.5,-57.5 434.5,-76.5 513.5,-76.5 513.5,-57.5 434.5,-57.5"/>
<text text-anchor="middle" x="474" y="-64.5" font-family="Helvetica,sans-Serif" font-size="10.00">procura_tarefa</text>
</a>
</g>
</g>
<!-- Node7&#45;&gt;Node9 -->
<g id="edge17" class="edge"><title>Node7&#45;&gt;Node9</title>
<path fill="none" stroke="midnightblue" d="M211.566,-133.452C265.832,-119.658 366.138,-94.1621 425.482,-79.0783"/>
<polygon fill="midnightblue" stroke="midnightblue" points="426.523,-82.4249 435.353,-76.5692 424.799,-75.6406 426.523,-82.4249"/>
</g>
<!-- Node10 -->
<g id="node10" class="node"><title>Node10</title>
<g id="a_node10"><a xlink:href="main_8cc.html#aef0e5ebaf10f94ec3baf710468b2bca8" target="_top" xlink:title="erro_insere_pre_requisito">
<polygon fill="white" stroke="black" points="272.5,-152.5 272.5,-171.5 397.5,-171.5 397.5,-152.5 272.5,-152.5"/>
<text text-anchor="middle" x="335" y="-159.5" font-family="Helvetica,sans-Serif" font-size="10.00">erro_insere_pre_requisito</text>
</a>
</g>
</g>
<!-- Node7&#45;&gt;Node10 -->
<g id="edge14" class="edge"><title>Node7&#45;&gt;Node10</title>
<path fill="none" stroke="midnightblue" d="M235.86,-150.346C244.456,-151.367 253.347,-152.422 262.107,-153.463"/>
<polygon fill="midnightblue" stroke="midnightblue" points="261.961,-156.97 272.304,-154.674 262.787,-150.019 261.961,-156.97"/>
</g>
<!-- Node8&#45;&gt;Node9 -->
<g id="edge12" class="edge"><title>Node8&#45;&gt;Node9</title>
<path fill="none" stroke="midnightblue" d="M387.014,-55.0749C399.257,-56.7729 412.3,-58.5817 424.429,-60.2638"/>
<polygon fill="midnightblue" stroke="midnightblue" points="423.979,-63.7349 434.365,-61.6418 424.94,-56.8012 423.979,-63.7349"/>
</g>
<!-- Node10&#45;&gt;Node2 -->
<g id="edge15" class="edge"><title>Node10&#45;&gt;Node2</title>
<path fill="none" stroke="midnightblue" d="M397.687,-170.555C406.371,-171.76 415.204,-172.984 423.618,-174.151"/>
<polygon fill="midnightblue" stroke="midnightblue" points="423.249,-177.634 433.635,-175.541 424.211,-170.7 423.249,-177.634"/>
</g>
<!-- Node10&#45;&gt;Node4 -->
<g id="edge16" class="edge"><title>Node10&#45;&gt;Node4</title>
<path fill="none" stroke="midnightblue" d="M349.89,-171.632C373.584,-188.062 422.014,-221.645 450.56,-241.439"/>
<polygon fill="midnightblue" stroke="midnightblue" points="448.861,-244.52 459.073,-247.343 452.85,-238.768 448.861,-244.52"/>
</g>
</g>
</svg>
