<?xml version="1.0" encoding="UTF-8" standalone="no"?>
<!DOCTYPE svg PUBLIC "-//W3C//DTD SVG 1.1//EN"
 "http://www.w3.org/Graphics/SVG/1.1/DTD/svg11.dtd">
<!-- Generated by graphviz version 2.36.0 (20140111.2315)
 -->
<!-- Title: print_visualizador Pages: 1 -->
<svg width="548pt" height="47pt"
 viewBox="0.00 0.00 548.00 47.00" xmlns="http://www.w3.org/2000/svg" xmlns:xlink="http://www.w3.org/1999/xlink">
<g id="graph0" class="graph" transform="scale(1 1) rotate(0) translate(4 43)">
<title>print_visualizador</title>
<polygon fill="white" stroke="none" points="-4,4 -4,-43 544,-43 544,4 -4,4"/>
<!-- Node1 -->
<g id="node1" class="node"><title>Node1</title>
<polygon fill="#bfbfbf" stroke="black" points="0,-0.5 0,-19.5 92,-19.5 92,-0.5 0,-0.5"/>
<text text-anchor="middle" x="46" y="-7.5" font-family="Helvetica,sans-Serif" font-size="10.00">print_visualizador</text>
</g>
<!-- Node2 -->
<g id="node2" class="node"><title>Node2</title>
<g id="a_node2"><a xlink:href="main_8cc.html#a5d247f6e8ee275a8cd007f922ae2acb3" target="_top" xlink:title="visualizador_tarefas">
<polygon fill="white" stroke="black" points="128,-0.5 128,-19.5 232,-19.5 232,-0.5 128,-0.5"/>
<text text-anchor="middle" x="180" y="-7.5" font-family="Helvetica,sans-Serif" font-size="10.00">visualizador_tarefas</text>
</a>
</g>
</g>
<!-- Node1&#45;&gt;Node2 -->
<g id="edge1" class="edge"><title>Node1&#45;&gt;Node2</title>
<path fill="none" stroke="midnightblue" d="M102.23,-10C110.701,-10 119.414,-10 127.793,-10"/>
<polygon fill="midnightblue" stroke="midnightblue" points="102.058,-6.5001 92.0577,-10 102.058,-13.5001 102.058,-6.5001"/>
</g>
<!-- Node3 -->
<g id="node3" class="node"><title>Node3</title>
<g id="a_node3"><a xlink:href="main_8cc.html#af852bc15cf3d5217386a9bb0bf3b9abd" target="_top" xlink:title="operacoes_grafo">
<polygon fill="white" stroke="black" points="268.5,-0.5 268.5,-19.5 357.5,-19.5 357.5,-0.5 268.5,-0.5"/>
<text text-anchor="middle" x="313" y="-7.5" font-family="Helvetica,sans-Serif" font-size="10.00">operacoes_grafo</text>
</a>
</g>
</g>
<!-- Node2&#45;&gt;Node3 -->
<g id="edge2" class="edge"><title>Node2&#45;&gt;Node3</title>
<path fill="none" stroke="midnightblue" d="M242.208,-10C250.956,-10 259.806,-10 268.131,-10"/>
<polygon fill="midnightblue" stroke="midnightblue" points="242.023,-6.5001 232.023,-10 242.023,-13.5001 242.023,-6.5001"/>
</g>
<!-- Node4 -->
<g id="node4" class="node"><title>Node4</title>
<g id="a_node4"><a xlink:href="main_8cc.html#af1ccf694bcf905341f10b534e5a272fa" target="_top" xlink:title="abrir_arquivo">
<polygon fill="white" stroke="black" points="394,-19.5 394,-38.5 466,-38.5 466,-19.5 394,-19.5"/>
<text text-anchor="middle" x="430" y="-26.5" font-family="Helvetica,sans-Serif" font-size="10.00">abrir_arquivo</text>
</a>
</g>
</g>
<!-- Node3&#45;&gt;Node4 -->
<g id="edge3" class="edge"><title>Node3&#45;&gt;Node4</title>
<path fill="none" stroke="midnightblue" d="M367.736,-18.8781C376.617,-20.3454 385.619,-21.8327 393.888,-23.199"/>
<polygon fill="midnightblue" stroke="midnightblue" points="368.241,-15.4143 357.805,-17.2373 367.1,-22.3206 368.241,-15.4143"/>
</g>
<!-- Node5 -->
<g id="node5" class="node"><title>Node5</title>
<g id="a_node5"><a xlink:href="main_8cc.html#ae66f6b31b5ad750f1fe042a706a4e3d4" target="_top" xlink:title="main">
<polygon fill="white" stroke="black" points="502,-0.5 502,-19.5 540,-19.5 540,-0.5 502,-0.5"/>
<text text-anchor="middle" x="521" y="-7.5" font-family="Helvetica,sans-Serif" font-size="10.00">main</text>
</a>
</g>
</g>
<!-- Node3&#45;&gt;Node5 -->
<g id="edge5" class="edge"><title>Node3&#45;&gt;Node5</title>
<path fill="none" stroke="midnightblue" d="M367.725,-10C412.01,-10 472.194,-10 501.894,-10"/>
<polygon fill="midnightblue" stroke="midnightblue" points="367.687,-6.5001 357.687,-10 367.687,-13.5001 367.687,-6.5001"/>
</g>
<!-- Node4&#45;&gt;Node5 -->
<g id="edge4" class="edge"><title>Node4&#45;&gt;Node5</title>
<path fill="none" stroke="midnightblue" d="M476.067,-19.3789C485.24,-17.4207 494.38,-15.4694 501.929,-13.8578"/>
<polygon fill="midnightblue" stroke="midnightblue" points="475.224,-15.98 466.175,-21.4907 476.686,-22.8257 475.224,-15.98"/>
</g>
</g>
</svg>
