<?xml version="1.0" encoding="UTF-8" standalone="no"?>
<!DOCTYPE svg PUBLIC "-//W3C//DTD SVG 1.1//EN"
 "http://www.w3.org/Graphics/SVG/1.1/DTD/svg11.dtd">
<!-- Generated by graphviz version 2.36.0 (20140111.2315)
 -->
<!-- Title: destruir_menu Pages: 1 -->
<svg width="866pt" height="684pt"
 viewBox="0.00 0.00 866.00 684.37" xmlns="http://www.w3.org/2000/svg" xmlns:xlink="http://www.w3.org/1999/xlink">
<g id="graph0" class="graph" transform="scale(1 1) rotate(0) translate(4 680.365)">
<title>destruir_menu</title>
<polygon fill="white" stroke="none" points="-4,4 -4,-680.365 862,-680.365 862,4 -4,4"/>
<!-- Node1 -->
<g id="node1" class="node"><title>Node1</title>
<polygon fill="#bfbfbf" stroke="black" points="0,-330.345 0,-349.345 78,-349.345 78,-330.345 0,-330.345"/>
<text text-anchor="middle" x="39" y="-337.345" font-family="Helvetica,sans-Serif" font-size="10.00">destruir_menu</text>
</g>
<!-- Node2 -->
<g id="node2" class="node"><title>Node2</title>
<g id="a_node2"><a xlink:href="main_8cc.html#aef0e5ebaf10f94ec3baf710468b2bca8" target="_top" xlink:title="erro_insere_pre_requisito">
<polygon fill="white" stroke="black" points="114.5,-349.345 114.5,-368.345 239.5,-368.345 239.5,-349.345 114.5,-349.345"/>
<text text-anchor="middle" x="177" y="-356.345" font-family="Helvetica,sans-Serif" font-size="10.00">erro_insere_pre_requisito</text>
</a>
</g>
</g>
<!-- Node1&#45;&gt;Node2 -->
<g id="edge1" class="edge"><title>Node1&#45;&gt;Node2</title>
<path fill="none" stroke="midnightblue" d="M88.2872,-346.591C96.7324,-347.77 105.622,-349.012 114.369,-350.234"/>
<polygon fill="midnightblue" stroke="midnightblue" points="88.6336,-343.105 78.2455,-345.188 87.665,-350.038 88.6336,-343.105"/>
</g>
<!-- Node3 -->
<g id="node3" class="node"><title>Node3</title>
<g id="a_node3"><a xlink:href="main_8cc.html#a16c89e840263b1af21caf3211b6640b2" target="_top" xlink:title="inserir_novo_pre_requisito">
<polygon fill="white" stroke="black" points="276,-349.345 276,-368.345 406,-368.345 406,-349.345 276,-349.345"/>
<text text-anchor="middle" x="341" y="-356.345" font-family="Helvetica,sans-Serif" font-size="10.00">inserir_novo_pre_requisito</text>
</a>
</g>
</g>
<!-- Node1&#45;&gt;Node3 -->
<g id="edge21" class="edge"><title>Node1&#45;&gt;Node3</title>
<path fill="none" stroke="midnightblue" d="M62.2012,-354.788C76.3546,-363.391 95.4603,-373.363 114,-377.845 180.593,-393.944 261.068,-379.381 305.789,-368.399"/>
<polygon fill="midnightblue" stroke="midnightblue" points="63.9957,-351.781 53.6713,-349.403 60.2588,-357.7 63.9957,-351.781"/>
</g>
<!-- Node4 -->
<g id="node4" class="node"><title>Node4</title>
<g id="a_node4"><a xlink:href="main_8cc.html#af852bc15cf3d5217386a9bb0bf3b9abd" target="_top" xlink:title="operacoes_grafo">
<polygon fill="white" stroke="black" points="586.5,-316.345 586.5,-335.345 675.5,-335.345 675.5,-316.345 586.5,-316.345"/>
<text text-anchor="middle" x="631" y="-323.345" font-family="Helvetica,sans-Serif" font-size="10.00">operacoes_grafo</text>
</a>
</g>
</g>
<!-- Node1&#45;&gt;Node4 -->
<g id="edge38" class="edge"><title>Node1&#45;&gt;Node4</title>
<path fill="none" stroke="midnightblue" d="M56.1661,-356.765C70.0619,-369.996 91.3879,-387.362 114,-394.845 298.265,-455.823 536.491,-365.941 608.478,-335.391"/>
<polygon fill="midnightblue" stroke="midnightblue" points="58.4575,-354.108 48.8895,-349.558 53.5315,-359.082 58.4575,-354.108"/>
</g>
<!-- Node5 -->
<g id="node5" class="node"><title>Node5</title>
<g id="a_node5"><a xlink:href="main_8cc.html#af1ccf694bcf905341f10b534e5a272fa" target="_top" xlink:title="abrir_arquivo">
<polygon fill="white" stroke="black" points="712,-297.345 712,-316.345 784,-316.345 784,-297.345 712,-297.345"/>
<text text-anchor="middle" x="748" y="-304.345" font-family="Helvetica,sans-Serif" font-size="10.00">abrir_arquivo</text>
</a>
</g>
</g>
<!-- Node1&#45;&gt;Node5 -->
<g id="edge39" class="edge"><title>Node1&#45;&gt;Node5</title>
<path fill="none" stroke="midnightblue" d="M41.8433,-319.922C47.9828,-258.265 69.8909,-72.4615 114,-34.8446 190.668,30.5392 239.237,-16.8446 340,-16.8446 340,-16.8446 340,-16.8446 497,-16.8446 648.558,-16.8446 728.457,-246.876 744.121,-297.196"/>
<polygon fill="midnightblue" stroke="midnightblue" points="38.3261,-319.933 40.851,-330.223 45.2938,-320.605 38.3261,-319.933"/>
</g>
<!-- Node6 -->
<g id="node6" class="node"><title>Node6</title>
<g id="a_node6"><a xlink:href="main_8cc.html#ae66f6b31b5ad750f1fe042a706a4e3d4" target="_top" xlink:title="main">
<polygon fill="white" stroke="black" points="820,-335.345 820,-354.345 858,-354.345 858,-335.345 820,-335.345"/>
<text text-anchor="middle" x="839" y="-342.345" font-family="Helvetica,sans-Serif" font-size="10.00">main</text>
</a>
</g>
</g>
<!-- Node1&#45;&gt;Node6 -->
<g id="edge40" class="edge"><title>Node1&#45;&gt;Node6</title>
<path fill="none" stroke="midnightblue" d="M41.9908,-359.733C48.496,-420.45 71.2082,-601.541 114,-638.845 190.14,-705.22 238.991,-662.845 340,-662.845 340,-662.845 340,-662.845 632,-662.845 782.965,-662.845 828.813,-407.273 836.688,-354.362"/>
<polygon fill="midnightblue" stroke="midnightblue" points="45.449,-359.149 40.9339,-349.565 38.4865,-359.873 45.449,-359.149"/>
</g>
<!-- Node7 -->
<g id="node7" class="node"><title>Node7</title>
<g id="a_node7"><a xlink:href="main_8cc.html#a5c0ceb9634231b92e0dfc9db33b727fa" target="_top" xlink:title="tela_inserir_pre_requisito">
<polygon fill="white" stroke="black" points="278.5,-311.345 278.5,-330.345 403.5,-330.345 403.5,-311.345 278.5,-311.345"/>
<text text-anchor="middle" x="341" y="-318.345" font-family="Helvetica,sans-Serif" font-size="10.00">tela_inserir_pre_requisito</text>
</a>
</g>
</g>
<!-- Node1&#45;&gt;Node7 -->
<g id="edge22" class="edge"><title>Node1&#45;&gt;Node7</title>
<path fill="none" stroke="midnightblue" d="M88.5253,-336.771C140.17,-333.501 222.03,-328.316 278.239,-324.756"/>
<polygon fill="midnightblue" stroke="midnightblue" points="88.0587,-333.294 78.2999,-337.419 88.5012,-340.28 88.0587,-333.294"/>
</g>
<!-- Node8 -->
<g id="node8" class="node"><title>Node8</title>
<g id="a_node8"><a xlink:href="main_8cc.html#adb3b0c3b009c68f86673eb7bdeef601c" target="_top" xlink:title="inserir_tarefa">
<polygon fill="white" stroke="black" points="459.5,-292.345 459.5,-311.345 532.5,-311.345 532.5,-292.345 459.5,-292.345"/>
<text text-anchor="middle" x="496" y="-299.345" font-family="Helvetica,sans-Serif" font-size="10.00">inserir_tarefa</text>
</a>
</g>
</g>
<!-- Node1&#45;&gt;Node8 -->
<g id="edge23" class="edge"><title>Node1&#45;&gt;Node8</title>
<path fill="none" stroke="midnightblue" d="M88.1508,-328.073C96.7303,-326.179 105.607,-324.349 114,-322.845 185.463,-310.035 203.548,-306.521 276,-301.845 340.501,-297.681 415.911,-299.047 459.298,-300.435"/>
<polygon fill="midnightblue" stroke="midnightblue" points="87.243,-324.69 78.2623,-330.311 88.7882,-331.517 87.243,-324.69"/>
</g>
<!-- Node9 -->
<g id="node9" class="node"><title>Node9</title>
<g id="a_node9"><a xlink:href="main_8cc.html#acec6efd5f1ee225764d814040f142268" target="_top" xlink:title="erro_id_existente">
<polygon fill="white" stroke="black" points="131.5,-235.345 131.5,-254.345 222.5,-254.345 222.5,-235.345 131.5,-235.345"/>
<text text-anchor="middle" x="177" y="-242.345" font-family="Helvetica,sans-Serif" font-size="10.00">erro_id_existente</text>
</a>
</g>
</g>
<!-- Node1&#45;&gt;Node9 -->
<g id="edge10" class="edge"><title>Node1&#45;&gt;Node9</title>
<path fill="none" stroke="midnightblue" d="M54.5295,-322.408C68.4328,-306.643 90.6846,-283.691 114,-268.845 123.249,-262.955 134.172,-258.132 144.252,-254.394"/>
<polygon fill="midnightblue" stroke="midnightblue" points="51.5814,-320.468 47.7105,-330.331 56.8868,-325.035 51.5814,-320.468"/>
</g>
<!-- Node10 -->
<g id="node10" class="node"><title>Node10</title>
<g id="a_node10"><a xlink:href="main_8cc.html#a8d8002aa0f76981dad9ce30329767981" target="_top" xlink:title="edicao_tarefa">
<polygon fill="white" stroke="black" points="303.5,-197.345 303.5,-216.345 378.5,-216.345 378.5,-197.345 303.5,-197.345"/>
<text text-anchor="middle" x="341" y="-204.345" font-family="Helvetica,sans-Serif" font-size="10.00">edicao_tarefa</text>
</a>
</g>
</g>
<!-- Node1&#45;&gt;Node10 -->
<g id="edge26" class="edge"><title>Node1&#45;&gt;Node10</title>
<path fill="none" stroke="midnightblue" d="M46.4638,-320.347C56.3771,-293.864 78.0574,-247.363 114,-225.845 172.782,-190.652 256.064,-194.522 303.385,-200.612"/>
<polygon fill="midnightblue" stroke="midnightblue" points="43.0718,-319.441 43.03,-330.035 49.6696,-321.779 43.0718,-319.441"/>
</g>
<!-- Node11 -->
<g id="node11" class="node"><title>Node11</title>
<g id="a_node11"><a xlink:href="main_8cc.html#a7769e05575359d89d7467b1e46940ecf" target="_top" xlink:title="editar_tarefa">
<polygon fill="white" stroke="black" points="460.5,-188.345 460.5,-207.345 531.5,-207.345 531.5,-188.345 460.5,-188.345"/>
<text text-anchor="middle" x="496" y="-195.345" font-family="Helvetica,sans-Serif" font-size="10.00">editar_tarefa</text>
</a>
</g>
</g>
<!-- Node1&#45;&gt;Node11 -->
<g id="edge27" class="edge"><title>Node1&#45;&gt;Node11</title>
<path fill="none" stroke="midnightblue" d="M43.2644,-320.075C49.9177,-286.886 68.4676,-220.768 114,-191.845 170.748,-155.797 377.549,-180.771 460.365,-192.594"/>
<polygon fill="midnightblue" stroke="midnightblue" points="39.8119,-319.497 41.4423,-329.966 46.6961,-320.766 39.8119,-319.497"/>
</g>
<!-- Node12 -->
<g id="node12" class="node"><title>Node12</title>
<g id="a_node12"><a xlink:href="main_8cc.html#a8e3083a90f6cf70bdfd6abd70494c74e" target="_top" xlink:title="erro_id_inexistente">
<polygon fill="white" stroke="black" points="128,-121.345 128,-140.345 226,-140.345 226,-121.345 128,-121.345"/>
<text text-anchor="middle" x="177" y="-128.345" font-family="Helvetica,sans-Serif" font-size="10.00">erro_id_inexistente</text>
</a>
</g>
</g>
<!-- Node1&#45;&gt;Node12 -->
<g id="edge15" class="edge"><title>Node1&#45;&gt;Node12</title>
<path fill="none" stroke="midnightblue" d="M42.6112,-320.294C48.5696,-283.126 66.5208,-201.796 114,-154.845 120.319,-148.595 128.446,-143.934 136.722,-140.471"/>
<polygon fill="midnightblue" stroke="midnightblue" points="39.1285,-319.92 41.1276,-330.325 46.0532,-320.944 39.1285,-319.92"/>
</g>
<!-- Node13 -->
<g id="node13" class="node"><title>Node13</title>
<g id="a_node13"><a xlink:href="main_8cc.html#ab5f698491708904442d9d4f8583cd809" target="_top" xlink:title="remover_tarefa">
<polygon fill="white" stroke="black" points="300,-83.3446 300,-102.345 382,-102.345 382,-83.3446 300,-83.3446"/>
<text text-anchor="middle" x="341" y="-90.3446" font-family="Helvetica,sans-Serif" font-size="10.00">remover_tarefa</text>
</a>
</g>
</g>
<!-- Node1&#45;&gt;Node13 -->
<g id="edge28" class="edge"><title>Node1&#45;&gt;Node13</title>
<path fill="none" stroke="midnightblue" d="M39.7036,-319.97C40.2205,-274.697 48.4666,-163.808 114,-111.845 166.912,-69.889 250.358,-75.6203 299.68,-83.9749"/>
<polygon fill="midnightblue" stroke="midnightblue" points="36.2035,-319.993 39.7085,-329.991 43.2035,-319.989 36.2035,-319.993"/>
</g>
<!-- Node14 -->
<g id="node14" class="node"><title>Node14</title>
<g id="a_node14"><a xlink:href="main_8cc.html#ae96b9adf5e390d1a516e3fe5164714cc" target="_top" xlink:title="remover_pre_requisitos">
<polygon fill="white" stroke="black" points="282,-45.3446 282,-64.3446 400,-64.3446 400,-45.3446 282,-45.3446"/>
<text text-anchor="middle" x="341" y="-52.3446" font-family="Helvetica,sans-Serif" font-size="10.00">remover_pre_requisitos</text>
</a>
</g>
</g>
<!-- Node1&#45;&gt;Node14 -->
<g id="edge36" class="edge"><title>Node1&#45;&gt;Node14</title>
<path fill="none" stroke="midnightblue" d="M42.5511,-320.299C50.2664,-264.422 75.2303,-105.951 114,-73.8446 165.402,-31.2765 247.812,-36.7485 297.635,-45.3064"/>
<polygon fill="midnightblue" stroke="midnightblue" points="39.0686,-319.935 41.2032,-330.312 46.0061,-320.869 39.0686,-319.935"/>
</g>
<!-- Node15 -->
<g id="node15" class="node"><title>Node15</title>
<g id="a_node15"><a xlink:href="main_8cc.html#abc30d77428eefe83c569f49b7e48a7f8" target="_top" xlink:title="imprimir_em_arquivo">
<polygon fill="white" stroke="black" points="442.5,-568.345 442.5,-587.345 549.5,-587.345 549.5,-568.345 442.5,-568.345"/>
<text text-anchor="middle" x="496" y="-575.345" font-family="Helvetica,sans-Serif" font-size="10.00">imprimir_em_arquivo</text>
</a>
</g>
</g>
<!-- Node1&#45;&gt;Node15 -->
<g id="edge24" class="edge"><title>Node1&#45;&gt;Node15</title>
<path fill="none" stroke="midnightblue" d="M42.4241,-359.55C49.7952,-415.861 73.9183,-575.391 114,-605.845 226.222,-691.109 414.658,-615.528 475.457,-587.381"/>
<polygon fill="midnightblue" stroke="midnightblue" points="45.8742,-358.935 41.1395,-349.457 38.9302,-359.819 45.8742,-358.935"/>
</g>
<!-- Node16 -->
<g id="node16" class="node"><title>Node16</title>
<g id="a_node16"><a xlink:href="main_8cc.html#aa0ac4a2d1125c89ec5acc37dfde748c6" target="_top" xlink:title="ver_tarefas">
<polygon fill="white" stroke="black" points="144.5,-463.345 144.5,-482.345 209.5,-482.345 209.5,-463.345 144.5,-463.345"/>
<text text-anchor="middle" x="177" y="-470.345" font-family="Helvetica,sans-Serif" font-size="10.00">ver_tarefas</text>
</a>
</g>
</g>
<!-- Node1&#45;&gt;Node16 -->
<g id="edge29" class="edge"><title>Node1&#45;&gt;Node16</title>
<path fill="none" stroke="midnightblue" d="M48.3009,-358.554C59.8261,-382.56 82.8287,-424.055 114,-448.845 122.853,-455.885 134.014,-461.052 144.418,-464.749"/>
<polygon fill="midnightblue" stroke="midnightblue" points="51.4552,-357.036 44.0738,-349.436 45.1044,-359.981 51.4552,-357.036"/>
</g>
<!-- Node17 -->
<g id="node17" class="node"><title>Node17</title>
<g id="a_node17"><a xlink:href="main_8cc.html#a5d247f6e8ee275a8cd007f922ae2acb3" target="_top" xlink:title="visualizador_tarefas">
<polygon fill="white" stroke="black" points="289,-501.345 289,-520.345 393,-520.345 393,-501.345 289,-501.345"/>
<text text-anchor="middle" x="341" y="-508.345" font-family="Helvetica,sans-Serif" font-size="10.00">visualizador_tarefas</text>
</a>
</g>
</g>
<!-- Node1&#45;&gt;Node17 -->
<g id="edge37" class="edge"><title>Node1&#45;&gt;Node17</title>
<path fill="none" stroke="midnightblue" d="M43.1847,-359.36C49.7788,-392.817 68.3219,-460.541 114,-491.845 165.317,-527.013 239.378,-526.008 288.56,-520.085"/>
<polygon fill="midnightblue" stroke="midnightblue" points="46.6121,-358.644 41.3845,-349.429 39.7244,-359.893 46.6121,-358.644"/>
</g>
<!-- Node18 -->
<g id="node18" class="node"><title>Node18</title>
<g id="a_node18"><a xlink:href="main_8cc.html#a4f8f29b1eba21e0b51992f8de173a582" target="_top" xlink:title="mostrar_pre_requisitos">
<polygon fill="white" stroke="black" points="119,-577.345 119,-596.345 235,-596.345 235,-577.345 119,-577.345"/>
<text text-anchor="middle" x="177" y="-584.345" font-family="Helvetica,sans-Serif" font-size="10.00">mostrar_pre_requisitos</text>
</a>
</g>
</g>
<!-- Node1&#45;&gt;Node18 -->
<g id="edge32" class="edge"><title>Node1&#45;&gt;Node18</title>
<path fill="none" stroke="midnightblue" d="M40.5841,-359.951C42.9694,-403.999 54.901,-509.711 114,-567.845 117.933,-571.713 122.631,-574.797 127.659,-577.254"/>
<polygon fill="midnightblue" stroke="midnightblue" points="44.0698,-359.539 40.1465,-349.698 37.0762,-359.838 44.0698,-359.539"/>
</g>
<!-- Node19 -->
<g id="node19" class="node"><title>Node19</title>
<g id="a_node19"><a xlink:href="main_8cc.html#ab05b93d97a47c67aab51426cdad29a86" target="_top" xlink:title="ver_tarefas_concluidas">
<polygon fill="white" stroke="black" points="118.5,-539.345 118.5,-558.345 235.5,-558.345 235.5,-539.345 118.5,-539.345"/>
<text text-anchor="middle" x="177" y="-546.345" font-family="Helvetica,sans-Serif" font-size="10.00">ver_tarefas_concluidas</text>
</a>
</g>
</g>
<!-- Node1&#45;&gt;Node19 -->
<g id="edge34" class="edge"><title>Node1&#45;&gt;Node19</title>
<path fill="none" stroke="midnightblue" d="M42.6112,-359.395C48.5696,-396.564 66.5208,-477.893 114,-524.845 120.319,-531.094 128.446,-535.755 136.722,-539.218"/>
<polygon fill="midnightblue" stroke="midnightblue" points="46.0532,-358.745 41.1276,-349.365 39.1285,-359.769 46.0532,-358.745"/>
</g>
<!-- Node2&#45;&gt;Node3 -->
<g id="edge2" class="edge"><title>Node2&#45;&gt;Node3</title>
<path fill="none" stroke="midnightblue" d="M249.78,-358.845C258.436,-358.845 267.235,-358.845 275.773,-358.845"/>
<polygon fill="midnightblue" stroke="midnightblue" points="249.707,-355.345 239.707,-358.845 249.707,-362.345 249.707,-355.345"/>
</g>
<!-- Node2&#45;&gt;Node7 -->
<g id="edge7" class="edge"><title>Node2&#45;&gt;Node7</title>
<path fill="none" stroke="midnightblue" d="M228.715,-346.949C251.486,-341.607 277.987,-335.391 299.415,-330.365"/>
<polygon fill="midnightblue" stroke="midnightblue" points="227.816,-343.564 218.879,-349.256 229.415,-350.379 227.816,-343.564"/>
</g>
<!-- Node3&#45;&gt;Node4 -->
<g id="edge3" class="edge"><title>Node3&#45;&gt;Node4</title>
<path fill="none" stroke="midnightblue" d="M416.478,-350.311C470.416,-344.13 541.475,-335.988 586.462,-330.833"/>
<polygon fill="midnightblue" stroke="midnightblue" points="415.811,-346.864 406.274,-351.48 416.608,-353.819 415.811,-346.864"/>
</g>
<!-- Node4&#45;&gt;Node5 -->
<g id="edge4" class="edge"><title>Node4&#45;&gt;Node5</title>
<path fill="none" stroke="midnightblue" d="M685.736,-316.967C694.617,-315.499 703.619,-314.012 711.888,-312.646"/>
<polygon fill="midnightblue" stroke="midnightblue" points="685.1,-313.524 675.805,-318.607 686.241,-320.43 685.1,-313.524"/>
</g>
<!-- Node4&#45;&gt;Node6 -->
<g id="edge6" class="edge"><title>Node4&#45;&gt;Node6</title>
<path fill="none" stroke="midnightblue" d="M685.725,-330.8C730.01,-334.884 790.194,-340.435 819.894,-343.175"/>
<polygon fill="midnightblue" stroke="midnightblue" points="685.967,-327.307 675.687,-329.874 685.324,-334.278 685.967,-327.307"/>
</g>
<!-- Node5&#45;&gt;Node6 -->
<g id="edge5" class="edge"><title>Node5&#45;&gt;Node6</title>
<path fill="none" stroke="midnightblue" d="M781.025,-320.518C794.037,-326.074 808.597,-332.291 819.741,-337.049"/>
<polygon fill="midnightblue" stroke="midnightblue" points="782.03,-317.142 771.458,-316.434 779.281,-323.579 782.03,-317.142"/>
</g>
<!-- Node7&#45;&gt;Node8 -->
<g id="edge8" class="edge"><title>Node7&#45;&gt;Node8</title>
<path fill="none" stroke="midnightblue" d="M414.076,-311.894C429.826,-309.938 445.827,-307.951 459.397,-306.266"/>
<polygon fill="midnightblue" stroke="midnightblue" points="413.282,-308.466 403.79,-313.171 414.145,-315.412 413.282,-308.466"/>
</g>
<!-- Node8&#45;&gt;Node4 -->
<g id="edge9" class="edge"><title>Node8&#45;&gt;Node4</title>
<path fill="none" stroke="midnightblue" d="M542.619,-310.077C556.718,-312.621 572.209,-315.416 586.183,-317.938"/>
<polygon fill="midnightblue" stroke="midnightblue" points="543.104,-306.608 532.642,-308.276 541.861,-313.496 543.104,-306.608"/>
</g>
<!-- Node9&#45;&gt;Node8 -->
<g id="edge11" class="edge"><title>Node9&#45;&gt;Node8</title>
<path fill="none" stroke="midnightblue" d="M232.865,-246.774C279.451,-249.323 347.813,-255.222 406,-268.845 429.908,-274.442 456.135,-284.703 473.883,-292.302"/>
<polygon fill="midnightblue" stroke="midnightblue" points="232.849,-243.269 222.682,-246.251 232.49,-250.259 232.849,-243.269"/>
</g>
<!-- Node9&#45;&gt;Node10 -->
<g id="edge12" class="edge"><title>Node9&#45;&gt;Node10</title>
<path fill="none" stroke="midnightblue" d="M228.93,-232.898C253.046,-227.241 281.305,-220.613 303.284,-215.457"/>
<polygon fill="midnightblue" stroke="midnightblue" points="227.816,-229.564 218.879,-235.256 229.415,-236.379 227.816,-229.564"/>
</g>
<!-- Node10&#45;&gt;Node11 -->
<g id="edge13" class="edge"><title>Node10&#45;&gt;Node11</title>
<path fill="none" stroke="midnightblue" d="M388.919,-204.085C412.009,-202.726 439.348,-201.118 460.489,-199.875"/>
<polygon fill="midnightblue" stroke="midnightblue" points="388.424,-200.608 378.647,-204.689 388.836,-207.596 388.424,-200.608"/>
</g>
<!-- Node11&#45;&gt;Node4 -->
<g id="edge14" class="edge"><title>Node11&#45;&gt;Node4</title>
<path fill="none" stroke="midnightblue" d="M514.524,-214.71C542.738,-241.863 597.344,-294.416 619.887,-316.112"/>
<polygon fill="midnightblue" stroke="midnightblue" points="516.629,-211.878 506.997,-207.465 511.775,-216.922 516.629,-211.878"/>
</g>
<!-- Node12&#45;&gt;Node11 -->
<g id="edge16" class="edge"><title>Node12&#45;&gt;Node11</title>
<path fill="none" stroke="midnightblue" d="M236.304,-131.48C283.003,-133.291 349.771,-138.829 406,-154.845 433.066,-162.554 461.98,-178.033 479.265,-188.163"/>
<polygon fill="midnightblue" stroke="midnightblue" points="236.18,-127.973 226.066,-131.13 235.94,-134.969 236.18,-127.973"/>
</g>
<!-- Node12&#45;&gt;Node13 -->
<g id="edge17" class="edge"><title>Node12&#45;&gt;Node13</title>
<path fill="none" stroke="midnightblue" d="M228.792,-118.931C251.744,-113.547 278.474,-107.277 299.975,-102.233"/>
<polygon fill="midnightblue" stroke="midnightblue" points="227.816,-115.564 218.879,-121.256 229.415,-122.379 227.816,-115.564"/>
</g>
<!-- Node12&#45;&gt;Node14 -->
<g id="edge19" class="edge"><title>Node12&#45;&gt;Node14</title>
<path fill="none" stroke="midnightblue" d="M200.469,-115.694C219.827,-103.157 248.858,-85.5671 276,-73.8446 284.3,-70.2601 293.483,-67.096 302.241,-64.429"/>
<polygon fill="midnightblue" stroke="midnightblue" points="198.483,-112.811 192.046,-121.226 202.326,-118.662 198.483,-112.811"/>
</g>
<!-- Node13&#45;&gt;Node4 -->
<g id="edge18" class="edge"><title>Node13&#45;&gt;Node4</title>
<path fill="none" stroke="midnightblue" d="M392.32,-103.474C437.985,-115.291 504.882,-138.286 550,-178.845 594.729,-219.053 619.429,-290.349 627.245,-316.169"/>
<polygon fill="midnightblue" stroke="midnightblue" points="392.893,-100.009 382.343,-100.982 391.196,-106.801 392.893,-100.009"/>
</g>
<!-- Node14&#45;&gt;Node4 -->
<g id="edge20" class="edge"><title>Node14&#45;&gt;Node4</title>
<path fill="none" stroke="midnightblue" d="M410.379,-59.0489C455.123,-65.193 512.102,-79.918 550,-114.845 612.226,-172.192 626.399,-282.979 629.309,-316.201"/>
<polygon fill="midnightblue" stroke="midnightblue" points="410.81,-55.5756 400.451,-57.797 409.934,-62.5206 410.81,-55.5756"/>
</g>
<!-- Node15&#45;&gt;Node4 -->
<g id="edge25" class="edge"><title>Node15&#45;&gt;Node4</title>
<path fill="none" stroke="midnightblue" d="M511.699,-560.168C523.031,-546.031 538.634,-525.405 550,-505.845 585.909,-444.047 616.507,-363.18 626.532,-335.569"/>
<polygon fill="midnightblue" stroke="midnightblue" points="508.87,-558.1 505.272,-568.065 514.299,-562.519 508.87,-558.1"/>
</g>
<!-- Node16&#45;&gt;Node17 -->
<g id="edge30" class="edge"><title>Node16&#45;&gt;Node17</title>
<path fill="none" stroke="midnightblue" d="M219.681,-482.622C244.145,-488.36 274.928,-495.581 299.233,-501.282"/>
<polygon fill="midnightblue" stroke="midnightblue" points="220.155,-479.138 209.62,-480.262 218.556,-485.953 220.155,-479.138"/>
</g>
<!-- Node17&#45;&gt;Node4 -->
<g id="edge31" class="edge"><title>Node17&#45;&gt;Node4</title>
<path fill="none" stroke="midnightblue" d="M403.129,-504.034C447.493,-496.542 507.02,-480.973 550,-448.845 591.418,-417.884 617.454,-358.682 626.459,-335.497"/>
<polygon fill="midnightblue" stroke="midnightblue" points="402.376,-500.609 393.052,-505.641 403.479,-507.522 402.376,-500.609"/>
</g>
<!-- Node18&#45;&gt;Node17 -->
<g id="edge33" class="edge"><title>Node18&#45;&gt;Node17</title>
<path fill="none" stroke="midnightblue" d="M223.79,-574.072C229.318,-572.162 234.832,-570.077 240,-567.845 271.921,-554.057 306.647,-532.68 325.618,-520.399"/>
<polygon fill="midnightblue" stroke="midnightblue" points="222.308,-570.874 213.896,-577.315 224.489,-577.526 222.308,-570.874"/>
</g>
<!-- Node19&#45;&gt;Node17 -->
<g id="edge35" class="edge"><title>Node19&#45;&gt;Node17</title>
<path fill="none" stroke="midnightblue" d="M228.715,-536.949C251.486,-531.607 277.987,-525.391 299.415,-520.365"/>
<polygon fill="midnightblue" stroke="midnightblue" points="227.816,-533.564 218.879,-539.256 229.415,-540.379 227.816,-533.564"/>
</g>
</g>
</svg>
