<?xml version="1.0" encoding="UTF-8" standalone="no"?>
<!DOCTYPE svg PUBLIC "-//W3C//DTD SVG 1.1//EN"
 "http://www.w3.org/Graphics/SVG/1.1/DTD/svg11.dtd">
<!-- Generated by graphviz version 2.36.0 (20140111.2315)
 -->
<!-- Title: inserir_tarefa Pages: 1 -->
<!--zoomable 352 -->
<svg id="main" version="1.1" xmlns="http://www.w3.org/2000/svg" xmlns:xlink="http://www.w3.org/1999/xlink" xml:space="preserve" onload="init(evt)">
<style type="text/css"><![CDATA[
.edge:hover path { stroke: red; }
.edge:hover polygon { stroke: red; fill: red; }
]]></style>
<script type="text/javascript"><![CDATA[
var edges = document.getElementsByTagName('g');
if (edges && edges.length) {
  for (var i=0;i<edges.length;i++) {
    if (edges[i].id.substr(0,4)=='edge') {
      edges[i].setAttribute('class','edge');
    }
  }
}
]]></script>
        <defs>
                <circle id="rim" cx="0" cy="0" r="7"/>
                <circle id="rim2" cx="0" cy="0" r="3.5"/>
                <g id="zoomPlus">
                        <use xlink:href="#rim" fill="#404040">
                                <set attributeName="fill" to="#808080" begin="zoomplus.mouseover" end="zoomplus.mouseout"/>
                        </use>
                        <path d="M-4,0h8M0,-4v8" fill="none" stroke="white" stroke-width="1.5" pointer-events="none"/>
                </g>
                <g id="zoomMin">
                        <use xlink:href="#rim" fill="#404040">
                                <set attributeName="fill" to="#808080" begin="zoomminus.mouseover" end="zoomminus.mouseout"/>
                        </use>
                        <path d="M-4,0h8" fill="none" stroke="white" stroke-width="1.5" pointer-events="none"/>
                </g>
                <g id="dirArrow">
                        <path fill="none" stroke="white" stroke-width="1.5" d="M0,-3.0v7 M-2.5,-0.5L0,-3.0L2.5,-0.5"/>
                </g>
               <g id="resetDef">
                       <use xlink:href="#rim2" fill="#404040">
                               <set attributeName="fill" to="#808080" begin="reset.mouseover" end="reset.mouseout"/>
                       </use>
               </g>
        </defs>

<script type="text/javascript">
var viewWidth = 522;
var viewHeight = 352;
var sectionId = 'dynsection-25';
</script>
<script xlink:href="svgpan.js"/>
<svg id="graph" class="graph">
<g id="viewport">
<title>inserir_tarefa</title>
<polygon fill="white" stroke="none" points="-4,4 -4,-348.002 518,-348.002 518,4 -4,4"/>
<!-- Node1 -->
<g id="node1" class="node"><title>Node1</title>
<polygon fill="#bfbfbf" stroke="black" points="0.5,-190.5 0.5,-209.5 73.5,-209.5 73.5,-190.5 0.5,-190.5"/>
<text text-anchor="middle" x="37" y="-197.5" font-family="Helvetica,sans-Serif" font-size="10.00">inserir_tarefa</text>
</g>
<!-- Node2 -->
<g id="node2" class="node"><title>Node2</title>
<g id="a_node2"><a xlink:href="main_8cc.html#ad2a06ffdf1033b3b1c11f337fa12553b" target="_top" xlink:title="imprimirRotulo">
<polygon fill="white" stroke="black" points="434,-266.5 434,-285.5 514,-285.5 514,-266.5 434,-266.5"/>
<text text-anchor="middle" x="474" y="-273.5" font-family="Helvetica,sans-Serif" font-size="10.00">imprimirRotulo</text>
</a>
</g>
</g>
<!-- Node1&#45;&gt;Node2 -->
<g id="edge1" class="edge"><title>Node1&#45;&gt;Node2</title>
<path fill="none" stroke="midnightblue" d="M45.437,-209.54C57.5268,-224.486 82.8393,-253.516 110,-271 174.823,-312.729 196.191,-318.989 272,-333 327.067,-343.178 344.93,-350.878 398,-333 421.321,-325.144 443.137,-306.831 457.162,-293.068"/>
<polygon fill="midnightblue" stroke="midnightblue" points="459.975,-295.197 464.471,-285.603 454.974,-290.3 459.975,-295.197"/>
</g>
<!-- Node3 -->
<g id="node3" class="node"><title>Node3</title>
<g id="a_node3"><a xlink:href="main_8cc.html#abe7109d6b800c7cd9f5c2097bc8df894" target="_top" xlink:title="destruir_menu">
<polygon fill="white" stroke="black" points="435,-190.5 435,-209.5 513,-209.5 513,-190.5 435,-190.5"/>
<text text-anchor="middle" x="474" y="-197.5" font-family="Helvetica,sans-Serif" font-size="10.00">destruir_menu</text>
</a>
</g>
</g>
<!-- Node1&#45;&gt;Node3 -->
<g id="edge2" class="edge"><title>Node1&#45;&gt;Node3</title>
<path fill="none" stroke="midnightblue" d="M73.5979,-200C151.378,-200 336.566,-200 424.737,-200"/>
<polygon fill="midnightblue" stroke="midnightblue" points="424.741,-203.5 434.741,-200 424.741,-196.5 424.741,-203.5"/>
</g>
<!-- Node4 -->
<g id="node4" class="node"><title>Node4</title>
<g id="a_node4"><a xlink:href="main_8cc.html#acf899fb4107a26f962c26ec5292148cd" target="_top" xlink:title="erro_id_invalido">
<polygon fill="white" stroke="black" points="293,-304.5 293,-323.5 377,-323.5 377,-304.5 293,-304.5"/>
<text text-anchor="middle" x="335" y="-311.5" font-family="Helvetica,sans-Serif" font-size="10.00">erro_id_invalido</text>
</a>
</g>
</g>
<!-- Node1&#45;&gt;Node4 -->
<g id="edge3" class="edge"><title>Node1&#45;&gt;Node4</title>
<path fill="none" stroke="midnightblue" d="M56.3824,-209.652C70.7757,-217.034 91.4048,-227.231 110,-235 173.142,-261.382 248.55,-286.757 293.788,-301.345"/>
<polygon fill="midnightblue" stroke="midnightblue" points="292.925,-304.743 303.516,-304.465 295.063,-298.078 292.925,-304.743"/>
</g>
<!-- Node5 -->
<g id="node5" class="node"><title>Node5</title>
<g id="a_node5"><a xlink:href="grafo_8cc.html#a1e996ff4a17fa0e42fc8ff6bdc605dc1" target="_top" xlink:title="pesquisa_tarefa">
<polygon fill="white" stroke="black" points="292,-0.5 292,-19.5 378,-19.5 378,-0.5 292,-0.5"/>
<text text-anchor="middle" x="335" y="-7.5" font-family="Helvetica,sans-Serif" font-size="10.00">pesquisa_tarefa</text>
</a>
</g>
</g>
<!-- Node1&#45;&gt;Node5 -->
<g id="edge6" class="edge"><title>Node1&#45;&gt;Node5</title>
<path fill="none" stroke="midnightblue" d="M44.5675,-190.301C55.9879,-174.17 81.0719,-141.842 110,-124 159.784,-93.2945 186.806,-117.641 236,-86 256.395,-72.8819 253.176,-60.2873 272,-45 281.722,-37.1049 293.46,-29.9767 304.096,-24.2452"/>
<polygon fill="midnightblue" stroke="midnightblue" points="305.816,-27.2959 313.08,-19.5837 302.592,-21.0825 305.816,-27.2959"/>
</g>
<!-- Node6 -->
<g id="node6" class="node"><title>Node6</title>
<g id="a_node6"><a xlink:href="main_8cc.html#acec6efd5f1ee225764d814040f142268" target="_top" xlink:title="erro_id_existente">
<polygon fill="white" stroke="black" points="289.5,-228.5 289.5,-247.5 380.5,-247.5 380.5,-228.5 289.5,-228.5"/>
<text text-anchor="middle" x="335" y="-235.5" font-family="Helvetica,sans-Serif" font-size="10.00">erro_id_existente</text>
</a>
</g>
</g>
<!-- Node1&#45;&gt;Node6 -->
<g id="edge7" class="edge"><title>Node1&#45;&gt;Node6</title>
<path fill="none" stroke="midnightblue" d="M73.7863,-207.583C85.3116,-209.858 98.1633,-212.218 110,-214 167.409,-222.641 233.553,-229.33 279.001,-233.426"/>
<polygon fill="midnightblue" stroke="midnightblue" points="278.96,-236.936 289.231,-234.336 279.581,-229.964 278.96,-236.936"/>
</g>
<!-- Node7 -->
<g id="node7" class="node"><title>Node7</title>
<g id="a_node7"><a xlink:href="grafo_8cc.html#a563a8912631e461ec1d9a2bff50426d9" target="_top" xlink:title="insere_tarefa">
<polygon fill="white" stroke="black" points="136.5,-57.5 136.5,-76.5 209.5,-76.5 209.5,-57.5 136.5,-57.5"/>
<text text-anchor="middle" x="173" y="-64.5" font-family="Helvetica,sans-Serif" font-size="10.00">insere_tarefa</text>
</a>
</g>
</g>
<!-- Node1&#45;&gt;Node7 -->
<g id="edge10" class="edge"><title>Node1&#45;&gt;Node7</title>
<path fill="none" stroke="midnightblue" d="M41.8919,-190.406C50.8426,-169.474 74.8553,-119.315 110,-91 115.014,-86.9607 120.786,-83.5422 126.749,-80.6657"/>
<polygon fill="midnightblue" stroke="midnightblue" points="128.404,-83.763 136.193,-76.5804 125.625,-77.3383 128.404,-83.763"/>
</g>
<!-- Node8 -->
<g id="node8" class="node"><title>Node8</title>
<g id="a_node8"><a xlink:href="main_8cc.html#a5c0ceb9634231b92e0dfc9db33b727fa" target="_top" xlink:title="tela_inserir_pre_requisito">
<polygon fill="white" stroke="black" points="110.5,-133.5 110.5,-152.5 235.5,-152.5 235.5,-133.5 110.5,-133.5"/>
<text text-anchor="middle" x="173" y="-140.5" font-family="Helvetica,sans-Serif" font-size="10.00">tela_inserir_pre_requisito</text>
</a>
</g>
</g>
<!-- Node1&#45;&gt;Node8 -->
<g id="edge11" class="edge"><title>Node1&#45;&gt;Node8</title>
<path fill="none" stroke="midnightblue" d="M60.4286,-190.459C82.2655,-181.171 115.663,-166.964 140.23,-156.514"/>
<polygon fill="midnightblue" stroke="midnightblue" points="141.666,-159.707 149.498,-152.572 138.926,-153.265 141.666,-159.707"/>
</g>
<!-- Node4&#45;&gt;Node2 -->
<g id="edge4" class="edge"><title>Node4&#45;&gt;Node2</title>
<path fill="none" stroke="midnightblue" d="M370.571,-304.411C388.175,-299.528 409.779,-293.536 428.601,-288.315"/>
<polygon fill="midnightblue" stroke="midnightblue" points="429.739,-291.631 438.44,-285.586 427.868,-284.886 429.739,-291.631"/>
</g>
<!-- Node4&#45;&gt;Node3 -->
<g id="edge5" class="edge"><title>Node4&#45;&gt;Node3</title>
<path fill="none" stroke="midnightblue" d="M347.681,-304.28C371.238,-284.678 424.656,-240.228 453.559,-216.177"/>
<polygon fill="midnightblue" stroke="midnightblue" points="455.901,-218.782 461.349,-209.695 451.423,-213.401 455.901,-218.782"/>
</g>
<!-- Node6&#45;&gt;Node2 -->
<g id="edge8" class="edge"><title>Node6&#45;&gt;Node2</title>
<path fill="none" stroke="midnightblue" d="M370.571,-247.589C388.175,-252.472 409.779,-258.464 428.601,-263.685"/>
<polygon fill="midnightblue" stroke="midnightblue" points="427.868,-267.114 438.44,-266.414 429.739,-260.369 427.868,-267.114"/>
</g>
<!-- Node6&#45;&gt;Node3 -->
<g id="edge9" class="edge"><title>Node6&#45;&gt;Node3</title>
<path fill="none" stroke="midnightblue" d="M370.571,-228.411C388.175,-223.528 409.779,-217.536 428.601,-212.315"/>
<polygon fill="midnightblue" stroke="midnightblue" points="429.739,-215.631 438.44,-209.586 427.868,-208.886 429.739,-215.631"/>
</g>
<!-- Node8&#45;&gt;Node2 -->
<g id="edge12" class="edge"><title>Node8&#45;&gt;Node2</title>
<path fill="none" stroke="midnightblue" d="M178.811,-152.505C190.894,-175.235 224.944,-232.652 272,-257 319.31,-281.479 381.282,-283.591 423.837,-281.264"/>
<polygon fill="midnightblue" stroke="midnightblue" points="424.196,-284.749 433.949,-280.608 423.743,-277.763 424.196,-284.749"/>
</g>
<!-- Node8&#45;&gt;Node3 -->
<g id="edge16" class="edge"><title>Node8&#45;&gt;Node3</title>
<path fill="none" stroke="midnightblue" d="M228.513,-133.48C274.867,-127.6 342.535,-124.315 398,-143 421.321,-150.856 443.137,-169.169 457.162,-182.932"/>
<polygon fill="midnightblue" stroke="midnightblue" points="454.974,-185.7 464.471,-190.397 459.975,-180.803 454.974,-185.7"/>
</g>
<!-- Node8&#45;&gt;Node5 -->
<g id="edge13" class="edge"><title>Node8&#45;&gt;Node5</title>
<path fill="none" stroke="midnightblue" d="M212.864,-133.414C221.254,-129.941 229.535,-125.266 236,-119 265.46,-90.4474 242.54,-62.5526 272,-34 276.041,-30.084 280.791,-26.7891 285.833,-24.0208"/>
<polygon fill="midnightblue" stroke="midnightblue" points="287.616,-27.0485 295.136,-19.5861 284.603,-20.7297 287.616,-27.0485"/>
</g>
<!-- Node9 -->
<g id="node9" class="node"><title>Node9</title>
<g id="a_node9"><a xlink:href="grafo_8cc.html#a3fe6389b74d0356a95800a3d29d7d664" target="_top" xlink:title="insere_prerequisitos">
<polygon fill="white" stroke="black" points="283,-76.5 283,-95.5 387,-95.5 387,-76.5 283,-76.5"/>
<text text-anchor="middle" x="335" y="-83.5" font-family="Helvetica,sans-Serif" font-size="10.00">insere_prerequisitos</text>
</a>
</g>
</g>
<!-- Node8&#45;&gt;Node9 -->
<g id="edge14" class="edge"><title>Node8&#45;&gt;Node9</title>
<path fill="none" stroke="midnightblue" d="M200.78,-133.459C227.316,-124.006 268.148,-109.46 297.613,-98.963"/>
<polygon fill="midnightblue" stroke="midnightblue" points="298.887,-102.225 307.132,-95.5716 296.538,-95.6306 298.887,-102.225"/>
</g>
<!-- Node10 -->
<g id="node10" class="node"><title>Node10</title>
<g id="a_node10"><a xlink:href="grafo_8cc.html#a0e6585acadedc05719f93fa778cf1dcb" target="_top" xlink:title="procura_tarefa">
<polygon fill="white" stroke="black" points="434.5,-57.5 434.5,-76.5 513.5,-76.5 513.5,-57.5 434.5,-57.5"/>
<text text-anchor="middle" x="474" y="-64.5" font-family="Helvetica,sans-Serif" font-size="10.00">procura_tarefa</text>
</a>
</g>
</g>
<!-- Node8&#45;&gt;Node10 -->
<g id="edge20" class="edge"><title>Node8&#45;&gt;Node10</title>
<path fill="none" stroke="midnightblue" d="M209.395,-133.433C218.648,-129.867 228.203,-125.143 236,-119 258.08,-101.604 247.102,-80.0456 272,-67 320.218,-41.7361 384.306,-47.2615 427.019,-55.4338"/>
<polygon fill="midnightblue" stroke="midnightblue" points="426.363,-58.872 436.86,-57.4358 427.759,-52.0125 426.363,-58.872"/>
</g>
<!-- Node11 -->
<g id="node11" class="node"><title>Node11</title>
<g id="a_node11"><a xlink:href="main_8cc.html#aef0e5ebaf10f94ec3baf710468b2bca8" target="_top" xlink:title="erro_insere_pre_requisito">
<polygon fill="white" stroke="black" points="272.5,-152.5 272.5,-171.5 397.5,-171.5 397.5,-152.5 272.5,-152.5"/>
<text text-anchor="middle" x="335" y="-159.5" font-family="Helvetica,sans-Serif" font-size="10.00">erro_insere_pre_requisito</text>
</a>
</g>
</g>
<!-- Node8&#45;&gt;Node11 -->
<g id="edge17" class="edge"><title>Node8&#45;&gt;Node11</title>
<path fill="none" stroke="midnightblue" d="M235.86,-150.346C244.456,-151.367 253.347,-152.422 262.107,-153.463"/>
<polygon fill="midnightblue" stroke="midnightblue" points="261.961,-156.97 272.304,-154.674 262.787,-150.019 261.961,-156.97"/>
</g>
<!-- Node9&#45;&gt;Node10 -->
<g id="edge15" class="edge"><title>Node9&#45;&gt;Node10</title>
<path fill="none" stroke="midnightblue" d="M387.014,-78.9251C399.257,-77.2271 412.3,-75.4183 424.429,-73.7362"/>
<polygon fill="midnightblue" stroke="midnightblue" points="424.94,-77.1988 434.365,-72.3582 423.979,-70.2651 424.94,-77.1988"/>
</g>
<!-- Node11&#45;&gt;Node2 -->
<g id="edge18" class="edge"><title>Node11&#45;&gt;Node2</title>
<path fill="none" stroke="midnightblue" d="M347.681,-171.72C371.238,-191.322 424.656,-235.772 453.559,-259.823"/>
<polygon fill="midnightblue" stroke="midnightblue" points="451.423,-262.599 461.349,-266.305 455.901,-257.218 451.423,-262.599"/>
</g>
<!-- Node11&#45;&gt;Node3 -->
<g id="edge19" class="edge"><title>Node11&#45;&gt;Node3</title>
<path fill="none" stroke="midnightblue" d="M370.571,-171.589C388.175,-176.472 409.779,-182.464 428.601,-187.685"/>
<polygon fill="midnightblue" stroke="midnightblue" points="427.868,-191.114 438.44,-190.414 429.739,-184.369 427.868,-191.114"/>
</g>
</g>
</svg>
        <g id="navigator" transform="translate(0 0)" fill="#404254">
                <rect fill="#f2f5e9" fill-opacity="0.5" stroke="#606060" stroke-width=".5" x="0" y="0" width="60" height="60"/>
                <use id="zoomplus" xlink:href="#zoomPlus" x="17" y="9" onmousedown="handleZoom(evt,'in')"/>
                <use id="zoomminus" xlink:href="#zoomMin" x="42" y="9" onmousedown="handleZoom(evt,'out')"/>
                <use id="reset" xlink:href="#resetDef" x="30" y="36" onmousedown="handleReset()"/>
                <g id="arrowUp" xlink:href="#dirArrow" transform="translate(30 24)" onmousedown="handlePan(0,-1)">
                  <use xlink:href="#rim" fill="#404040">
                        <set attributeName="fill" to="#808080" begin="arrowUp.mouseover" end="arrowUp.mouseout"/>
                  </use>
                  <path fill="none" stroke="white" stroke-width="1.5" d="M0,-3.0v7 M-2.5,-0.5L0,-3.0L2.5,-0.5"/>
                </g>
                <g id="arrowRight" xlink:href="#dirArrow" transform="rotate(90) translate(36 -43)" onmousedown="handlePan(1,0)">
                  <use xlink:href="#rim" fill="#404040">
                        <set attributeName="fill" to="#808080" begin="arrowRight.mouseover" end="arrowRight.mouseout"/>
                  </use>
                  <path fill="none" stroke="white" stroke-width="1.5" d="M0,-3.0v7 M-2.5,-0.5L0,-3.0L2.5,-0.5"/>
                </g>
                <g id="arrowDown" xlink:href="#dirArrow" transform="rotate(180) translate(-30 -48)" onmousedown="handlePan(0,1)">
                  <use xlink:href="#rim" fill="#404040">
                        <set attributeName="fill" to="#808080" begin="arrowDown.mouseover" end="arrowDown.mouseout"/>
                  </use>
                  <path fill="none" stroke="white" stroke-width="1.5" d="M0,-3.0v7 M-2.5,-0.5L0,-3.0L2.5,-0.5"/>
                </g>
                <g id="arrowLeft" xlink:href="#dirArrow" transform="rotate(270) translate(-36 17)" onmousedown="handlePan(-1,0)">
                  <use xlink:href="#rim" fill="#404040">
                        <set attributeName="fill" to="#808080" begin="arrowLeft.mouseover" end="arrowLeft.mouseout"/>
                  </use>
                  <path fill="none" stroke="white" stroke-width="1.5" d="M0,-3.0v7 M-2.5,-0.5L0,-3.0L2.5,-0.5"/>
                </g>
        </g>
        <svg viewBox="0 0 15 15" width="100%" height="30px" preserveAspectRatio="xMaxYMin meet">
         <g id="arrow_out" transform="scale(0.3 0.3)">
          <a xlink:href="main_8cc_adb3b0c3b009c68f86673eb7bdeef601c_cgraph_org.svg" target="_base">
           <rect id="button" ry="5" rx="5" y="6" x="6" height="38" width="38"
                fill="#f2f5e9" fill-opacity="0.5" stroke="#606060" stroke-width="1.0"/>
           <path id="arrow"
             d="M 11.500037,31.436501 C 11.940474,20.09759 22.043105,11.32322 32.158766,21.979434 L 37.068811,17.246167 C 37.068811,17.246167 37.088388,32 37.088388,32 L 22.160133,31.978069 C 22.160133,31.978069 26.997745,27.140456 26.997745,27.140456 C 18.528582,18.264221 13.291696,25.230495 11.500037,31.436501 z"
             style="fill:#404040;"/>
          </a>
         </g>
        </svg>
</svg>
