<?xml version="1.0" encoding="UTF-8" standalone="no"?>
<!DOCTYPE svg PUBLIC "-//W3C//DTD SVG 1.1//EN"
 "http://www.w3.org/Graphics/SVG/1.1/DTD/svg11.dtd">
<!-- Generated by graphviz version 2.36.0 (20140111.2315)
 -->
<!-- Title: visualizador_tarefas Pages: 1 -->
<!--zoomable 407 -->
<svg id="main" version="1.1" xmlns="http://www.w3.org/2000/svg" xmlns:xlink="http://www.w3.org/1999/xlink" xml:space="preserve" onload="init(evt)">
<style type="text/css"><![CDATA[
.edge:hover path { stroke: red; }
.edge:hover polygon { stroke: red; fill: red; }
]]></style>
<script type="text/javascript"><![CDATA[
var edges = document.getElementsByTagName('g');
if (edges && edges.length) {
  for (var i=0;i<edges.length;i++) {
    if (edges[i].id.substr(0,4)=='edge') {
      edges[i].setAttribute('class','edge');
    }
  }
}
]]></script>
        <defs>
                <circle id="rim" cx="0" cy="0" r="7"/>
                <circle id="rim2" cx="0" cy="0" r="3.5"/>
                <g id="zoomPlus">
                        <use xlink:href="#rim" fill="#404040">
                                <set attributeName="fill" to="#808080" begin="zoomplus.mouseover" end="zoomplus.mouseout"/>
                        </use>
                        <path d="M-4,0h8M0,-4v8" fill="none" stroke="white" stroke-width="1.5" pointer-events="none"/>
                </g>
                <g id="zoomMin">
                        <use xlink:href="#rim" fill="#404040">
                                <set attributeName="fill" to="#808080" begin="zoomminus.mouseover" end="zoomminus.mouseout"/>
                        </use>
                        <path d="M-4,0h8" fill="none" stroke="white" stroke-width="1.5" pointer-events="none"/>
                </g>
                <g id="dirArrow">
                        <path fill="none" stroke="white" stroke-width="1.5" d="M0,-3.0v7 M-2.5,-0.5L0,-3.0L2.5,-0.5"/>
                </g>
               <g id="resetDef">
                       <use xlink:href="#rim2" fill="#404040">
                               <set attributeName="fill" to="#808080" begin="reset.mouseover" end="reset.mouseout"/>
                       </use>
               </g>
        </defs>

<script type="text/javascript">
var viewWidth = 560;
var viewHeight = 407;
var sectionId = 'dynsection-49';
</script>
<script xlink:href="svgpan.js"/>
<svg id="graph" class="graph">
<g id="viewport">
<title>visualizador_tarefas</title>
<polygon fill="white" stroke="none" points="-4,4 -4,-403 556,-403 556,4 -4,4"/>
<!-- Node1 -->
<g id="node1" class="node"><title>Node1</title>
<polygon fill="#bfbfbf" stroke="black" points="0,-264.5 0,-283.5 104,-283.5 104,-264.5 0,-264.5"/>
<text text-anchor="middle" x="52" y="-271.5" font-family="Helvetica,sans-Serif" font-size="10.00">visualizador_tarefas</text>
</g>
<!-- Node2 -->
<g id="node2" class="node"><title>Node2</title>
<g id="a_node2"><a xlink:href="main_8cc.html#a4611d53166aabe6d0fb24bcfd407bd53" target="_top" xlink:title="print_visualizador">
<polygon fill="white" stroke="black" points="161,-379.5 161,-398.5 253,-398.5 253,-379.5 161,-379.5"/>
<text text-anchor="middle" x="207" y="-386.5" font-family="Helvetica,sans-Serif" font-size="10.00">print_visualizador</text>
</a>
</g>
</g>
<!-- Node1&#45;&gt;Node2 -->
<g id="edge1" class="edge"><title>Node1&#45;&gt;Node2</title>
<path fill="none" stroke="midnightblue" d="M59.7955,-283.632C73.1652,-301.929 104.676,-341.941 140,-365 146.317,-369.124 153.436,-372.656 160.601,-375.642"/>
<polygon fill="midnightblue" stroke="midnightblue" points="159.737,-379.06 170.327,-379.379 162.248,-372.525 159.737,-379.06"/>
</g>
<!-- Node3 -->
<g id="node3" class="node"><title>Node3</title>
<g id="a_node3"><a xlink:href="main_8cc.html#abe7109d6b800c7cd9f5c2097bc8df894" target="_top" xlink:title="destruir_menu">
<polygon fill="white" stroke="black" points="473,-246.5 473,-265.5 551,-265.5 551,-246.5 473,-246.5"/>
<text text-anchor="middle" x="512" y="-253.5" font-family="Helvetica,sans-Serif" font-size="10.00">destruir_menu</text>
</a>
</g>
</g>
<!-- Node1&#45;&gt;Node3 -->
<g id="edge2" class="edge"><title>Node1&#45;&gt;Node3</title>
<path fill="none" stroke="midnightblue" d="M71.7994,-283.622C128.957,-311.486 304.772,-386.866 436,-332 463.945,-320.316 486.771,-292.586 499.628,-274.053"/>
<polygon fill="midnightblue" stroke="midnightblue" points="502.647,-275.835 505.268,-265.569 496.817,-271.96 502.647,-275.835"/>
</g>
<!-- Node4 -->
<g id="node4" class="node"><title>Node4</title>
<g id="a_node4"><a xlink:href="main_8cc.html#aa0ac4a2d1125c89ec5acc37dfde748c6" target="_top" xlink:title="ver_tarefas">
<polygon fill="white" stroke="black" points="340.5,-303.5 340.5,-322.5 405.5,-322.5 405.5,-303.5 340.5,-303.5"/>
<text text-anchor="middle" x="373" y="-310.5" font-family="Helvetica,sans-Serif" font-size="10.00">ver_tarefas</text>
</a>
</g>
</g>
<!-- Node1&#45;&gt;Node4 -->
<g id="edge3" class="edge"><title>Node1&#45;&gt;Node4</title>
<path fill="none" stroke="midnightblue" d="M104.253,-280.266C167.056,-287.944 272.253,-300.805 330.329,-307.905"/>
<polygon fill="midnightblue" stroke="midnightblue" points="329.91,-311.38 340.261,-309.12 330.759,-304.432 329.91,-311.38"/>
</g>
<!-- Node6 -->
<g id="node6" class="node"><title>Node6</title>
<g id="a_node6"><a xlink:href="main_8cc.html#a4f8f29b1eba21e0b51992f8de173a582" target="_top" xlink:title="mostrar_pre_requisitos">
<polygon fill="white" stroke="black" points="315,-227.5 315,-246.5 431,-246.5 431,-227.5 315,-227.5"/>
<text text-anchor="middle" x="373" y="-234.5" font-family="Helvetica,sans-Serif" font-size="10.00">mostrar_pre_requisitos</text>
</a>
</g>
</g>
<!-- Node1&#45;&gt;Node6 -->
<g id="edge6" class="edge"><title>Node1&#45;&gt;Node6</title>
<path fill="none" stroke="midnightblue" d="M104.253,-268.055C158.695,-261.741 244.995,-251.731 304.84,-244.79"/>
<polygon fill="midnightblue" stroke="midnightblue" points="305.419,-248.246 314.949,-243.617 304.612,-241.293 305.419,-248.246"/>
</g>
<!-- Node7 -->
<g id="node7" class="node"><title>Node7</title>
<g id="a_node7"><a xlink:href="main_8cc.html#ab05b93d97a47c67aab51426cdad29a86" target="_top" xlink:title="ver_tarefas_concluidas">
<polygon fill="white" stroke="black" points="314.5,-189.5 314.5,-208.5 431.5,-208.5 431.5,-189.5 314.5,-189.5"/>
<text text-anchor="middle" x="373" y="-196.5" font-family="Helvetica,sans-Serif" font-size="10.00">ver_tarefas_concluidas</text>
</a>
</g>
</g>
<!-- Node1&#45;&gt;Node7 -->
<g id="edge9" class="edge"><title>Node1&#45;&gt;Node7</title>
<path fill="none" stroke="midnightblue" d="M77.8384,-264.392C95.0859,-257.979 118.703,-249.707 140,-244 194.643,-229.357 257.726,-217.433 304.306,-209.548"/>
<polygon fill="midnightblue" stroke="midnightblue" points="304.998,-212.98 314.283,-207.877 303.842,-206.077 304.998,-212.98"/>
</g>
<!-- Node8 -->
<g id="node8" class="node"><title>Node8</title>
<g id="a_node8"><a xlink:href="main_8cc.html#adcc550070c8292efdd63f7df8bbdd58a" target="_top" xlink:title="filtrar_tarefas_completadas">
<polygon fill="white" stroke="black" points="140,-151.5 140,-170.5 274,-170.5 274,-151.5 140,-151.5"/>
<text text-anchor="middle" x="207" y="-158.5" font-family="Helvetica,sans-Serif" font-size="10.00">filtrar_tarefas_completadas</text>
</a>
</g>
</g>
<!-- Node1&#45;&gt;Node8 -->
<g id="edge12" class="edge"><title>Node1&#45;&gt;Node8</title>
<path fill="none" stroke="midnightblue" d="M60.0565,-264.309C73.6299,-246.304 105.135,-207.484 140,-185 146.41,-180.866 153.63,-177.319 160.879,-174.32"/>
<polygon fill="midnightblue" stroke="midnightblue" points="162.618,-177.402 170.711,-170.564 160.12,-170.863 162.618,-177.402"/>
</g>
<!-- Node4&#45;&gt;Node3 -->
<g id="edge5" class="edge"><title>Node4&#45;&gt;Node3</title>
<path fill="none" stroke="midnightblue" d="M399.442,-303.449C410.692,-299.149 424.053,-293.938 436,-289 450.811,-282.879 467.11,-275.754 480.72,-269.695"/>
<polygon fill="midnightblue" stroke="midnightblue" points="482.396,-272.779 490.095,-265.501 479.538,-266.39 482.396,-272.779"/>
</g>
<!-- Node5 -->
<g id="node5" class="node"><title>Node5</title>
<g id="a_node5"><a xlink:href="main_8cc.html#ad2a06ffdf1033b3b1c11f337fa12553b" target="_top" xlink:title="imprimirRotulo">
<polygon fill="white" stroke="black" points="472,-189.5 472,-208.5 552,-208.5 552,-189.5 472,-189.5"/>
<text text-anchor="middle" x="512" y="-196.5" font-family="Helvetica,sans-Serif" font-size="10.00">imprimirRotulo</text>
</a>
</g>
</g>
<!-- Node4&#45;&gt;Node5 -->
<g id="edge4" class="edge"><title>Node4&#45;&gt;Node5</title>
<path fill="none" stroke="midnightblue" d="M385.681,-303.28C409.238,-283.678 462.656,-239.228 491.559,-215.177"/>
<polygon fill="midnightblue" stroke="midnightblue" points="493.901,-217.782 499.349,-208.695 489.423,-212.401 493.901,-217.782"/>
</g>
<!-- Node6&#45;&gt;Node3 -->
<g id="edge8" class="edge"><title>Node6&#45;&gt;Node3</title>
<path fill="none" stroke="midnightblue" d="M431.307,-244.948C441.646,-246.382 452.336,-247.864 462.398,-249.26"/>
<polygon fill="midnightblue" stroke="midnightblue" points="462.23,-252.77 472.616,-250.677 463.191,-245.836 462.23,-252.77"/>
</g>
<!-- Node6&#45;&gt;Node5 -->
<g id="edge7" class="edge"><title>Node6&#45;&gt;Node5</title>
<path fill="none" stroke="midnightblue" d="M408.571,-227.411C426.175,-222.528 447.779,-216.536 466.601,-211.315"/>
<polygon fill="midnightblue" stroke="midnightblue" points="467.739,-214.631 476.44,-208.586 465.868,-207.886 467.739,-214.631"/>
</g>
<!-- Node7&#45;&gt;Node3 -->
<g id="edge11" class="edge"><title>Node7&#45;&gt;Node3</title>
<path fill="none" stroke="midnightblue" d="M408.801,-208.517C417.769,-211.281 427.333,-214.507 436,-218 452.72,-224.74 470.762,-233.82 484.96,-241.415"/>
<polygon fill="midnightblue" stroke="midnightblue" points="483.654,-244.688 494.112,-246.388 486.997,-238.538 483.654,-244.688"/>
</g>
<!-- Node7&#45;&gt;Node5 -->
<g id="edge10" class="edge"><title>Node7&#45;&gt;Node5</title>
<path fill="none" stroke="midnightblue" d="M431.703,-199C441.585,-199 451.773,-199 461.419,-199"/>
<polygon fill="midnightblue" stroke="midnightblue" points="461.632,-202.5 471.632,-199 461.632,-195.5 461.632,-202.5"/>
</g>
<!-- Node8&#45;&gt;Node3 -->
<g id="edge14" class="edge"><title>Node8&#45;&gt;Node3</title>
<path fill="none" stroke="midnightblue" d="M214.469,-170.717C228.78,-191.219 265.414,-238.453 310,-256 359.347,-275.421 420.938,-271.784 462.847,-265.621"/>
<polygon fill="midnightblue" stroke="midnightblue" points="463.459,-269.068 472.794,-264.057 462.371,-262.153 463.459,-269.068"/>
</g>
<!-- Node8&#45;&gt;Node5 -->
<g id="edge13" class="edge"><title>Node8&#45;&gt;Node5</title>
<path fill="none" stroke="midnightblue" d="M236.603,-151.478C280.681,-138.367 367.303,-118.858 436,-142 459.321,-149.856 481.137,-168.169 495.162,-181.932"/>
<polygon fill="midnightblue" stroke="midnightblue" points="492.974,-184.7 502.471,-189.397 497.975,-179.803 492.974,-184.7"/>
</g>
<!-- Node9 -->
<g id="node9" class="node"><title>Node9</title>
<g id="a_node9"><a xlink:href="grafo_8cc.html#abce1552216c6841949c616cecd5a4c0b" target="_top" xlink:title="tarefas_concluidas">
<polygon fill="white" stroke="black" points="324,-75.5 324,-94.5 422,-94.5 422,-75.5 324,-75.5"/>
<text text-anchor="middle" x="373" y="-82.5" font-family="Helvetica,sans-Serif" font-size="10.00">tarefas_concluidas</text>
</a>
</g>
</g>
<!-- Node8&#45;&gt;Node9 -->
<g id="edge15" class="edge"><title>Node8&#45;&gt;Node9</title>
<path fill="none" stroke="midnightblue" d="M225.425,-151.427C245.523,-140.548 279.696,-122.547 310,-109 318.345,-105.269 327.46,-101.55 336.071,-98.1922"/>
<polygon fill="midnightblue" stroke="midnightblue" points="337.425,-101.421 345.51,-94.5732 334.919,-94.8852 337.425,-101.421"/>
</g>
<!-- Node14 -->
<g id="node14" class="node"><title>Node14</title>
<g id="a_node14"><a xlink:href="main_8cc.html#aaaa25a5b0eda0fab944a03026249b324" target="_top" xlink:title="mostrar_tarefas_filtradas">
<polygon fill="white" stroke="black" points="310.5,-151.5 310.5,-170.5 435.5,-170.5 435.5,-151.5 310.5,-151.5"/>
<text text-anchor="middle" x="373" y="-158.5" font-family="Helvetica,sans-Serif" font-size="10.00">mostrar_tarefas_filtradas</text>
</a>
</g>
</g>
<!-- Node8&#45;&gt;Node14 -->
<g id="edge21" class="edge"><title>Node8&#45;&gt;Node14</title>
<path fill="none" stroke="midnightblue" d="M274.232,-161C282.794,-161 291.595,-161 300.241,-161"/>
<polygon fill="midnightblue" stroke="midnightblue" points="300.296,-164.5 310.296,-161 300.296,-157.5 300.296,-164.5"/>
</g>
<!-- Node10 -->
<g id="node10" class="node"><title>Node10</title>
<g id="a_node10"><a xlink:href="grafo_8cc.html#acbf9093cdf86cc258309a203729436b2" target="_top" xlink:title="insere_lista">
<polygon fill="white" stroke="black" points="479,-56.5 479,-75.5 545,-75.5 545,-56.5 479,-56.5"/>
<text text-anchor="middle" x="512" y="-63.5" font-family="Helvetica,sans-Serif" font-size="10.00">insere_lista</text>
</a>
</g>
</g>
<!-- Node9&#45;&gt;Node10 -->
<g id="edge16" class="edge"><title>Node9&#45;&gt;Node10</title>
<path fill="none" stroke="midnightblue" d="M422.301,-78.3013C437.427,-76.2036 453.996,-73.9057 468.676,-71.8697"/>
<polygon fill="midnightblue" stroke="midnightblue" points="469.561,-75.2807 478.985,-70.44 468.599,-68.347 469.561,-75.2807"/>
</g>
<!-- Node11 -->
<g id="node11" class="node"><title>Node11</title>
<g id="a_node11"><a xlink:href="grafo_8cc.html#a6884bc1455bdfb3648b3e2514998e599" target="_top" xlink:title="tempo_minimo">
<polygon fill="white" stroke="black" points="472,-0.5 472,-19.5 552,-19.5 552,-0.5 472,-0.5"/>
<text text-anchor="middle" x="512" y="-7.5" font-family="Helvetica,sans-Serif" font-size="10.00">tempo_minimo</text>
</a>
</g>
</g>
<!-- Node9&#45;&gt;Node11 -->
<g id="edge17" class="edge"><title>Node9&#45;&gt;Node11</title>
<path fill="none" stroke="midnightblue" d="M391.63,-75.3486C415.161,-62.4665 457.041,-39.5397 484.414,-24.5542"/>
<polygon fill="midnightblue" stroke="midnightblue" points="486.347,-27.4864 493.438,-19.6144 482.985,-21.3463 486.347,-27.4864"/>
</g>
<!-- Node12 -->
<g id="node12" class="node"><title>Node12</title>
<g id="a_node12"><a xlink:href="grafo_8cc.html#ae12d615ab927bce766dcc94b9f1b404d" target="_top" xlink:title="remove_lista">
<polygon fill="white" stroke="black" points="476,-132.5 476,-151.5 548,-151.5 548,-132.5 476,-132.5"/>
<text text-anchor="middle" x="512" y="-139.5" font-family="Helvetica,sans-Serif" font-size="10.00">remove_lista</text>
</a>
</g>
</g>
<!-- Node9&#45;&gt;Node12 -->
<g id="edge19" class="edge"><title>Node9&#45;&gt;Node12</title>
<path fill="none" stroke="midnightblue" d="M399.442,-94.5513C410.692,-98.8513 424.053,-104.062 436,-109 450.811,-115.121 467.11,-122.246 480.72,-128.305"/>
<polygon fill="midnightblue" stroke="midnightblue" points="479.538,-131.61 490.095,-132.499 482.396,-125.221 479.538,-131.61"/>
</g>
<!-- Node13 -->
<g id="node13" class="node"><title>Node13</title>
<g id="a_node13"><a xlink:href="grafo_8cc.html#a755ed9b778398a7614e61bdb3084717b" target="_top" xlink:title="compara">
<polygon fill="white" stroke="black" points="485,-94.5 485,-113.5 539,-113.5 539,-94.5 485,-94.5"/>
<text text-anchor="middle" x="512" y="-101.5" font-family="Helvetica,sans-Serif" font-size="10.00">compara</text>
</a>
</g>
</g>
<!-- Node9&#45;&gt;Node13 -->
<g id="edge20" class="edge"><title>Node9&#45;&gt;Node13</title>
<path fill="none" stroke="midnightblue" d="M422.301,-91.6987C439.49,-94.0826 458.543,-96.7249 474.57,-98.9477"/>
<polygon fill="midnightblue" stroke="midnightblue" points="474.229,-102.434 484.615,-100.341 475.191,-95.5002 474.229,-102.434"/>
</g>
<!-- Node11&#45;&gt;Node11 -->
<g id="edge18" class="edge"><title>Node11&#45;&gt;Node11</title>
<path fill="none" stroke="midnightblue" d="M490.73,-19.7571C480.383,-28.5653 487.473,-38 512,-38 527.713,-38 536.269,-34.128 537.67,-29.0292"/>
<polygon fill="midnightblue" stroke="midnightblue" points="540.719,-27.2911 533.27,-19.7571 534.395,-30.292 540.719,-27.2911"/>
</g>
<!-- Node14&#45;&gt;Node3 -->
<g id="edge23" class="edge"><title>Node14&#45;&gt;Node3</title>
<path fill="none" stroke="midnightblue" d="M415.652,-170.509C422.722,-173.022 429.78,-176.145 436,-180 455.774,-192.257 455.665,-201.435 472,-218 478.965,-225.064 486.773,-232.721 493.563,-239.299"/>
<polygon fill="midnightblue" stroke="midnightblue" points="491.325,-242.004 500.954,-246.425 496.184,-236.965 491.325,-242.004"/>
</g>
<!-- Node14&#45;&gt;Node5 -->
<g id="edge22" class="edge"><title>Node14&#45;&gt;Node5</title>
<path fill="none" stroke="midnightblue" d="M408.571,-170.589C426.175,-175.472 447.779,-181.464 466.601,-186.685"/>
<polygon fill="midnightblue" stroke="midnightblue" points="465.868,-190.114 476.44,-189.414 467.739,-183.369 465.868,-190.114"/>
</g>
</g>
</svg>
        <g id="navigator" transform="translate(0 0)" fill="#404254">
                <rect fill="#f2f5e9" fill-opacity="0.5" stroke="#606060" stroke-width=".5" x="0" y="0" width="60" height="60"/>
                <use id="zoomplus" xlink:href="#zoomPlus" x="17" y="9" onmousedown="handleZoom(evt,'in')"/>
                <use id="zoomminus" xlink:href="#zoomMin" x="42" y="9" onmousedown="handleZoom(evt,'out')"/>
                <use id="reset" xlink:href="#resetDef" x="30" y="36" onmousedown="handleReset()"/>
                <g id="arrowUp" xlink:href="#dirArrow" transform="translate(30 24)" onmousedown="handlePan(0,-1)">
                  <use xlink:href="#rim" fill="#404040">
                        <set attributeName="fill" to="#808080" begin="arrowUp.mouseover" end="arrowUp.mouseout"/>
                  </use>
                  <path fill="none" stroke="white" stroke-width="1.5" d="M0,-3.0v7 M-2.5,-0.5L0,-3.0L2.5,-0.5"/>
                </g>
                <g id="arrowRight" xlink:href="#dirArrow" transform="rotate(90) translate(36 -43)" onmousedown="handlePan(1,0)">
                  <use xlink:href="#rim" fill="#404040">
                        <set attributeName="fill" to="#808080" begin="arrowRight.mouseover" end="arrowRight.mouseout"/>
                  </use>
                  <path fill="none" stroke="white" stroke-width="1.5" d="M0,-3.0v7 M-2.5,-0.5L0,-3.0L2.5,-0.5"/>
                </g>
                <g id="arrowDown" xlink:href="#dirArrow" transform="rotate(180) translate(-30 -48)" onmousedown="handlePan(0,1)">
                  <use xlink:href="#rim" fill="#404040">
                        <set attributeName="fill" to="#808080" begin="arrowDown.mouseover" end="arrowDown.mouseout"/>
                  </use>
                  <path fill="none" stroke="white" stroke-width="1.5" d="M0,-3.0v7 M-2.5,-0.5L0,-3.0L2.5,-0.5"/>
                </g>
                <g id="arrowLeft" xlink:href="#dirArrow" transform="rotate(270) translate(-36 17)" onmousedown="handlePan(-1,0)">
                  <use xlink:href="#rim" fill="#404040">
                        <set attributeName="fill" to="#808080" begin="arrowLeft.mouseover" end="arrowLeft.mouseout"/>
                  </use>
                  <path fill="none" stroke="white" stroke-width="1.5" d="M0,-3.0v7 M-2.5,-0.5L0,-3.0L2.5,-0.5"/>
                </g>
        </g>
        <svg viewBox="0 0 15 15" width="100%" height="30px" preserveAspectRatio="xMaxYMin meet">
         <g id="arrow_out" transform="scale(0.3 0.3)">
          <a xlink:href="main_8cc_a5d247f6e8ee275a8cd007f922ae2acb3_cgraph_org.svg" target="_base">
           <rect id="button" ry="5" rx="5" y="6" x="6" height="38" width="38"
                fill="#f2f5e9" fill-opacity="0.5" stroke="#606060" stroke-width="1.0"/>
           <path id="arrow"
             d="M 11.500037,31.436501 C 11.940474,20.09759 22.043105,11.32322 32.158766,21.979434 L 37.068811,17.246167 C 37.068811,17.246167 37.088388,32 37.088388,32 L 22.160133,31.978069 C 22.160133,31.978069 26.997745,27.140456 26.997745,27.140456 C 18.528582,18.264221 13.291696,25.230495 11.500037,31.436501 z"
             style="fill:#404040;"/>
          </a>
         </g>
        </svg>
</svg>
