<?xml version="1.0" encoding="UTF-8" standalone="no"?>
<!DOCTYPE svg PUBLIC "-//W3C//DTD SVG 1.1//EN"
 "http://www.w3.org/Graphics/SVG/1.1/DTD/svg11.dtd">
<!-- Generated by graphviz version 2.36.0 (20140111.2315)
 -->
<!-- Title: imprimir_em_arquivo Pages: 1 -->
<svg width="232pt" height="104pt"
 viewBox="0.00 0.00 232.00 104.00" xmlns="http://www.w3.org/2000/svg" xmlns:xlink="http://www.w3.org/1999/xlink">
<g id="graph0" class="graph" transform="scale(1 1) rotate(0) translate(4 100)">
<title>imprimir_em_arquivo</title>
<polygon fill="white" stroke="none" points="-4,4 -4,-100 228,-100 228,4 -4,4"/>
<!-- Node1 -->
<g id="node1" class="node"><title>Node1</title>
<polygon fill="#bfbfbf" stroke="black" points="0.5,-38.5 0.5,-57.5 107.5,-57.5 107.5,-38.5 0.5,-38.5"/>
<text text-anchor="middle" x="54" y="-45.5" font-family="Helvetica,sans-Serif" font-size="10.00">imprimir_em_arquivo</text>
</g>
<!-- Node2 -->
<g id="node2" class="node"><title>Node2</title>
<g id="a_node2"><a xlink:href="main_8cc.html#ad2a06ffdf1033b3b1c11f337fa12553b" target="_top" xlink:title="imprimirRotulo">
<polygon fill="white" stroke="black" points="144,-76.5 144,-95.5 224,-95.5 224,-76.5 144,-76.5"/>
<text text-anchor="middle" x="184" y="-83.5" font-family="Helvetica,sans-Serif" font-size="10.00">imprimirRotulo</text>
</a>
</g>
</g>
<!-- Node1&#45;&gt;Node2 -->
<g id="edge1" class="edge"><title>Node1&#45;&gt;Node2</title>
<path fill="none" stroke="midnightblue" d="M87.2998,-57.589C103.52,-62.4044 123.375,-68.2988 140.787,-73.468"/>
<polygon fill="midnightblue" stroke="midnightblue" points="140.128,-76.9233 150.711,-76.4141 142.12,-70.2127 140.128,-76.9233"/>
</g>
<!-- Node3 -->
<g id="node3" class="node"><title>Node3</title>
<g id="a_node3"><a xlink:href="grafo_8cc.html#ac7a63f8753e7dbbb4117e6d4ebaa5933" target="_top" xlink:title="imprime_grafo">
<polygon fill="white" stroke="black" points="145,-38.5 145,-57.5 223,-57.5 223,-38.5 145,-38.5"/>
<text text-anchor="middle" x="184" y="-45.5" font-family="Helvetica,sans-Serif" font-size="10.00">imprime_grafo</text>
</a>
</g>
</g>
<!-- Node1&#45;&gt;Node3 -->
<g id="edge2" class="edge"><title>Node1&#45;&gt;Node3</title>
<path fill="none" stroke="midnightblue" d="M107.801,-48C116.711,-48 125.919,-48 134.706,-48"/>
<polygon fill="midnightblue" stroke="midnightblue" points="134.785,-51.5001 144.785,-48 134.785,-44.5001 134.785,-51.5001"/>
</g>
<!-- Node4 -->
<g id="node4" class="node"><title>Node4</title>
<g id="a_node4"><a xlink:href="main_8cc.html#abe7109d6b800c7cd9f5c2097bc8df894" target="_top" xlink:title="destruir_menu">
<polygon fill="white" stroke="black" points="145,-0.5 145,-19.5 223,-19.5 223,-0.5 145,-0.5"/>
<text text-anchor="middle" x="184" y="-7.5" font-family="Helvetica,sans-Serif" font-size="10.00">destruir_menu</text>
</a>
</g>
</g>
<!-- Node1&#45;&gt;Node4 -->
<g id="edge3" class="edge"><title>Node1&#45;&gt;Node4</title>
<path fill="none" stroke="midnightblue" d="M87.2998,-38.411C103.52,-33.5956 123.375,-27.7012 140.787,-22.532"/>
<polygon fill="midnightblue" stroke="midnightblue" points="142.12,-25.7873 150.711,-19.5859 140.128,-19.0767 142.12,-25.7873"/>
</g>
</g>
</svg>
