<?xml version="1.0" encoding="UTF-8" standalone="no"?>
<!DOCTYPE svg PUBLIC "-//W3C//DTD SVG 1.1//EN"
 "http://www.w3.org/Graphics/SVG/1.1/DTD/svg11.dtd">
<!-- Generated by graphviz version 2.36.0 (20140111.2315)
 -->
<!-- Title: remover_tarefa Pages: 1 -->
<svg width="398pt" height="47pt"
 viewBox="0.00 0.00 398.00 47.00" xmlns="http://www.w3.org/2000/svg" xmlns:xlink="http://www.w3.org/1999/xlink">
<g id="graph0" class="graph" transform="scale(1 1) rotate(0) translate(4 43)">
<title>remover_tarefa</title>
<polygon fill="white" stroke="none" points="-4,4 -4,-43 394,-43 394,4 -4,4"/>
<!-- Node1 -->
<g id="node1" class="node"><title>Node1</title>
<polygon fill="#bfbfbf" stroke="black" points="0,-0.5 0,-19.5 82,-19.5 82,-0.5 0,-0.5"/>
<text text-anchor="middle" x="41" y="-7.5" font-family="Helvetica,sans-Serif" font-size="10.00">remover_tarefa</text>
</g>
<!-- Node2 -->
<g id="node2" class="node"><title>Node2</title>
<g id="a_node2"><a xlink:href="main_8cc.html#af852bc15cf3d5217386a9bb0bf3b9abd" target="_top" xlink:title="operacoes_grafo">
<polygon fill="white" stroke="black" points="118.5,-0.5 118.5,-19.5 207.5,-19.5 207.5,-0.5 118.5,-0.5"/>
<text text-anchor="middle" x="163" y="-7.5" font-family="Helvetica,sans-Serif" font-size="10.00">operacoes_grafo</text>
</a>
</g>
</g>
<!-- Node1&#45;&gt;Node2 -->
<g id="edge1" class="edge"><title>Node1&#45;&gt;Node2</title>
<path fill="none" stroke="midnightblue" d="M92.5573,-10C101.12,-10 109.945,-10 118.313,-10"/>
<polygon fill="midnightblue" stroke="midnightblue" points="92.2921,-6.5001 82.2921,-10 92.2921,-13.5001 92.2921,-6.5001"/>
</g>
<!-- Node3 -->
<g id="node3" class="node"><title>Node3</title>
<g id="a_node3"><a xlink:href="main_8cc.html#af1ccf694bcf905341f10b534e5a272fa" target="_top" xlink:title="abrir_arquivo">
<polygon fill="white" stroke="black" points="244,-19.5 244,-38.5 316,-38.5 316,-19.5 244,-19.5"/>
<text text-anchor="middle" x="280" y="-26.5" font-family="Helvetica,sans-Serif" font-size="10.00">abrir_arquivo</text>
</a>
</g>
</g>
<!-- Node2&#45;&gt;Node3 -->
<g id="edge2" class="edge"><title>Node2&#45;&gt;Node3</title>
<path fill="none" stroke="midnightblue" d="M217.736,-18.8781C226.617,-20.3454 235.619,-21.8327 243.888,-23.199"/>
<polygon fill="midnightblue" stroke="midnightblue" points="218.241,-15.4143 207.805,-17.2373 217.1,-22.3206 218.241,-15.4143"/>
</g>
<!-- Node4 -->
<g id="node4" class="node"><title>Node4</title>
<g id="a_node4"><a xlink:href="main_8cc.html#ae66f6b31b5ad750f1fe042a706a4e3d4" target="_top" xlink:title="main">
<polygon fill="white" stroke="black" points="352,-0.5 352,-19.5 390,-19.5 390,-0.5 352,-0.5"/>
<text text-anchor="middle" x="371" y="-7.5" font-family="Helvetica,sans-Serif" font-size="10.00">main</text>
</a>
</g>
</g>
<!-- Node2&#45;&gt;Node4 -->
<g id="edge4" class="edge"><title>Node2&#45;&gt;Node4</title>
<path fill="none" stroke="midnightblue" d="M217.725,-10C262.01,-10 322.194,-10 351.894,-10"/>
<polygon fill="midnightblue" stroke="midnightblue" points="217.687,-6.5001 207.687,-10 217.687,-13.5001 217.687,-6.5001"/>
</g>
<!-- Node3&#45;&gt;Node4 -->
<g id="edge3" class="edge"><title>Node3&#45;&gt;Node4</title>
<path fill="none" stroke="midnightblue" d="M326.067,-19.3789C335.24,-17.4207 344.38,-15.4694 351.929,-13.8578"/>
<polygon fill="midnightblue" stroke="midnightblue" points="325.224,-15.98 316.175,-21.4907 326.686,-22.8257 325.224,-15.98"/>
</g>
</g>
</svg>
