<?xml version="1.0" encoding="UTF-8" standalone="no"?>
<!DOCTYPE svg PUBLIC "-//W3C//DTD SVG 1.1//EN"
 "http://www.w3.org/Graphics/SVG/1.1/DTD/svg11.dtd">
<!-- Generated by graphviz version 2.36.0 (20140111.2315)
 -->
<!-- Title: erro_id_existente Pages: 1 -->
<svg width="630pt" height="66pt"
 viewBox="0.00 0.00 630.00 66.00" xmlns="http://www.w3.org/2000/svg" xmlns:xlink="http://www.w3.org/1999/xlink">
<g id="graph0" class="graph" transform="scale(1 1) rotate(0) translate(4 62)">
<title>erro_id_existente</title>
<polygon fill="white" stroke="none" points="-4,4 -4,-62 626,-62 626,4 -4,4"/>
<!-- Node1 -->
<g id="node1" class="node"><title>Node1</title>
<polygon fill="#bfbfbf" stroke="black" points="0.5,-19.5 0.5,-38.5 91.5,-38.5 91.5,-19.5 0.5,-19.5"/>
<text text-anchor="middle" x="46" y="-26.5" font-family="Helvetica,sans-Serif" font-size="10.00">erro_id_existente</text>
</g>
<!-- Node2 -->
<g id="node2" class="node"><title>Node2</title>
<g id="a_node2"><a xlink:href="main_8cc.html#adb3b0c3b009c68f86673eb7bdeef601c" target="_top" xlink:title="inserir_tarefa">
<polygon fill="white" stroke="black" points="240.5,-38.5 240.5,-57.5 313.5,-57.5 313.5,-38.5 240.5,-38.5"/>
<text text-anchor="middle" x="277" y="-45.5" font-family="Helvetica,sans-Serif" font-size="10.00">inserir_tarefa</text>
</a>
</g>
</g>
<!-- Node1&#45;&gt;Node2 -->
<g id="edge1" class="edge"><title>Node1&#45;&gt;Node2</title>
<path fill="none" stroke="midnightblue" d="M101.717,-33.5398C144.709,-37.1068 203.33,-41.9706 240.425,-45.0484"/>
<polygon fill="midnightblue" stroke="midnightblue" points="101.952,-30.0474 91.6971,-32.7085 101.373,-37.0235 101.952,-30.0474"/>
</g>
<!-- Node6 -->
<g id="node6" class="node"><title>Node6</title>
<g id="a_node6"><a xlink:href="main_8cc.html#a8d8002aa0f76981dad9ce30329767981" target="_top" xlink:title="edicao_tarefa">
<polygon fill="white" stroke="black" points="128.5,-0.5 128.5,-19.5 203.5,-19.5 203.5,-0.5 128.5,-0.5"/>
<text text-anchor="middle" x="166" y="-7.5" font-family="Helvetica,sans-Serif" font-size="10.00">edicao_tarefa</text>
</a>
</g>
</g>
<!-- Node1&#45;&gt;Node6 -->
<g id="edge6" class="edge"><title>Node1&#45;&gt;Node6</title>
<path fill="none" stroke="midnightblue" d="M101.717,-20.1896C110.76,-18.7336 119.937,-17.2558 128.394,-15.8942"/>
<polygon fill="midnightblue" stroke="midnightblue" points="100.927,-16.7716 91.6107,-21.8169 102.04,-23.6826 100.927,-16.7716"/>
</g>
<!-- Node3 -->
<g id="node3" class="node"><title>Node3</title>
<g id="a_node3"><a xlink:href="main_8cc.html#af852bc15cf3d5217386a9bb0bf3b9abd" target="_top" xlink:title="operacoes_grafo">
<polygon fill="white" stroke="black" points="350.5,-19.5 350.5,-38.5 439.5,-38.5 439.5,-19.5 350.5,-19.5"/>
<text text-anchor="middle" x="395" y="-26.5" font-family="Helvetica,sans-Serif" font-size="10.00">operacoes_grafo</text>
</a>
</g>
</g>
<!-- Node2&#45;&gt;Node3 -->
<g id="edge2" class="edge"><title>Node2&#45;&gt;Node3</title>
<path fill="none" stroke="midnightblue" d="M323.804,-40.4976C332.563,-39.0629 341.712,-37.5645 350.4,-36.1414"/>
<polygon fill="midnightblue" stroke="midnightblue" points="323.053,-37.0739 313.75,-42.1443 324.185,-43.9818 323.053,-37.0739"/>
</g>
<!-- Node4 -->
<g id="node4" class="node"><title>Node4</title>
<g id="a_node4"><a xlink:href="main_8cc.html#af1ccf694bcf905341f10b534e5a272fa" target="_top" xlink:title="abrir_arquivo">
<polygon fill="white" stroke="black" points="476,-38.5 476,-57.5 548,-57.5 548,-38.5 476,-38.5"/>
<text text-anchor="middle" x="512" y="-45.5" font-family="Helvetica,sans-Serif" font-size="10.00">abrir_arquivo</text>
</a>
</g>
</g>
<!-- Node3&#45;&gt;Node4 -->
<g id="edge3" class="edge"><title>Node3&#45;&gt;Node4</title>
<path fill="none" stroke="midnightblue" d="M449.736,-37.8781C458.617,-39.3454 467.619,-40.8327 475.888,-42.199"/>
<polygon fill="midnightblue" stroke="midnightblue" points="450.241,-34.4143 439.805,-36.2373 449.1,-41.3206 450.241,-34.4143"/>
</g>
<!-- Node5 -->
<g id="node5" class="node"><title>Node5</title>
<g id="a_node5"><a xlink:href="main_8cc.html#ae66f6b31b5ad750f1fe042a706a4e3d4" target="_top" xlink:title="main">
<polygon fill="white" stroke="black" points="584,-19.5 584,-38.5 622,-38.5 622,-19.5 584,-19.5"/>
<text text-anchor="middle" x="603" y="-26.5" font-family="Helvetica,sans-Serif" font-size="10.00">main</text>
</a>
</g>
</g>
<!-- Node3&#45;&gt;Node5 -->
<g id="edge5" class="edge"><title>Node3&#45;&gt;Node5</title>
<path fill="none" stroke="midnightblue" d="M449.725,-29C494.01,-29 554.194,-29 583.894,-29"/>
<polygon fill="midnightblue" stroke="midnightblue" points="449.687,-25.5001 439.687,-29 449.687,-32.5001 449.687,-25.5001"/>
</g>
<!-- Node4&#45;&gt;Node5 -->
<g id="edge4" class="edge"><title>Node4&#45;&gt;Node5</title>
<path fill="none" stroke="midnightblue" d="M558.067,-38.3789C567.24,-36.4207 576.38,-34.4694 583.929,-32.8578"/>
<polygon fill="midnightblue" stroke="midnightblue" points="557.224,-34.98 548.175,-40.4907 558.686,-41.8257 557.224,-34.98"/>
</g>
<!-- Node7 -->
<g id="node7" class="node"><title>Node7</title>
<g id="a_node7"><a xlink:href="main_8cc.html#a7769e05575359d89d7467b1e46940ecf" target="_top" xlink:title="editar_tarefa">
<polygon fill="white" stroke="black" points="241.5,-0.5 241.5,-19.5 312.5,-19.5 312.5,-0.5 241.5,-0.5"/>
<text text-anchor="middle" x="277" y="-7.5" font-family="Helvetica,sans-Serif" font-size="10.00">editar_tarefa</text>
</a>
</g>
</g>
<!-- Node6&#45;&gt;Node7 -->
<g id="edge7" class="edge"><title>Node6&#45;&gt;Node7</title>
<path fill="none" stroke="midnightblue" d="M213.783,-10C222.967,-10 232.449,-10 241.158,-10"/>
<polygon fill="midnightblue" stroke="midnightblue" points="213.599,-6.5001 203.599,-10 213.599,-13.5001 213.599,-6.5001"/>
</g>
<!-- Node7&#45;&gt;Node3 -->
<g id="edge8" class="edge"><title>Node7&#45;&gt;Node3</title>
<path fill="none" stroke="midnightblue" d="M322.73,-17.3264C331.735,-18.8015 341.192,-20.3504 350.166,-21.8203"/>
<polygon fill="midnightblue" stroke="midnightblue" points="323.238,-13.8631 312.804,-15.7006 322.107,-20.7711 323.238,-13.8631"/>
</g>
</g>
</svg>
