<?xml version="1.0" encoding="UTF-8" standalone="no"?>
<!DOCTYPE svg PUBLIC "-//W3C//DTD SVG 1.1//EN"
 "http://www.w3.org/Graphics/SVG/1.1/DTD/svg11.dtd">
<!-- Generated by graphviz version 2.36.0 (20140111.2315)
 -->
<!-- Title: remover_pre_requisitos Pages: 1 -->
<svg width="388pt" height="160pt"
 viewBox="0.00 0.00 388.00 160.31" xmlns="http://www.w3.org/2000/svg" xmlns:xlink="http://www.w3.org/1999/xlink">
<g id="graph0" class="graph" transform="scale(1 1) rotate(0) translate(4 156.307)">
<title>remover_pre_requisitos</title>
<polygon fill="white" stroke="none" points="-4,4 -4,-156.307 384,-156.307 384,4 -4,4"/>
<!-- Node1 -->
<g id="node1" class="node"><title>Node1</title>
<polygon fill="#bfbfbf" stroke="black" points="0,-76.5 0,-95.5 118,-95.5 118,-76.5 0,-76.5"/>
<text text-anchor="middle" x="59" y="-83.5" font-family="Helvetica,sans-Serif" font-size="10.00">remover_pre_requisitos</text>
</g>
<!-- Node2 -->
<g id="node2" class="node"><title>Node2</title>
<g id="a_node2"><a xlink:href="main_8cc.html#ad2a06ffdf1033b3b1c11f337fa12553b" target="_top" xlink:title="imprimirRotulo">
<polygon fill="white" stroke="black" points="300,-95.5 300,-114.5 380,-114.5 380,-95.5 300,-95.5"/>
<text text-anchor="middle" x="340" y="-102.5" font-family="Helvetica,sans-Serif" font-size="10.00">imprimirRotulo</text>
</a>
</g>
</g>
<!-- Node1&#45;&gt;Node2 -->
<g id="edge1" class="edge"><title>Node1&#45;&gt;Node2</title>
<path fill="none" stroke="midnightblue" d="M71.187,-95.6431C87.8833,-109.329 120.914,-133.752 154,-143 201.084,-156.16 216.449,-154.359 264,-143 282.75,-138.521 302.116,-128.55 316.471,-119.945"/>
<polygon fill="midnightblue" stroke="midnightblue" points="318.483,-122.815 325.124,-114.559 314.785,-116.872 318.483,-122.815"/>
</g>
<!-- Node3 -->
<g id="node3" class="node"><title>Node3</title>
<g id="a_node3"><a xlink:href="grafo_8cc.html#a1e996ff4a17fa0e42fc8ff6bdc605dc1" target="_top" xlink:title="pesquisa_tarefa">
<polygon fill="white" stroke="black" points="166,-114.5 166,-133.5 252,-133.5 252,-114.5 166,-114.5"/>
<text text-anchor="middle" x="209" y="-121.5" font-family="Helvetica,sans-Serif" font-size="10.00">pesquisa_tarefa</text>
</a>
</g>
</g>
<!-- Node1&#45;&gt;Node3 -->
<g id="edge2" class="edge"><title>Node1&#45;&gt;Node3</title>
<path fill="none" stroke="midnightblue" d="M97.3466,-95.589C116.701,-100.558 140.53,-106.677 161.113,-111.961"/>
<polygon fill="midnightblue" stroke="midnightblue" points="160.366,-115.383 170.922,-114.48 162.107,-108.603 160.366,-115.383"/>
</g>
<!-- Node4 -->
<g id="node4" class="node"><title>Node4</title>
<g id="a_node4"><a xlink:href="main_8cc.html#abe7109d6b800c7cd9f5c2097bc8df894" target="_top" xlink:title="destruir_menu">
<polygon fill="white" stroke="black" points="301,-48.5 301,-67.5 379,-67.5 379,-48.5 301,-48.5"/>
<text text-anchor="middle" x="340" y="-55.5" font-family="Helvetica,sans-Serif" font-size="10.00">destruir_menu</text>
</a>
</g>
</g>
<!-- Node1&#45;&gt;Node4 -->
<g id="edge3" class="edge"><title>Node1&#45;&gt;Node4</title>
<path fill="none" stroke="midnightblue" d="M100.497,-76.4228C117,-72.8847 136.322,-69.2038 154,-67 200.229,-61.2368 253.385,-59.1142 290.821,-58.3575"/>
<polygon fill="midnightblue" stroke="midnightblue" points="291.008,-61.8548 300.944,-58.1783 290.884,-54.8559 291.008,-61.8548"/>
</g>
<!-- Node5 -->
<g id="node5" class="node"><title>Node5</title>
<g id="a_node5"><a xlink:href="main_8cc.html#a8e3083a90f6cf70bdfd6abd70494c74e" target="_top" xlink:title="erro_id_inexistente">
<polygon fill="white" stroke="black" points="160,-76.5 160,-95.5 258,-95.5 258,-76.5 160,-76.5"/>
<text text-anchor="middle" x="209" y="-83.5" font-family="Helvetica,sans-Serif" font-size="10.00">erro_id_inexistente</text>
</a>
</g>
</g>
<!-- Node1&#45;&gt;Node5 -->
<g id="edge4" class="edge"><title>Node1&#45;&gt;Node5</title>
<path fill="none" stroke="midnightblue" d="M118.069,-86C128.394,-86 139.154,-86 149.491,-86"/>
<polygon fill="midnightblue" stroke="midnightblue" points="149.656,-89.5001 159.656,-86 149.656,-82.5001 149.656,-89.5001"/>
</g>
<!-- Node6 -->
<g id="node6" class="node"><title>Node6</title>
<g id="a_node6"><a xlink:href="grafo_8cc.html#ad1f78512cd30c15264c68265f61296a6" target="_top" xlink:title="remove_prerequisitos">
<polygon fill="white" stroke="black" points="154,-0.5 154,-19.5 264,-19.5 264,-0.5 154,-0.5"/>
<text text-anchor="middle" x="209" y="-7.5" font-family="Helvetica,sans-Serif" font-size="10.00">remove_prerequisitos</text>
</a>
</g>
</g>
<!-- Node1&#45;&gt;Node6 -->
<g id="edge7" class="edge"><title>Node1&#45;&gt;Node6</title>
<path fill="none" stroke="midnightblue" d="M76.4081,-76.3523C94.9873,-65.5627 126.283,-47.793 154,-34 160.946,-30.5434 168.501,-27.0346 175.698,-23.8061"/>
<polygon fill="midnightblue" stroke="midnightblue" points="177.468,-26.8508 185.201,-19.6086 174.639,-20.4477 177.468,-26.8508"/>
</g>
<!-- Node5&#45;&gt;Node2 -->
<g id="edge5" class="edge"><title>Node5&#45;&gt;Node2</title>
<path fill="none" stroke="midnightblue" d="M258.035,-93.0749C268.35,-94.5942 279.268,-96.2022 289.632,-97.7288"/>
<polygon fill="midnightblue" stroke="midnightblue" points="289.367,-101.227 299.77,-99.222 290.387,-94.3021 289.367,-101.227"/>
</g>
<!-- Node5&#45;&gt;Node4 -->
<g id="edge6" class="edge"><title>Node5&#45;&gt;Node4</title>
<path fill="none" stroke="midnightblue" d="M254.034,-76.4423C265.894,-73.8679 278.785,-71.0699 290.857,-68.4496"/>
<polygon fill="midnightblue" stroke="midnightblue" points="291.735,-71.8407 300.765,-66.2991 290.25,-65 291.735,-71.8407"/>
</g>
</g>
</svg>
