<?xml version="1.0" encoding="UTF-8" standalone="no"?>
<!DOCTYPE svg PUBLIC "-//W3C//DTD SVG 1.1//EN"
 "http://www.w3.org/Graphics/SVG/1.1/DTD/svg11.dtd">
<!-- Generated by graphviz version 2.36.0 (20140111.2315)
 -->
<!-- Title: inserir_tarefa Pages: 1 -->
<svg width="390pt" height="47pt"
 viewBox="0.00 0.00 390.00 47.00" xmlns="http://www.w3.org/2000/svg" xmlns:xlink="http://www.w3.org/1999/xlink">
<g id="graph0" class="graph" transform="scale(1 1) rotate(0) translate(4 43)">
<title>inserir_tarefa</title>
<polygon fill="white" stroke="none" points="-4,4 -4,-43 386,-43 386,4 -4,4"/>
<!-- Node1 -->
<g id="node1" class="node"><title>Node1</title>
<polygon fill="#bfbfbf" stroke="black" points="0.5,-0.5 0.5,-19.5 73.5,-19.5 73.5,-0.5 0.5,-0.5"/>
<text text-anchor="middle" x="37" y="-7.5" font-family="Helvetica,sans-Serif" font-size="10.00">inserir_tarefa</text>
</g>
<!-- Node2 -->
<g id="node2" class="node"><title>Node2</title>
<g id="a_node2"><a xlink:href="main_8cc.html#af852bc15cf3d5217386a9bb0bf3b9abd" target="_top" xlink:title="operacoes_grafo">
<polygon fill="white" stroke="black" points="110.5,-0.5 110.5,-19.5 199.5,-19.5 199.5,-0.5 110.5,-0.5"/>
<text text-anchor="middle" x="155" y="-7.5" font-family="Helvetica,sans-Serif" font-size="10.00">operacoes_grafo</text>
</a>
</g>
</g>
<!-- Node1&#45;&gt;Node2 -->
<g id="edge1" class="edge"><title>Node1&#45;&gt;Node2</title>
<path fill="none" stroke="midnightblue" d="M83.8039,-10C92.5634,-10 101.712,-10 110.4,-10"/>
<polygon fill="midnightblue" stroke="midnightblue" points="83.7504,-6.5001 73.7503,-10 83.7503,-13.5001 83.7504,-6.5001"/>
</g>
<!-- Node3 -->
<g id="node3" class="node"><title>Node3</title>
<g id="a_node3"><a xlink:href="main_8cc.html#af1ccf694bcf905341f10b534e5a272fa" target="_top" xlink:title="abrir_arquivo">
<polygon fill="white" stroke="black" points="236,-19.5 236,-38.5 308,-38.5 308,-19.5 236,-19.5"/>
<text text-anchor="middle" x="272" y="-26.5" font-family="Helvetica,sans-Serif" font-size="10.00">abrir_arquivo</text>
</a>
</g>
</g>
<!-- Node2&#45;&gt;Node3 -->
<g id="edge2" class="edge"><title>Node2&#45;&gt;Node3</title>
<path fill="none" stroke="midnightblue" d="M209.736,-18.8781C218.617,-20.3454 227.619,-21.8327 235.888,-23.199"/>
<polygon fill="midnightblue" stroke="midnightblue" points="210.241,-15.4143 199.805,-17.2373 209.1,-22.3206 210.241,-15.4143"/>
</g>
<!-- Node4 -->
<g id="node4" class="node"><title>Node4</title>
<g id="a_node4"><a xlink:href="main_8cc.html#ae66f6b31b5ad750f1fe042a706a4e3d4" target="_top" xlink:title="main">
<polygon fill="white" stroke="black" points="344,-0.5 344,-19.5 382,-19.5 382,-0.5 344,-0.5"/>
<text text-anchor="middle" x="363" y="-7.5" font-family="Helvetica,sans-Serif" font-size="10.00">main</text>
</a>
</g>
</g>
<!-- Node2&#45;&gt;Node4 -->
<g id="edge4" class="edge"><title>Node2&#45;&gt;Node4</title>
<path fill="none" stroke="midnightblue" d="M209.725,-10C254.01,-10 314.194,-10 343.894,-10"/>
<polygon fill="midnightblue" stroke="midnightblue" points="209.687,-6.5001 199.687,-10 209.687,-13.5001 209.687,-6.5001"/>
</g>
<!-- Node3&#45;&gt;Node4 -->
<g id="edge3" class="edge"><title>Node3&#45;&gt;Node4</title>
<path fill="none" stroke="midnightblue" d="M318.067,-19.3789C327.24,-17.4207 336.38,-15.4694 343.929,-13.8578"/>
<polygon fill="midnightblue" stroke="midnightblue" points="317.224,-15.98 308.175,-21.4907 318.686,-22.8257 317.224,-15.98"/>
</g>
</g>
</svg>
