<?xml version="1.0" encoding="UTF-8" standalone="no"?>
<!DOCTYPE svg PUBLIC "-//W3C//DTD SVG 1.1//EN"
 "http://www.w3.org/Graphics/SVG/1.1/DTD/svg11.dtd">
<!-- Generated by graphviz version 2.36.0 (20140111.2315)
 -->
<!-- Title: ver_tarefas_concluidas Pages: 1 -->
<svg width="574pt" height="47pt"
 viewBox="0.00 0.00 574.00 47.00" xmlns="http://www.w3.org/2000/svg" xmlns:xlink="http://www.w3.org/1999/xlink">
<g id="graph0" class="graph" transform="scale(1 1) rotate(0) translate(4 43)">
<title>ver_tarefas_concluidas</title>
<polygon fill="white" stroke="none" points="-4,4 -4,-43 570,-43 570,4 -4,4"/>
<!-- Node1 -->
<g id="node1" class="node"><title>Node1</title>
<polygon fill="#bfbfbf" stroke="black" points="0.5,-0.5 0.5,-19.5 117.5,-19.5 117.5,-0.5 0.5,-0.5"/>
<text text-anchor="middle" x="59" y="-7.5" font-family="Helvetica,sans-Serif" font-size="10.00">ver_tarefas_concluidas</text>
</g>
<!-- Node2 -->
<g id="node2" class="node"><title>Node2</title>
<g id="a_node2"><a xlink:href="main_8cc.html#a5d247f6e8ee275a8cd007f922ae2acb3" target="_top" xlink:title="visualizador_tarefas">
<polygon fill="white" stroke="black" points="154,-0.5 154,-19.5 258,-19.5 258,-0.5 154,-0.5"/>
<text text-anchor="middle" x="206" y="-7.5" font-family="Helvetica,sans-Serif" font-size="10.00">visualizador_tarefas</text>
</a>
</g>
</g>
<!-- Node1&#45;&gt;Node2 -->
<g id="edge1" class="edge"><title>Node1&#45;&gt;Node2</title>
<path fill="none" stroke="midnightblue" d="M127.821,-10C136.481,-10 145.231,-10 153.574,-10"/>
<polygon fill="midnightblue" stroke="midnightblue" points="127.725,-6.5001 117.724,-10 127.724,-13.5001 127.725,-6.5001"/>
</g>
<!-- Node3 -->
<g id="node3" class="node"><title>Node3</title>
<g id="a_node3"><a xlink:href="main_8cc.html#af852bc15cf3d5217386a9bb0bf3b9abd" target="_top" xlink:title="operacoes_grafo">
<polygon fill="white" stroke="black" points="294.5,-0.5 294.5,-19.5 383.5,-19.5 383.5,-0.5 294.5,-0.5"/>
<text text-anchor="middle" x="339" y="-7.5" font-family="Helvetica,sans-Serif" font-size="10.00">operacoes_grafo</text>
</a>
</g>
</g>
<!-- Node2&#45;&gt;Node3 -->
<g id="edge2" class="edge"><title>Node2&#45;&gt;Node3</title>
<path fill="none" stroke="midnightblue" d="M268.208,-10C276.956,-10 285.806,-10 294.131,-10"/>
<polygon fill="midnightblue" stroke="midnightblue" points="268.023,-6.5001 258.023,-10 268.023,-13.5001 268.023,-6.5001"/>
</g>
<!-- Node4 -->
<g id="node4" class="node"><title>Node4</title>
<g id="a_node4"><a xlink:href="main_8cc.html#af1ccf694bcf905341f10b534e5a272fa" target="_top" xlink:title="abrir_arquivo">
<polygon fill="white" stroke="black" points="420,-19.5 420,-38.5 492,-38.5 492,-19.5 420,-19.5"/>
<text text-anchor="middle" x="456" y="-26.5" font-family="Helvetica,sans-Serif" font-size="10.00">abrir_arquivo</text>
</a>
</g>
</g>
<!-- Node3&#45;&gt;Node4 -->
<g id="edge3" class="edge"><title>Node3&#45;&gt;Node4</title>
<path fill="none" stroke="midnightblue" d="M393.736,-18.8781C402.617,-20.3454 411.619,-21.8327 419.888,-23.199"/>
<polygon fill="midnightblue" stroke="midnightblue" points="394.241,-15.4143 383.805,-17.2373 393.1,-22.3206 394.241,-15.4143"/>
</g>
<!-- Node5 -->
<g id="node5" class="node"><title>Node5</title>
<g id="a_node5"><a xlink:href="main_8cc.html#ae66f6b31b5ad750f1fe042a706a4e3d4" target="_top" xlink:title="main">
<polygon fill="white" stroke="black" points="528,-0.5 528,-19.5 566,-19.5 566,-0.5 528,-0.5"/>
<text text-anchor="middle" x="547" y="-7.5" font-family="Helvetica,sans-Serif" font-size="10.00">main</text>
</a>
</g>
</g>
<!-- Node3&#45;&gt;Node5 -->
<g id="edge5" class="edge"><title>Node3&#45;&gt;Node5</title>
<path fill="none" stroke="midnightblue" d="M393.725,-10C438.01,-10 498.194,-10 527.894,-10"/>
<polygon fill="midnightblue" stroke="midnightblue" points="393.687,-6.5001 383.687,-10 393.687,-13.5001 393.687,-6.5001"/>
</g>
<!-- Node4&#45;&gt;Node5 -->
<g id="edge4" class="edge"><title>Node4&#45;&gt;Node5</title>
<path fill="none" stroke="midnightblue" d="M502.067,-19.3789C511.24,-17.4207 520.38,-15.4694 527.929,-13.8578"/>
<polygon fill="midnightblue" stroke="midnightblue" points="501.224,-15.98 492.175,-21.4907 502.686,-22.8257 501.224,-15.98"/>
</g>
</g>
</svg>
