<?xml version="1.0" encoding="UTF-8" standalone="no"?>
<!DOCTYPE svg PUBLIC "-//W3C//DTD SVG 1.1//EN"
 "http://www.w3.org/Graphics/SVG/1.1/DTD/svg11.dtd">
<!-- Generated by graphviz version 2.36.0 (20140111.2315)
 -->
<!-- Title: tela_inserir_pre_requisito_edicao Pages: 1 -->
<svg width="662pt" height="53pt"
 viewBox="0.00 0.00 662.00 53.00" xmlns="http://www.w3.org/2000/svg" xmlns:xlink="http://www.w3.org/1999/xlink">
<g id="graph0" class="graph" transform="scale(1 1) rotate(0) translate(4 49)">
<title>tela_inserir_pre_requisito_edicao</title>
<polygon fill="white" stroke="none" points="-4,4 -4,-49 658,-49 658,4 -4,4"/>
<!-- Node1 -->
<g id="node1" class="node"><title>Node1</title>
<polygon fill="#bfbfbf" stroke="black" points="0.5,-1 0.5,-31 125.5,-31 125.5,-1 0.5,-1"/>
<text text-anchor="start" x="8.5" y="-19" font-family="Helvetica,sans-Serif" font-size="10.00">tela_inserir_pre_requisito</text>
<text text-anchor="middle" x="63" y="-8" font-family="Helvetica,sans-Serif" font-size="10.00">_edicao</text>
</g>
<!-- Node2 -->
<g id="node2" class="node"><title>Node2</title>
<g id="a_node2"><a xlink:href="main_8cc.html#a8d8002aa0f76981dad9ce30329767981" target="_top" xlink:title="edicao_tarefa">
<polygon fill="white" stroke="black" points="162.5,-6.5 162.5,-25.5 237.5,-25.5 237.5,-6.5 162.5,-6.5"/>
<text text-anchor="middle" x="200" y="-13.5" font-family="Helvetica,sans-Serif" font-size="10.00">edicao_tarefa</text>
</a>
</g>
</g>
<!-- Node1&#45;&gt;Node2 -->
<g id="edge1" class="edge"><title>Node1&#45;&gt;Node2</title>
<path fill="none" stroke="midnightblue" d="M135.574,-16C144.783,-16 153.891,-16 162.208,-16"/>
<polygon fill="midnightblue" stroke="midnightblue" points="135.574,-12.5001 125.574,-16 135.574,-19.5001 135.574,-12.5001"/>
</g>
<!-- Node3 -->
<g id="node3" class="node"><title>Node3</title>
<g id="a_node3"><a xlink:href="main_8cc.html#a7769e05575359d89d7467b1e46940ecf" target="_top" xlink:title="editar_tarefa">
<polygon fill="white" stroke="black" points="274.5,-6.5 274.5,-25.5 345.5,-25.5 345.5,-6.5 274.5,-6.5"/>
<text text-anchor="middle" x="310" y="-13.5" font-family="Helvetica,sans-Serif" font-size="10.00">editar_tarefa</text>
</a>
</g>
</g>
<!-- Node2&#45;&gt;Node3 -->
<g id="edge2" class="edge"><title>Node2&#45;&gt;Node3</title>
<path fill="none" stroke="midnightblue" d="M247.82,-16C256.711,-16 265.866,-16 274.299,-16"/>
<polygon fill="midnightblue" stroke="midnightblue" points="247.564,-12.5001 237.564,-16 247.564,-19.5001 247.564,-12.5001"/>
</g>
<!-- Node4 -->
<g id="node4" class="node"><title>Node4</title>
<g id="a_node4"><a xlink:href="main_8cc.html#af852bc15cf3d5217386a9bb0bf3b9abd" target="_top" xlink:title="operacoes_grafo">
<polygon fill="white" stroke="black" points="382.5,-6.5 382.5,-25.5 471.5,-25.5 471.5,-6.5 382.5,-6.5"/>
<text text-anchor="middle" x="427" y="-13.5" font-family="Helvetica,sans-Serif" font-size="10.00">operacoes_grafo</text>
</a>
</g>
</g>
<!-- Node3&#45;&gt;Node4 -->
<g id="edge3" class="edge"><title>Node3&#45;&gt;Node4</title>
<path fill="none" stroke="midnightblue" d="M355.514,-16C364.251,-16 373.41,-16 382.126,-16"/>
<polygon fill="midnightblue" stroke="midnightblue" points="355.504,-12.5001 345.504,-16 355.504,-19.5001 355.504,-12.5001"/>
</g>
<!-- Node5 -->
<g id="node5" class="node"><title>Node5</title>
<g id="a_node5"><a xlink:href="main_8cc.html#af1ccf694bcf905341f10b534e5a272fa" target="_top" xlink:title="abrir_arquivo">
<polygon fill="white" stroke="black" points="508,-25.5 508,-44.5 580,-44.5 580,-25.5 508,-25.5"/>
<text text-anchor="middle" x="544" y="-32.5" font-family="Helvetica,sans-Serif" font-size="10.00">abrir_arquivo</text>
</a>
</g>
</g>
<!-- Node4&#45;&gt;Node5 -->
<g id="edge4" class="edge"><title>Node4&#45;&gt;Node5</title>
<path fill="none" stroke="midnightblue" d="M481.736,-24.8781C490.617,-26.3454 499.619,-27.8327 507.888,-29.199"/>
<polygon fill="midnightblue" stroke="midnightblue" points="482.241,-21.4143 471.805,-23.2373 481.1,-28.3206 482.241,-21.4143"/>
</g>
<!-- Node6 -->
<g id="node6" class="node"><title>Node6</title>
<g id="a_node6"><a xlink:href="main_8cc.html#ae66f6b31b5ad750f1fe042a706a4e3d4" target="_top" xlink:title="main">
<polygon fill="white" stroke="black" points="616,-6.5 616,-25.5 654,-25.5 654,-6.5 616,-6.5"/>
<text text-anchor="middle" x="635" y="-13.5" font-family="Helvetica,sans-Serif" font-size="10.00">main</text>
</a>
</g>
</g>
<!-- Node4&#45;&gt;Node6 -->
<g id="edge6" class="edge"><title>Node4&#45;&gt;Node6</title>
<path fill="none" stroke="midnightblue" d="M481.725,-16C526.01,-16 586.194,-16 615.894,-16"/>
<polygon fill="midnightblue" stroke="midnightblue" points="481.687,-12.5001 471.687,-16 481.687,-19.5001 481.687,-12.5001"/>
</g>
<!-- Node5&#45;&gt;Node6 -->
<g id="edge5" class="edge"><title>Node5&#45;&gt;Node6</title>
<path fill="none" stroke="midnightblue" d="M590.067,-25.3789C599.24,-23.4207 608.38,-21.4694 615.929,-19.8578"/>
<polygon fill="midnightblue" stroke="midnightblue" points="589.224,-21.98 580.175,-27.4907 590.686,-28.8257 589.224,-21.98"/>
</g>
</g>
</svg>
