<?xml version="1.0" encoding="UTF-8" standalone="no"?>
<!DOCTYPE svg PUBLIC "-//W3C//DTD SVG 1.1//EN"
 "http://www.w3.org/Graphics/SVG/1.1/DTD/svg11.dtd">
<!-- Generated by graphviz version 2.36.0 (20140111.2315)
 -->
<!-- Title: inserir_novo_pre_requisito Pages: 1 -->
<svg width="446pt" height="47pt"
 viewBox="0.00 0.00 446.00 47.00" xmlns="http://www.w3.org/2000/svg" xmlns:xlink="http://www.w3.org/1999/xlink">
<g id="graph0" class="graph" transform="scale(1 1) rotate(0) translate(4 43)">
<title>inserir_novo_pre_requisito</title>
<polygon fill="white" stroke="none" points="-4,4 -4,-43 442,-43 442,4 -4,4"/>
<!-- Node1 -->
<g id="node1" class="node"><title>Node1</title>
<polygon fill="#bfbfbf" stroke="black" points="0,-0.5 0,-19.5 130,-19.5 130,-0.5 0,-0.5"/>
<text text-anchor="middle" x="65" y="-7.5" font-family="Helvetica,sans-Serif" font-size="10.00">inserir_novo_pre_requisito</text>
</g>
<!-- Node2 -->
<g id="node2" class="node"><title>Node2</title>
<g id="a_node2"><a xlink:href="main_8cc.html#af852bc15cf3d5217386a9bb0bf3b9abd" target="_top" xlink:title="operacoes_grafo">
<polygon fill="white" stroke="black" points="166.5,-0.5 166.5,-19.5 255.5,-19.5 255.5,-0.5 166.5,-0.5"/>
<text text-anchor="middle" x="211" y="-7.5" font-family="Helvetica,sans-Serif" font-size="10.00">operacoes_grafo</text>
</a>
</g>
</g>
<!-- Node1&#45;&gt;Node2 -->
<g id="edge1" class="edge"><title>Node1&#45;&gt;Node2</title>
<path fill="none" stroke="midnightblue" d="M140.692,-10C149.45,-10 158.154,-10 166.285,-10"/>
<polygon fill="midnightblue" stroke="midnightblue" points="140.419,-6.5001 130.419,-10 140.419,-13.5001 140.419,-6.5001"/>
</g>
<!-- Node3 -->
<g id="node3" class="node"><title>Node3</title>
<g id="a_node3"><a xlink:href="main_8cc.html#af1ccf694bcf905341f10b534e5a272fa" target="_top" xlink:title="abrir_arquivo">
<polygon fill="white" stroke="black" points="292,-19.5 292,-38.5 364,-38.5 364,-19.5 292,-19.5"/>
<text text-anchor="middle" x="328" y="-26.5" font-family="Helvetica,sans-Serif" font-size="10.00">abrir_arquivo</text>
</a>
</g>
</g>
<!-- Node2&#45;&gt;Node3 -->
<g id="edge2" class="edge"><title>Node2&#45;&gt;Node3</title>
<path fill="none" stroke="midnightblue" d="M265.736,-18.8781C274.617,-20.3454 283.619,-21.8327 291.888,-23.199"/>
<polygon fill="midnightblue" stroke="midnightblue" points="266.241,-15.4143 255.805,-17.2373 265.1,-22.3206 266.241,-15.4143"/>
</g>
<!-- Node4 -->
<g id="node4" class="node"><title>Node4</title>
<g id="a_node4"><a xlink:href="main_8cc.html#ae66f6b31b5ad750f1fe042a706a4e3d4" target="_top" xlink:title="main">
<polygon fill="white" stroke="black" points="400,-0.5 400,-19.5 438,-19.5 438,-0.5 400,-0.5"/>
<text text-anchor="middle" x="419" y="-7.5" font-family="Helvetica,sans-Serif" font-size="10.00">main</text>
</a>
</g>
</g>
<!-- Node2&#45;&gt;Node4 -->
<g id="edge4" class="edge"><title>Node2&#45;&gt;Node4</title>
<path fill="none" stroke="midnightblue" d="M265.725,-10C310.01,-10 370.194,-10 399.894,-10"/>
<polygon fill="midnightblue" stroke="midnightblue" points="265.687,-6.5001 255.687,-10 265.687,-13.5001 265.687,-6.5001"/>
</g>
<!-- Node3&#45;&gt;Node4 -->
<g id="edge3" class="edge"><title>Node3&#45;&gt;Node4</title>
<path fill="none" stroke="midnightblue" d="M374.067,-19.3789C383.24,-17.4207 392.38,-15.4694 399.929,-13.8578"/>
<polygon fill="midnightblue" stroke="midnightblue" points="373.224,-15.98 364.175,-21.4907 374.686,-22.8257 373.224,-15.98"/>
</g>
</g>
</svg>
