<?xml version="1.0" encoding="UTF-8" standalone="no"?>
<!DOCTYPE svg PUBLIC "-//W3C//DTD SVG 1.1//EN"
 "http://www.w3.org/Graphics/SVG/1.1/DTD/svg11.dtd">
<!-- Generated by graphviz version 2.36.0 (20140111.2315)
 -->
<!-- Title: imprimirRotulo Pages: 1 -->
<!--zoomable 770 -->
<svg id="main" version="1.1" xmlns="http://www.w3.org/2000/svg" xmlns:xlink="http://www.w3.org/1999/xlink" xml:space="preserve" onload="init(evt)">
<style type="text/css"><![CDATA[
.edge:hover path { stroke: red; }
.edge:hover polygon { stroke: red; fill: red; }
]]></style>
<script type="text/javascript"><![CDATA[
var edges = document.getElementsByTagName('g');
if (edges && edges.length) {
  for (var i=0;i<edges.length;i++) {
    if (edges[i].id.substr(0,4)=='edge') {
      edges[i].setAttribute('class','edge');
    }
  }
}
]]></script>
        <defs>
                <circle id="rim" cx="0" cy="0" r="7"/>
                <circle id="rim2" cx="0" cy="0" r="3.5"/>
                <g id="zoomPlus">
                        <use xlink:href="#rim" fill="#404040">
                                <set attributeName="fill" to="#808080" begin="zoomplus.mouseover" end="zoomplus.mouseout"/>
                        </use>
                        <path d="M-4,0h8M0,-4v8" fill="none" stroke="white" stroke-width="1.5" pointer-events="none"/>
                </g>
                <g id="zoomMin">
                        <use xlink:href="#rim" fill="#404040">
                                <set attributeName="fill" to="#808080" begin="zoomminus.mouseover" end="zoomminus.mouseout"/>
                        </use>
                        <path d="M-4,0h8" fill="none" stroke="white" stroke-width="1.5" pointer-events="none"/>
                </g>
                <g id="dirArrow">
                        <path fill="none" stroke="white" stroke-width="1.5" d="M0,-3.0v7 M-2.5,-0.5L0,-3.0L2.5,-0.5"/>
                </g>
               <g id="resetDef">
                       <use xlink:href="#rim2" fill="#404040">
                               <set attributeName="fill" to="#808080" begin="reset.mouseover" end="reset.mouseout"/>
                       </use>
               </g>
        </defs>

<script type="text/javascript">
var viewWidth = 886;
var viewHeight = 770;
var sectionId = 'dynsection-22';
</script>
<script xlink:href="svgpan.js"/>
<svg id="graph" class="graph">
<g id="viewport">
<title>imprimirRotulo</title>
<polygon fill="white" stroke="none" points="-4,4 -4,-765.902 882,-765.902 882,4 -4,4"/>
<!-- Node1 -->
<g id="node1" class="node"><title>Node1</title>
<polygon fill="#bfbfbf" stroke="black" points="0,-367.533 0,-386.533 80,-386.533 80,-367.533 0,-367.533"/>
<text text-anchor="middle" x="40" y="-374.533" font-family="Helvetica,sans-Serif" font-size="10.00">imprimirRotulo</text>
</g>
<!-- Node2 -->
<g id="node2" class="node"><title>Node2</title>
<g id="a_node2"><a xlink:href="main_8cc.html#af680447ac3023912e86df70f144373d8" target="_top" xlink:title="importar_de_arquivo">
<polygon fill="white" stroke="black" points="592,-656.533 592,-675.533 696,-675.533 696,-656.533 592,-656.533"/>
<text text-anchor="middle" x="644" y="-663.533" font-family="Helvetica,sans-Serif" font-size="10.00">importar_de_arquivo</text>
</a>
</g>
</g>
<!-- Node1&#45;&gt;Node2 -->
<g id="edge1" class="edge"><title>Node1&#45;&gt;Node2</title>
<path fill="none" stroke="midnightblue" d="M42.4613,-396.796C47.6794,-461.381 67.7207,-664.34 116,-704.033 272.065,-832.34 549.676,-711.741 624.169,-675.556"/>
<polygon fill="midnightblue" stroke="midnightblue" points="45.943,-396.423 41.6788,-386.724 38.964,-396.965 45.943,-396.423"/>
</g>
<!-- Node4 -->
<g id="node4" class="node"><title>Node4</title>
<g id="a_node4"><a xlink:href="main_8cc.html#aef0e5ebaf10f94ec3baf710468b2bca8" target="_top" xlink:title="erro_insere_pre_requisito">
<polygon fill="white" stroke="black" points="116.5,-424.533 116.5,-443.533 241.5,-443.533 241.5,-424.533 116.5,-424.533"/>
<text text-anchor="middle" x="179" y="-431.533" font-family="Helvetica,sans-Serif" font-size="10.00">erro_insere_pre_requisito</text>
</a>
</g>
</g>
<!-- Node1&#45;&gt;Node4 -->
<g id="edge3" class="edge"><title>Node1&#45;&gt;Node4</title>
<path fill="none" stroke="midnightblue" d="M71.2797,-390.728C84.8896,-396.787 101.189,-403.911 116,-410.033 127.947,-414.97 141.308,-420.181 152.558,-424.481"/>
<polygon fill="midnightblue" stroke="midnightblue" points="72.4622,-387.422 61.9047,-386.533 69.6035,-393.812 72.4622,-387.422"/>
</g>
<!-- Node5 -->
<g id="node5" class="node"><title>Node5</title>
<g id="a_node5"><a xlink:href="main_8cc.html#a16c89e840263b1af21caf3211b6640b2" target="_top" xlink:title="inserir_novo_pre_requisito">
<polygon fill="white" stroke="black" points="280,-424.533 280,-443.533 410,-443.533 410,-424.533 280,-424.533"/>
<text text-anchor="middle" x="345" y="-431.533" font-family="Helvetica,sans-Serif" font-size="10.00">inserir_novo_pre_requisito</text>
</a>
</g>
</g>
<!-- Node1&#45;&gt;Node5 -->
<g id="edge25" class="edge"><title>Node1&#45;&gt;Node5</title>
<path fill="none" stroke="midnightblue" d="M52.3719,-395.086C65.2292,-413.619 88.055,-441.349 116,-453.033 184.712,-481.761 275.08,-458.214 318.522,-443.556"/>
<polygon fill="midnightblue" stroke="midnightblue" points="55.1829,-392.992 46.7322,-386.602 49.3533,-396.867 55.1829,-392.992"/>
</g>
<!-- Node7 -->
<g id="node7" class="node"><title>Node7</title>
<g id="a_node7"><a xlink:href="main_8cc.html#af1ccf694bcf905341f10b534e5a272fa" target="_top" xlink:title="abrir_arquivo">
<polygon fill="white" stroke="black" points="732,-310.533 732,-329.533 804,-329.533 804,-310.533 732,-310.533"/>
<text text-anchor="middle" x="768" y="-317.533" font-family="Helvetica,sans-Serif" font-size="10.00">abrir_arquivo</text>
</a>
</g>
</g>
<!-- Node1&#45;&gt;Node7 -->
<g id="edge47" class="edge"><title>Node1&#45;&gt;Node7</title>
<path fill="none" stroke="midnightblue" d="M42.882,-357.031C49.2759,-293.394 72.2387,-97.2601 116,-54.0327 189.805,18.8719 240.259,-4.0327 344,-4.0327 344,-4.0327 344,-4.0327 503,-4.0327 666.706,-4.0327 748.781,-256.892 764.273,-310.229"/>
<polygon fill="midnightblue" stroke="midnightblue" points="39.3673,-357.012 41.8797,-367.305 46.3343,-357.692 39.3673,-357.012"/>
</g>
<!-- Node8 -->
<g id="node8" class="node"><title>Node8</title>
<g id="a_node8"><a xlink:href="main_8cc.html#a5c0ceb9634231b92e0dfc9db33b727fa" target="_top" xlink:title="tela_inserir_pre_requisito">
<polygon fill="white" stroke="black" points="282.5,-386.533 282.5,-405.533 407.5,-405.533 407.5,-386.533 282.5,-386.533"/>
<text text-anchor="middle" x="345" y="-393.533" font-family="Helvetica,sans-Serif" font-size="10.00">tela_inserir_pre_requisito</text>
</a>
</g>
</g>
<!-- Node1&#45;&gt;Node8 -->
<g id="edge28" class="edge"><title>Node1&#45;&gt;Node8</title>
<path fill="none" stroke="midnightblue" d="M90.365,-380.128C142.805,-383.416 225.798,-388.621 282.464,-392.174"/>
<polygon fill="midnightblue" stroke="midnightblue" points="90.5008,-376.63 80.3013,-379.497 90.0627,-383.616 90.5008,-376.63"/>
</g>
<!-- Node9 -->
<g id="node9" class="node"><title>Node9</title>
<g id="a_node9"><a xlink:href="main_8cc.html#adb3b0c3b009c68f86673eb7bdeef601c" target="_top" xlink:title="inserir_tarefa">
<polygon fill="white" stroke="black" points="465.5,-329.533 465.5,-348.533 538.5,-348.533 538.5,-329.533 465.5,-329.533"/>
<text text-anchor="middle" x="502" y="-336.533" font-family="Helvetica,sans-Serif" font-size="10.00">inserir_tarefa</text>
</a>
</g>
</g>
<!-- Node1&#45;&gt;Node9 -->
<g id="edge29" class="edge"><title>Node1&#45;&gt;Node9</title>
<path fill="none" stroke="midnightblue" d="M90.2447,-372.965C183.51,-365.26 383.863,-348.709 465.392,-341.974"/>
<polygon fill="midnightblue" stroke="midnightblue" points="89.8972,-369.481 80.2193,-373.793 90.4736,-376.458 89.8972,-369.481"/>
</g>
<!-- Node10 -->
<g id="node10" class="node"><title>Node10</title>
<g id="a_node10"><a xlink:href="main_8cc.html#acec6efd5f1ee225764d814040f142268" target="_top" xlink:title="erro_id_existente">
<polygon fill="white" stroke="black" points="133.5,-272.533 133.5,-291.533 224.5,-291.533 224.5,-272.533 133.5,-272.533"/>
<text text-anchor="middle" x="179" y="-279.533" font-family="Helvetica,sans-Serif" font-size="10.00">erro_id_existente</text>
</a>
</g>
</g>
<!-- Node1&#45;&gt;Node10 -->
<g id="edge12" class="edge"><title>Node1&#45;&gt;Node10</title>
<path fill="none" stroke="midnightblue" d="M55.7725,-359.609C69.8962,-343.851 92.4701,-320.905 116,-306.033 125.269,-300.174 136.196,-295.359 146.275,-291.619"/>
<polygon fill="midnightblue" stroke="midnightblue" points="52.7952,-357.696 48.843,-367.526 58.0627,-362.306 52.7952,-357.696"/>
</g>
<!-- Node11 -->
<g id="node11" class="node"><title>Node11</title>
<g id="a_node11"><a xlink:href="main_8cc.html#a8d8002aa0f76981dad9ce30329767981" target="_top" xlink:title="edicao_tarefa">
<polygon fill="white" stroke="black" points="307.5,-196.533 307.5,-215.533 382.5,-215.533 382.5,-196.533 307.5,-196.533"/>
<text text-anchor="middle" x="345" y="-203.533" font-family="Helvetica,sans-Serif" font-size="10.00">edicao_tarefa</text>
</a>
</g>
</g>
<!-- Node1&#45;&gt;Node11 -->
<g id="edge32" class="edge"><title>Node1&#45;&gt;Node11</title>
<path fill="none" stroke="midnightblue" d="M44.7894,-357.341C52.1854,-324.794 71.8505,-260.363 116,-230.033 173.411,-190.591 258.875,-193.859 307.21,-199.875"/>
<polygon fill="midnightblue" stroke="midnightblue" points="41.3037,-356.909 42.665,-367.416 48.153,-358.353 41.3037,-356.909"/>
</g>
<!-- Node12 -->
<g id="node12" class="node"><title>Node12</title>
<g id="a_node12"><a xlink:href="main_8cc.html#a7769e05575359d89d7467b1e46940ecf" target="_top" xlink:title="editar_tarefa">
<polygon fill="white" stroke="black" points="466.5,-223.533 466.5,-242.533 537.5,-242.533 537.5,-223.533 466.5,-223.533"/>
<text text-anchor="middle" x="502" y="-230.533" font-family="Helvetica,sans-Serif" font-size="10.00">editar_tarefa</text>
</a>
</g>
</g>
<!-- Node1&#45;&gt;Node12 -->
<g id="edge33" class="edge"><title>Node1&#45;&gt;Node12</title>
<path fill="none" stroke="midnightblue" d="M47.6102,-357.497C57.7267,-330.97 79.781,-284.416 116,-263.033 174.742,-228.351 383.375,-229.851 466.477,-231.925"/>
<polygon fill="midnightblue" stroke="midnightblue" points="44.2097,-356.609 44.1027,-367.203 50.793,-358.988 44.2097,-356.609"/>
</g>
<!-- Node13 -->
<g id="node13" class="node"><title>Node13</title>
<g id="a_node13"><a xlink:href="main_8cc.html#acf899fb4107a26f962c26ec5292148cd" target="_top" xlink:title="erro_id_invalido">
<polygon fill="white" stroke="black" points="303,-310.533 303,-329.533 387,-329.533 387,-310.533 303,-310.533"/>
<text text-anchor="middle" x="345" y="-317.533" font-family="Helvetica,sans-Serif" font-size="10.00">erro_id_invalido</text>
</a>
</g>
</g>
<!-- Node1&#45;&gt;Node13 -->
<g id="edge17" class="edge"><title>Node1&#45;&gt;Node13</title>
<path fill="none" stroke="midnightblue" d="M67.6727,-362.879C81.681,-356.075 99.3557,-348.455 116,-344.033 179.856,-327.067 256.766,-322.012 302.951,-320.555"/>
<polygon fill="midnightblue" stroke="midnightblue" points="65.9947,-359.804 58.6181,-367.409 69.1272,-366.064 65.9947,-359.804"/>
</g>
<!-- Node14 -->
<g id="node14" class="node"><title>Node14</title>
<g id="a_node14"><a xlink:href="main_8cc.html#a8e3083a90f6cf70bdfd6abd70494c74e" target="_top" xlink:title="erro_id_inexistente">
<polygon fill="white" stroke="black" points="130,-108.533 130,-127.533 228,-127.533 228,-108.533 130,-108.533"/>
<text text-anchor="middle" x="179" y="-115.533" font-family="Helvetica,sans-Serif" font-size="10.00">erro_id_inexistente</text>
</a>
</g>
</g>
<!-- Node1&#45;&gt;Node14 -->
<g id="edge19" class="edge"><title>Node1&#45;&gt;Node14</title>
<path fill="none" stroke="midnightblue" d="M41.2836,-357.106C43.0349,-311.537 53.7942,-198.896 116,-137.033 119.991,-133.063 124.789,-129.92 129.925,-127.431"/>
<polygon fill="midnightblue" stroke="midnightblue" points="37.7831,-357.082 41.0067,-367.174 44.7804,-357.274 37.7831,-357.082"/>
</g>
<!-- Node15 -->
<g id="node15" class="node"><title>Node15</title>
<g id="a_node15"><a xlink:href="main_8cc.html#ab5f698491708904442d9d4f8583cd809" target="_top" xlink:title="remover_tarefa">
<polygon fill="white" stroke="black" points="304,-111.533 304,-130.533 386,-130.533 386,-111.533 304,-111.533"/>
<text text-anchor="middle" x="345" y="-118.533" font-family="Helvetica,sans-Serif" font-size="10.00">remover_tarefa</text>
</a>
</g>
</g>
<!-- Node1&#45;&gt;Node15 -->
<g id="edge34" class="edge"><title>Node1&#45;&gt;Node15</title>
<path fill="none" stroke="midnightblue" d="M43.2628,-357.204C50.3446,-299.063 74.1444,-131.093 116,-99.0327 145.045,-76.7855 250.123,-97.8839 306.932,-111.512"/>
<polygon fill="midnightblue" stroke="midnightblue" points="39.7682,-356.953 42.069,-367.295 46.7197,-357.775 39.7682,-356.953"/>
</g>
<!-- Node16 -->
<g id="node16" class="node"><title>Node16</title>
<g id="a_node16"><a xlink:href="main_8cc.html#ae96b9adf5e390d1a516e3fe5164714cc" target="_top" xlink:title="remover_pre_requisitos">
<polygon fill="white" stroke="black" points="286,-73.5327 286,-92.5327 404,-92.5327 404,-73.5327 286,-73.5327"/>
<text text-anchor="middle" x="345" y="-80.5327" font-family="Helvetica,sans-Serif" font-size="10.00">remover_pre_requisitos</text>
</a>
</g>
</g>
<!-- Node1&#45;&gt;Node16 -->
<g id="edge42" class="edge"><title>Node1&#45;&gt;Node16</title>
<path fill="none" stroke="midnightblue" d="M43.0016,-357.493C49.5481,-297.87 72.4461,-120.246 116,-86.0327 174.059,-40.426 268.532,-59.6775 315.548,-73.4918"/>
<polygon fill="midnightblue" stroke="midnightblue" points="39.5167,-357.167 41.9385,-367.481 46.4774,-357.908 39.5167,-357.167"/>
</g>
<!-- Node17 -->
<g id="node17" class="node"><title>Node17</title>
<g id="a_node17"><a xlink:href="main_8cc.html#a5f90fb7a7aa9c2393d70b4f95d675955" target="_top" xlink:title="tela_inserir_pre_requisito\l_edicao">
<polygon fill="white" stroke="black" points="116.5,-147.033 116.5,-177.033 241.5,-177.033 241.5,-147.033 116.5,-147.033"/>
<text text-anchor="start" x="124.5" y="-165.033" font-family="Helvetica,sans-Serif" font-size="10.00">tela_inserir_pre_requisito</text>
<text text-anchor="middle" x="179" y="-154.033" font-family="Helvetica,sans-Serif" font-size="10.00">_edicao</text>
</a>
</g>
</g>
<!-- Node1&#45;&gt;Node17 -->
<g id="edge26" class="edge"><title>Node1&#45;&gt;Node17</title>
<path fill="none" stroke="midnightblue" d="M44.1767,-357.305C51.0442,-320.483 70.4844,-240.632 116,-192.033 121.558,-186.098 128.538,-181.199 135.792,-177.205"/>
<polygon fill="midnightblue" stroke="midnightblue" points="40.7093,-356.815 42.4341,-367.269 47.6046,-358.021 40.7093,-356.815"/>
</g>
<!-- Node18 -->
<g id="node18" class="node"><title>Node18</title>
<g id="a_node18"><a xlink:href="main_8cc.html#abc30d77428eefe83c569f49b7e48a7f8" target="_top" xlink:title="imprimir_em_arquivo">
<polygon fill="white" stroke="black" points="448.5,-633.533 448.5,-652.533 555.5,-652.533 555.5,-633.533 448.5,-633.533"/>
<text text-anchor="middle" x="502" y="-640.533" font-family="Helvetica,sans-Serif" font-size="10.00">imprimir_em_arquivo</text>
</a>
</g>
</g>
<!-- Node1&#45;&gt;Node18 -->
<g id="edge30" class="edge"><title>Node1&#45;&gt;Node18</title>
<path fill="none" stroke="midnightblue" d="M42.971,-396.663C49.4282,-456.562 72.095,-634.98 116,-669.033 228.49,-756.281 419.505,-680.769 481.173,-652.587"/>
<polygon fill="midnightblue" stroke="midnightblue" points="46.4429,-396.212 41.9231,-386.63 39.4808,-396.939 46.4429,-396.212"/>
</g>
<!-- Node19 -->
<g id="node19" class="node"><title>Node19</title>
<g id="a_node19"><a xlink:href="main_8cc.html#aa0ac4a2d1125c89ec5acc37dfde748c6" target="_top" xlink:title="ver_tarefas">
<polygon fill="white" stroke="black" points="312.5,-576.533 312.5,-595.533 377.5,-595.533 377.5,-576.533 312.5,-576.533"/>
<text text-anchor="middle" x="345" y="-583.533" font-family="Helvetica,sans-Serif" font-size="10.00">ver_tarefas</text>
</a>
</g>
</g>
<!-- Node1&#45;&gt;Node19 -->
<g id="edge35" class="edge"><title>Node1&#45;&gt;Node19</title>
<path fill="none" stroke="midnightblue" d="M42.2517,-396.812C45.9295,-436.515 60.2964,-525.646 116,-567.033 174.028,-610.146 264.786,-601.561 312.407,-592.995"/>
<polygon fill="midnightblue" stroke="midnightblue" points="45.7212,-396.287 41.4455,-386.593 38.7429,-396.837 45.7212,-396.287"/>
</g>
<!-- Node21 -->
<g id="node21" class="node"><title>Node21</title>
<g id="a_node21"><a xlink:href="main_8cc.html#a4f8f29b1eba21e0b51992f8de173a582" target="_top" xlink:title="mostrar_pre_requisitos">
<polygon fill="white" stroke="black" points="121,-538.533 121,-557.533 237,-557.533 237,-538.533 121,-538.533"/>
<text text-anchor="middle" x="179" y="-545.533" font-family="Helvetica,sans-Serif" font-size="10.00">mostrar_pre_requisitos</text>
</a>
</g>
</g>
<!-- Node1&#45;&gt;Node21 -->
<g id="edge38" class="edge"><title>Node1&#45;&gt;Node21</title>
<path fill="none" stroke="midnightblue" d="M45.3968,-396.924C53.5954,-429.355 74.2969,-493.556 116,-529.033 120.545,-532.899 125.865,-535.979 131.445,-538.432"/>
<polygon fill="midnightblue" stroke="midnightblue" points="48.7257,-395.794 43.0044,-386.877 41.9161,-397.416 48.7257,-395.794"/>
</g>
<!-- Node22 -->
<g id="node22" class="node"><title>Node22</title>
<g id="a_node22"><a xlink:href="main_8cc.html#ab05b93d97a47c67aab51426cdad29a86" target="_top" xlink:title="ver_tarefas_concluidas">
<polygon fill="white" stroke="black" points="120.5,-500.533 120.5,-519.533 237.5,-519.533 237.5,-500.533 120.5,-500.533"/>
<text text-anchor="middle" x="179" y="-507.533" font-family="Helvetica,sans-Serif" font-size="10.00">ver_tarefas_concluidas</text>
</a>
</g>
</g>
<!-- Node1&#45;&gt;Node22 -->
<g id="edge40" class="edge"><title>Node1&#45;&gt;Node22</title>
<path fill="none" stroke="midnightblue" d="M49.4775,-395.74C61.2283,-419.743 84.6175,-461.235 116,-486.033 123.788,-492.187 133.341,-496.915 142.593,-500.48"/>
<polygon fill="midnightblue" stroke="midnightblue" points="52.6048,-394.165 45.1646,-386.623 46.2771,-397.159 52.6048,-394.165"/>
</g>
<!-- Node23 -->
<g id="node23" class="node"><title>Node23</title>
<g id="a_node23"><a xlink:href="main_8cc.html#aaaa25a5b0eda0fab944a03026249b324" target="_top" xlink:title="mostrar_tarefas_filtradas">
<polygon fill="white" stroke="black" points="116.5,-614.533 116.5,-633.533 241.5,-633.533 241.5,-614.533 116.5,-614.533"/>
<text text-anchor="middle" x="179" y="-621.533" font-family="Helvetica,sans-Serif" font-size="10.00">mostrar_tarefas_filtradas</text>
</a>
</g>
</g>
<!-- Node1&#45;&gt;Node23 -->
<g id="edge43" class="edge"><title>Node1&#45;&gt;Node23</title>
<path fill="none" stroke="midnightblue" d="M42.1831,-397.001C45.7691,-439.856 60.031,-541.493 116,-600.033 122.062,-606.373 129.989,-611.064 138.139,-614.526"/>
<polygon fill="midnightblue" stroke="midnightblue" points="45.6715,-396.713 41.4553,-386.994 38.6899,-397.221 45.6715,-396.713"/>
</g>
<!-- Node24 -->
<g id="node24" class="node"><title>Node24</title>
<g id="a_node24"><a xlink:href="main_8cc.html#adcc550070c8292efdd63f7df8bbdd58a" target="_top" xlink:title="filtrar_tarefas_completadas">
<polygon fill="white" stroke="black" points="278,-614.533 278,-633.533 412,-633.533 412,-614.533 278,-614.533"/>
<text text-anchor="middle" x="345" y="-621.533" font-family="Helvetica,sans-Serif" font-size="10.00">filtrar_tarefas_completadas</text>
</a>
</g>
</g>
<!-- Node1&#45;&gt;Node24 -->
<g id="edge46" class="edge"><title>Node1&#45;&gt;Node24</title>
<path fill="none" stroke="midnightblue" d="M43.5004,-396.742C51.089,-453.064 75.8261,-612.62 116,-643.033 179.022,-690.742 281.836,-652.797 324.497,-633.535"/>
<polygon fill="midnightblue" stroke="midnightblue" points="46.9472,-396.107 42.1767,-386.647 40.0066,-397.017 46.9472,-396.107"/>
</g>
<!-- Node3 -->
<g id="node3" class="node"><title>Node3</title>
<g id="a_node3"><a xlink:href="main_8cc.html#ae66f6b31b5ad750f1fe042a706a4e3d4" target="_top" xlink:title="main">
<polygon fill="white" stroke="black" points="840,-348.533 840,-367.533 878,-367.533 878,-348.533 840,-348.533"/>
<text text-anchor="middle" x="859" y="-355.533" font-family="Helvetica,sans-Serif" font-size="10.00">main</text>
</a>
</g>
</g>
<!-- Node2&#45;&gt;Node3 -->
<g id="edge2" class="edge"><title>Node2&#45;&gt;Node3</title>
<path fill="none" stroke="midnightblue" d="M657.458,-648.018C697.333,-590.358 820.982,-411.561 851.258,-367.782"/>
<polygon fill="midnightblue" stroke="midnightblue" points="654.418,-646.262 651.608,-656.477 660.175,-650.243 654.418,-646.262"/>
</g>
<!-- Node4&#45;&gt;Node5 -->
<g id="edge4" class="edge"><title>Node4&#45;&gt;Node5</title>
<path fill="none" stroke="midnightblue" d="M251.65,-434.033C261.061,-434.033 270.657,-434.033 279.931,-434.033"/>
<polygon fill="midnightblue" stroke="midnightblue" points="251.534,-430.533 241.534,-434.033 251.534,-437.533 251.534,-430.533"/>
</g>
<!-- Node4&#45;&gt;Node8 -->
<g id="edge9" class="edge"><title>Node4&#45;&gt;Node8</title>
<path fill="none" stroke="midnightblue" d="M231.341,-422.137C254.393,-416.795 281.221,-410.579 302.913,-405.553"/>
<polygon fill="midnightblue" stroke="midnightblue" points="230.336,-418.777 221.384,-424.444 231.916,-425.596 230.336,-418.777"/>
</g>
<!-- Node6 -->
<g id="node6" class="node"><title>Node6</title>
<g id="a_node6"><a xlink:href="main_8cc.html#af852bc15cf3d5217386a9bb0bf3b9abd" target="_top" xlink:title="operacoes_grafo">
<polygon fill="white" stroke="black" points="599.5,-329.533 599.5,-348.533 688.5,-348.533 688.5,-329.533 599.5,-329.533"/>
<text text-anchor="middle" x="644" y="-336.533" font-family="Helvetica,sans-Serif" font-size="10.00">operacoes_grafo</text>
</a>
</g>
</g>
<!-- Node5&#45;&gt;Node6 -->
<g id="edge5" class="edge"><title>Node5&#45;&gt;Node6</title>
<path fill="none" stroke="midnightblue" d="M389.639,-421.721C397.113,-419.54 404.79,-417.256 412,-415.033 485.629,-392.331 571.677,-363.373 615.017,-348.616"/>
<polygon fill="midnightblue" stroke="midnightblue" points="388.621,-418.371 379.988,-424.513 390.566,-425.096 388.621,-418.371"/>
</g>
<!-- Node6&#45;&gt;Node3 -->
<g id="edge8" class="edge"><title>Node6&#45;&gt;Node3</title>
<path fill="none" stroke="midnightblue" d="M698.772,-343.829C744.964,-347.95 808.854,-353.649 839.778,-356.407"/>
<polygon fill="midnightblue" stroke="midnightblue" points="698.889,-340.326 688.618,-342.923 698.267,-347.298 698.889,-340.326"/>
</g>
<!-- Node6&#45;&gt;Node7 -->
<g id="edge6" class="edge"><title>Node6&#45;&gt;Node7</title>
<path fill="none" stroke="midnightblue" d="M698.781,-330.657C709.905,-328.925 721.354,-327.142 731.619,-325.543"/>
<polygon fill="midnightblue" stroke="midnightblue" points="698.042,-327.23 688.7,-332.227 699.12,-334.146 698.042,-327.23"/>
</g>
<!-- Node7&#45;&gt;Node3 -->
<g id="edge7" class="edge"><title>Node7&#45;&gt;Node3</title>
<path fill="none" stroke="midnightblue" d="M801.025,-333.706C814.037,-339.262 828.597,-345.479 839.741,-350.237"/>
<polygon fill="midnightblue" stroke="midnightblue" points="802.03,-330.33 791.458,-329.622 799.281,-336.767 802.03,-330.33"/>
</g>
<!-- Node8&#45;&gt;Node9 -->
<g id="edge10" class="edge"><title>Node8&#45;&gt;Node9</title>
<path fill="none" stroke="midnightblue" d="M381.81,-383.058C391.603,-379.496 402.214,-375.626 412,-372.033 433.348,-364.194 457.542,-355.217 475.311,-348.607"/>
<polygon fill="midnightblue" stroke="midnightblue" points="380.553,-379.79 372.349,-386.494 382.943,-386.369 380.553,-379.79"/>
</g>
<!-- Node9&#45;&gt;Node6 -->
<g id="edge11" class="edge"><title>Node9&#45;&gt;Node6</title>
<path fill="none" stroke="midnightblue" d="M549.014,-339.033C565.217,-339.033 583.371,-339.033 599.372,-339.033"/>
<polygon fill="midnightblue" stroke="midnightblue" points="548.69,-335.533 538.69,-339.033 548.69,-342.533 548.69,-335.533"/>
</g>
<!-- Node10&#45;&gt;Node9 -->
<g id="edge13" class="edge"><title>Node10&#45;&gt;Node9</title>
<path fill="none" stroke="midnightblue" d="M234.806,-281.594C282.328,-282.375 352.611,-286.334 412,-301.033 437.768,-307.41 465.63,-320.39 483.187,-329.394"/>
<polygon fill="midnightblue" stroke="midnightblue" points="234.769,-278.094 224.726,-281.471 234.683,-285.093 234.769,-278.094"/>
</g>
<!-- Node10&#45;&gt;Node11 -->
<g id="edge14" class="edge"><title>Node10&#45;&gt;Node11</title>
<path fill="none" stroke="midnightblue" d="M209.913,-268.171C242.805,-252.928 294.777,-228.843 323.398,-215.58"/>
<polygon fill="midnightblue" stroke="midnightblue" points="208.372,-265.027 200.771,-272.407 211.315,-271.378 208.372,-265.027"/>
</g>
<!-- Node11&#45;&gt;Node12 -->
<g id="edge15" class="edge"><title>Node11&#45;&gt;Node12</title>
<path fill="none" stroke="midnightblue" d="M392.9,-214.202C416.551,-218.322 444.733,-223.231 466.391,-227.004"/>
<polygon fill="midnightblue" stroke="midnightblue" points="393.185,-210.699 382.733,-212.431 391.984,-217.596 393.185,-210.699"/>
</g>
<!-- Node12&#45;&gt;Node6 -->
<g id="edge16" class="edge"><title>Node12&#45;&gt;Node6</title>
<path fill="none" stroke="midnightblue" d="M524.267,-249.135C553.704,-271.423 605.965,-310.992 630.111,-329.274"/>
<polygon fill="midnightblue" stroke="midnightblue" points="526.005,-246.061 515.92,-242.815 521.78,-251.642 526.005,-246.061"/>
</g>
<!-- Node13&#45;&gt;Node9 -->
<g id="edge18" class="edge"><title>Node13&#45;&gt;Node9</title>
<path fill="none" stroke="midnightblue" d="M397.147,-326.302C419.528,-329.046 445.237,-332.197 465.476,-334.678"/>
<polygon fill="midnightblue" stroke="midnightblue" points="397.482,-322.817 387.13,-325.074 396.63,-329.765 397.482,-322.817"/>
</g>
<!-- Node14&#45;&gt;Node12 -->
<g id="edge20" class="edge"><title>Node14&#45;&gt;Node12</title>
<path fill="none" stroke="midnightblue" d="M229.941,-129.982C277.559,-142.05 350.869,-162.399 412,-187.033 438.296,-197.629 467.187,-213.381 484.708,-223.427"/>
<polygon fill="midnightblue" stroke="midnightblue" points="230.734,-126.572 220.183,-127.534 229.031,-133.362 230.734,-126.572"/>
</g>
<!-- Node14&#45;&gt;Node15 -->
<g id="edge21" class="edge"><title>Node14&#45;&gt;Node15</title>
<path fill="none" stroke="midnightblue" d="M238.396,-119.101C260.044,-119.497 284.091,-119.937 303.763,-120.297"/>
<polygon fill="midnightblue" stroke="midnightblue" points="238.381,-115.6 228.318,-118.917 238.253,-122.599 238.381,-115.6"/>
</g>
<!-- Node14&#45;&gt;Node16 -->
<g id="edge23" class="edge"><title>Node14&#45;&gt;Node16</title>
<path fill="none" stroke="midnightblue" d="M234.846,-106.328C255.773,-101.862 279.361,-96.8277 299.24,-92.585"/>
<polygon fill="midnightblue" stroke="midnightblue" points="233.863,-102.959 224.814,-108.469 235.324,-109.804 233.863,-102.959"/>
</g>
<!-- Node15&#45;&gt;Node6 -->
<g id="edge22" class="edge"><title>Node15&#45;&gt;Node6</title>
<path fill="none" stroke="midnightblue" d="M394.397,-133.391C440.185,-147.028 508.749,-172.697 556,-214.033 596.198,-249.199 627.127,-306.696 638.386,-329.388"/>
<polygon fill="midnightblue" stroke="midnightblue" points="395.282,-130.004 384.703,-130.582 393.334,-136.727 395.282,-130.004"/>
</g>
<!-- Node16&#45;&gt;Node6 -->
<g id="edge24" class="edge"><title>Node16&#45;&gt;Node6</title>
<path fill="none" stroke="midnightblue" d="M414.035,-89.8636C459.038,-97.585 516.761,-114.027 556,-149.033 613.664,-200.476 635.6,-297.847 641.342,-329.106"/>
<polygon fill="midnightblue" stroke="midnightblue" points="414.485,-86.3911 404.056,-88.2571 413.372,-93.3021 414.485,-86.3911"/>
</g>
<!-- Node17&#45;&gt;Node11 -->
<g id="edge27" class="edge"><title>Node17&#45;&gt;Node11</title>
<path fill="none" stroke="midnightblue" d="M245.672,-179.652C267.049,-185.387 289.97,-191.537 308.299,-196.454"/>
<polygon fill="midnightblue" stroke="midnightblue" points="246.546,-176.263 235.981,-177.052 244.732,-183.024 246.546,-176.263"/>
</g>
<!-- Node18&#45;&gt;Node6 -->
<g id="edge31" class="edge"><title>Node18&#45;&gt;Node6</title>
<path fill="none" stroke="midnightblue" d="M517.208,-625.342C528.718,-610.427 544.804,-588.188 556,-567.033 598.409,-486.897 630.71,-381.414 640.168,-348.959"/>
<polygon fill="midnightblue" stroke="midnightblue" points="514.451,-623.186 511.032,-633.214 519.959,-627.507 514.451,-623.186"/>
</g>
<!-- Node20 -->
<g id="node20" class="node"><title>Node20</title>
<g id="a_node20"><a xlink:href="main_8cc.html#a5d247f6e8ee275a8cd007f922ae2acb3" target="_top" xlink:title="visualizador_tarefas">
<polygon fill="white" stroke="black" points="450,-538.533 450,-557.533 554,-557.533 554,-538.533 450,-538.533"/>
<text text-anchor="middle" x="502" y="-545.533" font-family="Helvetica,sans-Serif" font-size="10.00">visualizador_tarefas</text>
</a>
</g>
</g>
<!-- Node19&#45;&gt;Node20 -->
<g id="edge36" class="edge"><title>Node19&#45;&gt;Node20</title>
<path fill="none" stroke="midnightblue" d="M387.629,-575.827C410.797,-570.147 439.454,-563.122 462.159,-557.555"/>
<polygon fill="midnightblue" stroke="midnightblue" points="386.62,-572.471 377.741,-578.251 388.286,-579.269 386.62,-572.471"/>
</g>
<!-- Node20&#45;&gt;Node6 -->
<g id="edge37" class="edge"><title>Node20&#45;&gt;Node6</title>
<path fill="none" stroke="midnightblue" d="M515.107,-529.958C543.74,-487.214 614.844,-381.066 636.583,-348.612"/>
<polygon fill="midnightblue" stroke="midnightblue" points="512.037,-528.253 509.379,-538.509 517.853,-532.149 512.037,-528.253"/>
</g>
<!-- Node21&#45;&gt;Node20 -->
<g id="edge39" class="edge"><title>Node21&#45;&gt;Node20</title>
<path fill="none" stroke="midnightblue" d="M247.214,-548.033C307.587,-548.033 394.934,-548.033 449.806,-548.033"/>
<polygon fill="midnightblue" stroke="midnightblue" points="247.019,-544.533 237.018,-548.033 247.018,-551.533 247.019,-544.533"/>
</g>
<!-- Node22&#45;&gt;Node20 -->
<g id="edge41" class="edge"><title>Node22&#45;&gt;Node20</title>
<path fill="none" stroke="midnightblue" d="M247.954,-518.077C308.294,-525.22 395.143,-535.501 449.792,-541.971"/>
<polygon fill="midnightblue" stroke="midnightblue" points="248.101,-514.57 237.759,-516.87 247.278,-521.522 248.101,-514.57"/>
</g>
<!-- Node23&#45;&gt;Node24 -->
<g id="edge44" class="edge"><title>Node23&#45;&gt;Node24</title>
<path fill="none" stroke="midnightblue" d="M251.624,-624.033C260.3,-624.033 269.134,-624.033 277.729,-624.033"/>
<polygon fill="midnightblue" stroke="midnightblue" points="251.534,-620.533 241.534,-624.033 251.534,-627.533 251.534,-620.533"/>
</g>
<!-- Node24&#45;&gt;Node20 -->
<g id="edge45" class="edge"><title>Node24&#45;&gt;Node20</title>
<path fill="none" stroke="midnightblue" d="M395.978,-611.324C401.468,-609.435 406.908,-607.337 412,-605.033 441.254,-591.794 472.102,-570.019 488.694,-557.565"/>
<polygon fill="midnightblue" stroke="midnightblue" points="394.554,-608.105 386.106,-614.499 396.698,-614.769 394.554,-608.105"/>
</g>
</g>
</svg>
        <g id="navigator" transform="translate(0 0)" fill="#404254">
                <rect fill="#f2f5e9" fill-opacity="0.5" stroke="#606060" stroke-width=".5" x="0" y="0" width="60" height="60"/>
                <use id="zoomplus" xlink:href="#zoomPlus" x="17" y="9" onmousedown="handleZoom(evt,'in')"/>
                <use id="zoomminus" xlink:href="#zoomMin" x="42" y="9" onmousedown="handleZoom(evt,'out')"/>
                <use id="reset" xlink:href="#resetDef" x="30" y="36" onmousedown="handleReset()"/>
                <g id="arrowUp" xlink:href="#dirArrow" transform="translate(30 24)" onmousedown="handlePan(0,-1)">
                  <use xlink:href="#rim" fill="#404040">
                        <set attributeName="fill" to="#808080" begin="arrowUp.mouseover" end="arrowUp.mouseout"/>
                  </use>
                  <path fill="none" stroke="white" stroke-width="1.5" d="M0,-3.0v7 M-2.5,-0.5L0,-3.0L2.5,-0.5"/>
                </g>
                <g id="arrowRight" xlink:href="#dirArrow" transform="rotate(90) translate(36 -43)" onmousedown="handlePan(1,0)">
                  <use xlink:href="#rim" fill="#404040">
                        <set attributeName="fill" to="#808080" begin="arrowRight.mouseover" end="arrowRight.mouseout"/>
                  </use>
                  <path fill="none" stroke="white" stroke-width="1.5" d="M0,-3.0v7 M-2.5,-0.5L0,-3.0L2.5,-0.5"/>
                </g>
                <g id="arrowDown" xlink:href="#dirArrow" transform="rotate(180) translate(-30 -48)" onmousedown="handlePan(0,1)">
                  <use xlink:href="#rim" fill="#404040">
                        <set attributeName="fill" to="#808080" begin="arrowDown.mouseover" end="arrowDown.mouseout"/>
                  </use>
                  <path fill="none" stroke="white" stroke-width="1.5" d="M0,-3.0v7 M-2.5,-0.5L0,-3.0L2.5,-0.5"/>
                </g>
                <g id="arrowLeft" xlink:href="#dirArrow" transform="rotate(270) translate(-36 17)" onmousedown="handlePan(-1,0)">
                  <use xlink:href="#rim" fill="#404040">
                        <set attributeName="fill" to="#808080" begin="arrowLeft.mouseover" end="arrowLeft.mouseout"/>
                  </use>
                  <path fill="none" stroke="white" stroke-width="1.5" d="M0,-3.0v7 M-2.5,-0.5L0,-3.0L2.5,-0.5"/>
                </g>
        </g>
        <svg viewBox="0 0 15 15" width="100%" height="30px" preserveAspectRatio="xMaxYMin meet">
         <g id="arrow_out" transform="scale(0.3 0.3)">
          <a xlink:href="main_8cc_ad2a06ffdf1033b3b1c11f337fa12553b_icgraph_org.svg" target="_base">
           <rect id="button" ry="5" rx="5" y="6" x="6" height="38" width="38"
                fill="#f2f5e9" fill-opacity="0.5" stroke="#606060" stroke-width="1.0"/>
           <path id="arrow"
             d="M 11.500037,31.436501 C 11.940474,20.09759 22.043105,11.32322 32.158766,21.979434 L 37.068811,17.246167 C 37.068811,17.246167 37.088388,32 37.088388,32 L 22.160133,31.978069 C 22.160133,31.978069 26.997745,27.140456 26.997745,27.140456 C 18.528582,18.264221 13.291696,25.230495 11.500037,31.436501 z"
             style="fill:#404040;"/>
          </a>
         </g>
        </svg>
</svg>
