<?xml version="1.0" encoding="UTF-8" standalone="no"?>
<!DOCTYPE svg PUBLIC "-//W3C//DTD SVG 1.1//EN"
 "http://www.w3.org/Graphics/SVG/1.1/DTD/svg11.dtd">
<!-- Generated by graphviz version 2.36.0 (20140111.2315)
 -->
<!-- Title: remover_tarefa Pages: 1 -->
<svg width="340pt" height="160pt"
 viewBox="0.00 0.00 340.00 160.19" xmlns="http://www.w3.org/2000/svg" xmlns:xlink="http://www.w3.org/1999/xlink">
<g id="graph0" class="graph" transform="scale(1 1) rotate(0) translate(4 156.188)">
<title>remover_tarefa</title>
<polygon fill="white" stroke="none" points="-4,4 -4,-156.188 336,-156.188 336,4 -4,4"/>
<!-- Node1 -->
<g id="node1" class="node"><title>Node1</title>
<polygon fill="#bfbfbf" stroke="black" points="0,-76.5 0,-95.5 82,-95.5 82,-76.5 0,-76.5"/>
<text text-anchor="middle" x="41" y="-83.5" font-family="Helvetica,sans-Serif" font-size="10.00">remover_tarefa</text>
</g>
<!-- Node2 -->
<g id="node2" class="node"><title>Node2</title>
<g id="a_node2"><a xlink:href="main_8cc.html#ad2a06ffdf1033b3b1c11f337fa12553b" target="_top" xlink:title="imprimirRotulo">
<polygon fill="white" stroke="black" points="252,-95.5 252,-114.5 332,-114.5 332,-95.5 252,-95.5"/>
<text text-anchor="middle" x="292" y="-102.5" font-family="Helvetica,sans-Serif" font-size="10.00">imprimirRotulo</text>
</a>
</g>
</g>
<!-- Node1&#45;&gt;Node2 -->
<g id="edge1" class="edge"><title>Node1&#45;&gt;Node2</title>
<path fill="none" stroke="midnightblue" d="M50.671,-95.606C63.7044,-109.246 89.836,-133.612 118,-143 159.32,-156.773 173.636,-153.12 216,-143 234.75,-138.521 254.116,-128.55 268.471,-119.945"/>
<polygon fill="midnightblue" stroke="midnightblue" points="270.483,-122.815 277.124,-114.559 266.785,-116.872 270.483,-122.815"/>
</g>
<!-- Node3 -->
<g id="node3" class="node"><title>Node3</title>
<g id="a_node3"><a xlink:href="grafo_8cc.html#a1e996ff4a17fa0e42fc8ff6bdc605dc1" target="_top" xlink:title="pesquisa_tarefa">
<polygon fill="white" stroke="black" points="124,-114.5 124,-133.5 210,-133.5 210,-114.5 124,-114.5"/>
<text text-anchor="middle" x="167" y="-121.5" font-family="Helvetica,sans-Serif" font-size="10.00">pesquisa_tarefa</text>
</a>
</g>
</g>
<!-- Node1&#45;&gt;Node3 -->
<g id="edge2" class="edge"><title>Node1&#45;&gt;Node3</title>
<path fill="none" stroke="midnightblue" d="M73.2904,-95.589C89.0039,-100.404 108.238,-106.299 125.106,-111.468"/>
<polygon fill="midnightblue" stroke="midnightblue" points="124.133,-114.83 134.72,-114.414 126.184,-108.138 124.133,-114.83"/>
</g>
<!-- Node4 -->
<g id="node4" class="node"><title>Node4</title>
<g id="a_node4"><a xlink:href="main_8cc.html#abe7109d6b800c7cd9f5c2097bc8df894" target="_top" xlink:title="destruir_menu">
<polygon fill="white" stroke="black" points="253,-48.5 253,-67.5 331,-67.5 331,-48.5 253,-48.5"/>
<text text-anchor="middle" x="292" y="-55.5" font-family="Helvetica,sans-Serif" font-size="10.00">destruir_menu</text>
</a>
</g>
</g>
<!-- Node1&#45;&gt;Node4 -->
<g id="edge3" class="edge"><title>Node1&#45;&gt;Node4</title>
<path fill="none" stroke="midnightblue" d="M74.2678,-76.4703C87.6768,-72.894 103.473,-69.1729 118,-67 159.782,-60.7504 207.798,-58.6495 242.628,-58.026"/>
<polygon fill="midnightblue" stroke="midnightblue" points="243.043,-61.5205 252.992,-57.877 242.943,-54.5212 243.043,-61.5205"/>
</g>
<!-- Node5 -->
<g id="node5" class="node"><title>Node5</title>
<g id="a_node5"><a xlink:href="main_8cc.html#a8e3083a90f6cf70bdfd6abd70494c74e" target="_top" xlink:title="erro_id_inexistente">
<polygon fill="white" stroke="black" points="118,-76.5 118,-95.5 216,-95.5 216,-76.5 118,-76.5"/>
<text text-anchor="middle" x="167" y="-83.5" font-family="Helvetica,sans-Serif" font-size="10.00">erro_id_inexistente</text>
</a>
</g>
</g>
<!-- Node1&#45;&gt;Node5 -->
<g id="edge4" class="edge"><title>Node1&#45;&gt;Node5</title>
<path fill="none" stroke="midnightblue" d="M82.2592,-86C90.3917,-86 99.0956,-86 107.704,-86"/>
<polygon fill="midnightblue" stroke="midnightblue" points="107.726,-89.5001 117.726,-86 107.725,-82.5001 107.726,-89.5001"/>
</g>
<!-- Node6 -->
<g id="node6" class="node"><title>Node6</title>
<g id="a_node6"><a xlink:href="grafo_8cc.html#abab0a8730861a86fe9a0713b3dcc018b" target="_top" xlink:title="remove_tarefa">
<polygon fill="white" stroke="black" points="127.5,-0.5 127.5,-19.5 206.5,-19.5 206.5,-0.5 127.5,-0.5"/>
<text text-anchor="middle" x="167" y="-7.5" font-family="Helvetica,sans-Serif" font-size="10.00">remove_tarefa</text>
</a>
</g>
</g>
<!-- Node1&#45;&gt;Node6 -->
<g id="edge7" class="edge"><title>Node1&#45;&gt;Node6</title>
<path fill="none" stroke="midnightblue" d="M54.8266,-76.4245C69.6582,-65.5431 94.9891,-47.5397 118,-34 123.691,-30.6512 129.91,-27.3171 135.929,-24.2463"/>
<polygon fill="midnightblue" stroke="midnightblue" points="137.724,-27.2625 145.116,-19.673 134.605,-20.9959 137.724,-27.2625"/>
</g>
<!-- Node5&#45;&gt;Node2 -->
<g id="edge5" class="edge"><title>Node5&#45;&gt;Node2</title>
<path fill="none" stroke="midnightblue" d="M216.26,-93.4548C224.681,-94.7556 233.45,-96.1102 241.894,-97.4145"/>
<polygon fill="midnightblue" stroke="midnightblue" points="241.57,-100.906 251.987,-98.9736 242.639,-93.9879 241.57,-100.906"/>
</g>
<!-- Node5&#45;&gt;Node4 -->
<g id="edge6" class="edge"><title>Node5&#45;&gt;Node4</title>
<path fill="none" stroke="midnightblue" d="M209.986,-76.4423C220.642,-74.0164 232.171,-71.392 243.097,-68.9048"/>
<polygon fill="midnightblue" stroke="midnightblue" points="243.945,-72.3012 252.919,-66.6688 242.392,-65.4758 243.945,-72.3012"/>
</g>
</g>
</svg>
