<?xml version="1.0" encoding="UTF-8" standalone="no"?>
<!DOCTYPE svg PUBLIC "-//W3C//DTD SVG 1.1//EN"
 "http://www.w3.org/Graphics/SVG/1.1/DTD/svg11.dtd">
<!-- Generated by graphviz version 2.36.0 (20140111.2315)
 -->
<!-- Title: inserir_novo_pre_requisito Pages: 1 -->
<svg width="416pt" height="162pt"
 viewBox="0.00 0.00 416.00 161.64" xmlns="http://www.w3.org/2000/svg" xmlns:xlink="http://www.w3.org/1999/xlink">
<g id="graph0" class="graph" transform="scale(1 1) rotate(0) translate(4 157.637)">
<title>inserir_novo_pre_requisito</title>
<polygon fill="white" stroke="none" points="-4,4 -4,-157.637 412,-157.637 412,4 -4,4"/>
<!-- Node1 -->
<g id="node1" class="node"><title>Node1</title>
<polygon fill="#bfbfbf" stroke="black" points="0,-76.5 0,-95.5 130,-95.5 130,-76.5 0,-76.5"/>
<text text-anchor="middle" x="65" y="-83.5" font-family="Helvetica,sans-Serif" font-size="10.00">inserir_novo_pre_requisito</text>
</g>
<!-- Node2 -->
<g id="node2" class="node"><title>Node2</title>
<g id="a_node2"><a xlink:href="main_8cc.html#ad2a06ffdf1033b3b1c11f337fa12553b" target="_top" xlink:title="imprimirRotulo">
<polygon fill="white" stroke="black" points="328,-133.5 328,-152.5 408,-152.5 408,-133.5 328,-133.5"/>
<text text-anchor="middle" x="368" y="-140.5" font-family="Helvetica,sans-Serif" font-size="10.00">imprimirRotulo</text>
</a>
</g>
</g>
<!-- Node1&#45;&gt;Node2 -->
<g id="edge1" class="edge"><title>Node1&#45;&gt;Node2</title>
<path fill="none" stroke="midnightblue" d="M78.0141,-95.6521C95.9168,-109.349 131.23,-133.786 166,-143 216.376,-156.349 276.381,-154.123 317.637,-149.951"/>
<polygon fill="midnightblue" stroke="midnightblue" points="318.141,-153.417 327.704,-148.857 317.384,-146.458 318.141,-153.417"/>
</g>
<!-- Node3 -->
<g id="node3" class="node"><title>Node3</title>
<g id="a_node3"><a xlink:href="grafo_8cc.html#a1e996ff4a17fa0e42fc8ff6bdc605dc1" target="_top" xlink:title="pesquisa_tarefa">
<polygon fill="white" stroke="black" points="186,-114.5 186,-133.5 272,-133.5 272,-114.5 186,-114.5"/>
<text text-anchor="middle" x="229" y="-121.5" font-family="Helvetica,sans-Serif" font-size="10.00">pesquisa_tarefa</text>
</a>
</g>
</g>
<!-- Node1&#45;&gt;Node3 -->
<g id="edge2" class="edge"><title>Node1&#45;&gt;Node3</title>
<path fill="none" stroke="midnightblue" d="M106.879,-95.589C128.353,-100.626 154.86,-106.844 177.597,-112.177"/>
<polygon fill="midnightblue" stroke="midnightblue" points="176.879,-115.604 187.415,-114.48 178.478,-108.789 176.879,-115.604"/>
</g>
<!-- Node4 -->
<g id="node4" class="node"><title>Node4</title>
<g id="a_node4"><a xlink:href="main_8cc.html#abe7109d6b800c7cd9f5c2097bc8df894" target="_top" xlink:title="destruir_menu">
<polygon fill="white" stroke="black" points="329,-57.5 329,-76.5 407,-76.5 407,-57.5 329,-57.5"/>
<text text-anchor="middle" x="368" y="-64.5" font-family="Helvetica,sans-Serif" font-size="10.00">destruir_menu</text>
</a>
</g>
</g>
<!-- Node1&#45;&gt;Node4 -->
<g id="edge3" class="edge"><title>Node1&#45;&gt;Node4</title>
<path fill="none" stroke="midnightblue" d="M106.622,-76.4892C124.691,-72.724 146.295,-68.8554 166,-67 217.935,-62.1099 277.754,-62.9308 318.54,-64.4604"/>
<polygon fill="midnightblue" stroke="midnightblue" points="318.608,-67.9659 328.741,-64.8727 318.89,-60.9716 318.608,-67.9659"/>
</g>
<!-- Node5 -->
<g id="node5" class="node"><title>Node5</title>
<g id="a_node5"><a xlink:href="main_8cc.html#aef0e5ebaf10f94ec3baf710468b2bca8" target="_top" xlink:title="erro_insere_pre_requisito">
<polygon fill="white" stroke="black" points="166.5,-76.5 166.5,-95.5 291.5,-95.5 291.5,-76.5 166.5,-76.5"/>
<text text-anchor="middle" x="229" y="-83.5" font-family="Helvetica,sans-Serif" font-size="10.00">erro_insere_pre_requisito</text>
</a>
</g>
</g>
<!-- Node1&#45;&gt;Node5 -->
<g id="edge4" class="edge"><title>Node1&#45;&gt;Node5</title>
<path fill="none" stroke="midnightblue" d="M130.027,-86C138.608,-86 147.456,-86 156.161,-86"/>
<polygon fill="midnightblue" stroke="midnightblue" points="156.289,-89.5001 166.289,-86 156.289,-82.5001 156.289,-89.5001"/>
</g>
<!-- Node6 -->
<g id="node6" class="node"><title>Node6</title>
<g id="a_node6"><a xlink:href="grafo_8cc.html#a3fe6389b74d0356a95800a3d29d7d664" target="_top" xlink:title="insere_prerequisitos">
<polygon fill="white" stroke="black" points="177,-0.5 177,-19.5 281,-19.5 281,-0.5 177,-0.5"/>
<text text-anchor="middle" x="229" y="-7.5" font-family="Helvetica,sans-Serif" font-size="10.00">insere_prerequisitos</text>
</a>
</g>
</g>
<!-- Node1&#45;&gt;Node6 -->
<g id="edge7" class="edge"><title>Node1&#45;&gt;Node6</title>
<path fill="none" stroke="midnightblue" d="M83.0578,-76.3945C102.739,-65.4856 136.221,-47.457 166,-34 174.33,-30.2358 183.439,-26.5037 192.049,-23.1441"/>
<polygon fill="midnightblue" stroke="midnightblue" points="193.403,-26.3735 201.489,-19.5275 190.899,-19.8368 193.403,-26.3735"/>
</g>
<!-- Node5&#45;&gt;Node2 -->
<g id="edge5" class="edge"><title>Node5&#45;&gt;Node2</title>
<path fill="none" stroke="midnightblue" d="M264.801,-95.5173C273.769,-98.2812 283.333,-101.507 292,-105 308.72,-111.74 326.762,-120.82 340.96,-128.415"/>
<polygon fill="midnightblue" stroke="midnightblue" points="339.654,-131.688 350.112,-133.388 342.997,-125.538 339.654,-131.688"/>
</g>
<!-- Node5&#45;&gt;Node4 -->
<g id="edge6" class="edge"><title>Node5&#45;&gt;Node4</title>
<path fill="none" stroke="midnightblue" d="M291.687,-77.4449C300.773,-76.1847 310.021,-74.9022 318.782,-73.6871"/>
<polygon fill="midnightblue" stroke="midnightblue" points="319.381,-77.1377 328.805,-72.2971 318.419,-70.2041 319.381,-77.1377"/>
</g>
<!-- Node7 -->
<g id="node7" class="node"><title>Node7</title>
<g id="a_node7"><a xlink:href="grafo_8cc.html#a0e6585acadedc05719f93fa778cf1dcb" target="_top" xlink:title="procura_tarefa">
<polygon fill="white" stroke="black" points="328.5,-0.5 328.5,-19.5 407.5,-19.5 407.5,-0.5 328.5,-0.5"/>
<text text-anchor="middle" x="368" y="-7.5" font-family="Helvetica,sans-Serif" font-size="10.00">procura_tarefa</text>
</a>
</g>
</g>
<!-- Node6&#45;&gt;Node7 -->
<g id="edge8" class="edge"><title>Node6&#45;&gt;Node7</title>
<path fill="none" stroke="midnightblue" d="M281.014,-10C293.135,-10 306.039,-10 318.065,-10"/>
<polygon fill="midnightblue" stroke="midnightblue" points="318.365,-13.5001 328.365,-10 318.365,-6.5001 318.365,-13.5001"/>
</g>
</g>
</svg>
