<?xml version="1.0" encoding="UTF-8" standalone="no"?>
<!DOCTYPE svg PUBLIC "-//W3C//DTD SVG 1.1//EN"
 "http://www.w3.org/Graphics/SVG/1.1/DTD/svg11.dtd">
<!-- Generated by graphviz version 2.36.0 (20140111.2315)
 -->
<!-- Title: visualizador_tarefas Pages: 1 -->
<svg width="420pt" height="47pt"
 viewBox="0.00 0.00 420.00 47.00" xmlns="http://www.w3.org/2000/svg" xmlns:xlink="http://www.w3.org/1999/xlink">
<g id="graph0" class="graph" transform="scale(1 1) rotate(0) translate(4 43)">
<title>visualizador_tarefas</title>
<polygon fill="white" stroke="none" points="-4,4 -4,-43 416,-43 416,4 -4,4"/>
<!-- Node1 -->
<g id="node1" class="node"><title>Node1</title>
<polygon fill="#bfbfbf" stroke="black" points="0,-0.5 0,-19.5 104,-19.5 104,-0.5 0,-0.5"/>
<text text-anchor="middle" x="52" y="-7.5" font-family="Helvetica,sans-Serif" font-size="10.00">visualizador_tarefas</text>
</g>
<!-- Node2 -->
<g id="node2" class="node"><title>Node2</title>
<g id="a_node2"><a xlink:href="main_8cc.html#af852bc15cf3d5217386a9bb0bf3b9abd" target="_top" xlink:title="operacoes_grafo">
<polygon fill="white" stroke="black" points="140.5,-0.5 140.5,-19.5 229.5,-19.5 229.5,-0.5 140.5,-0.5"/>
<text text-anchor="middle" x="185" y="-7.5" font-family="Helvetica,sans-Serif" font-size="10.00">operacoes_grafo</text>
</a>
</g>
</g>
<!-- Node1&#45;&gt;Node2 -->
<g id="edge1" class="edge"><title>Node1&#45;&gt;Node2</title>
<path fill="none" stroke="midnightblue" d="M114.208,-10C122.956,-10 131.806,-10 140.131,-10"/>
<polygon fill="midnightblue" stroke="midnightblue" points="114.023,-6.5001 104.023,-10 114.023,-13.5001 114.023,-6.5001"/>
</g>
<!-- Node3 -->
<g id="node3" class="node"><title>Node3</title>
<g id="a_node3"><a xlink:href="main_8cc.html#af1ccf694bcf905341f10b534e5a272fa" target="_top" xlink:title="abrir_arquivo">
<polygon fill="white" stroke="black" points="266,-19.5 266,-38.5 338,-38.5 338,-19.5 266,-19.5"/>
<text text-anchor="middle" x="302" y="-26.5" font-family="Helvetica,sans-Serif" font-size="10.00">abrir_arquivo</text>
</a>
</g>
</g>
<!-- Node2&#45;&gt;Node3 -->
<g id="edge2" class="edge"><title>Node2&#45;&gt;Node3</title>
<path fill="none" stroke="midnightblue" d="M239.736,-18.8781C248.617,-20.3454 257.619,-21.8327 265.888,-23.199"/>
<polygon fill="midnightblue" stroke="midnightblue" points="240.241,-15.4143 229.805,-17.2373 239.1,-22.3206 240.241,-15.4143"/>
</g>
<!-- Node4 -->
<g id="node4" class="node"><title>Node4</title>
<g id="a_node4"><a xlink:href="main_8cc.html#ae66f6b31b5ad750f1fe042a706a4e3d4" target="_top" xlink:title="main">
<polygon fill="white" stroke="black" points="374,-0.5 374,-19.5 412,-19.5 412,-0.5 374,-0.5"/>
<text text-anchor="middle" x="393" y="-7.5" font-family="Helvetica,sans-Serif" font-size="10.00">main</text>
</a>
</g>
</g>
<!-- Node2&#45;&gt;Node4 -->
<g id="edge4" class="edge"><title>Node2&#45;&gt;Node4</title>
<path fill="none" stroke="midnightblue" d="M239.725,-10C284.01,-10 344.194,-10 373.894,-10"/>
<polygon fill="midnightblue" stroke="midnightblue" points="239.687,-6.5001 229.687,-10 239.687,-13.5001 239.687,-6.5001"/>
</g>
<!-- Node3&#45;&gt;Node4 -->
<g id="edge3" class="edge"><title>Node3&#45;&gt;Node4</title>
<path fill="none" stroke="midnightblue" d="M348.067,-19.3789C357.24,-17.4207 366.38,-15.4694 373.929,-13.8578"/>
<polygon fill="midnightblue" stroke="midnightblue" points="347.224,-15.98 338.175,-21.4907 348.686,-22.8257 347.224,-15.98"/>
</g>
</g>
</svg>
