<?xml version="1.0" encoding="UTF-8" standalone="no"?>
<!DOCTYPE svg PUBLIC "-//W3C//DTD SVG 1.1//EN"
 "http://www.w3.org/Graphics/SVG/1.1/DTD/svg11.dtd">
<!-- Generated by graphviz version 2.36.0 (20140111.2315)
 -->
<!-- Title: destruir_menu Pages: 1 -->
<svg width="870pt" height="801pt"
 viewBox="0.00 0.00 870.00 801.16" xmlns="http://www.w3.org/2000/svg" xmlns:xlink="http://www.w3.org/1999/xlink">
<g id="graph0" class="graph" transform="scale(1 1) rotate(0) translate(4 797.158)">
<title>destruir_menu</title>
<polygon fill="white" stroke="none" points="-4,4 -4,-797.158 866,-797.158 866,4 -4,4"/>
<!-- Node1 -->
<g id="node1" class="node"><title>Node1</title>
<polygon fill="#bfbfbf" stroke="black" points="0,-389.286 0,-408.286 78,-408.286 78,-389.286 0,-389.286"/>
<text text-anchor="middle" x="39" y="-396.286" font-family="Helvetica,sans-Serif" font-size="10.00">destruir_menu</text>
</g>
<!-- Node2 -->
<g id="node2" class="node"><title>Node2</title>
<g id="a_node2"><a xlink:href="main_8cc.html#aef0e5ebaf10f94ec3baf710468b2bca8" target="_top" xlink:title="erro_insere_pre_requisito">
<polygon fill="white" stroke="black" points="114.5,-389.286 114.5,-408.286 239.5,-408.286 239.5,-389.286 114.5,-389.286"/>
<text text-anchor="middle" x="177" y="-396.286" font-family="Helvetica,sans-Serif" font-size="10.00">erro_insere_pre_requisito</text>
</a>
</g>
</g>
<!-- Node1&#45;&gt;Node2 -->
<g id="edge1" class="edge"><title>Node1&#45;&gt;Node2</title>
<path fill="none" stroke="midnightblue" d="M88.2872,-398.786C96.7324,-398.786 105.622,-398.786 114.369,-398.786"/>
<polygon fill="midnightblue" stroke="midnightblue" points="88.2455,-395.286 78.2455,-398.786 88.2455,-402.286 88.2455,-395.286"/>
</g>
<!-- Node3 -->
<g id="node3" class="node"><title>Node3</title>
<g id="a_node3"><a xlink:href="main_8cc.html#a16c89e840263b1af21caf3211b6640b2" target="_top" xlink:title="inserir_novo_pre_requisito">
<polygon fill="white" stroke="black" points="278,-389.286 278,-408.286 408,-408.286 408,-389.286 278,-389.286"/>
<text text-anchor="middle" x="343" y="-396.286" font-family="Helvetica,sans-Serif" font-size="10.00">inserir_novo_pre_requisito</text>
</a>
</g>
</g>
<!-- Node1&#45;&gt;Node3 -->
<g id="edge23" class="edge"><title>Node1&#45;&gt;Node3</title>
<path fill="none" stroke="midnightblue" d="M79.6819,-410.927C90.6885,-413.758 102.716,-416.361 114,-417.786 169.558,-424.805 184.237,-422.935 240,-417.786 260.089,-415.931 282.124,-412.062 300.556,-408.297"/>
<polygon fill="midnightblue" stroke="midnightblue" points="80.4779,-407.517 69.9113,-408.291 78.654,-414.275 80.4779,-407.517"/>
</g>
<!-- Node4 -->
<g id="node4" class="node"><title>Node4</title>
<g id="a_node4"><a xlink:href="main_8cc.html#af852bc15cf3d5217386a9bb0bf3b9abd" target="_top" xlink:title="operacoes_grafo">
<polygon fill="white" stroke="black" points="590.5,-341.286 590.5,-360.286 679.5,-360.286 679.5,-341.286 590.5,-341.286"/>
<text text-anchor="middle" x="635" y="-348.286" font-family="Helvetica,sans-Serif" font-size="10.00">operacoes_grafo</text>
</a>
</g>
</g>
<!-- Node1&#45;&gt;Node4 -->
<g id="edge44" class="edge"><title>Node1&#45;&gt;Node4</title>
<path fill="none" stroke="midnightblue" d="M64.1015,-413.524C78.1122,-421.221 96.4243,-429.839 114,-433.786 168.639,-446.056 184.062,-436.413 240,-433.786 380.955,-427.168 419.94,-430.833 554,-386.786 575.849,-379.608 599.756,-368.372 615.692,-360.364"/>
<polygon fill="midnightblue" stroke="midnightblue" points="65.5702,-410.332 55.1509,-408.412 62.0983,-416.411 65.5702,-410.332"/>
</g>
<!-- Node5 -->
<g id="node5" class="node"><title>Node5</title>
<g id="a_node5"><a xlink:href="main_8cc.html#af1ccf694bcf905341f10b534e5a272fa" target="_top" xlink:title="abrir_arquivo">
<polygon fill="white" stroke="black" points="716,-322.286 716,-341.286 788,-341.286 788,-322.286 716,-322.286"/>
<text text-anchor="middle" x="752" y="-329.286" font-family="Helvetica,sans-Serif" font-size="10.00">abrir_arquivo</text>
</a>
</g>
</g>
<!-- Node1&#45;&gt;Node5 -->
<g id="edge45" class="edge"><title>Node1&#45;&gt;Node5</title>
<path fill="none" stroke="midnightblue" d="M40.995,-378.728C44.8844,-309.281 61.5309,-80.8187 114,-34.7861 190.361,32.207 240.417,-18.7861 342,-18.7861 342,-18.7861 342,-18.7861 501,-18.7861 660.261,-18.7861 734.641,-269.244 748.559,-322.075"/>
<polygon fill="midnightblue" stroke="midnightblue" points="37.4785,-378.947 40.4436,-389.118 44.4687,-379.318 37.4785,-378.947"/>
</g>
<!-- Node6 -->
<g id="node6" class="node"><title>Node6</title>
<g id="a_node6"><a xlink:href="main_8cc.html#ae66f6b31b5ad750f1fe042a706a4e3d4" target="_top" xlink:title="main">
<polygon fill="white" stroke="black" points="824,-360.286 824,-379.286 862,-379.286 862,-360.286 824,-360.286"/>
<text text-anchor="middle" x="843" y="-367.286" font-family="Helvetica,sans-Serif" font-size="10.00">main</text>
</a>
</g>
</g>
<!-- Node1&#45;&gt;Node6 -->
<g id="edge46" class="edge"><title>Node1&#45;&gt;Node6</title>
<path fill="none" stroke="midnightblue" d="M41.1521,-418.791C45.518,-487.044 63.44,-709.048 114,-754.786 189.563,-823.142 240.107,-778.786 342,-778.786 342,-778.786 342,-778.786 636,-778.786 820.849,-778.786 839.853,-441.429 841.784,-379.493"/>
<polygon fill="midnightblue" stroke="midnightblue" points="44.63,-418.321 40.5267,-408.553 37.643,-418.748 44.63,-418.321"/>
</g>
<!-- Node7 -->
<g id="node7" class="node"><title>Node7</title>
<g id="a_node7"><a xlink:href="main_8cc.html#a5c0ceb9634231b92e0dfc9db33b727fa" target="_top" xlink:title="tela_inserir_pre_requisito">
<polygon fill="white" stroke="black" points="280.5,-313.286 280.5,-332.286 405.5,-332.286 405.5,-313.286 280.5,-313.286"/>
<text text-anchor="middle" x="343" y="-320.286" font-family="Helvetica,sans-Serif" font-size="10.00">tela_inserir_pre_requisito</text>
</a>
</g>
</g>
<!-- Node1&#45;&gt;Node7 -->
<g id="edge24" class="edge"><title>Node1&#45;&gt;Node7</title>
<path fill="none" stroke="midnightblue" d="M64.2531,-383.908C78.3125,-375.912 96.6226,-366.54 114,-360.786 168.666,-342.684 233.687,-332.936 280.277,-327.864"/>
<polygon fill="midnightblue" stroke="midnightblue" points="62.1299,-381.095 55.2626,-389.163 65.6622,-387.139 62.1299,-381.095"/>
</g>
<!-- Node8 -->
<g id="node8" class="node"><title>Node8</title>
<g id="a_node8"><a xlink:href="main_8cc.html#adb3b0c3b009c68f86673eb7bdeef601c" target="_top" xlink:title="inserir_tarefa">
<polygon fill="white" stroke="black" points="463.5,-313.286 463.5,-332.286 536.5,-332.286 536.5,-313.286 463.5,-313.286"/>
<text text-anchor="middle" x="500" y="-320.286" font-family="Helvetica,sans-Serif" font-size="10.00">inserir_tarefa</text>
</a>
</g>
</g>
<!-- Node1&#45;&gt;Node8 -->
<g id="edge25" class="edge"><title>Node1&#45;&gt;Node8</title>
<path fill="none" stroke="midnightblue" d="M53.4696,-380.936C66.8993,-364.54 89.0745,-340.992 114,-328.786 230.771,-271.604 392.344,-297.848 463.235,-313.758"/>
<polygon fill="midnightblue" stroke="midnightblue" points="50.3998,-379.176 46.9465,-389.192 55.8923,-383.515 50.3998,-379.176"/>
</g>
<!-- Node9 -->
<g id="node9" class="node"><title>Node9</title>
<g id="a_node9"><a xlink:href="main_8cc.html#acec6efd5f1ee225764d814040f142268" target="_top" xlink:title="erro_id_existente">
<polygon fill="white" stroke="black" points="131.5,-237.286 131.5,-256.286 222.5,-256.286 222.5,-237.286 131.5,-237.286"/>
<text text-anchor="middle" x="177" y="-244.286" font-family="Helvetica,sans-Serif" font-size="10.00">erro_id_existente</text>
</a>
</g>
</g>
<!-- Node1&#45;&gt;Node9 -->
<g id="edge10" class="edge"><title>Node1&#45;&gt;Node9</title>
<path fill="none" stroke="midnightblue" d="M46.5473,-379.22C56.7709,-351.46 79.054,-300.7 114,-270.786 121.278,-264.556 130.354,-259.843 139.297,-256.318"/>
<polygon fill="midnightblue" stroke="midnightblue" points="43.1387,-378.361 43.112,-388.956 49.7399,-380.69 43.1387,-378.361"/>
</g>
<!-- Node10 -->
<g id="node10" class="node"><title>Node10</title>
<g id="a_node10"><a xlink:href="main_8cc.html#a8d8002aa0f76981dad9ce30329767981" target="_top" xlink:title="edicao_tarefa">
<polygon fill="white" stroke="black" points="305.5,-199.286 305.5,-218.286 380.5,-218.286 380.5,-199.286 305.5,-199.286"/>
<text text-anchor="middle" x="343" y="-206.286" font-family="Helvetica,sans-Serif" font-size="10.00">edicao_tarefa</text>
</a>
</g>
</g>
<!-- Node1&#45;&gt;Node10 -->
<g id="edge28" class="edge"><title>Node1&#45;&gt;Node10</title>
<path fill="none" stroke="midnightblue" d="M42.0935,-378.932C47.1293,-342.189 63.5184,-264.036 114,-227.786 170.623,-187.126 256.765,-193.285 305.341,-201.179"/>
<polygon fill="midnightblue" stroke="midnightblue" points="38.6128,-378.561 40.87,-388.913 45.5608,-379.413 38.6128,-378.561"/>
</g>
<!-- Node11 -->
<g id="node11" class="node"><title>Node11</title>
<g id="a_node11"><a xlink:href="main_8cc.html#a7769e05575359d89d7467b1e46940ecf" target="_top" xlink:title="editar_tarefa">
<polygon fill="white" stroke="black" points="464.5,-190.286 464.5,-209.286 535.5,-209.286 535.5,-190.286 464.5,-190.286"/>
<text text-anchor="middle" x="500" y="-197.286" font-family="Helvetica,sans-Serif" font-size="10.00">editar_tarefa</text>
</a>
</g>
</g>
<!-- Node1&#45;&gt;Node11 -->
<g id="edge29" class="edge"><title>Node1&#45;&gt;Node11</title>
<path fill="none" stroke="midnightblue" d="M40.1287,-378.866C41.6162,-335.913 51.8859,-234.904 114,-190.786 169.531,-151.345 380.548,-180.387 464.372,-193.885"/>
<polygon fill="midnightblue" stroke="midnightblue" points="36.6239,-379.055 39.9078,-389.128 43.6222,-379.206 36.6239,-379.055"/>
</g>
<!-- Node12 -->
<g id="node12" class="node"><title>Node12</title>
<g id="a_node12"><a xlink:href="main_8cc.html#acf899fb4107a26f962c26ec5292148cd" target="_top" xlink:title="erro_id_invalido">
<polygon fill="white" stroke="black" points="301,-351.286 301,-370.286 385,-370.286 385,-351.286 301,-351.286"/>
<text text-anchor="middle" x="343" y="-358.286" font-family="Helvetica,sans-Serif" font-size="10.00">erro_id_invalido</text>
</a>
</g>
</g>
<!-- Node1&#45;&gt;Node12 -->
<g id="edge15" class="edge"><title>Node1&#45;&gt;Node12</title>
<path fill="none" stroke="midnightblue" d="M81.8728,-386.73C92.2952,-384.091 103.494,-381.56 114,-379.786 178.82,-368.844 255.121,-364.109 300.967,-362.128"/>
<polygon fill="midnightblue" stroke="midnightblue" points="80.9533,-383.352 72.166,-389.271 82.7265,-390.124 80.9533,-383.352"/>
</g>
<!-- Node13 -->
<g id="node13" class="node"><title>Node13</title>
<g id="a_node13"><a xlink:href="main_8cc.html#a8e3083a90f6cf70bdfd6abd70494c74e" target="_top" xlink:title="erro_id_inexistente">
<polygon fill="white" stroke="black" points="128,-123.286 128,-142.286 226,-142.286 226,-123.286 128,-123.286"/>
<text text-anchor="middle" x="177" y="-130.286" font-family="Helvetica,sans-Serif" font-size="10.00">erro_id_inexistente</text>
</a>
</g>
</g>
<!-- Node1&#45;&gt;Node13 -->
<g id="edge17" class="edge"><title>Node1&#45;&gt;Node13</title>
<path fill="none" stroke="midnightblue" d="M40.453,-379.009C42.5448,-333.724 53.8729,-221.444 114,-156.786 119.895,-150.447 127.657,-145.762 135.687,-142.307"/>
<polygon fill="midnightblue" stroke="midnightblue" points="36.9551,-378.89 40.0961,-389.009 43.9507,-379.14 36.9551,-378.89"/>
</g>
<!-- Node14 -->
<g id="node14" class="node"><title>Node14</title>
<g id="a_node14"><a xlink:href="main_8cc.html#ab5f698491708904442d9d4f8583cd809" target="_top" xlink:title="remover_tarefa">
<polygon fill="white" stroke="black" points="302,-85.2861 302,-104.286 384,-104.286 384,-85.2861 302,-85.2861"/>
<text text-anchor="middle" x="343" y="-92.2861" font-family="Helvetica,sans-Serif" font-size="10.00">remover_tarefa</text>
</a>
</g>
</g>
<!-- Node1&#45;&gt;Node14 -->
<g id="edge30" class="edge"><title>Node1&#45;&gt;Node14</title>
<path fill="none" stroke="midnightblue" d="M42.1917,-379.024C49.1363,-320.27 72.6698,-148.595 114,-113.786 166.408,-69.6483 251.71,-76.3663 301.781,-85.4444"/>
<polygon fill="midnightblue" stroke="midnightblue" points="38.6875,-378.861 41.0236,-389.195 45.6418,-379.66 38.6875,-378.861"/>
</g>
<!-- Node15 -->
<g id="node15" class="node"><title>Node15</title>
<g id="a_node15"><a xlink:href="main_8cc.html#ae96b9adf5e390d1a516e3fe5164714cc" target="_top" xlink:title="remover_pre_requisitos">
<polygon fill="white" stroke="black" points="284,-47.2861 284,-66.2861 402,-66.2861 402,-47.2861 284,-47.2861"/>
<text text-anchor="middle" x="343" y="-54.2861" font-family="Helvetica,sans-Serif" font-size="10.00">remover_pre_requisitos</text>
</a>
</g>
</g>
<!-- Node1&#45;&gt;Node15 -->
<g id="edge38" class="edge"><title>Node1&#45;&gt;Node15</title>
<path fill="none" stroke="midnightblue" d="M41.4866,-379.227C46.7751,-315.296 66.9358,-114.294 114,-73.7861 166.648,-28.4723 253.861,-37.1669 303.779,-47.2054"/>
<polygon fill="midnightblue" stroke="midnightblue" points="37.9977,-378.949 40.6922,-389.195 44.9756,-379.505 37.9977,-378.949"/>
</g>
<!-- Node16 -->
<g id="node16" class="node"><title>Node16</title>
<g id="a_node16"><a xlink:href="main_8cc.html#abc30d77428eefe83c569f49b7e48a7f8" target="_top" xlink:title="imprimir_em_arquivo">
<polygon fill="white" stroke="black" points="446.5,-674.286 446.5,-693.286 553.5,-693.286 553.5,-674.286 446.5,-674.286"/>
<text text-anchor="middle" x="500" y="-681.286" font-family="Helvetica,sans-Serif" font-size="10.00">imprimir_em_arquivo</text>
</a>
</g>
</g>
<!-- Node1&#45;&gt;Node16 -->
<g id="edge26" class="edge"><title>Node1&#45;&gt;Node16</title>
<path fill="none" stroke="midnightblue" d="M41.3912,-418.365C46.3818,-482.34 65.7195,-683.316 114,-721.786 226.937,-811.775 421.73,-723.808 481.228,-693.323"/>
<polygon fill="midnightblue" stroke="midnightblue" points="44.8812,-418.099 40.6443,-408.388 37.9007,-418.622 44.8812,-418.099"/>
</g>
<!-- Node17 -->
<g id="node17" class="node"><title>Node17</title>
<g id="a_node17"><a xlink:href="main_8cc.html#aa0ac4a2d1125c89ec5acc37dfde748c6" target="_top" xlink:title="ver_tarefas">
<polygon fill="white" stroke="black" points="144.5,-693.286 144.5,-712.286 209.5,-712.286 209.5,-693.286 144.5,-693.286"/>
<text text-anchor="middle" x="177" y="-700.286" font-family="Helvetica,sans-Serif" font-size="10.00">ver_tarefas</text>
</a>
</g>
</g>
<!-- Node1&#45;&gt;Node17 -->
<g id="edge31" class="edge"><title>Node1&#45;&gt;Node17</title>
<path fill="none" stroke="midnightblue" d="M42.6052,-418.55C50.6312,-476.581 76.7108,-644.845 114,-683.786 121.942,-692.08 133.398,-696.781 144.307,-699.435"/>
<polygon fill="midnightblue" stroke="midnightblue" points="46.0526,-417.924 41.2428,-408.484 39.1159,-418.863 46.0526,-417.924"/>
</g>
<!-- Node18 -->
<g id="node18" class="node"><title>Node18</title>
<g id="a_node18"><a xlink:href="main_8cc.html#a5d247f6e8ee275a8cd007f922ae2acb3" target="_top" xlink:title="visualizador_tarefas">
<polygon fill="white" stroke="black" points="448,-598.286 448,-617.286 552,-617.286 552,-598.286 448,-598.286"/>
<text text-anchor="middle" x="500" y="-605.286" font-family="Helvetica,sans-Serif" font-size="10.00">visualizador_tarefas</text>
</a>
</g>
</g>
<!-- Node1&#45;&gt;Node18 -->
<g id="edge43" class="edge"><title>Node1&#45;&gt;Node18</title>
<path fill="none" stroke="midnightblue" d="M50.2266,-417.021C62.6656,-437.528 85.5677,-470.366 114,-488.786 128.309,-498.056 393.901,-564.176 410,-569.786 434.115,-578.19 460.969,-590.011 478.809,-598.228"/>
<polygon fill="midnightblue" stroke="midnightblue" points="53.1988,-415.17 45.1235,-408.311 47.1592,-418.709 53.1988,-415.17"/>
</g>
<!-- Node19 -->
<g id="node19" class="node"><title>Node19</title>
<g id="a_node19"><a xlink:href="main_8cc.html#a4f8f29b1eba21e0b51992f8de173a582" target="_top" xlink:title="mostrar_pre_requisitos">
<polygon fill="white" stroke="black" points="119,-655.286 119,-674.286 235,-674.286 235,-655.286 119,-655.286"/>
<text text-anchor="middle" x="177" y="-662.286" font-family="Helvetica,sans-Serif" font-size="10.00">mostrar_pre_requisitos</text>
</a>
</g>
</g>
<!-- Node1&#45;&gt;Node19 -->
<g id="edge34" class="edge"><title>Node1&#45;&gt;Node19</title>
<path fill="none" stroke="midnightblue" d="M39.9823,-418.634C41.0461,-465.066 50.2951,-581.68 114,-645.786 117.888,-649.699 122.56,-652.81 127.572,-655.283"/>
<polygon fill="midnightblue" stroke="midnightblue" points="43.4795,-418.373 39.86,-408.416 36.48,-418.457 43.4795,-418.373"/>
</g>
<!-- Node20 -->
<g id="node20" class="node"><title>Node20</title>
<g id="a_node20"><a xlink:href="main_8cc.html#ab05b93d97a47c67aab51426cdad29a86" target="_top" xlink:title="ver_tarefas_concluidas">
<polygon fill="white" stroke="black" points="118.5,-617.286 118.5,-636.286 235.5,-636.286 235.5,-617.286 118.5,-617.286"/>
<text text-anchor="middle" x="177" y="-624.286" font-family="Helvetica,sans-Serif" font-size="10.00">ver_tarefas_concluidas</text>
</a>
</g>
</g>
<!-- Node1&#45;&gt;Node20 -->
<g id="edge36" class="edge"><title>Node1&#45;&gt;Node20</title>
<path fill="none" stroke="midnightblue" d="M41.2301,-418.34C44.8756,-459.417 59.1206,-555.213 114,-607.786 118.065,-611.68 122.907,-614.778 128.068,-617.242"/>
<polygon fill="midnightblue" stroke="midnightblue" points="44.7135,-417.989 40.458,-408.287 37.7341,-418.525 44.7135,-417.989"/>
</g>
<!-- Node21 -->
<g id="node21" class="node"><title>Node21</title>
<g id="a_node21"><a xlink:href="main_8cc.html#aaaa25a5b0eda0fab944a03026249b324" target="_top" xlink:title="mostrar_tarefas_filtradas">
<polygon fill="white" stroke="black" points="114.5,-579.286 114.5,-598.286 239.5,-598.286 239.5,-579.286 114.5,-579.286"/>
<text text-anchor="middle" x="177" y="-586.286" font-family="Helvetica,sans-Serif" font-size="10.00">mostrar_tarefas_filtradas</text>
</a>
</g>
</g>
<!-- Node1&#45;&gt;Node21 -->
<g id="edge39" class="edge"><title>Node1&#45;&gt;Node21</title>
<path fill="none" stroke="midnightblue" d="M43.7124,-418.679C51.1165,-453.038 70.8651,-523.756 114,-564.786 120.607,-571.071 129.04,-575.762 137.544,-579.245"/>
<polygon fill="midnightblue" stroke="midnightblue" points="47.0701,-417.624 41.6587,-408.516 40.2088,-419.011 47.0701,-417.624"/>
</g>
<!-- Node22 -->
<g id="node22" class="node"><title>Node22</title>
<g id="a_node22"><a xlink:href="main_8cc.html#adcc550070c8292efdd63f7df8bbdd58a" target="_top" xlink:title="filtrar_tarefas_completadas">
<polygon fill="white" stroke="black" points="276,-579.286 276,-598.286 410,-598.286 410,-579.286 276,-579.286"/>
<text text-anchor="middle" x="343" y="-586.286" font-family="Helvetica,sans-Serif" font-size="10.00">filtrar_tarefas_completadas</text>
</a>
</g>
</g>
<!-- Node1&#45;&gt;Node22 -->
<g id="edge42" class="edge"><title>Node1&#45;&gt;Node22</title>
<path fill="none" stroke="midnightblue" d="M45.8706,-418.061C55.4629,-446.257 77.2072,-498.462 114,-526.786 141.263,-547.774 230.696,-567.878 289.116,-579.245"/>
<polygon fill="midnightblue" stroke="midnightblue" points="49.1947,-416.965 42.7833,-408.531 42.5354,-419.123 49.1947,-416.965"/>
</g>
<!-- Node2&#45;&gt;Node3 -->
<g id="edge2" class="edge"><title>Node2&#45;&gt;Node3</title>
<path fill="none" stroke="midnightblue" d="M249.65,-398.786C259.061,-398.786 268.657,-398.786 277.931,-398.786"/>
<polygon fill="midnightblue" stroke="midnightblue" points="249.534,-395.286 239.534,-398.786 249.534,-402.286 249.534,-395.286"/>
</g>
<!-- Node2&#45;&gt;Node7 -->
<g id="edge7" class="edge"><title>Node2&#45;&gt;Node7</title>
<path fill="none" stroke="midnightblue" d="M200.445,-383.578C219.788,-371.006 248.81,-353.396 276,-341.786 284.444,-338.181 293.779,-335.025 302.706,-332.375"/>
<polygon fill="midnightblue" stroke="midnightblue" points="198.45,-380.7 192.028,-389.127 202.304,-386.544 198.45,-380.7"/>
</g>
<!-- Node3&#45;&gt;Node4 -->
<g id="edge3" class="edge"><title>Node3&#45;&gt;Node4</title>
<path fill="none" stroke="midnightblue" d="M411.666,-387.586C466.725,-378.473 542.815,-365.879 590.182,-358.039"/>
<polygon fill="midnightblue" stroke="midnightblue" points="410.936,-384.159 401.641,-389.245 412.079,-391.065 410.936,-384.159"/>
</g>
<!-- Node4&#45;&gt;Node5 -->
<g id="edge4" class="edge"><title>Node4&#45;&gt;Node5</title>
<path fill="none" stroke="midnightblue" d="M689.736,-341.908C698.617,-340.441 707.619,-338.953 715.888,-337.587"/>
<polygon fill="midnightblue" stroke="midnightblue" points="689.1,-338.465 679.805,-343.549 690.241,-345.372 689.1,-338.465"/>
</g>
<!-- Node4&#45;&gt;Node6 -->
<g id="edge6" class="edge"><title>Node4&#45;&gt;Node6</title>
<path fill="none" stroke="midnightblue" d="M689.725,-355.741C734.01,-359.826 794.194,-365.377 823.894,-368.116"/>
<polygon fill="midnightblue" stroke="midnightblue" points="689.967,-352.249 679.687,-354.816 689.324,-359.219 689.967,-352.249"/>
</g>
<!-- Node5&#45;&gt;Node6 -->
<g id="edge5" class="edge"><title>Node5&#45;&gt;Node6</title>
<path fill="none" stroke="midnightblue" d="M785.025,-345.46C798.037,-351.015 812.597,-357.232 823.741,-361.99"/>
<polygon fill="midnightblue" stroke="midnightblue" points="786.03,-342.083 775.458,-341.375 783.281,-348.521 786.03,-342.083"/>
</g>
<!-- Node7&#45;&gt;Node8 -->
<g id="edge8" class="edge"><title>Node7&#45;&gt;Node8</title>
<path fill="none" stroke="midnightblue" d="M415.902,-322.786C432.393,-322.786 449.223,-322.786 463.385,-322.786"/>
<polygon fill="midnightblue" stroke="midnightblue" points="415.706,-319.286 405.705,-322.786 415.705,-326.286 415.706,-319.286"/>
</g>
<!-- Node8&#45;&gt;Node4 -->
<g id="edge9" class="edge"><title>Node8&#45;&gt;Node4</title>
<path fill="none" stroke="midnightblue" d="M546.619,-332.39C560.718,-335.358 576.209,-338.62 590.183,-341.562"/>
<polygon fill="midnightblue" stroke="midnightblue" points="547.148,-328.925 536.642,-330.29 545.706,-335.775 547.148,-328.925"/>
</g>
<!-- Node9&#45;&gt;Node8 -->
<g id="edge11" class="edge"><title>Node9&#45;&gt;Node8</title>
<path fill="none" stroke="midnightblue" d="M232.926,-245.985C280.81,-246.797 351.552,-251.681 410,-270.786 439.597,-280.461 470.076,-301.007 486.566,-313.176"/>
<polygon fill="midnightblue" stroke="midnightblue" points="232.809,-242.483 222.769,-245.868 232.728,-249.483 232.809,-242.483"/>
</g>
<!-- Node9&#45;&gt;Node10 -->
<g id="edge12" class="edge"><title>Node9&#45;&gt;Node10</title>
<path fill="none" stroke="midnightblue" d="M229.306,-234.898C253.975,-229.182 282.976,-222.462 305.38,-217.271"/>
<polygon fill="midnightblue" stroke="midnightblue" points="228.336,-231.53 219.384,-237.197 229.916,-238.349 228.336,-231.53"/>
</g>
<!-- Node10&#45;&gt;Node11 -->
<g id="edge13" class="edge"><title>Node10&#45;&gt;Node11</title>
<path fill="none" stroke="midnightblue" d="M390.9,-206.063C414.551,-204.69 442.733,-203.053 464.391,-201.796"/>
<polygon fill="midnightblue" stroke="midnightblue" points="390.513,-202.579 380.733,-206.653 390.919,-209.568 390.513,-202.579"/>
</g>
<!-- Node11&#45;&gt;Node4 -->
<g id="edge14" class="edge"><title>Node11&#45;&gt;Node4</title>
<path fill="none" stroke="midnightblue" d="M516.499,-217.383C544.671,-249.368 603.395,-316.039 625.414,-341.038"/>
<polygon fill="midnightblue" stroke="midnightblue" points="518.963,-214.884 509.727,-209.694 513.71,-219.511 518.963,-214.884"/>
</g>
<!-- Node12&#45;&gt;Node8 -->
<g id="edge16" class="edge"><title>Node12&#45;&gt;Node8</title>
<path fill="none" stroke="midnightblue" d="M392.965,-348.782C415.796,-343.184 442.467,-336.646 463.349,-331.526"/>
<polygon fill="midnightblue" stroke="midnightblue" points="391.992,-345.417 383.113,-351.197 393.659,-352.215 391.992,-345.417"/>
</g>
<!-- Node13&#45;&gt;Node11 -->
<g id="edge18" class="edge"><title>Node13&#45;&gt;Node11</title>
<path fill="none" stroke="midnightblue" d="M236.125,-133.254C283.694,-134.947 352.297,-140.407 410,-156.786 437.238,-164.518 466.337,-180.146 483.583,-190.28"/>
<polygon fill="midnightblue" stroke="midnightblue" points="236.111,-129.752 226.007,-132.94 235.893,-136.749 236.111,-129.752"/>
</g>
<!-- Node13&#45;&gt;Node14 -->
<g id="edge19" class="edge"><title>Node13&#45;&gt;Node14</title>
<path fill="none" stroke="midnightblue" d="M229.144,-120.936C252.542,-115.514 279.863,-109.184 301.763,-104.109"/>
<polygon fill="midnightblue" stroke="midnightblue" points="228.336,-117.53 219.384,-123.197 229.916,-124.349 228.336,-117.53"/>
</g>
<!-- Node13&#45;&gt;Node15 -->
<g id="edge21" class="edge"><title>Node13&#45;&gt;Node15</title>
<path fill="none" stroke="midnightblue" d="M200.445,-117.578C219.788,-105.006 248.81,-87.396 276,-75.7861 284.444,-72.1808 293.779,-69.0253 302.706,-66.3754"/>
<polygon fill="midnightblue" stroke="midnightblue" points="198.45,-114.7 192.028,-123.127 202.304,-120.544 198.45,-114.7"/>
</g>
<!-- Node14&#45;&gt;Node4 -->
<g id="edge20" class="edge"><title>Node14&#45;&gt;Node4</title>
<path fill="none" stroke="midnightblue" d="M394.24,-104.412C440.759,-115.629 509.297,-138.313 554,-180.786 603.895,-228.192 625.888,-312.94 632.078,-341.269"/>
<polygon fill="midnightblue" stroke="midnightblue" points="394.906,-100.974 384.374,-102.125 393.325,-107.793 394.906,-100.974"/>
</g>
<!-- Node15&#45;&gt;Node4 -->
<g id="edge22" class="edge"><title>Node15&#45;&gt;Node4</title>
<path fill="none" stroke="midnightblue" d="M412.479,-59.9223C457.949,-65.4986 516.042,-79.8326 554,-115.786 622.212,-180.396 632.263,-305.379 633.744,-341.06"/>
<polygon fill="midnightblue" stroke="midnightblue" points="412.718,-56.4274 402.392,-58.8018 411.945,-63.3846 412.718,-56.4274"/>
</g>
<!-- Node16&#45;&gt;Node4 -->
<g id="edge27" class="edge"><title>Node16&#45;&gt;Node4</title>
<path fill="none" stroke="midnightblue" d="M520.492,-667.148C531.732,-656.609 545.315,-642.111 554,-626.786 607.869,-531.732 628.118,-397.325 632.845,-360.459"/>
<polygon fill="midnightblue" stroke="midnightblue" points="517.896,-664.776 512.824,-674.078 522.59,-669.969 517.896,-664.776"/>
</g>
<!-- Node17&#45;&gt;Node18 -->
<g id="edge32" class="edge"><title>Node17&#45;&gt;Node18</title>
<path fill="none" stroke="midnightblue" d="M219.683,-697.769C266.88,-691.268 345.584,-677.931 410,-654.786 437.462,-644.919 466.969,-627.924 484.166,-617.3"/>
<polygon fill="midnightblue" stroke="midnightblue" points="218.982,-694.331 209.535,-699.128 219.911,-701.269 218.982,-694.331"/>
</g>
<!-- Node18&#45;&gt;Node4 -->
<g id="edge33" class="edge"><title>Node18&#45;&gt;Node4</title>
<path fill="none" stroke="midnightblue" d="M510.672,-589.097C536.979,-538.262 609.184,-398.739 628.944,-360.557"/>
<polygon fill="midnightblue" stroke="midnightblue" points="507.539,-587.535 506.051,-598.025 513.756,-590.753 507.539,-587.535"/>
</g>
<!-- Node19&#45;&gt;Node18 -->
<g id="edge35" class="edge"><title>Node19&#45;&gt;Node18</title>
<path fill="none" stroke="midnightblue" d="M244.983,-656.905C291.5,-650.96 354.795,-641.931 410,-630.786 428.459,-627.06 448.811,-621.882 465.388,-617.382"/>
<polygon fill="midnightblue" stroke="midnightblue" points="244.507,-653.437 235.025,-658.164 245.384,-660.382 244.507,-653.437"/>
</g>
<!-- Node20&#45;&gt;Node18 -->
<g id="edge37" class="edge"><title>Node20&#45;&gt;Node18</title>
<path fill="none" stroke="midnightblue" d="M245.954,-622.764C306.294,-619.192 393.143,-614.052 447.792,-610.817"/>
<polygon fill="midnightblue" stroke="midnightblue" points="245.535,-619.283 235.759,-623.367 245.948,-626.27 245.535,-619.283"/>
</g>
<!-- Node21&#45;&gt;Node22 -->
<g id="edge40" class="edge"><title>Node21&#45;&gt;Node22</title>
<path fill="none" stroke="midnightblue" d="M249.624,-588.786C258.3,-588.786 267.134,-588.786 275.729,-588.786"/>
<polygon fill="midnightblue" stroke="midnightblue" points="249.534,-585.286 239.534,-588.786 249.534,-592.286 249.534,-585.286"/>
</g>
<!-- Node22&#45;&gt;Node18 -->
<g id="edge41" class="edge"><title>Node22&#45;&gt;Node18</title>
<path fill="none" stroke="midnightblue" d="M420.21,-598.128C429.482,-599.265 438.779,-600.404 447.569,-601.482"/>
<polygon fill="midnightblue" stroke="midnightblue" points="420.535,-594.642 410.184,-596.899 419.683,-601.59 420.535,-594.642"/>
</g>
</g>
</svg>
