<?xml version="1.0" encoding="UTF-8" standalone="no"?>
<!DOCTYPE svg PUBLIC "-//W3C//DTD SVG 1.1//EN"
 "http://www.w3.org/Graphics/SVG/1.1/DTD/svg11.dtd">
<!-- Generated by graphviz version 2.36.0 (20140111.2315)
 -->
<!-- Title: remover_pre_requisitos Pages: 1 -->
<svg width="434pt" height="47pt"
 viewBox="0.00 0.00 434.00 47.00" xmlns="http://www.w3.org/2000/svg" xmlns:xlink="http://www.w3.org/1999/xlink">
<g id="graph0" class="graph" transform="scale(1 1) rotate(0) translate(4 43)">
<title>remover_pre_requisitos</title>
<polygon fill="white" stroke="none" points="-4,4 -4,-43 430,-43 430,4 -4,4"/>
<!-- Node1 -->
<g id="node1" class="node"><title>Node1</title>
<polygon fill="#bfbfbf" stroke="black" points="0,-0.5 0,-19.5 118,-19.5 118,-0.5 0,-0.5"/>
<text text-anchor="middle" x="59" y="-7.5" font-family="Helvetica,sans-Serif" font-size="10.00">remover_pre_requisitos</text>
</g>
<!-- Node2 -->
<g id="node2" class="node"><title>Node2</title>
<g id="a_node2"><a xlink:href="main_8cc.html#af852bc15cf3d5217386a9bb0bf3b9abd" target="_top" xlink:title="operacoes_grafo">
<polygon fill="white" stroke="black" points="154.5,-0.5 154.5,-19.5 243.5,-19.5 243.5,-0.5 154.5,-0.5"/>
<text text-anchor="middle" x="199" y="-7.5" font-family="Helvetica,sans-Serif" font-size="10.00">operacoes_grafo</text>
</a>
</g>
</g>
<!-- Node1&#45;&gt;Node2 -->
<g id="edge1" class="edge"><title>Node1&#45;&gt;Node2</title>
<path fill="none" stroke="midnightblue" d="M128.391,-10C137.172,-10 145.965,-10 154.203,-10"/>
<polygon fill="midnightblue" stroke="midnightblue" points="128.124,-6.5001 118.124,-10 128.124,-13.5001 128.124,-6.5001"/>
</g>
<!-- Node3 -->
<g id="node3" class="node"><title>Node3</title>
<g id="a_node3"><a xlink:href="main_8cc.html#af1ccf694bcf905341f10b534e5a272fa" target="_top" xlink:title="abrir_arquivo">
<polygon fill="white" stroke="black" points="280,-19.5 280,-38.5 352,-38.5 352,-19.5 280,-19.5"/>
<text text-anchor="middle" x="316" y="-26.5" font-family="Helvetica,sans-Serif" font-size="10.00">abrir_arquivo</text>
</a>
</g>
</g>
<!-- Node2&#45;&gt;Node3 -->
<g id="edge2" class="edge"><title>Node2&#45;&gt;Node3</title>
<path fill="none" stroke="midnightblue" d="M253.736,-18.8781C262.617,-20.3454 271.619,-21.8327 279.888,-23.199"/>
<polygon fill="midnightblue" stroke="midnightblue" points="254.241,-15.4143 243.805,-17.2373 253.1,-22.3206 254.241,-15.4143"/>
</g>
<!-- Node4 -->
<g id="node4" class="node"><title>Node4</title>
<g id="a_node4"><a xlink:href="main_8cc.html#ae66f6b31b5ad750f1fe042a706a4e3d4" target="_top" xlink:title="main">
<polygon fill="white" stroke="black" points="388,-0.5 388,-19.5 426,-19.5 426,-0.5 388,-0.5"/>
<text text-anchor="middle" x="407" y="-7.5" font-family="Helvetica,sans-Serif" font-size="10.00">main</text>
</a>
</g>
</g>
<!-- Node2&#45;&gt;Node4 -->
<g id="edge4" class="edge"><title>Node2&#45;&gt;Node4</title>
<path fill="none" stroke="midnightblue" d="M253.725,-10C298.01,-10 358.194,-10 387.894,-10"/>
<polygon fill="midnightblue" stroke="midnightblue" points="253.687,-6.5001 243.687,-10 253.687,-13.5001 253.687,-6.5001"/>
</g>
<!-- Node3&#45;&gt;Node4 -->
<g id="edge3" class="edge"><title>Node3&#45;&gt;Node4</title>
<path fill="none" stroke="midnightblue" d="M362.067,-19.3789C371.24,-17.4207 380.38,-15.4694 387.929,-13.8578"/>
<polygon fill="midnightblue" stroke="midnightblue" points="361.224,-15.98 352.175,-21.4907 362.686,-22.8257 361.224,-15.98"/>
</g>
</g>
</svg>
