<?xml version="1.0" encoding="UTF-8" standalone="no"?>
<!DOCTYPE svg PUBLIC "-//W3C//DTD SVG 1.1//EN"
 "http://www.w3.org/Graphics/SVG/1.1/DTD/svg11.dtd">
<!-- Generated by graphviz version 2.36.0 (20140111.2315)
 -->
<!-- Title: imprimirRotulo Pages: 1 -->
<!--zoomable 677 -->
<svg id="main" version="1.1" xmlns="http://www.w3.org/2000/svg" xmlns:xlink="http://www.w3.org/1999/xlink" xml:space="preserve" onload="init(evt)">
<style type="text/css"><![CDATA[
.edge:hover path { stroke: red; }
.edge:hover polygon { stroke: red; fill: red; }
]]></style>
<script type="text/javascript"><![CDATA[
var edges = document.getElementsByTagName('g');
if (edges && edges.length) {
  for (var i=0;i<edges.length;i++) {
    if (edges[i].id.substr(0,4)=='edge') {
      edges[i].setAttribute('class','edge');
    }
  }
}
]]></script>
        <defs>
                <circle id="rim" cx="0" cy="0" r="7"/>
                <circle id="rim2" cx="0" cy="0" r="3.5"/>
                <g id="zoomPlus">
                        <use xlink:href="#rim" fill="#404040">
                                <set attributeName="fill" to="#808080" begin="zoomplus.mouseover" end="zoomplus.mouseout"/>
                        </use>
                        <path d="M-4,0h8M0,-4v8" fill="none" stroke="white" stroke-width="1.5" pointer-events="none"/>
                </g>
                <g id="zoomMin">
                        <use xlink:href="#rim" fill="#404040">
                                <set attributeName="fill" to="#808080" begin="zoomminus.mouseover" end="zoomminus.mouseout"/>
                        </use>
                        <path d="M-4,0h8" fill="none" stroke="white" stroke-width="1.5" pointer-events="none"/>
                </g>
                <g id="dirArrow">
                        <path fill="none" stroke="white" stroke-width="1.5" d="M0,-3.0v7 M-2.5,-0.5L0,-3.0L2.5,-0.5"/>
                </g>
               <g id="resetDef">
                       <use xlink:href="#rim2" fill="#404040">
                               <set attributeName="fill" to="#808080" begin="reset.mouseover" end="reset.mouseout"/>
                       </use>
               </g>
        </defs>

<script type="text/javascript">
var viewWidth = 882;
var viewHeight = 677;
var sectionId = 'dynsection-18';
</script>
<script xlink:href="svgpan.js"/>
<svg id="graph" class="graph">
<g id="viewport">
<title>imprimirRotulo</title>
<polygon fill="white" stroke="none" points="-4,4 -4,-672.959 878,-672.959 878,4 -4,4"/>
<!-- Node1 -->
<g id="node1" class="node"><title>Node1</title>
<polygon fill="#bfbfbf" stroke="black" points="0,-322.093 0,-341.093 80,-341.093 80,-322.093 0,-322.093"/>
<text text-anchor="middle" x="40" y="-329.093" font-family="Helvetica,sans-Serif" font-size="10.00">imprimirRotulo</text>
</g>
<!-- Node2 -->
<g id="node2" class="node"><title>Node2</title>
<g id="a_node2"><a xlink:href="main_8cc.html#af680447ac3023912e86df70f144373d8" target="_top" xlink:title="importar_de_arquivo">
<polygon fill="white" stroke="black" points="588,-578.093 588,-597.093 692,-597.093 692,-578.093 588,-578.093"/>
<text text-anchor="middle" x="640" y="-585.093" font-family="Helvetica,sans-Serif" font-size="10.00">importar_de_arquivo</text>
</a>
</g>
</g>
<!-- Node1&#45;&gt;Node2 -->
<g id="edge1" class="edge"><title>Node1&#45;&gt;Node2</title>
<path fill="none" stroke="midnightblue" d="M43.279,-351.456C50.4059,-409.703 74.3183,-578.019 116,-610.593 271.936,-732.456 540.987,-630.369 617.905,-597.142"/>
<polygon fill="midnightblue" stroke="midnightblue" points="46.7333,-350.864 42.0771,-341.347 39.7823,-351.691 46.7333,-350.864"/>
</g>
<!-- Node4 -->
<g id="node4" class="node"><title>Node4</title>
<g id="a_node4"><a xlink:href="main_8cc.html#aef0e5ebaf10f94ec3baf710468b2bca8" target="_top" xlink:title="erro_insere_pre_requisito">
<polygon fill="white" stroke="black" points="116.5,-398.093 116.5,-417.093 241.5,-417.093 241.5,-398.093 116.5,-398.093"/>
<text text-anchor="middle" x="179" y="-405.093" font-family="Helvetica,sans-Serif" font-size="10.00">erro_insere_pre_requisito</text>
</a>
</g>
</g>
<!-- Node1&#45;&gt;Node4 -->
<g id="edge3" class="edge"><title>Node1&#45;&gt;Node4</title>
<path fill="none" stroke="midnightblue" d="M61.4473,-347.752C76.069,-358.802 96.5274,-373.262 116,-383.593 126.502,-389.165 138.59,-394.138 149.287,-398.093"/>
<polygon fill="midnightblue" stroke="midnightblue" points="63.2198,-344.7 53.1585,-341.38 58.9534,-350.25 63.2198,-344.7"/>
</g>
<!-- Node5 -->
<g id="node5" class="node"><title>Node5</title>
<g id="a_node5"><a xlink:href="main_8cc.html#a16c89e840263b1af21caf3211b6640b2" target="_top" xlink:title="inserir_novo_pre_requisito">
<polygon fill="white" stroke="black" points="278,-398.093 278,-417.093 408,-417.093 408,-398.093 278,-398.093"/>
<text text-anchor="middle" x="343" y="-405.093" font-family="Helvetica,sans-Serif" font-size="10.00">inserir_novo_pre_requisito</text>
</a>
</g>
</g>
<!-- Node1&#45;&gt;Node5 -->
<g id="edge23" class="edge"><title>Node1&#45;&gt;Node5</title>
<path fill="none" stroke="midnightblue" d="M49.3258,-350.285C60.6736,-373.157 83.3847,-410.788 116,-426.593 183.5,-459.304 275.688,-432.811 318.443,-417.112"/>
<polygon fill="midnightblue" stroke="midnightblue" points="52.4779,-348.763 45.0392,-341.219 46.1496,-351.755 52.4779,-348.763"/>
</g>
<!-- Node7 -->
<g id="node7" class="node"><title>Node7</title>
<g id="a_node7"><a xlink:href="main_8cc.html#af1ccf694bcf905341f10b534e5a272fa" target="_top" xlink:title="abrir_arquivo">
<polygon fill="white" stroke="black" points="728,-303.093 728,-322.093 800,-322.093 800,-303.093 728,-303.093"/>
<text text-anchor="middle" x="764" y="-310.093" font-family="Helvetica,sans-Serif" font-size="10.00">abrir_arquivo</text>
</a>
</g>
</g>
<!-- Node1&#45;&gt;Node7 -->
<g id="edge41" class="edge"><title>Node1&#45;&gt;Node7</title>
<path fill="none" stroke="midnightblue" d="M43.0635,-311.866C49.79,-251.647 73.155,-72.0823 116,-35.5932 192.769,29.7874 241.163,-15.5932 342,-15.5932 342,-15.5932 342,-15.5932 499,-15.5932 656.638,-15.5932 743.195,-252.212 759.972,-303.048"/>
<polygon fill="midnightblue" stroke="midnightblue" points="39.5684,-311.632 41.9696,-321.951 46.5276,-312.387 39.5684,-311.632"/>
</g>
<!-- Node8 -->
<g id="node8" class="node"><title>Node8</title>
<g id="a_node8"><a xlink:href="main_8cc.html#a5c0ceb9634231b92e0dfc9db33b727fa" target="_top" xlink:title="tela_inserir_pre_requisito">
<polygon fill="white" stroke="black" points="280.5,-360.093 280.5,-379.093 405.5,-379.093 405.5,-360.093 280.5,-360.093"/>
<text text-anchor="middle" x="343" y="-367.093" font-family="Helvetica,sans-Serif" font-size="10.00">tela_inserir_pre_requisito</text>
</a>
</g>
</g>
<!-- Node1&#45;&gt;Node8 -->
<g id="edge26" class="edge"><title>Node1&#45;&gt;Node8</title>
<path fill="none" stroke="midnightblue" d="M90.1389,-341.339C98.739,-342.88 107.616,-344.367 116,-345.593 171.439,-353.698 234.911,-360.196 280.446,-364.376"/>
<polygon fill="midnightblue" stroke="midnightblue" points="90.6842,-337.88 80.2165,-339.516 89.4198,-344.765 90.6842,-337.88"/>
</g>
<!-- Node9 -->
<g id="node9" class="node"><title>Node9</title>
<g id="a_node9"><a xlink:href="main_8cc.html#adb3b0c3b009c68f86673eb7bdeef601c" target="_top" xlink:title="inserir_tarefa">
<polygon fill="white" stroke="black" points="461.5,-322.093 461.5,-341.093 534.5,-341.093 534.5,-322.093 461.5,-322.093"/>
<text text-anchor="middle" x="498" y="-329.093" font-family="Helvetica,sans-Serif" font-size="10.00">inserir_tarefa</text>
</a>
</g>
</g>
<!-- Node1&#45;&gt;Node9 -->
<g id="edge27" class="edge"><title>Node1&#45;&gt;Node9</title>
<path fill="none" stroke="midnightblue" d="M90.5062,-331.593C183.166,-331.593 380.704,-331.593 461.47,-331.593"/>
<polygon fill="midnightblue" stroke="midnightblue" points="90.273,-328.093 80.273,-331.593 90.2729,-335.093 90.273,-328.093"/>
</g>
<!-- Node10 -->
<g id="node10" class="node"><title>Node10</title>
<g id="a_node10"><a xlink:href="main_8cc.html#acec6efd5f1ee225764d814040f142268" target="_top" xlink:title="erro_id_existente">
<polygon fill="white" stroke="black" points="133.5,-284.093 133.5,-303.093 224.5,-303.093 224.5,-284.093 133.5,-284.093"/>
<text text-anchor="middle" x="179" y="-291.093" font-family="Helvetica,sans-Serif" font-size="10.00">erro_id_existente</text>
</a>
</g>
</g>
<!-- Node1&#45;&gt;Node10 -->
<g id="edge12" class="edge"><title>Node1&#45;&gt;Node10</title>
<path fill="none" stroke="midnightblue" d="M85.4108,-319.275C104.234,-314.054 125.838,-308.062 143.44,-303.179"/>
<polygon fill="midnightblue" stroke="midnightblue" points="84.2716,-315.959 75.5709,-322.004 86.1426,-322.704 84.2716,-315.959"/>
</g>
<!-- Node11 -->
<g id="node11" class="node"><title>Node11</title>
<g id="a_node11"><a xlink:href="main_8cc.html#a8d8002aa0f76981dad9ce30329767981" target="_top" xlink:title="edicao_tarefa">
<polygon fill="white" stroke="black" points="305.5,-230.093 305.5,-249.093 380.5,-249.093 380.5,-230.093 305.5,-230.093"/>
<text text-anchor="middle" x="343" y="-237.093" font-family="Helvetica,sans-Serif" font-size="10.00">edicao_tarefa</text>
</a>
</g>
</g>
<!-- Node1&#45;&gt;Node11 -->
<g id="edge30" class="edge"><title>Node1&#45;&gt;Node11</title>
<path fill="none" stroke="midnightblue" d="M47.9017,-312.461C58.2475,-287.012 80.4477,-243.09 116,-224.593 181.93,-190.292 273.694,-214.815 317.21,-230"/>
<polygon fill="midnightblue" stroke="midnightblue" points="44.6279,-311.223 44.2967,-321.813 51.1594,-313.741 44.6279,-311.223"/>
</g>
<!-- Node12 -->
<g id="node12" class="node"><title>Node12</title>
<g id="a_node12"><a xlink:href="main_8cc.html#a7769e05575359d89d7467b1e46940ecf" target="_top" xlink:title="editar_tarefa">
<polygon fill="white" stroke="black" points="462.5,-189.093 462.5,-208.093 533.5,-208.093 533.5,-189.093 462.5,-189.093"/>
<text text-anchor="middle" x="498" y="-196.093" font-family="Helvetica,sans-Serif" font-size="10.00">editar_tarefa</text>
</a>
</g>
</g>
<!-- Node1&#45;&gt;Node12 -->
<g id="edge31" class="edge"><title>Node1&#45;&gt;Node12</title>
<path fill="none" stroke="midnightblue" d="M45.9268,-311.924C54.5172,-282.317 75.3353,-227.253 116,-203.593 229.069,-137.806 394.796,-170.672 464.361,-189.034"/>
<polygon fill="midnightblue" stroke="midnightblue" points="42.4592,-311.338 43.2173,-321.906 49.2147,-313.172 42.4592,-311.338"/>
</g>
<!-- Node13 -->
<g id="node13" class="node"><title>Node13</title>
<g id="a_node13"><a xlink:href="main_8cc.html#a8e3083a90f6cf70bdfd6abd70494c74e" target="_top" xlink:title="erro_id_inexistente">
<polygon fill="white" stroke="black" points="130,-120.093 130,-139.093 228,-139.093 228,-120.093 130,-120.093"/>
<text text-anchor="middle" x="179" y="-127.093" font-family="Helvetica,sans-Serif" font-size="10.00">erro_id_inexistente</text>
</a>
</g>
</g>
<!-- Node1&#45;&gt;Node13 -->
<g id="edge17" class="edge"><title>Node1&#45;&gt;Node13</title>
<path fill="none" stroke="midnightblue" d="M44.1313,-311.793C50.8565,-275.576 69.9768,-198.281 116,-153.593 122.459,-147.322 130.738,-142.644 139.128,-139.171"/>
<polygon fill="midnightblue" stroke="midnightblue" points="40.6189,-311.565 42.365,-322.015 47.5167,-312.757 40.6189,-311.565"/>
</g>
<!-- Node14 -->
<g id="node14" class="node"><title>Node14</title>
<g id="a_node14"><a xlink:href="main_8cc.html#ab5f698491708904442d9d4f8583cd809" target="_top" xlink:title="remover_tarefa">
<polygon fill="white" stroke="black" points="302,-82.0932 302,-101.093 384,-101.093 384,-82.0932 302,-82.0932"/>
<text text-anchor="middle" x="343" y="-89.0932" font-family="Helvetica,sans-Serif" font-size="10.00">remover_tarefa</text>
</a>
</g>
</g>
<!-- Node1&#45;&gt;Node14 -->
<g id="edge32" class="edge"><title>Node1&#45;&gt;Node14</title>
<path fill="none" stroke="midnightblue" d="M41.0233,-312.021C42.2448,-267.903 51.9968,-160.652 116,-110.593 169.19,-68.9913 252.542,-74.6024 301.771,-82.8391"/>
<polygon fill="midnightblue" stroke="midnightblue" points="37.5237,-311.974 40.868,-322.027 44.5228,-312.083 37.5237,-311.974"/>
</g>
<!-- Node15 -->
<g id="node15" class="node"><title>Node15</title>
<g id="a_node15"><a xlink:href="main_8cc.html#ae96b9adf5e390d1a516e3fe5164714cc" target="_top" xlink:title="remover_pre_requisitos">
<polygon fill="white" stroke="black" points="284,-44.0932 284,-63.0932 402,-63.0932 402,-44.0932 284,-44.0932"/>
<text text-anchor="middle" x="343" y="-51.0932" font-family="Helvetica,sans-Serif" font-size="10.00">remover_pre_requisitos</text>
</a>
</g>
</g>
<!-- Node1&#45;&gt;Node15 -->
<g id="edge40" class="edge"><title>Node1&#45;&gt;Node15</title>
<path fill="none" stroke="midnightblue" d="M43.8333,-311.926C52.1538,-257.104 78.3237,-104.567 116,-73.5932 166.965,-31.6939 247.989,-36.0617 297.919,-44.089"/>
<polygon fill="midnightblue" stroke="midnightblue" points="40.3349,-311.657 42.331,-322.062 47.2593,-312.684 40.3349,-311.657"/>
</g>
<!-- Node16 -->
<g id="node16" class="node"><title>Node16</title>
<g id="a_node16"><a xlink:href="main_8cc.html#a5f90fb7a7aa9c2393d70b4f95d675955" target="_top" xlink:title="tela_inserir_pre_requisito\l_edicao">
<polygon fill="white" stroke="black" points="116.5,-234.593 116.5,-264.593 241.5,-264.593 241.5,-234.593 116.5,-234.593"/>
<text text-anchor="start" x="124.5" y="-252.593" font-family="Helvetica,sans-Serif" font-size="10.00">tela_inserir_pre_requisito</text>
<text text-anchor="middle" x="179" y="-241.593" font-family="Helvetica,sans-Serif" font-size="10.00">_edicao</text>
</a>
</g>
</g>
<!-- Node1&#45;&gt;Node16 -->
<g id="edge24" class="edge"><title>Node1&#45;&gt;Node16</title>
<path fill="none" stroke="midnightblue" d="M59.8134,-315.032C74.416,-302.756 95.5536,-286.207 116,-274.593 122.358,-270.982 129.341,-267.634 136.257,-264.638"/>
<polygon fill="midnightblue" stroke="midnightblue" points="57.3473,-312.536 52.0254,-321.697 61.8987,-317.854 57.3473,-312.536"/>
</g>
<!-- Node17 -->
<g id="node17" class="node"><title>Node17</title>
<g id="a_node17"><a xlink:href="main_8cc.html#abc30d77428eefe83c569f49b7e48a7f8" target="_top" xlink:title="imprimir_em_arquivo">
<polygon fill="white" stroke="black" points="444.5,-536.093 444.5,-555.093 551.5,-555.093 551.5,-536.093 444.5,-536.093"/>
<text text-anchor="middle" x="498" y="-543.093" font-family="Helvetica,sans-Serif" font-size="10.00">imprimir_em_arquivo</text>
</a>
</g>
</g>
<!-- Node1&#45;&gt;Node17 -->
<g id="edge28" class="edge"><title>Node1&#45;&gt;Node17</title>
<path fill="none" stroke="midnightblue" d="M43.9493,-351.312C52.4004,-404.857 78.526,-550.809 116,-578.593 229.6,-662.82 417.92,-584.043 477.978,-555.203"/>
<polygon fill="midnightblue" stroke="midnightblue" points="47.3987,-350.715 42.4165,-341.365 40.4804,-351.781 47.3987,-350.715"/>
</g>
<!-- Node18 -->
<g id="node18" class="node"><title>Node18</title>
<g id="a_node18"><a xlink:href="main_8cc.html#aa0ac4a2d1125c89ec5acc37dfde748c6" target="_top" xlink:title="ver_tarefas">
<polygon fill="white" stroke="black" points="146.5,-474.093 146.5,-493.093 211.5,-493.093 211.5,-474.093 146.5,-474.093"/>
<text text-anchor="middle" x="179" y="-481.093" font-family="Helvetica,sans-Serif" font-size="10.00">ver_tarefas</text>
</a>
</g>
</g>
<!-- Node1&#45;&gt;Node18 -->
<g id="edge33" class="edge"><title>Node1&#45;&gt;Node18</title>
<path fill="none" stroke="midnightblue" d="M47.7075,-351.16C58.1571,-378.92 80.8476,-429.68 116,-459.593 124.702,-466.999 135.946,-472.266 146.464,-475.941"/>
<polygon fill="midnightblue" stroke="midnightblue" points="50.8803,-349.641 44.1928,-341.423 44.2962,-352.018 50.8803,-349.641"/>
</g>
<!-- Node20 -->
<g id="node20" class="node"><title>Node20</title>
<g id="a_node20"><a xlink:href="main_8cc.html#a4f8f29b1eba21e0b51992f8de173a582" target="_top" xlink:title="mostrar_pre_requisitos">
<polygon fill="white" stroke="black" points="121,-550.093 121,-569.093 237,-569.093 237,-550.093 121,-550.093"/>
<text text-anchor="middle" x="179" y="-557.093" font-family="Helvetica,sans-Serif" font-size="10.00">mostrar_pre_requisitos</text>
</a>
</g>
</g>
<!-- Node1&#45;&gt;Node20 -->
<g id="edge36" class="edge"><title>Node1&#45;&gt;Node20</title>
<path fill="none" stroke="midnightblue" d="M42.3325,-351.153C46.1916,-392.242 60.9259,-488.058 116,-540.593 120.073,-544.479 124.92,-547.571 130.084,-550.032"/>
<polygon fill="midnightblue" stroke="midnightblue" points="45.8136,-350.777 41.508,-341.097 38.837,-351.349 45.8136,-350.777"/>
</g>
<!-- Node21 -->
<g id="node21" class="node"><title>Node21</title>
<g id="a_node21"><a xlink:href="main_8cc.html#ab05b93d97a47c67aab51426cdad29a86" target="_top" xlink:title="ver_tarefas_concluidas">
<polygon fill="white" stroke="black" points="120.5,-512.093 120.5,-531.093 237.5,-531.093 237.5,-512.093 120.5,-512.093"/>
<text text-anchor="middle" x="179" y="-519.093" font-family="Helvetica,sans-Serif" font-size="10.00">ver_tarefas_concluidas</text>
</a>
</g>
</g>
<!-- Node1&#45;&gt;Node21 -->
<g id="edge38" class="edge"><title>Node1&#45;&gt;Node21</title>
<path fill="none" stroke="midnightblue" d="M44.1696,-351.442C50.8873,-386.972 69.9009,-461.552 116,-502.593 120.372,-506.486 125.527,-509.581 130.965,-512.042"/>
<polygon fill="midnightblue" stroke="midnightblue" points="47.578,-350.615 42.4018,-341.371 40.6834,-351.825 47.578,-350.615"/>
</g>
<!-- Node3 -->
<g id="node3" class="node"><title>Node3</title>
<g id="a_node3"><a xlink:href="main_8cc.html#ae66f6b31b5ad750f1fe042a706a4e3d4" target="_top" xlink:title="main">
<polygon fill="white" stroke="black" points="836,-341.093 836,-360.093 874,-360.093 874,-341.093 836,-341.093"/>
<text text-anchor="middle" x="855" y="-348.093" font-family="Helvetica,sans-Serif" font-size="10.00">main</text>
</a>
</g>
</g>
<!-- Node2&#45;&gt;Node3 -->
<g id="edge2" class="edge"><title>Node2&#45;&gt;Node3</title>
<path fill="none" stroke="midnightblue" d="M656.303,-570.566C698.008,-524.162 812.719,-396.525 845.279,-360.297"/>
<polygon fill="midnightblue" stroke="midnightblue" points="653.695,-568.232 649.614,-578.009 658.901,-572.911 653.695,-568.232"/>
</g>
<!-- Node4&#45;&gt;Node5 -->
<g id="edge4" class="edge"><title>Node4&#45;&gt;Node5</title>
<path fill="none" stroke="midnightblue" d="M251.78,-407.593C260.436,-407.593 269.235,-407.593 277.773,-407.593"/>
<polygon fill="midnightblue" stroke="midnightblue" points="251.707,-404.093 241.707,-407.593 251.707,-411.093 251.707,-404.093"/>
</g>
<!-- Node4&#45;&gt;Node8 -->
<g id="edge9" class="edge"><title>Node4&#45;&gt;Node8</title>
<path fill="none" stroke="midnightblue" d="M230.715,-395.697C253.486,-390.356 279.987,-384.14 301.415,-379.113"/>
<polygon fill="midnightblue" stroke="midnightblue" points="229.816,-392.313 220.879,-398.004 231.415,-399.128 229.816,-392.313"/>
</g>
<!-- Node6 -->
<g id="node6" class="node"><title>Node6</title>
<g id="a_node6"><a xlink:href="main_8cc.html#af852bc15cf3d5217386a9bb0bf3b9abd" target="_top" xlink:title="operacoes_grafo">
<polygon fill="white" stroke="black" points="595.5,-322.093 595.5,-341.093 684.5,-341.093 684.5,-322.093 595.5,-322.093"/>
<text text-anchor="middle" x="640" y="-329.093" font-family="Helvetica,sans-Serif" font-size="10.00">operacoes_grafo</text>
</a>
</g>
</g>
<!-- Node5&#45;&gt;Node6 -->
<g id="edge5" class="edge"><title>Node5&#45;&gt;Node6</title>
<path fill="none" stroke="midnightblue" d="M390.795,-395.538C449.304,-380.464 548.271,-354.968 601.856,-341.162"/>
<polygon fill="midnightblue" stroke="midnightblue" points="389.874,-392.161 381.063,-398.045 391.62,-398.939 389.874,-392.161"/>
</g>
<!-- Node6&#45;&gt;Node3 -->
<g id="edge8" class="edge"><title>Node6&#45;&gt;Node3</title>
<path fill="none" stroke="midnightblue" d="M694.772,-336.39C740.964,-340.51 804.854,-346.209 835.778,-348.968"/>
<polygon fill="midnightblue" stroke="midnightblue" points="694.889,-332.886 684.618,-335.484 694.267,-339.859 694.889,-332.886"/>
</g>
<!-- Node6&#45;&gt;Node7 -->
<g id="edge6" class="edge"><title>Node6&#45;&gt;Node7</title>
<path fill="none" stroke="midnightblue" d="M694.781,-323.217C705.905,-321.485 717.354,-319.702 727.619,-318.103"/>
<polygon fill="midnightblue" stroke="midnightblue" points="694.042,-319.79 684.7,-324.787 695.12,-326.707 694.042,-319.79"/>
</g>
<!-- Node7&#45;&gt;Node3 -->
<g id="edge7" class="edge"><title>Node7&#45;&gt;Node3</title>
<path fill="none" stroke="midnightblue" d="M797.025,-326.267C810.037,-331.822 824.597,-338.039 835.741,-342.797"/>
<polygon fill="midnightblue" stroke="midnightblue" points="798.03,-322.89 787.458,-322.182 795.281,-329.328 798.03,-322.89"/>
</g>
<!-- Node8&#45;&gt;Node9 -->
<g id="edge10" class="edge"><title>Node8&#45;&gt;Node9</title>
<path fill="none" stroke="midnightblue" d="M392.562,-357.532C414.859,-351.994 440.827,-345.545 461.291,-340.462"/>
<polygon fill="midnightblue" stroke="midnightblue" points="391.47,-354.197 382.608,-360.004 393.157,-360.991 391.47,-354.197"/>
</g>
<!-- Node9&#45;&gt;Node6 -->
<g id="edge11" class="edge"><title>Node9&#45;&gt;Node6</title>
<path fill="none" stroke="midnightblue" d="M545.014,-331.593C561.217,-331.593 579.371,-331.593 595.372,-331.593"/>
<polygon fill="midnightblue" stroke="midnightblue" points="544.69,-328.093 534.69,-331.593 544.69,-335.093 544.69,-328.093"/>
</g>
<!-- Node10&#45;&gt;Node9 -->
<g id="edge13" class="edge"><title>Node10&#45;&gt;Node9</title>
<path fill="none" stroke="midnightblue" d="M234.748,-298.564C280.992,-302.952 348.931,-309.844 408,-317.593 425.525,-319.892 444.919,-322.89 461.118,-325.521"/>
<polygon fill="midnightblue" stroke="midnightblue" points="234.926,-295.065 224.642,-297.612 234.269,-302.034 234.926,-295.065"/>
</g>
<!-- Node10&#45;&gt;Node11 -->
<g id="edge14" class="edge"><title>Node10&#45;&gt;Node11</title>
<path fill="none" stroke="midnightblue" d="M219.572,-280.93C227.03,-278.515 234.759,-275.992 242,-273.593 266.37,-265.52 293.992,-256.109 314.022,-249.237"/>
<polygon fill="midnightblue" stroke="midnightblue" points="218.431,-277.621 209.989,-284.024 220.581,-284.282 218.431,-277.621"/>
</g>
<!-- Node11&#45;&gt;Node12 -->
<g id="edge15" class="edge"><title>Node11&#45;&gt;Node12</title>
<path fill="none" stroke="midnightblue" d="M389.21,-227.478C412.652,-221.196 440.831,-213.645 462.497,-207.839"/>
<polygon fill="midnightblue" stroke="midnightblue" points="388.239,-224.115 379.486,-230.084 390.051,-230.876 388.239,-224.115"/>
</g>
<!-- Node12&#45;&gt;Node6 -->
<g id="edge16" class="edge"><title>Node12&#45;&gt;Node6</title>
<path fill="none" stroke="midnightblue" d="M516.576,-215.291C546.128,-243.365 604.865,-299.165 628.645,-321.756"/>
<polygon fill="midnightblue" stroke="midnightblue" points="518.729,-212.508 509.068,-208.158 513.908,-217.583 518.729,-212.508"/>
</g>
<!-- Node13&#45;&gt;Node12 -->
<g id="edge18" class="edge"><title>Node13&#45;&gt;Node12</title>
<path fill="none" stroke="midnightblue" d="M238.384,-129.952C285.129,-131.608 351.918,-137.071 408,-153.593 435.736,-161.765 465.159,-178.425 482.265,-189.021"/>
<polygon fill="midnightblue" stroke="midnightblue" points="238.238,-126.446 228.135,-129.639 238.024,-133.443 238.238,-126.446"/>
</g>
<!-- Node13&#45;&gt;Node14 -->
<g id="edge19" class="edge"><title>Node13&#45;&gt;Node14</title>
<path fill="none" stroke="midnightblue" d="M230.792,-117.679C253.744,-112.295 280.474,-106.025 301.975,-100.982"/>
<polygon fill="midnightblue" stroke="midnightblue" points="229.816,-114.313 220.879,-120.004 231.415,-121.128 229.816,-114.313"/>
</g>
<!-- Node13&#45;&gt;Node15 -->
<g id="edge21" class="edge"><title>Node13&#45;&gt;Node15</title>
<path fill="none" stroke="midnightblue" d="M202.469,-114.442C221.827,-101.906 250.858,-84.3157 278,-72.5932 286.3,-69.0087 295.483,-65.8446 304.241,-63.1776"/>
<polygon fill="midnightblue" stroke="midnightblue" points="200.483,-111.56 194.046,-119.975 204.326,-117.41 200.483,-111.56"/>
</g>
<!-- Node14&#45;&gt;Node6 -->
<g id="edge20" class="edge"><title>Node14&#45;&gt;Node6</title>
<path fill="none" stroke="midnightblue" d="M394.124,-102.983C439.651,-115.432 506.458,-139.197 552,-179.593 599.313,-221.561 627.176,-295.675 635.961,-321.992"/>
<polygon fill="midnightblue" stroke="midnightblue" points="394.74,-99.5261 384.177,-100.351 392.949,-106.293 394.74,-99.5261"/>
</g>
<!-- Node15&#45;&gt;Node6 -->
<g id="edge22" class="edge"><title>Node15&#45;&gt;Node6</title>
<path fill="none" stroke="midnightblue" d="M412.21,-59.1274C456.881,-66.0666 513.841,-81.6512 552,-116.593 616.146,-175.331 633.982,-288.01 637.99,-321.789"/>
<polygon fill="midnightblue" stroke="midnightblue" points="412.697,-55.6614 402.299,-57.6966 411.697,-62.5896 412.697,-55.6614"/>
</g>
<!-- Node16&#45;&gt;Node11 -->
<g id="edge25" class="edge"><title>Node16&#45;&gt;Node11</title>
<path fill="none" stroke="midnightblue" d="M251.882,-245.156C270.361,-244.015 289.48,-242.835 305.328,-241.857"/>
<polygon fill="midnightblue" stroke="midnightblue" points="251.473,-241.675 241.707,-245.784 251.904,-248.661 251.473,-241.675"/>
</g>
<!-- Node17&#45;&gt;Node6 -->
<g id="edge29" class="edge"><title>Node17&#45;&gt;Node6</title>
<path fill="none" stroke="midnightblue" d="M516.895,-528.584C527.77,-517.728 541.53,-503.028 552,-488.593 589.691,-436.63 623.058,-366.634 634.653,-341.274"/>
<polygon fill="midnightblue" stroke="midnightblue" points="514.271,-526.254 509.574,-535.75 519.168,-531.256 514.271,-526.254"/>
</g>
<!-- Node19 -->
<g id="node19" class="node"><title>Node19</title>
<g id="a_node19"><a xlink:href="main_8cc.html#a5d247f6e8ee275a8cd007f922ae2acb3" target="_top" xlink:title="visualizador_tarefas">
<polygon fill="white" stroke="black" points="291,-493.093 291,-512.093 395,-512.093 395,-493.093 291,-493.093"/>
<text text-anchor="middle" x="343" y="-500.093" font-family="Helvetica,sans-Serif" font-size="10.00">visualizador_tarefas</text>
</a>
</g>
</g>
<!-- Node18&#45;&gt;Node19 -->
<g id="edge34" class="edge"><title>Node18&#45;&gt;Node19</title>
<path fill="none" stroke="midnightblue" d="M221.836,-488.5C242.853,-490.965 268.501,-493.973 290.697,-496.576"/>
<polygon fill="midnightblue" stroke="midnightblue" points="221.959,-484.99 211.62,-487.302 221.144,-491.943 221.959,-484.99"/>
</g>
<!-- Node19&#45;&gt;Node6 -->
<g id="edge35" class="edge"><title>Node19&#45;&gt;Node6</title>
<path fill="none" stroke="midnightblue" d="M369.41,-487.864C428.419,-453.659 573.429,-369.602 622.478,-341.171"/>
<polygon fill="midnightblue" stroke="midnightblue" points="367.602,-484.866 360.706,-492.91 371.113,-490.923 367.602,-484.866"/>
</g>
<!-- Node20&#45;&gt;Node19 -->
<g id="edge37" class="edge"><title>Node20&#45;&gt;Node19</title>
<path fill="none" stroke="midnightblue" d="M222.21,-547.066C228.856,-544.976 235.632,-542.776 242,-540.593 268.353,-531.559 298.156,-520.066 318.318,-512.096"/>
<polygon fill="midnightblue" stroke="midnightblue" points="221.146,-543.731 212.629,-550.034 223.217,-550.418 221.146,-543.731"/>
</g>
<!-- Node21&#45;&gt;Node19 -->
<g id="edge39" class="edge"><title>Node21&#45;&gt;Node19</title>
<path fill="none" stroke="midnightblue" d="M247.902,-513.629C262.264,-511.945 277.19,-510.194 290.81,-508.597"/>
<polygon fill="midnightblue" stroke="midnightblue" points="247.095,-510.2 237.571,-514.841 247.911,-517.152 247.095,-510.2"/>
</g>
</g>
</svg>
        <g id="navigator" transform="translate(0 0)" fill="#404254">
                <rect fill="#f2f5e9" fill-opacity="0.5" stroke="#606060" stroke-width=".5" x="0" y="0" width="60" height="60"/>
                <use id="zoomplus" xlink:href="#zoomPlus" x="17" y="9" onmousedown="handleZoom(evt,'in')"/>
                <use id="zoomminus" xlink:href="#zoomMin" x="42" y="9" onmousedown="handleZoom(evt,'out')"/>
                <use id="reset" xlink:href="#resetDef" x="30" y="36" onmousedown="handleReset()"/>
                <g id="arrowUp" xlink:href="#dirArrow" transform="translate(30 24)" onmousedown="handlePan(0,-1)">
                  <use xlink:href="#rim" fill="#404040">
                        <set attributeName="fill" to="#808080" begin="arrowUp.mouseover" end="arrowUp.mouseout"/>
                  </use>
                  <path fill="none" stroke="white" stroke-width="1.5" d="M0,-3.0v7 M-2.5,-0.5L0,-3.0L2.5,-0.5"/>
                </g>
                <g id="arrowRight" xlink:href="#dirArrow" transform="rotate(90) translate(36 -43)" onmousedown="handlePan(1,0)">
                  <use xlink:href="#rim" fill="#404040">
                        <set attributeName="fill" to="#808080" begin="arrowRight.mouseover" end="arrowRight.mouseout"/>
                  </use>
                  <path fill="none" stroke="white" stroke-width="1.5" d="M0,-3.0v7 M-2.5,-0.5L0,-3.0L2.5,-0.5"/>
                </g>
                <g id="arrowDown" xlink:href="#dirArrow" transform="rotate(180) translate(-30 -48)" onmousedown="handlePan(0,1)">
                  <use xlink:href="#rim" fill="#404040">
                        <set attributeName="fill" to="#808080" begin="arrowDown.mouseover" end="arrowDown.mouseout"/>
                  </use>
                  <path fill="none" stroke="white" stroke-width="1.5" d="M0,-3.0v7 M-2.5,-0.5L0,-3.0L2.5,-0.5"/>
                </g>
                <g id="arrowLeft" xlink:href="#dirArrow" transform="rotate(270) translate(-36 17)" onmousedown="handlePan(-1,0)">
                  <use xlink:href="#rim" fill="#404040">
                        <set attributeName="fill" to="#808080" begin="arrowLeft.mouseover" end="arrowLeft.mouseout"/>
                  </use>
                  <path fill="none" stroke="white" stroke-width="1.5" d="M0,-3.0v7 M-2.5,-0.5L0,-3.0L2.5,-0.5"/>
                </g>
        </g>
        <svg viewBox="0 0 15 15" width="100%" height="30px" preserveAspectRatio="xMaxYMin meet">
         <g id="arrow_out" transform="scale(0.3 0.3)">
          <a xlink:href="main_8cc_ad2a06ffdf1033b3b1c11f337fa12553b_icgraph_org.svg" target="_base">
           <rect id="button" ry="5" rx="5" y="6" x="6" height="38" width="38"
                fill="#f2f5e9" fill-opacity="0.5" stroke="#606060" stroke-width="1.0"/>
           <path id="arrow"
             d="M 11.500037,31.436501 C 11.940474,20.09759 22.043105,11.32322 32.158766,21.979434 L 37.068811,17.246167 C 37.068811,17.246167 37.088388,32 37.088388,32 L 22.160133,31.978069 C 22.160133,31.978069 26.997745,27.140456 26.997745,27.140456 C 18.528582,18.264221 13.291696,25.230495 11.500037,31.436501 z"
             style="fill:#404040;"/>
          </a>
         </g>
        </svg>
</svg>
