<?xml version="1.0" encoding="UTF-8" standalone="no"?>
<!DOCTYPE svg PUBLIC "-//W3C//DTD SVG 1.1//EN"
 "http://www.w3.org/Graphics/SVG/1.1/DTD/svg11.dtd">
<!-- Generated by graphviz version 2.36.0 (20140111.2315)
 -->
<!-- Title: erro_insere_pre_requisito Pages: 1 -->
<svg width="770pt" height="66pt"
 viewBox="0.00 0.00 770.00 66.00" xmlns="http://www.w3.org/2000/svg" xmlns:xlink="http://www.w3.org/1999/xlink">
<g id="graph0" class="graph" transform="scale(1 1) rotate(0) translate(4 62)">
<title>erro_insere_pre_requisito</title>
<polygon fill="white" stroke="none" points="-4,4 -4,-62 766,-62 766,4 -4,4"/>
<!-- Node1 -->
<g id="node1" class="node"><title>Node1</title>
<polygon fill="#bfbfbf" stroke="black" points="0.5,-19.5 0.5,-38.5 125.5,-38.5 125.5,-19.5 0.5,-19.5"/>
<text text-anchor="middle" x="63" y="-26.5" font-family="Helvetica,sans-Serif" font-size="10.00">erro_insere_pre_requisito</text>
</g>
<!-- Node2 -->
<g id="node2" class="node"><title>Node2</title>
<g id="a_node2"><a xlink:href="main_8cc.html#a16c89e840263b1af21caf3211b6640b2" target="_top" xlink:title="inserir_novo_pre_requisito">
<polygon fill="white" stroke="black" points="324,-38.5 324,-57.5 454,-57.5 454,-38.5 324,-38.5"/>
<text text-anchor="middle" x="389" y="-45.5" font-family="Helvetica,sans-Serif" font-size="10.00">inserir_novo_pre_requisito</text>
</a>
</g>
</g>
<!-- Node1&#45;&gt;Node2 -->
<g id="edge1" class="edge"><title>Node1&#45;&gt;Node2</title>
<path fill="none" stroke="midnightblue" d="M135.945,-33.219C192.167,-36.516 269.599,-41.0568 323.754,-44.2325"/>
<polygon fill="midnightblue" stroke="midnightblue" points="135.892,-29.71 125.705,-32.6185 135.482,-36.698 135.892,-29.71"/>
</g>
<!-- Node6 -->
<g id="node6" class="node"><title>Node6</title>
<g id="a_node6"><a xlink:href="main_8cc.html#a5c0ceb9634231b92e0dfc9db33b727fa" target="_top" xlink:title="tela_inserir_pre_requisito">
<polygon fill="white" stroke="black" points="162.5,-0.5 162.5,-19.5 287.5,-19.5 287.5,-0.5 162.5,-0.5"/>
<text text-anchor="middle" x="225" y="-7.5" font-family="Helvetica,sans-Serif" font-size="10.00">tela_inserir_pre_requisito</text>
</a>
</g>
</g>
<!-- Node1&#45;&gt;Node6 -->
<g id="edge6" class="edge"><title>Node1&#45;&gt;Node6</title>
<path fill="none" stroke="midnightblue" d="M136.061,-20.4428C144.822,-19.4023 153.712,-18.3467 162.304,-17.3264"/>
<polygon fill="midnightblue" stroke="midnightblue" points="135.378,-16.9992 125.86,-21.6541 136.203,-23.9504 135.378,-16.9992"/>
</g>
<!-- Node3 -->
<g id="node3" class="node"><title>Node3</title>
<g id="a_node3"><a xlink:href="main_8cc.html#af852bc15cf3d5217386a9bb0bf3b9abd" target="_top" xlink:title="operacoes_grafo">
<polygon fill="white" stroke="black" points="490.5,-19.5 490.5,-38.5 579.5,-38.5 579.5,-19.5 490.5,-19.5"/>
<text text-anchor="middle" x="535" y="-26.5" font-family="Helvetica,sans-Serif" font-size="10.00">operacoes_grafo</text>
</a>
</g>
</g>
<!-- Node2&#45;&gt;Node3 -->
<g id="edge2" class="edge"><title>Node2&#45;&gt;Node3</title>
<path fill="none" stroke="midnightblue" d="M464.407,-38.1824C473.26,-37.0143 482.065,-35.8525 490.285,-34.7679"/>
<polygon fill="midnightblue" stroke="midnightblue" points="463.875,-34.7222 454.419,-39.5003 464.791,-41.662 463.875,-34.7222"/>
</g>
<!-- Node4 -->
<g id="node4" class="node"><title>Node4</title>
<g id="a_node4"><a xlink:href="main_8cc.html#af1ccf694bcf905341f10b534e5a272fa" target="_top" xlink:title="abrir_arquivo">
<polygon fill="white" stroke="black" points="616,-38.5 616,-57.5 688,-57.5 688,-38.5 616,-38.5"/>
<text text-anchor="middle" x="652" y="-45.5" font-family="Helvetica,sans-Serif" font-size="10.00">abrir_arquivo</text>
</a>
</g>
</g>
<!-- Node3&#45;&gt;Node4 -->
<g id="edge3" class="edge"><title>Node3&#45;&gt;Node4</title>
<path fill="none" stroke="midnightblue" d="M589.736,-37.8781C598.617,-39.3454 607.619,-40.8327 615.888,-42.199"/>
<polygon fill="midnightblue" stroke="midnightblue" points="590.241,-34.4143 579.805,-36.2373 589.1,-41.3206 590.241,-34.4143"/>
</g>
<!-- Node5 -->
<g id="node5" class="node"><title>Node5</title>
<g id="a_node5"><a xlink:href="main_8cc.html#ae66f6b31b5ad750f1fe042a706a4e3d4" target="_top" xlink:title="main">
<polygon fill="white" stroke="black" points="724,-19.5 724,-38.5 762,-38.5 762,-19.5 724,-19.5"/>
<text text-anchor="middle" x="743" y="-26.5" font-family="Helvetica,sans-Serif" font-size="10.00">main</text>
</a>
</g>
</g>
<!-- Node3&#45;&gt;Node5 -->
<g id="edge5" class="edge"><title>Node3&#45;&gt;Node5</title>
<path fill="none" stroke="midnightblue" d="M589.725,-29C634.01,-29 694.194,-29 723.894,-29"/>
<polygon fill="midnightblue" stroke="midnightblue" points="589.687,-25.5001 579.687,-29 589.687,-32.5001 589.687,-25.5001"/>
</g>
<!-- Node4&#45;&gt;Node5 -->
<g id="edge4" class="edge"><title>Node4&#45;&gt;Node5</title>
<path fill="none" stroke="midnightblue" d="M698.067,-38.3789C707.24,-36.4207 716.38,-34.4694 723.929,-32.8578"/>
<polygon fill="midnightblue" stroke="midnightblue" points="697.224,-34.98 688.175,-40.4907 698.686,-41.8257 697.224,-34.98"/>
</g>
<!-- Node7 -->
<g id="node7" class="node"><title>Node7</title>
<g id="a_node7"><a xlink:href="main_8cc.html#adb3b0c3b009c68f86673eb7bdeef601c" target="_top" xlink:title="inserir_tarefa">
<polygon fill="white" stroke="black" points="352.5,-0.5 352.5,-19.5 425.5,-19.5 425.5,-0.5 352.5,-0.5"/>
<text text-anchor="middle" x="389" y="-7.5" font-family="Helvetica,sans-Serif" font-size="10.00">inserir_tarefa</text>
</a>
</g>
</g>
<!-- Node6&#45;&gt;Node7 -->
<g id="edge7" class="edge"><title>Node6&#45;&gt;Node7</title>
<path fill="none" stroke="midnightblue" d="M297.793,-10C316.664,-10 336.21,-10 352.264,-10"/>
<polygon fill="midnightblue" stroke="midnightblue" points="297.707,-6.5001 287.707,-10 297.707,-13.5001 297.707,-6.5001"/>
</g>
<!-- Node7&#45;&gt;Node3 -->
<g id="edge8" class="edge"><title>Node7&#45;&gt;Node3</title>
<path fill="none" stroke="midnightblue" d="M435.584,-16.0146C453.088,-18.3241 473.01,-20.9527 490.33,-23.2379"/>
<polygon fill="midnightblue" stroke="midnightblue" points="435.967,-12.5349 425.596,-14.6966 435.052,-19.4747 435.967,-12.5349"/>
</g>
</g>
</svg>
