<?xml version="1.0" encoding="UTF-8" standalone="no"?>
<!DOCTYPE svg PUBLIC "-//W3C//DTD SVG 1.1//EN"
 "http://www.w3.org/Graphics/SVG/1.1/DTD/svg11.dtd">
<!-- Generated by graphviz version 2.36.0 (20140111.2315)
 -->
<!-- Title: erro_id_invalido Pages: 1 -->
<svg width="510pt" height="47pt"
 viewBox="0.00 0.00 510.00 47.00" xmlns="http://www.w3.org/2000/svg" xmlns:xlink="http://www.w3.org/1999/xlink">
<g id="graph0" class="graph" transform="scale(1 1) rotate(0) translate(4 43)">
<title>erro_id_invalido</title>
<polygon fill="white" stroke="none" points="-4,4 -4,-43 506,-43 506,4 -4,4"/>
<!-- Node1 -->
<g id="node1" class="node"><title>Node1</title>
<polygon fill="#bfbfbf" stroke="black" points="0,-0.5 0,-19.5 84,-19.5 84,-0.5 0,-0.5"/>
<text text-anchor="middle" x="42" y="-7.5" font-family="Helvetica,sans-Serif" font-size="10.00">erro_id_invalido</text>
</g>
<!-- Node2 -->
<g id="node2" class="node"><title>Node2</title>
<g id="a_node2"><a xlink:href="main_8cc.html#adb3b0c3b009c68f86673eb7bdeef601c" target="_top" xlink:title="inserir_tarefa">
<polygon fill="white" stroke="black" points="120.5,-0.5 120.5,-19.5 193.5,-19.5 193.5,-0.5 120.5,-0.5"/>
<text text-anchor="middle" x="157" y="-7.5" font-family="Helvetica,sans-Serif" font-size="10.00">inserir_tarefa</text>
</a>
</g>
</g>
<!-- Node1&#45;&gt;Node2 -->
<g id="edge1" class="edge"><title>Node1&#45;&gt;Node2</title>
<path fill="none" stroke="midnightblue" d="M94.3061,-10C103.097,-10 112.058,-10 120.326,-10"/>
<polygon fill="midnightblue" stroke="midnightblue" points="94.1153,-6.5001 84.1153,-10 94.1152,-13.5001 94.1153,-6.5001"/>
</g>
<!-- Node3 -->
<g id="node3" class="node"><title>Node3</title>
<g id="a_node3"><a xlink:href="main_8cc.html#af852bc15cf3d5217386a9bb0bf3b9abd" target="_top" xlink:title="operacoes_grafo">
<polygon fill="white" stroke="black" points="230.5,-0.5 230.5,-19.5 319.5,-19.5 319.5,-0.5 230.5,-0.5"/>
<text text-anchor="middle" x="275" y="-7.5" font-family="Helvetica,sans-Serif" font-size="10.00">operacoes_grafo</text>
</a>
</g>
</g>
<!-- Node2&#45;&gt;Node3 -->
<g id="edge2" class="edge"><title>Node2&#45;&gt;Node3</title>
<path fill="none" stroke="midnightblue" d="M203.804,-10C212.563,-10 221.712,-10 230.4,-10"/>
<polygon fill="midnightblue" stroke="midnightblue" points="203.75,-6.5001 193.75,-10 203.75,-13.5001 203.75,-6.5001"/>
</g>
<!-- Node4 -->
<g id="node4" class="node"><title>Node4</title>
<g id="a_node4"><a xlink:href="main_8cc.html#af1ccf694bcf905341f10b534e5a272fa" target="_top" xlink:title="abrir_arquivo">
<polygon fill="white" stroke="black" points="356,-19.5 356,-38.5 428,-38.5 428,-19.5 356,-19.5"/>
<text text-anchor="middle" x="392" y="-26.5" font-family="Helvetica,sans-Serif" font-size="10.00">abrir_arquivo</text>
</a>
</g>
</g>
<!-- Node3&#45;&gt;Node4 -->
<g id="edge3" class="edge"><title>Node3&#45;&gt;Node4</title>
<path fill="none" stroke="midnightblue" d="M329.736,-18.8781C338.617,-20.3454 347.619,-21.8327 355.888,-23.199"/>
<polygon fill="midnightblue" stroke="midnightblue" points="330.241,-15.4143 319.805,-17.2373 329.1,-22.3206 330.241,-15.4143"/>
</g>
<!-- Node5 -->
<g id="node5" class="node"><title>Node5</title>
<g id="a_node5"><a xlink:href="main_8cc.html#ae66f6b31b5ad750f1fe042a706a4e3d4" target="_top" xlink:title="main">
<polygon fill="white" stroke="black" points="464,-0.5 464,-19.5 502,-19.5 502,-0.5 464,-0.5"/>
<text text-anchor="middle" x="483" y="-7.5" font-family="Helvetica,sans-Serif" font-size="10.00">main</text>
</a>
</g>
</g>
<!-- Node3&#45;&gt;Node5 -->
<g id="edge5" class="edge"><title>Node3&#45;&gt;Node5</title>
<path fill="none" stroke="midnightblue" d="M329.725,-10C374.01,-10 434.194,-10 463.894,-10"/>
<polygon fill="midnightblue" stroke="midnightblue" points="329.687,-6.5001 319.687,-10 329.687,-13.5001 329.687,-6.5001"/>
</g>
<!-- Node4&#45;&gt;Node5 -->
<g id="edge4" class="edge"><title>Node4&#45;&gt;Node5</title>
<path fill="none" stroke="midnightblue" d="M438.067,-19.3789C447.24,-17.4207 456.38,-15.4694 463.929,-13.8578"/>
<polygon fill="midnightblue" stroke="midnightblue" points="437.224,-15.98 428.175,-21.4907 438.686,-22.8257 437.224,-15.98"/>
</g>
</g>
</svg>
