<?xml version="1.0" encoding="UTF-8" standalone="no"?>
<!DOCTYPE svg PUBLIC "-//W3C//DTD SVG 1.1//EN"
 "http://www.w3.org/Graphics/SVG/1.1/DTD/svg11.dtd">
<!-- Generated by graphviz version 2.36.0 (20140111.2315)
 -->
<!-- Title: code/main.cc Pages: 1 -->
<svg width="329pt" height="84pt"
 viewBox="0.00 0.00 329.00 84.00" xmlns="http://www.w3.org/2000/svg" xmlns:xlink="http://www.w3.org/1999/xlink">
<g id="graph0" class="graph" transform="scale(1 1) rotate(0) translate(4 80)">
<title>code/main.cc</title>
<polygon fill="white" stroke="none" points="-4,4 -4,-80 325,-80 325,4 -4,4"/>
<!-- Node1 -->
<g id="node1" class="node"><title>Node1</title>
<polygon fill="#bfbfbf" stroke="black" points="128.5,-56.5 128.5,-75.5 203.5,-75.5 203.5,-56.5 128.5,-56.5"/>
<text text-anchor="middle" x="166" y="-63.5" font-family="Helvetica,sans-Serif" font-size="10.00">code/main.cc</text>
</g>
<!-- Node2 -->
<g id="node2" class="node"><title>Node2</title>
<polygon fill="white" stroke="#bfbfbf" points="-0.5,-0.5 -0.5,-19.5 58.5,-19.5 58.5,-0.5 -0.5,-0.5"/>
<text text-anchor="middle" x="29" y="-7.5" font-family="Helvetica,sans-Serif" font-size="10.00">ncurses.h</text>
</g>
<!-- Node1&#45;&gt;Node2 -->
<g id="edge1" class="edge"><title>Node1&#45;&gt;Node2</title>
<path fill="none" stroke="midnightblue" d="M144.292,-56.4435C121.645,-47.5171 85.9279,-33.4387 60.2482,-23.3168"/>
<polygon fill="midnightblue" stroke="midnightblue" points="61.1934,-19.9273 50.6065,-19.5164 58.6264,-26.4397 61.1934,-19.9273"/>
</g>
<!-- Node3 -->
<g id="node3" class="node"><title>Node3</title>
<polygon fill="white" stroke="#bfbfbf" points="77,-0.5 77,-19.5 125,-19.5 125,-0.5 77,-0.5"/>
<text text-anchor="middle" x="101" y="-7.5" font-family="Helvetica,sans-Serif" font-size="10.00">stdlib.h</text>
</g>
<!-- Node1&#45;&gt;Node3 -->
<g id="edge2" class="edge"><title>Node1&#45;&gt;Node3</title>
<path fill="none" stroke="midnightblue" d="M155.557,-56.324C145.854,-48.2631 131.185,-36.0765 119.5,-26.3695"/>
<polygon fill="midnightblue" stroke="midnightblue" points="121.562,-23.532 111.633,-19.8339 117.089,-28.9163 121.562,-23.532"/>
</g>
<!-- Node4 -->
<g id="node4" class="node"><title>Node4</title>
<polygon fill="white" stroke="#bfbfbf" points="143,-0.5 143,-19.5 189,-19.5 189,-0.5 143,-0.5"/>
<text text-anchor="middle" x="166" y="-7.5" font-family="Helvetica,sans-Serif" font-size="10.00">stdio.h</text>
</g>
<!-- Node1&#45;&gt;Node4 -->
<g id="edge3" class="edge"><title>Node1&#45;&gt;Node4</title>
<path fill="none" stroke="midnightblue" d="M166,-56.083C166,-49.0059 166,-38.8611 166,-29.9865"/>
<polygon fill="midnightblue" stroke="midnightblue" points="169.5,-29.751 166,-19.7511 162.5,-29.7511 169.5,-29.751"/>
</g>
<!-- Node5 -->
<g id="node5" class="node"><title>Node5</title>
<polygon fill="white" stroke="#bfbfbf" points="207.5,-0.5 207.5,-19.5 256.5,-19.5 256.5,-0.5 207.5,-0.5"/>
<text text-anchor="middle" x="232" y="-7.5" font-family="Helvetica,sans-Serif" font-size="10.00">string.h</text>
</g>
<!-- Node1&#45;&gt;Node5 -->
<g id="edge4" class="edge"><title>Node1&#45;&gt;Node5</title>
<path fill="none" stroke="midnightblue" d="M176.604,-56.324C186.456,-48.2631 201.351,-36.0765 213.215,-26.3695"/>
<polygon fill="midnightblue" stroke="midnightblue" points="215.68,-28.8752 221.203,-19.8339 211.247,-23.4575 215.68,-28.8752"/>
</g>
<!-- Node6 -->
<g id="node6" class="node"><title>Node6</title>
<g id="a_node6"><a xlink:href="code_2grafo_8h.html" target="_top" xlink:title="grafo.h">
<polygon fill="white" stroke="black" points="274.5,-0.5 274.5,-19.5 321.5,-19.5 321.5,-0.5 274.5,-0.5"/>
<text text-anchor="middle" x="298" y="-7.5" font-family="Helvetica,sans-Serif" font-size="10.00">grafo.h</text>
</a>
</g>
</g>
<!-- Node1&#45;&gt;Node6 -->
<g id="edge5" class="edge"><title>Node1&#45;&gt;Node6</title>
<path fill="none" stroke="midnightblue" d="M186.916,-56.4435C208.736,-47.5171 243.15,-33.4387 267.892,-23.3168"/>
<polygon fill="midnightblue" stroke="midnightblue" points="269.252,-26.5422 277.182,-19.5164 266.601,-20.0634 269.252,-26.5422"/>
</g>
</g>
</svg>
