<?xml version="1.0" encoding="UTF-8" standalone="no"?>
<!DOCTYPE svg PUBLIC "-//W3C//DTD SVG 1.1//EN"
 "http://www.w3.org/Graphics/SVG/1.1/DTD/svg11.dtd">
<!-- Generated by graphviz version 2.36.0 (20140111.2315)
 -->
<!-- Title: operacoes_grafo Pages: 1 -->
<!--zoomable 1457 -->
<svg id="main" version="1.1" xmlns="http://www.w3.org/2000/svg" xmlns:xlink="http://www.w3.org/1999/xlink" xml:space="preserve" onload="init(evt)">
<style type="text/css"><![CDATA[
.edge:hover path { stroke: red; }
.edge:hover polygon { stroke: red; fill: red; }
]]></style>
<script type="text/javascript"><![CDATA[
var edges = document.getElementsByTagName('g');
if (edges && edges.length) {
  for (var i=0;i<edges.length;i++) {
    if (edges[i].id.substr(0,4)=='edge') {
      edges[i].setAttribute('class','edge');
    }
  }
}
]]></script>
        <defs>
                <circle id="rim" cx="0" cy="0" r="7"/>
                <circle id="rim2" cx="0" cy="0" r="3.5"/>
                <g id="zoomPlus">
                        <use xlink:href="#rim" fill="#404040">
                                <set attributeName="fill" to="#808080" begin="zoomplus.mouseover" end="zoomplus.mouseout"/>
                        </use>
                        <path d="M-4,0h8M0,-4v8" fill="none" stroke="white" stroke-width="1.5" pointer-events="none"/>
                </g>
                <g id="zoomMin">
                        <use xlink:href="#rim" fill="#404040">
                                <set attributeName="fill" to="#808080" begin="zoomminus.mouseover" end="zoomminus.mouseout"/>
                        </use>
                        <path d="M-4,0h8" fill="none" stroke="white" stroke-width="1.5" pointer-events="none"/>
                </g>
                <g id="dirArrow">
                        <path fill="none" stroke="white" stroke-width="1.5" d="M0,-3.0v7 M-2.5,-0.5L0,-3.0L2.5,-0.5"/>
                </g>
               <g id="resetDef">
                       <use xlink:href="#rim2" fill="#404040">
                               <set attributeName="fill" to="#808080" begin="reset.mouseover" end="reset.mouseout"/>
                       </use>
               </g>
        </defs>

<script type="text/javascript">
var viewWidth = 804;
var viewHeight = 1457;
var sectionId = 'dynsection-26';
</script>
<script xlink:href="svgpan.js"/>
<svg id="graph" class="graph">
<g id="viewport">
<title>operacoes_grafo</title>
<polygon fill="white" stroke="none" points="-4,4 -4,-1453.34 800,-1453.34 800,4 -4,4"/>
<!-- Node1 -->
<g id="node1" class="node"><title>Node1</title>
<polygon fill="#bfbfbf" stroke="black" points="0.5,-543.84 0.5,-562.84 89.5,-562.84 89.5,-543.84 0.5,-543.84"/>
<text text-anchor="middle" x="45" y="-550.84" font-family="Helvetica,sans-Serif" font-size="10.00">operacoes_grafo</text>
</g>
<!-- Node2 -->
<g id="node2" class="node"><title>Node2</title>
<g id="a_node2"><a xlink:href="main_8cc.html#a8b39b6c1f4d3623c384e80826e5b633e" target="_top" xlink:title="print_operacoes">
<polygon fill="white" stroke="black" points="126,-752.84 126,-771.84 212,-771.84 212,-752.84 126,-752.84"/>
<text text-anchor="middle" x="169" y="-759.84" font-family="Helvetica,sans-Serif" font-size="10.00">print_operacoes</text>
</a>
</g>
</g>
<!-- Node1&#45;&gt;Node2 -->
<g id="edge1" class="edge"><title>Node1&#45;&gt;Node2</title>
<path fill="none" stroke="midnightblue" d="M47.5108,-562.999C52.7487,-593.462 72.8078,-688.73 126,-743.34 127.382,-744.759 128.889,-746.081 130.485,-747.312"/>
<polygon fill="midnightblue" stroke="midnightblue" points="128.707,-750.329 139.026,-752.731 132.457,-744.418 128.707,-750.329"/>
</g>
<!-- Node3 -->
<g id="node3" class="node"><title>Node3</title>
<g id="a_node3"><a xlink:href="main_8cc.html#abe7109d6b800c7cd9f5c2097bc8df894" target="_top" xlink:title="destruir_menu">
<polygon fill="white" stroke="black" points="589,-334.84 589,-353.84 667,-353.84 667,-334.84 589,-334.84"/>
<text text-anchor="middle" x="628" y="-341.84" font-family="Helvetica,sans-Serif" font-size="10.00">destruir_menu</text>
</a>
</g>
</g>
<!-- Node1&#45;&gt;Node3 -->
<g id="edge2" class="edge"><title>Node1&#45;&gt;Node3</title>
<path fill="none" stroke="midnightblue" d="M46.5915,-543.558C50.2922,-485.152 71.8825,-182.587 126,-110.34 162.344,-61.8209 189.398,-64.8611 248,-49.3404 373.512,-16.0986 436.326,37.8258 540,-40.3404 586.733,-75.5753 615.973,-263.018 624.439,-324.669"/>
<polygon fill="midnightblue" stroke="midnightblue" points="620.98,-325.205 625.778,-334.651 627.918,-324.275 620.98,-325.205"/>
</g>
<!-- Node4 -->
<g id="node4" class="node"><title>Node4</title>
<g id="a_node4"><a xlink:href="main_8cc.html#adb3b0c3b009c68f86673eb7bdeef601c" target="_top" xlink:title="inserir_tarefa">
<polygon fill="white" stroke="black" points="132.5,-638.84 132.5,-657.84 205.5,-657.84 205.5,-638.84 132.5,-638.84"/>
<text text-anchor="middle" x="169" y="-645.84" font-family="Helvetica,sans-Serif" font-size="10.00">inserir_tarefa</text>
</a>
</g>
</g>
<!-- Node1&#45;&gt;Node4 -->
<g id="edge3" class="edge"><title>Node1&#45;&gt;Node4</title>
<path fill="none" stroke="midnightblue" d="M58.5966,-563.149C79.618,-579.518 122.043,-612.554 147.443,-632.333"/>
<polygon fill="midnightblue" stroke="midnightblue" points="145.613,-635.344 155.654,-638.726 149.914,-629.821 145.613,-635.344"/>
</g>
<!-- Node13 -->
<g id="node13" class="node"><title>Node13</title>
<g id="a_node13"><a xlink:href="main_8cc.html#a16c89e840263b1af21caf3211b6640b2" target="_top" xlink:title="inserir_novo_pre_requisito">
<polygon fill="white" stroke="black" points="248,-942.84 248,-961.84 378,-961.84 378,-942.84 248,-942.84"/>
<text text-anchor="middle" x="313" y="-949.84" font-family="Helvetica,sans-Serif" font-size="10.00">inserir_novo_pre_requisito</text>
</a>
</g>
</g>
<!-- Node1&#45;&gt;Node13 -->
<g id="edge21" class="edge"><title>Node1&#45;&gt;Node13</title>
<path fill="none" stroke="midnightblue" d="M50.4445,-562.914C60.8212,-584.335 88.627,-636.653 126,-667.34 158.295,-693.858 186.292,-672.397 212,-705.34 269.988,-779.649 194.563,-836.695 248,-914.34 254.969,-924.467 265.597,-932.315 276.202,-938.179"/>
<polygon fill="midnightblue" stroke="midnightblue" points="274.918,-941.452 285.422,-942.83 278.07,-935.201 274.918,-941.452"/>
</g>
<!-- Node14 -->
<g id="node14" class="node"><title>Node14</title>
<g id="a_node14"><a xlink:href="main_8cc.html#ab5f698491708904442d9d4f8583cd809" target="_top" xlink:title="remover_tarefa">
<polygon fill="white" stroke="black" points="272,-543.84 272,-562.84 354,-562.84 354,-543.84 272,-543.84"/>
<text text-anchor="middle" x="313" y="-550.84" font-family="Helvetica,sans-Serif" font-size="10.00">remover_tarefa</text>
</a>
</g>
</g>
<!-- Node1&#45;&gt;Node14 -->
<g id="edge27" class="edge"><title>Node1&#45;&gt;Node14</title>
<path fill="none" stroke="midnightblue" d="M89.6266,-553.34C136.824,-553.34 211.969,-553.34 261.641,-553.34"/>
<polygon fill="midnightblue" stroke="midnightblue" points="261.834,-556.841 271.834,-553.34 261.834,-549.841 261.834,-556.841"/>
</g>
<!-- Node17 -->
<g id="node17" class="node"><title>Node17</title>
<g id="a_node17"><a xlink:href="main_8cc.html#ae96b9adf5e390d1a516e3fe5164714cc" target="_top" xlink:title="remover_pre_requisitos">
<polygon fill="white" stroke="black" points="254,-467.84 254,-486.84 372,-486.84 372,-467.84 254,-467.84"/>
<text text-anchor="middle" x="313" y="-474.84" font-family="Helvetica,sans-Serif" font-size="10.00">remover_pre_requisitos</text>
</a>
</g>
</g>
<!-- Node1&#45;&gt;Node17 -->
<g id="edge35" class="edge"><title>Node1&#45;&gt;Node17</title>
<path fill="none" stroke="midnightblue" d="M79.4197,-543.792C127.398,-530.084 215.828,-504.818 268.74,-489.7"/>
<polygon fill="midnightblue" stroke="midnightblue" points="269.854,-493.022 278.508,-486.91 267.931,-486.292 269.854,-493.022"/>
</g>
<!-- Node19 -->
<g id="node19" class="node"><title>Node19</title>
<g id="a_node19"><a xlink:href="main_8cc.html#a7769e05575359d89d7467b1e46940ecf" target="_top" xlink:title="editar_tarefa">
<polygon fill="white" stroke="black" points="133.5,-714.84 133.5,-733.84 204.5,-733.84 204.5,-714.84 133.5,-714.84"/>
<text text-anchor="middle" x="169" y="-721.84" font-family="Helvetica,sans-Serif" font-size="10.00">editar_tarefa</text>
</a>
</g>
</g>
<!-- Node1&#45;&gt;Node19 -->
<g id="edge41" class="edge"><title>Node1&#45;&gt;Node19</title>
<path fill="none" stroke="midnightblue" d="M49.1702,-563.079C57.8382,-588.452 84.1182,-657.58 126,-700.34 129.261,-703.67 133.083,-706.684 137.068,-709.363"/>
<polygon fill="midnightblue" stroke="midnightblue" points="135.528,-712.521 145.9,-714.684 139.141,-706.525 135.528,-712.521"/>
</g>
<!-- Node23 -->
<g id="node23" class="node"><title>Node23</title>
<g id="a_node23"><a xlink:href="main_8cc.html#a5d247f6e8ee275a8cd007f922ae2acb3" target="_top" xlink:title="visualizador_tarefas">
<polygon fill="white" stroke="black" points="261,-201.84 261,-220.84 365,-220.84 365,-201.84 261,-201.84"/>
<text text-anchor="middle" x="313" y="-208.84" font-family="Helvetica,sans-Serif" font-size="10.00">visualizador_tarefas</text>
</a>
</g>
</g>
<!-- Node1&#45;&gt;Node23 -->
<g id="edge56" class="edge"><title>Node1&#45;&gt;Node23</title>
<path fill="none" stroke="midnightblue" d="M49.4526,-543.72C65.2156,-501.114 134.502,-327.465 248,-235.34 253.019,-231.267 258.799,-227.84 264.789,-224.97"/>
<polygon fill="midnightblue" stroke="midnightblue" points="266.479,-228.054 274.297,-220.904 263.727,-221.618 266.479,-228.054"/>
</g>
<!-- Node28 -->
<g id="node28" class="node"><title>Node28</title>
<g id="a_node28"><a xlink:href="main_8cc.html#abc30d77428eefe83c569f49b7e48a7f8" target="_top" xlink:title="imprimir_em_arquivo">
<polygon fill="white" stroke="black" points="423.5,-49.8404 423.5,-68.8404 530.5,-68.8404 530.5,-49.8404 423.5,-49.8404"/>
<text text-anchor="middle" x="477" y="-56.8404" font-family="Helvetica,sans-Serif" font-size="10.00">imprimir_em_arquivo</text>
</a>
</g>
</g>
<!-- Node1&#45;&gt;Node28 -->
<g id="edge68" class="edge"><title>Node1&#45;&gt;Node28</title>
<path fill="none" stroke="midnightblue" d="M46.4233,-543.486C49.5014,-485.838 73.636,-191.198 248,-85.3404 297.598,-55.2291 364.557,-50.9639 413.07,-52.8823"/>
<polygon fill="midnightblue" stroke="midnightblue" points="412.968,-56.3815 423.129,-53.3785 413.313,-49.39 412.968,-56.3815"/>
</g>
<!-- Node4&#45;&gt;Node3 -->
<g id="edge6" class="edge"><title>Node4&#45;&gt;Node3</title>
<path fill="none" stroke="midnightblue" d="M170.45,-638.635C173.37,-579.343 191.337,-266.043 248,-192.34 329.735,-86.0267 429.559,-40.2744 540,-116.34 610.444,-164.858 623.888,-278.654 626.424,-324.591"/>
<polygon fill="midnightblue" stroke="midnightblue" points="622.933,-324.887 626.862,-334.727 629.927,-324.585 622.933,-324.887"/>
</g>
<!-- Node5 -->
<g id="node5" class="node"><title>Node5</title>
<g id="a_node5"><a xlink:href="main_8cc.html#ad2a06ffdf1033b3b1c11f337fa12553b" target="_top" xlink:title="imprimirRotulo">
<polygon fill="white" stroke="black" points="588,-695.84 588,-714.84 668,-714.84 668,-695.84 588,-695.84"/>
<text text-anchor="middle" x="628" y="-702.84" font-family="Helvetica,sans-Serif" font-size="10.00">imprimirRotulo</text>
</a>
</g>
</g>
<!-- Node4&#45;&gt;Node5 -->
<g id="edge4" class="edge"><title>Node4&#45;&gt;Node5</title>
<path fill="none" stroke="midnightblue" d="M199.79,-657.87C203.965,-659.524 208.144,-661.357 212,-663.34 229.323,-672.249 230.137,-680.571 248,-688.34 367.909,-740.496 409.995,-738.371 540,-724.34 553.719,-722.86 568.446,-720.102 581.812,-717.138"/>
<polygon fill="midnightblue" stroke="midnightblue" points="582.771,-720.509 591.727,-714.849 581.196,-713.688 582.771,-720.509"/>
</g>
<!-- Node6 -->
<g id="node6" class="node"><title>Node6</title>
<g id="a_node6"><a xlink:href="grafo_8cc.html#a1e996ff4a17fa0e42fc8ff6bdc605dc1" target="_top" xlink:title="pesquisa_tarefa">
<polygon fill="white" stroke="black" points="585,-1176.84 585,-1195.84 671,-1195.84 671,-1176.84 585,-1176.84"/>
<text text-anchor="middle" x="628" y="-1183.84" font-family="Helvetica,sans-Serif" font-size="10.00">pesquisa_tarefa</text>
</a>
</g>
</g>
<!-- Node4&#45;&gt;Node6 -->
<g id="edge5" class="edge"><title>Node4&#45;&gt;Node6</title>
<path fill="none" stroke="midnightblue" d="M179.528,-657.86C189.483,-668.455 204.654,-686.568 212,-705.34 264.639,-839.852 189.301,-896.361 248,-1028.34 293.162,-1129.88 312.635,-1169.78 414,-1215.34 475.136,-1242.82 555.328,-1217.47 597.747,-1199.89"/>
<polygon fill="midnightblue" stroke="midnightblue" points="599.378,-1203 607.191,-1195.84 596.621,-1196.56 599.378,-1203"/>
</g>
<!-- Node7 -->
<g id="node7" class="node"><title>Node7</title>
<g id="a_node7"><a xlink:href="main_8cc.html#acec6efd5f1ee225764d814040f142268" target="_top" xlink:title="erro_id_existente">
<polygon fill="white" stroke="black" points="431.5,-695.84 431.5,-714.84 522.5,-714.84 522.5,-695.84 431.5,-695.84"/>
<text text-anchor="middle" x="477" y="-702.84" font-family="Helvetica,sans-Serif" font-size="10.00">erro_id_existente</text>
</a>
</g>
</g>
<!-- Node4&#45;&gt;Node7 -->
<g id="edge7" class="edge"><title>Node4&#45;&gt;Node7</title>
<path fill="none" stroke="midnightblue" d="M205.701,-654.991C258.792,-664.88 358.975,-683.542 421.337,-695.158"/>
<polygon fill="midnightblue" stroke="midnightblue" points="420.914,-698.639 431.385,-697.03 422.195,-691.758 420.914,-698.639"/>
</g>
<!-- Node8 -->
<g id="node8" class="node"><title>Node8</title>
<g id="a_node8"><a xlink:href="grafo_8cc.html#a563a8912631e461ec1d9a2bff50426d9" target="_top" xlink:title="insere_tarefa">
<polygon fill="white" stroke="black" points="276.5,-619.84 276.5,-638.84 349.5,-638.84 349.5,-619.84 276.5,-619.84"/>
<text text-anchor="middle" x="313" y="-626.84" font-family="Helvetica,sans-Serif" font-size="10.00">insere_tarefa</text>
</a>
</g>
</g>
<!-- Node4&#45;&gt;Node8 -->
<g id="edge10" class="edge"><title>Node4&#45;&gt;Node8</title>
<path fill="none" stroke="midnightblue" d="M205.833,-643.546C224.163,-641.093 246.678,-638.081 266.25,-635.462"/>
<polygon fill="midnightblue" stroke="midnightblue" points="266.731,-638.929 276.179,-634.133 265.803,-631.991 266.731,-638.929"/>
</g>
<!-- Node9 -->
<g id="node9" class="node"><title>Node9</title>
<g id="a_node9"><a xlink:href="main_8cc.html#a5c0ceb9634231b92e0dfc9db33b727fa" target="_top" xlink:title="tela_inserir_pre_requisito">
<polygon fill="white" stroke="black" points="250.5,-885.84 250.5,-904.84 375.5,-904.84 375.5,-885.84 250.5,-885.84"/>
<text text-anchor="middle" x="313" y="-892.84" font-family="Helvetica,sans-Serif" font-size="10.00">tela_inserir_pre_requisito</text>
</a>
</g>
</g>
<!-- Node4&#45;&gt;Node9 -->
<g id="edge11" class="edge"><title>Node4&#45;&gt;Node9</title>
<path fill="none" stroke="midnightblue" d="M192.873,-657.918C199.703,-661.634 206.758,-666.437 212,-672.34 239.241,-703.018 231.367,-719.837 248,-757.34 266.999,-800.179 290.409,-849.933 302.986,-876.434"/>
<polygon fill="midnightblue" stroke="midnightblue" points="299.932,-878.16 307.387,-885.687 306.253,-875.154 299.932,-878.16"/>
</g>
<!-- Node7&#45;&gt;Node3 -->
<g id="edge9" class="edge"><title>Node7&#45;&gt;Node3</title>
<path fill="none" stroke="midnightblue" d="M519.165,-695.733C526.952,-692.292 534.4,-687.636 540,-681.34 624.166,-586.732 628.835,-421.189 627.759,-364.245"/>
<polygon fill="midnightblue" stroke="midnightblue" points="631.253,-363.98 627.479,-354.081 624.256,-364.173 631.253,-363.98"/>
</g>
<!-- Node7&#45;&gt;Node5 -->
<g id="edge8" class="edge"><title>Node7&#45;&gt;Node5</title>
<path fill="none" stroke="midnightblue" d="M522.705,-705.34C540.046,-705.34 559.965,-705.34 577.719,-705.34"/>
<polygon fill="midnightblue" stroke="midnightblue" points="577.886,-708.841 587.885,-705.34 577.885,-701.841 577.886,-708.841"/>
</g>
<!-- Node9&#45;&gt;Node3 -->
<g id="edge16" class="edge"><title>Node9&#45;&gt;Node3</title>
<path fill="none" stroke="midnightblue" d="M315.854,-885.475C322.885,-850.295 350.778,-729.065 414,-653.34 456.666,-602.237 498.036,-624.022 540,-572.34 592.84,-507.264 615.971,-406.584 623.752,-364.209"/>
<polygon fill="midnightblue" stroke="midnightblue" points="627.246,-364.55 625.517,-354.097 620.35,-363.346 627.246,-364.55"/>
</g>
<!-- Node9&#45;&gt;Node5 -->
<g id="edge12" class="edge"><title>Node9&#45;&gt;Node5</title>
<path fill="none" stroke="midnightblue" d="M369.558,-904.863C418.583,-910.18 489.846,-910.068 540,-876.34 593.354,-840.461 615.712,-761.466 623.483,-724.776"/>
<polygon fill="midnightblue" stroke="midnightblue" points="626.941,-725.331 625.444,-714.842 620.073,-723.975 626.941,-725.331"/>
</g>
<!-- Node9&#45;&gt;Node6 -->
<g id="edge13" class="edge"><title>Node9&#45;&gt;Node6</title>
<path fill="none" stroke="midnightblue" d="M339.399,-904.942C352.677,-911.166 368.166,-920.526 378,-933.34 413.979,-980.222 372.606,-1019.16 414,-1061.34 454.97,-1103.09 489.806,-1069.31 540,-1099.34 570.52,-1117.6 598.142,-1148.91 613.725,-1168.57"/>
<polygon fill="midnightblue" stroke="midnightblue" points="611.12,-1170.92 620.005,-1176.69 616.659,-1166.64 611.12,-1170.92"/>
</g>
<!-- Node10 -->
<g id="node10" class="node"><title>Node10</title>
<g id="a_node10"><a xlink:href="grafo_8cc.html#a3fe6389b74d0356a95800a3d29d7d664" target="_top" xlink:title="insere_prerequisitos">
<polygon fill="white" stroke="black" points="576,-1372.84 576,-1391.84 680,-1391.84 680,-1372.84 576,-1372.84"/>
<text text-anchor="middle" x="628" y="-1379.84" font-family="Helvetica,sans-Serif" font-size="10.00">insere_prerequisitos</text>
</a>
</g>
</g>
<!-- Node9&#45;&gt;Node10 -->
<g id="edge14" class="edge"><title>Node9&#45;&gt;Node10</title>
<path fill="none" stroke="midnightblue" d="M341.073,-904.885C354.326,-910.967 369.271,-920.213 378,-933.34 442.107,-1029.75 359.592,-1089.14 414,-1191.34 458.438,-1274.81 554.584,-1339.77 600.952,-1367.58"/>
<polygon fill="midnightblue" stroke="midnightblue" points="599.401,-1370.73 609.793,-1372.79 602.957,-1364.7 599.401,-1370.73"/>
</g>
<!-- Node11 -->
<g id="node11" class="node"><title>Node11</title>
<g id="a_node11"><a xlink:href="grafo_8cc.html#a0e6585acadedc05719f93fa778cf1dcb" target="_top" xlink:title="procura_tarefa">
<polygon fill="white" stroke="black" points="716.5,-1204.84 716.5,-1223.84 795.5,-1223.84 795.5,-1204.84 716.5,-1204.84"/>
<text text-anchor="middle" x="756" y="-1211.84" font-family="Helvetica,sans-Serif" font-size="10.00">procura_tarefa</text>
</a>
</g>
</g>
<!-- Node9&#45;&gt;Node11 -->
<g id="edge20" class="edge"><title>Node9&#45;&gt;Node11</title>
<path fill="none" stroke="midnightblue" d="M331.142,-904.868C344.204,-912.283 362.519,-923.016 378,-933.34 519.18,-1027.49 679.665,-1154.03 735.011,-1198.27"/>
<polygon fill="midnightblue" stroke="midnightblue" points="732.978,-1201.12 742.971,-1204.64 737.355,-1195.66 732.978,-1201.12"/>
</g>
<!-- Node12 -->
<g id="node12" class="node"><title>Node12</title>
<g id="a_node12"><a xlink:href="main_8cc.html#aef0e5ebaf10f94ec3baf710468b2bca8" target="_top" xlink:title="erro_insere_pre_requisito">
<polygon fill="white" stroke="black" points="414.5,-847.84 414.5,-866.84 539.5,-866.84 539.5,-847.84 414.5,-847.84"/>
<text text-anchor="middle" x="477" y="-854.84" font-family="Helvetica,sans-Serif" font-size="10.00">erro_insere_pre_requisito</text>
</a>
</g>
</g>
<!-- Node9&#45;&gt;Node12 -->
<g id="edge17" class="edge"><title>Node9&#45;&gt;Node12</title>
<path fill="none" stroke="midnightblue" d="M354.879,-885.751C376.353,-880.714 402.86,-874.497 425.597,-869.163"/>
<polygon fill="midnightblue" stroke="midnightblue" points="426.478,-872.552 435.415,-866.86 424.879,-865.737 426.478,-872.552"/>
</g>
<!-- Node10&#45;&gt;Node11 -->
<g id="edge15" class="edge"><title>Node10&#45;&gt;Node11</title>
<path fill="none" stroke="midnightblue" d="M636.135,-1372.83C656.484,-1345.69 715.04,-1267.62 741.607,-1232.2"/>
<polygon fill="midnightblue" stroke="midnightblue" points="744.429,-1234.27 747.629,-1224.17 738.829,-1230.07 744.429,-1234.27"/>
</g>
<!-- Node12&#45;&gt;Node3 -->
<g id="edge19" class="edge"><title>Node12&#45;&gt;Node3</title>
<path fill="none" stroke="midnightblue" d="M483.404,-847.628C495.206,-826.061 523.541,-772.291 540,-724.34 586.045,-590.193 615.005,-421.03 623.996,-364.073"/>
<polygon fill="midnightblue" stroke="midnightblue" points="627.492,-364.366 625.569,-353.947 620.575,-363.291 627.492,-364.366"/>
</g>
<!-- Node12&#45;&gt;Node5 -->
<g id="edge18" class="edge"><title>Node12&#45;&gt;Node5</title>
<path fill="none" stroke="midnightblue" d="M487.321,-847.832C511.988,-822.668 579.227,-754.075 610.543,-722.129"/>
<polygon fill="midnightblue" stroke="midnightblue" points="613.182,-724.436 617.683,-714.845 608.183,-719.536 613.182,-724.436"/>
</g>
<!-- Node13&#45;&gt;Node3 -->
<g id="edge24" class="edge"><title>Node13&#45;&gt;Node3</title>
<path fill="none" stroke="midnightblue" d="M340.977,-942.731C354.203,-936.631 369.153,-927.389 378,-914.34 435.569,-829.427 352.346,-768.335 414,-686.34 451.162,-636.918 499.434,-674.009 540,-627.34 609.138,-547.802 623.336,-414.142 626.249,-364.07"/>
<polygon fill="midnightblue" stroke="midnightblue" points="629.751,-364.115 626.745,-353.956 622.759,-363.772 629.751,-364.115"/>
</g>
<!-- Node13&#45;&gt;Node5 -->
<g id="edge22" class="edge"><title>Node13&#45;&gt;Node5</title>
<path fill="none" stroke="midnightblue" d="M378.178,-954.213C427.481,-952.353 494.606,-942.257 540,-905.34 597.733,-858.39 618.097,-765.661 624.443,-725.108"/>
<polygon fill="midnightblue" stroke="midnightblue" points="627.918,-725.532 625.88,-715.135 620.989,-724.533 627.918,-725.532"/>
</g>
<!-- Node13&#45;&gt;Node6 -->
<g id="edge23" class="edge"><title>Node13&#45;&gt;Node6</title>
<path fill="none" stroke="midnightblue" d="M338.859,-961.968C352.137,-968.246 367.8,-977.649 378,-990.34 409.96,-1030.11 378.232,-1062.96 414,-1099.34 455.586,-1141.64 485.309,-1120.38 540,-1143.34 560.518,-1151.95 583.022,-1163.13 600.002,-1171.92"/>
<polygon fill="midnightblue" stroke="midnightblue" points="598.821,-1175.26 609.304,-1176.79 602.066,-1169.05 598.821,-1175.26"/>
</g>
<!-- Node13&#45;&gt;Node10 -->
<g id="edge26" class="edge"><title>Node13&#45;&gt;Node10</title>
<path fill="none" stroke="midnightblue" d="M341.651,-961.872C354.888,-967.913 369.643,-977.125 378,-990.34 424.162,-1063.34 350.848,-1318.42 414,-1377.34 460.992,-1421.18 542.315,-1407.82 589.72,-1394.7"/>
<polygon fill="midnightblue" stroke="midnightblue" points="590.951,-1397.99 599.58,-1391.84 589.001,-1391.27 590.951,-1397.99"/>
</g>
<!-- Node13&#45;&gt;Node12 -->
<g id="edge25" class="edge"><title>Node13&#45;&gt;Node12</title>
<path fill="none" stroke="midnightblue" d="M330.425,-942.709C358.806,-926.065 417.203,-891.82 450.768,-872.137"/>
<polygon fill="midnightblue" stroke="midnightblue" points="452.676,-875.076 459.532,-866.998 449.135,-869.037 452.676,-875.076"/>
</g>
<!-- Node14&#45;&gt;Node3 -->
<g id="edge30" class="edge"><title>Node14&#45;&gt;Node3</title>
<path fill="none" stroke="midnightblue" d="M330.689,-543.759C379.623,-515.632 520.524,-434.391 540,-420.34 565.719,-401.786 592.858,-377.157 609.851,-361.037"/>
<polygon fill="midnightblue" stroke="midnightblue" points="612.53,-363.317 617.327,-353.87 607.686,-358.264 612.53,-363.317"/>
</g>
<!-- Node14&#45;&gt;Node5 -->
<g id="edge28" class="edge"><title>Node14&#45;&gt;Node5</title>
<path fill="none" stroke="midnightblue" d="M333.58,-562.849C386.936,-588.76 535.102,-660.713 598.079,-691.296"/>
<polygon fill="midnightblue" stroke="midnightblue" points="596.903,-694.616 607.428,-695.836 599.961,-688.319 596.903,-694.616"/>
</g>
<!-- Node14&#45;&gt;Node6 -->
<g id="edge29" class="edge"><title>Node14&#45;&gt;Node6</title>
<path fill="none" stroke="midnightblue" d="M329.841,-563.023C344.714,-572.988 366.366,-589.912 378,-610.34 419.453,-683.129 358.953,-732.203 414,-795.34 452.885,-839.94 499.951,-794.782 540,-838.34 585.424,-887.744 616.029,-1100.63 624.57,-1166.7"/>
<polygon fill="midnightblue" stroke="midnightblue" points="621.1,-1167.16 625.83,-1176.64 628.044,-1166.28 621.1,-1167.16"/>
</g>
<!-- Node15 -->
<g id="node15" class="node"><title>Node15</title>
<g id="a_node15"><a xlink:href="main_8cc.html#a8e3083a90f6cf70bdfd6abd70494c74e" target="_top" xlink:title="erro_id_inexistente">
<polygon fill="white" stroke="black" points="428,-505.84 428,-524.84 526,-524.84 526,-505.84 428,-505.84"/>
<text text-anchor="middle" x="477" y="-512.84" font-family="Helvetica,sans-Serif" font-size="10.00">erro_id_inexistente</text>
</a>
</g>
</g>
<!-- Node14&#45;&gt;Node15 -->
<g id="edge31" class="edge"><title>Node14&#45;&gt;Node15</title>
<path fill="none" stroke="midnightblue" d="M354.045,-543.947C375.592,-538.893 402.387,-532.608 425.368,-527.217"/>
<polygon fill="midnightblue" stroke="midnightblue" points="426.354,-530.581 435.29,-524.89 424.755,-523.766 426.354,-530.581"/>
</g>
<!-- Node16 -->
<g id="node16" class="node"><title>Node16</title>
<g id="a_node16"><a xlink:href="grafo_8cc.html#abab0a8730861a86fe9a0713b3dcc018b" target="_top" xlink:title="remove_tarefa">
<polygon fill="white" stroke="black" points="437.5,-543.84 437.5,-562.84 516.5,-562.84 516.5,-543.84 437.5,-543.84"/>
<text text-anchor="middle" x="477" y="-550.84" font-family="Helvetica,sans-Serif" font-size="10.00">remove_tarefa</text>
</a>
</g>
</g>
<!-- Node14&#45;&gt;Node16 -->
<g id="edge34" class="edge"><title>Node14&#45;&gt;Node16</title>
<path fill="none" stroke="midnightblue" d="M354.045,-553.34C376.164,-553.34 403.812,-553.34 427.188,-553.34"/>
<polygon fill="midnightblue" stroke="midnightblue" points="427.253,-556.841 437.253,-553.34 427.253,-549.841 427.253,-556.841"/>
</g>
<!-- Node15&#45;&gt;Node3 -->
<g id="edge33" class="edge"><title>Node15&#45;&gt;Node3</title>
<path fill="none" stroke="midnightblue" d="M514.66,-505.757C523.603,-502.233 532.691,-497.533 540,-491.34 581.898,-455.845 608.702,-394.79 620.327,-363.722"/>
<polygon fill="midnightblue" stroke="midnightblue" points="623.706,-364.668 623.806,-354.074 617.121,-362.294 623.706,-364.668"/>
</g>
<!-- Node15&#45;&gt;Node5 -->
<g id="edge32" class="edge"><title>Node15&#45;&gt;Node5</title>
<path fill="none" stroke="midnightblue" d="M524.194,-524.856C529.896,-527.324 535.345,-530.43 540,-534.34 588.556,-575.135 613.009,-649.835 622.354,-685.443"/>
<polygon fill="midnightblue" stroke="midnightblue" points="619.055,-686.68 624.869,-695.538 625.848,-684.988 619.055,-686.68"/>
</g>
<!-- Node17&#45;&gt;Node3 -->
<g id="edge38" class="edge"><title>Node17&#45;&gt;Node3</title>
<path fill="none" stroke="midnightblue" d="M317.708,-467.524C328.136,-441.524 360.497,-371.052 414,-344.34 466.18,-318.29 534.91,-324.337 579.993,-332.821"/>
<polygon fill="midnightblue" stroke="midnightblue" points="579.587,-336.309 590.079,-334.834 580.957,-329.444 579.587,-336.309"/>
</g>
<!-- Node17&#45;&gt;Node5 -->
<g id="edge36" class="edge"><title>Node17&#45;&gt;Node5</title>
<path fill="none" stroke="midnightblue" d="M363.109,-467.816C412.598,-461.102 488.781,-458.987 540,-496.34 603.122,-542.374 620.672,-642.927 625.364,-685.58"/>
<polygon fill="midnightblue" stroke="midnightblue" points="621.903,-686.152 626.356,-695.766 628.87,-685.473 621.903,-686.152"/>
</g>
<!-- Node17&#45;&gt;Node6 -->
<g id="edge37" class="edge"><title>Node17&#45;&gt;Node6</title>
<path fill="none" stroke="midnightblue" d="M329.864,-487.011C344.753,-496.966 366.417,-513.883 378,-534.34 420.348,-609.13 363.89,-654.513 414,-724.34 451.476,-776.564 501.701,-743.717 540,-795.34 585.039,-856.049 616.324,-1095.62 624.734,-1166.49"/>
<polygon fill="midnightblue" stroke="midnightblue" points="621.29,-1167.17 625.925,-1176.7 628.243,-1166.36 621.29,-1167.17"/>
</g>
<!-- Node17&#45;&gt;Node15 -->
<g id="edge39" class="edge"><title>Node17&#45;&gt;Node15</title>
<path fill="none" stroke="midnightblue" d="M354.879,-486.929C376.353,-491.967 402.86,-498.184 425.597,-503.517"/>
<polygon fill="midnightblue" stroke="midnightblue" points="424.879,-506.944 435.415,-505.82 426.478,-500.129 424.879,-506.944"/>
</g>
<!-- Node18 -->
<g id="node18" class="node"><title>Node18</title>
<g id="a_node18"><a xlink:href="grafo_8cc.html#ad1f78512cd30c15264c68265f61296a6" target="_top" xlink:title="remove_prerequisitos">
<polygon fill="white" stroke="black" points="422,-391.84 422,-410.84 532,-410.84 532,-391.84 422,-391.84"/>
<text text-anchor="middle" x="477" y="-398.84" font-family="Helvetica,sans-Serif" font-size="10.00">remove_prerequisitos</text>
</a>
</g>
</g>
<!-- Node17&#45;&gt;Node18 -->
<g id="edge40" class="edge"><title>Node17&#45;&gt;Node18</title>
<path fill="none" stroke="midnightblue" d="M331.058,-467.735C350.739,-456.826 384.221,-438.797 414,-425.34 422.33,-421.576 431.439,-417.844 440.049,-414.485"/>
<polygon fill="midnightblue" stroke="midnightblue" points="441.403,-417.714 449.489,-410.868 438.899,-411.177 441.403,-417.714"/>
</g>
<!-- Node19&#45;&gt;Node3 -->
<g id="edge44" class="edge"><title>Node19&#45;&gt;Node3</title>
<path fill="none" stroke="midnightblue" d="M179.312,-714.732C189.083,-704.063 204.098,-685.886 212,-667.34 248.948,-580.627 207.483,-543.445 248,-458.34 296.201,-357.095 311.904,-314.714 414,-268.34 464.987,-245.181 487.57,-248.665 540,-268.34 570.961,-279.959 598.131,-308.139 613.549,-326.727"/>
<polygon fill="midnightblue" stroke="midnightblue" points="610.976,-329.114 619.958,-334.733 616.44,-324.739 610.976,-329.114"/>
</g>
<!-- Node19&#45;&gt;Node5 -->
<g id="edge42" class="edge"><title>Node19&#45;&gt;Node5</title>
<path fill="none" stroke="midnightblue" d="M201.146,-733.904C205.327,-736.381 209.149,-739.477 212,-743.34 287.816,-846.065 191.31,-913.943 248,-1028.34 313.995,-1161.51 426.02,-1286.73 540,-1191.34 613.14,-1130.13 624.863,-808.1 626.678,-724.948"/>
<polygon fill="midnightblue" stroke="midnightblue" points="630.179,-724.918 626.874,-714.852 623.181,-724.783 630.179,-724.918"/>
</g>
<!-- Node19&#45;&gt;Node6 -->
<g id="edge43" class="edge"><title>Node19&#45;&gt;Node6</title>
<path fill="none" stroke="midnightblue" d="M201.77,-734.006C205.759,-736.46 209.359,-739.523 212,-743.34 282.693,-845.529 157.352,-1216.35 248,-1301.34 342.675,-1390.1 423.803,-1359.14 540,-1301.34 580.348,-1281.27 606.969,-1232.57 619.218,-1205.42"/>
<polygon fill="midnightblue" stroke="midnightblue" points="622.459,-1206.74 623.208,-1196.18 616.032,-1203.97 622.459,-1206.74"/>
</g>
<!-- Node19&#45;&gt;Node15 -->
<g id="edge45" class="edge"><title>Node19&#45;&gt;Node15</title>
<path fill="none" stroke="midnightblue" d="M204.54,-721.039C250.455,-714.823 331.228,-697.238 378,-648.34 414.727,-609.944 376.27,-571.751 414,-534.34 415.624,-532.73 417.38,-531.256 419.238,-529.906"/>
<polygon fill="midnightblue" stroke="midnightblue" points="421.119,-532.86 427.936,-524.75 417.549,-526.839 421.119,-532.86"/>
</g>
<!-- Node20 -->
<g id="node20" class="node"><title>Node20</title>
<g id="a_node20"><a xlink:href="main_8cc.html#a8d8002aa0f76981dad9ce30329767981" target="_top" xlink:title="edicao_tarefa">
<polygon fill="white" stroke="black" points="275.5,-999.84 275.5,-1018.84 350.5,-1018.84 350.5,-999.84 275.5,-999.84"/>
<text text-anchor="middle" x="313" y="-1006.84" font-family="Helvetica,sans-Serif" font-size="10.00">edicao_tarefa</text>
</a>
</g>
</g>
<!-- Node19&#45;&gt;Node20 -->
<g id="edge46" class="edge"><title>Node19&#45;&gt;Node20</title>
<path fill="none" stroke="midnightblue" d="M201.041,-733.983C205.236,-736.449 209.089,-739.521 212,-743.34 274.19,-824.93 190.431,-886.427 248,-971.34 254.842,-981.433 265.336,-989.248 275.859,-995.093"/>
<polygon fill="midnightblue" stroke="midnightblue" points="274.52,-998.339 285.023,-999.731 277.681,-992.093 274.52,-998.339"/>
</g>
<!-- Node20&#45;&gt;Node3 -->
<g id="edge49" class="edge"><title>Node20&#45;&gt;Node3</title>
<path fill="none" stroke="midnightblue" d="M330.72,-999.734C343.718,-992.189 362.144,-981.324 378,-971.34 394.273,-961.095 397.612,-957.401 414,-947.34 468.78,-913.711 503.183,-929.031 540,-876.34 547.566,-865.513 609.48,-459.828 623.973,-364.327"/>
<polygon fill="midnightblue" stroke="midnightblue" points="627.46,-364.677 625.499,-354.265 620.539,-363.628 627.46,-364.677"/>
</g>
<!-- Node20&#45;&gt;Node5 -->
<g id="edge47" class="edge"><title>Node20&#45;&gt;Node5</title>
<path fill="none" stroke="midnightblue" d="M350.61,-1008.27C399.857,-1004.89 487.327,-991.765 540,-942.34 604.235,-882.067 621.233,-770.369 625.573,-725.132"/>
<polygon fill="midnightblue" stroke="midnightblue" points="629.063,-725.395 626.424,-715.134 622.088,-724.801 629.063,-725.395"/>
</g>
<!-- Node20&#45;&gt;Node6 -->
<g id="edge48" class="edge"><title>Node20&#45;&gt;Node6</title>
<path fill="none" stroke="midnightblue" d="M315.83,-1019.26C322.332,-1051.27 347.596,-1152.06 414,-1191.34 467.868,-1223.21 543.578,-1210.76 588.724,-1198.66"/>
<polygon fill="midnightblue" stroke="midnightblue" points="589.738,-1202.02 598.421,-1195.94 587.847,-1195.28 589.738,-1202.02"/>
</g>
<!-- Node20&#45;&gt;Node7 -->
<g id="edge50" class="edge"><title>Node20&#45;&gt;Node7</title>
<path fill="none" stroke="midnightblue" d="M339.449,-999.777C352.741,-993.564 368.229,-984.203 378,-971.34 415.044,-922.577 392.985,-895.86 414,-838.34 429.358,-796.302 452.836,-749.327 466.056,-723.988"/>
<polygon fill="midnightblue" stroke="midnightblue" points="469.172,-725.582 470.735,-715.103 462.978,-722.32 469.172,-725.582"/>
</g>
<!-- Node21 -->
<g id="node21" class="node"><title>Node21</title>
<g id="a_node21"><a xlink:href="main_8cc.html#a5f90fb7a7aa9c2393d70b4f95d675955" target="_top" xlink:title="tela_inserir_pre_requisito\l_edicao">
<polygon fill="white" stroke="black" points="414.5,-1152.34 414.5,-1182.34 539.5,-1182.34 539.5,-1152.34 414.5,-1152.34"/>
<text text-anchor="start" x="422.5" y="-1170.34" font-family="Helvetica,sans-Serif" font-size="10.00">tela_inserir_pre_requisito</text>
<text text-anchor="middle" x="477" y="-1159.34" font-family="Helvetica,sans-Serif" font-size="10.00">_edicao</text>
</a>
</g>
</g>
<!-- Node20&#45;&gt;Node21 -->
<g id="edge51" class="edge"><title>Node20&#45;&gt;Node21</title>
<path fill="none" stroke="midnightblue" d="M319.356,-1018.9C332.676,-1041.97 369.456,-1101.38 414,-1137.34 418.59,-1141.05 423.713,-1144.44 428.993,-1147.5"/>
<polygon fill="midnightblue" stroke="midnightblue" points="427.498,-1150.67 437.961,-1152.33 430.82,-1144.51 427.498,-1150.67"/>
</g>
<!-- Node22 -->
<g id="node22" class="node"><title>Node22</title>
<g id="a_node22"><a xlink:href="grafo_8cc.html#adaeb2e2aa0bf8a2fbb149376a33bd443" target="_top" xlink:title="edita_tarefa">
<polygon fill="white" stroke="black" points="443,-1429.84 443,-1448.84 511,-1448.84 511,-1429.84 443,-1429.84"/>
<text text-anchor="middle" x="477" y="-1436.84" font-family="Helvetica,sans-Serif" font-size="10.00">edita_tarefa</text>
</a>
</g>
</g>
<!-- Node20&#45;&gt;Node22 -->
<g id="edge53" class="edge"><title>Node20&#45;&gt;Node22</title>
<path fill="none" stroke="midnightblue" d="M315.179,-1019.11C322.081,-1074.89 358.861,-1352.66 414,-1415.34 419.253,-1421.31 426.17,-1425.81 433.475,-1429.19"/>
<polygon fill="midnightblue" stroke="midnightblue" points="432.253,-1432.47 442.839,-1432.9 434.834,-1425.96 432.253,-1432.47"/>
</g>
<!-- Node21&#45;&gt;Node5 -->
<g id="edge52" class="edge"><title>Node21&#45;&gt;Node5</title>
<path fill="none" stroke="midnightblue" d="M485.418,-1152.07C497.85,-1126.07 523.179,-1071.38 540,-1023.34 578.864,-912.348 611.385,-774.681 622.711,-724.651"/>
<polygon fill="midnightblue" stroke="midnightblue" points="626.135,-725.376 624.91,-714.853 619.305,-723.843 626.135,-725.376"/>
</g>
<!-- Node22&#45;&gt;Node6 -->
<g id="edge55" class="edge"><title>Node22&#45;&gt;Node6</title>
<path fill="none" stroke="midnightblue" d="M484.108,-1429.76C495.369,-1412.04 520.074,-1372.88 540,-1339.34 568.478,-1291.4 600.563,-1234.06 616.642,-1205.09"/>
<polygon fill="midnightblue" stroke="midnightblue" points="619.846,-1206.52 621.63,-1196.08 613.723,-1203.13 619.846,-1206.52"/>
</g>
<!-- Node22&#45;&gt;Node10 -->
<g id="edge54" class="edge"><title>Node22&#45;&gt;Node10</title>
<path fill="none" stroke="midnightblue" d="M502.939,-1429.8C527.435,-1420.43 565.015,-1406.05 592.396,-1395.58"/>
<polygon fill="midnightblue" stroke="midnightblue" points="593.89,-1398.75 601.979,-1391.91 591.389,-1392.22 593.89,-1398.75"/>
</g>
<!-- Node23&#45;&gt;Node3 -->
<g id="edge58" class="edge"><title>Node23&#45;&gt;Node3</title>
<path fill="none" stroke="midnightblue" d="M335.719,-201.794C378.205,-184.692 473.919,-154.023 540,-192.34 589.843,-221.242 613.566,-290.639 622.527,-324.746"/>
<polygon fill="midnightblue" stroke="midnightblue" points="619.137,-325.615 624.933,-334.483 625.933,-323.936 619.137,-325.615"/>
</g>
<!-- Node24 -->
<g id="node24" class="node"><title>Node24</title>
<g id="a_node24"><a xlink:href="main_8cc.html#a4611d53166aabe6d0fb24bcfd407bd53" target="_top" xlink:title="print_visualizador">
<polygon fill="white" stroke="black" points="431,-125.84 431,-144.84 523,-144.84 523,-125.84 431,-125.84"/>
<text text-anchor="middle" x="477" y="-132.84" font-family="Helvetica,sans-Serif" font-size="10.00">print_visualizador</text>
</a>
</g>
</g>
<!-- Node23&#45;&gt;Node24 -->
<g id="edge57" class="edge"><title>Node23&#45;&gt;Node24</title>
<path fill="none" stroke="midnightblue" d="M331.058,-201.735C350.739,-190.826 384.221,-172.797 414,-159.34 422.33,-155.576 431.439,-151.844 440.049,-148.485"/>
<polygon fill="midnightblue" stroke="midnightblue" points="441.403,-151.714 449.489,-144.868 438.899,-145.177 441.403,-151.714"/>
</g>
<!-- Node25 -->
<g id="node25" class="node"><title>Node25</title>
<g id="a_node25"><a xlink:href="main_8cc.html#aa0ac4a2d1125c89ec5acc37dfde748c6" target="_top" xlink:title="ver_tarefas">
<polygon fill="white" stroke="black" points="444.5,-277.84 444.5,-296.84 509.5,-296.84 509.5,-277.84 444.5,-277.84"/>
<text text-anchor="middle" x="477" y="-284.84" font-family="Helvetica,sans-Serif" font-size="10.00">ver_tarefas</text>
</a>
</g>
</g>
<!-- Node23&#45;&gt;Node25 -->
<g id="edge59" class="edge"><title>Node23&#45;&gt;Node25</title>
<path fill="none" stroke="midnightblue" d="M334.517,-220.966C362.757,-234.214 413.786,-258.153 446.225,-273.372"/>
<polygon fill="midnightblue" stroke="midnightblue" points="445.109,-276.714 455.649,-277.793 448.082,-270.377 445.109,-276.714"/>
</g>
<!-- Node26 -->
<g id="node26" class="node"><title>Node26</title>
<g id="a_node26"><a xlink:href="main_8cc.html#a4f8f29b1eba21e0b51992f8de173a582" target="_top" xlink:title="mostrar_pre_requisitos">
<polygon fill="white" stroke="black" points="419,-201.84 419,-220.84 535,-220.84 535,-201.84 419,-201.84"/>
<text text-anchor="middle" x="477" y="-208.84" font-family="Helvetica,sans-Serif" font-size="10.00">mostrar_pre_requisitos</text>
</a>
</g>
</g>
<!-- Node23&#45;&gt;Node26 -->
<g id="edge62" class="edge"><title>Node23&#45;&gt;Node26</title>
<path fill="none" stroke="midnightblue" d="M365.258,-211.34C378.983,-211.34 394.031,-211.34 408.489,-211.34"/>
<polygon fill="midnightblue" stroke="midnightblue" points="408.885,-214.841 418.885,-211.34 408.885,-207.841 408.885,-214.841"/>
</g>
<!-- Node27 -->
<g id="node27" class="node"><title>Node27</title>
<g id="a_node27"><a xlink:href="main_8cc.html#ab05b93d97a47c67aab51426cdad29a86" target="_top" xlink:title="ver_tarefas_concluidas">
<polygon fill="white" stroke="black" points="418.5,-353.84 418.5,-372.84 535.5,-372.84 535.5,-353.84 418.5,-353.84"/>
<text text-anchor="middle" x="477" y="-360.84" font-family="Helvetica,sans-Serif" font-size="10.00">ver_tarefas_concluidas</text>
</a>
</g>
</g>
<!-- Node23&#45;&gt;Node27 -->
<g id="edge65" class="edge"><title>Node23&#45;&gt;Node27</title>
<path fill="none" stroke="midnightblue" d="M324.169,-221.106C342.186,-238.384 380.934,-275.438 414,-306.34 428.722,-320.099 445.561,-335.563 457.971,-346.909"/>
<polygon fill="midnightblue" stroke="midnightblue" points="455.676,-349.552 465.42,-353.711 460.396,-344.383 455.676,-349.552"/>
</g>
<!-- Node25&#45;&gt;Node3 -->
<g id="edge61" class="edge"><title>Node25&#45;&gt;Node3</title>
<path fill="none" stroke="midnightblue" d="M502.939,-296.881C527.435,-306.252 565.015,-320.628 592.396,-331.103"/>
<polygon fill="midnightblue" stroke="midnightblue" points="591.389,-334.465 601.979,-334.769 593.89,-327.927 591.389,-334.465"/>
</g>
<!-- Node25&#45;&gt;Node5 -->
<g id="edge60" class="edge"><title>Node25&#45;&gt;Node5</title>
<path fill="none" stroke="midnightblue" d="M492.611,-296.87C506.882,-306.953 528.134,-324.179 540,-344.34 608.524,-460.774 623.16,-628.492 626.215,-685.508"/>
<polygon fill="midnightblue" stroke="midnightblue" points="622.726,-685.839 626.695,-695.663 629.719,-685.508 622.726,-685.839"/>
</g>
<!-- Node26&#45;&gt;Node3 -->
<g id="edge64" class="edge"><title>Node26&#45;&gt;Node3</title>
<path fill="none" stroke="midnightblue" d="M512.158,-220.894C521.703,-224.508 531.719,-229.261 540,-235.34 574.137,-260.401 602.238,-302.097 616.617,-326"/>
<polygon fill="midnightblue" stroke="midnightblue" points="613.683,-327.917 621.758,-334.776 619.723,-324.379 613.683,-327.917"/>
</g>
<!-- Node26&#45;&gt;Node5 -->
<g id="edge63" class="edge"><title>Node26&#45;&gt;Node5</title>
<path fill="none" stroke="midnightblue" d="M493.053,-220.96C507.452,-230.993 528.611,-248.073 540,-268.34 581.542,-342.269 615.74,-610.093 624.704,-685.475"/>
<polygon fill="midnightblue" stroke="midnightblue" points="621.24,-685.986 625.882,-695.51 628.192,-685.17 621.24,-685.986"/>
</g>
<!-- Node27&#45;&gt;Node3 -->
<g id="edge67" class="edge"><title>Node27&#45;&gt;Node3</title>
<path fill="none" stroke="midnightblue" d="M535.607,-355.995C549.833,-354.18 564.927,-352.256 578.662,-350.504"/>
<polygon fill="midnightblue" stroke="midnightblue" points="579.386,-353.94 588.863,-349.204 578.501,-346.997 579.386,-353.94"/>
</g>
<!-- Node27&#45;&gt;Node5 -->
<g id="edge66" class="edge"><title>Node27&#45;&gt;Node5</title>
<path fill="none" stroke="midnightblue" d="M526.842,-372.891C531.718,-375.358 536.245,-378.454 540,-382.34 624.206,-469.481 628.942,-629.152 627.814,-685.228"/>
<polygon fill="midnightblue" stroke="midnightblue" points="624.306,-685.459 627.511,-695.558 631.303,-685.665 624.306,-685.459"/>
</g>
<!-- Node28&#45;&gt;Node3 -->
<g id="edge71" class="edge"><title>Node28&#45;&gt;Node3</title>
<path fill="none" stroke="midnightblue" d="M518.195,-68.972C526.231,-72.4213 534.026,-77.0754 540,-83.3404 606.991,-153.597 622.448,-276.807 625.973,-324.606"/>
<polygon fill="midnightblue" stroke="midnightblue" points="622.495,-325.063 626.624,-334.82 629.481,-324.617 622.495,-325.063"/>
</g>
<!-- Node28&#45;&gt;Node5 -->
<g id="edge69" class="edge"><title>Node28&#45;&gt;Node5</title>
<path fill="none" stroke="midnightblue" d="M493.557,-69.0242C508.12,-78.989 529.208,-95.9141 540,-116.34 591.824,-214.429 559.819,-253.589 576,-363.34 594.11,-486.172 616.246,-633.759 624.082,-685.927"/>
<polygon fill="midnightblue" stroke="midnightblue" points="620.622,-686.453 625.569,-695.822 627.544,-685.413 620.622,-686.453"/>
</g>
<!-- Node29 -->
<g id="node29" class="node"><title>Node29</title>
<g id="a_node29"><a xlink:href="grafo_8cc.html#ac7a63f8753e7dbbb4117e6d4ebaa5933" target="_top" xlink:title="imprime_grafo">
<polygon fill="white" stroke="black" points="589,-49.8404 589,-68.8404 667,-68.8404 667,-49.8404 589,-49.8404"/>
<text text-anchor="middle" x="628" y="-56.8404" font-family="Helvetica,sans-Serif" font-size="10.00">imprime_grafo</text>
</a>
</g>
</g>
<!-- Node28&#45;&gt;Node29 -->
<g id="edge70" class="edge"><title>Node28&#45;&gt;Node29</title>
<path fill="none" stroke="midnightblue" d="M530.532,-59.3404C546.189,-59.3404 563.268,-59.3404 578.645,-59.3404"/>
<polygon fill="midnightblue" stroke="midnightblue" points="578.981,-62.8405 588.981,-59.3404 578.981,-55.8405 578.981,-62.8405"/>
</g>
</g>
</svg>
        <g id="navigator" transform="translate(0 0)" fill="#404254">
                <rect fill="#f2f5e9" fill-opacity="0.5" stroke="#606060" stroke-width=".5" x="0" y="0" width="60" height="60"/>
                <use id="zoomplus" xlink:href="#zoomPlus" x="17" y="9" onmousedown="handleZoom(evt,'in')"/>
                <use id="zoomminus" xlink:href="#zoomMin" x="42" y="9" onmousedown="handleZoom(evt,'out')"/>
                <use id="reset" xlink:href="#resetDef" x="30" y="36" onmousedown="handleReset()"/>
                <g id="arrowUp" xlink:href="#dirArrow" transform="translate(30 24)" onmousedown="handlePan(0,-1)">
                  <use xlink:href="#rim" fill="#404040">
                        <set attributeName="fill" to="#808080" begin="arrowUp.mouseover" end="arrowUp.mouseout"/>
                  </use>
                  <path fill="none" stroke="white" stroke-width="1.5" d="M0,-3.0v7 M-2.5,-0.5L0,-3.0L2.5,-0.5"/>
                </g>
                <g id="arrowRight" xlink:href="#dirArrow" transform="rotate(90) translate(36 -43)" onmousedown="handlePan(1,0)">
                  <use xlink:href="#rim" fill="#404040">
                        <set attributeName="fill" to="#808080" begin="arrowRight.mouseover" end="arrowRight.mouseout"/>
                  </use>
                  <path fill="none" stroke="white" stroke-width="1.5" d="M0,-3.0v7 M-2.5,-0.5L0,-3.0L2.5,-0.5"/>
                </g>
                <g id="arrowDown" xlink:href="#dirArrow" transform="rotate(180) translate(-30 -48)" onmousedown="handlePan(0,1)">
                  <use xlink:href="#rim" fill="#404040">
                        <set attributeName="fill" to="#808080" begin="arrowDown.mouseover" end="arrowDown.mouseout"/>
                  </use>
                  <path fill="none" stroke="white" stroke-width="1.5" d="M0,-3.0v7 M-2.5,-0.5L0,-3.0L2.5,-0.5"/>
                </g>
                <g id="arrowLeft" xlink:href="#dirArrow" transform="rotate(270) translate(-36 17)" onmousedown="handlePan(-1,0)">
                  <use xlink:href="#rim" fill="#404040">
                        <set attributeName="fill" to="#808080" begin="arrowLeft.mouseover" end="arrowLeft.mouseout"/>
                  </use>
                  <path fill="none" stroke="white" stroke-width="1.5" d="M0,-3.0v7 M-2.5,-0.5L0,-3.0L2.5,-0.5"/>
                </g>
        </g>
        <svg viewBox="0 0 15 15" width="100%" height="30px" preserveAspectRatio="xMaxYMin meet">
         <g id="arrow_out" transform="scale(0.3 0.3)">
          <a xlink:href="main_8cc_af852bc15cf3d5217386a9bb0bf3b9abd_cgraph_org.svg" target="_base">
           <rect id="button" ry="5" rx="5" y="6" x="6" height="38" width="38"
                fill="#f2f5e9" fill-opacity="0.5" stroke="#606060" stroke-width="1.0"/>
           <path id="arrow"
             d="M 11.500037,31.436501 C 11.940474,20.09759 22.043105,11.32322 32.158766,21.979434 L 37.068811,17.246167 C 37.068811,17.246167 37.088388,32 37.088388,32 L 22.160133,31.978069 C 22.160133,31.978069 26.997745,27.140456 26.997745,27.140456 C 18.528582,18.264221 13.291696,25.230495 11.500037,31.436501 z"
             style="fill:#404040;"/>
          </a>
         </g>
        </svg>
</svg>
