<?xml version="1.0" encoding="UTF-8" standalone="no"?>
<!DOCTYPE svg PUBLIC "-//W3C//DTD SVG 1.1//EN"
 "http://www.w3.org/Graphics/SVG/1.1/DTD/svg11.dtd">
<!-- Generated by graphviz version 2.36.0 (20140111.2315)
 -->
<!-- Title: erro_id_inexistente Pages: 1 -->
<svg width="568pt" height="104pt"
 viewBox="0.00 0.00 568.00 104.00" xmlns="http://www.w3.org/2000/svg" xmlns:xlink="http://www.w3.org/1999/xlink">
<g id="graph0" class="graph" transform="scale(1 1) rotate(0) translate(4 100)">
<title>erro_id_inexistente</title>
<polygon fill="white" stroke="none" points="-4,4 -4,-100 564,-100 564,4 -4,4"/>
<!-- Node1 -->
<g id="node1" class="node"><title>Node1</title>
<polygon fill="#bfbfbf" stroke="black" points="0,-38.5 0,-57.5 98,-57.5 98,-38.5 0,-38.5"/>
<text text-anchor="middle" x="49" y="-45.5" font-family="Helvetica,sans-Serif" font-size="10.00">erro_id_inexistente</text>
</g>
<!-- Node2 -->
<g id="node2" class="node"><title>Node2</title>
<g id="a_node2"><a xlink:href="main_8cc.html#a7769e05575359d89d7467b1e46940ecf" target="_top" xlink:title="editar_tarefa">
<polygon fill="white" stroke="black" points="157.5,-76.5 157.5,-95.5 228.5,-95.5 228.5,-76.5 157.5,-76.5"/>
<text text-anchor="middle" x="193" y="-83.5" font-family="Helvetica,sans-Serif" font-size="10.00">editar_tarefa</text>
</a>
</g>
</g>
<!-- Node1&#45;&gt;Node2 -->
<g id="edge1" class="edge"><title>Node1&#45;&gt;Node2</title>
<path fill="none" stroke="midnightblue" d="M95.6449,-60.2148C115.596,-65.5538 138.622,-71.7157 157.161,-76.6768"/>
<polygon fill="midnightblue" stroke="midnightblue" points="96.3975,-56.7931 85.8326,-57.589 94.5879,-63.5552 96.3975,-56.7931"/>
</g>
<!-- Node6 -->
<g id="node6" class="node"><title>Node6</title>
<g id="a_node6"><a xlink:href="main_8cc.html#ab5f698491708904442d9d4f8583cd809" target="_top" xlink:title="remover_tarefa">
<polygon fill="white" stroke="black" points="152,-38.5 152,-57.5 234,-57.5 234,-38.5 152,-38.5"/>
<text text-anchor="middle" x="193" y="-45.5" font-family="Helvetica,sans-Serif" font-size="10.00">remover_tarefa</text>
</a>
</g>
</g>
<!-- Node1&#45;&gt;Node6 -->
<g id="edge6" class="edge"><title>Node1&#45;&gt;Node6</title>
<path fill="none" stroke="midnightblue" d="M108.457,-48C122.939,-48 138.14,-48 151.546,-48"/>
<polygon fill="midnightblue" stroke="midnightblue" points="108.075,-44.5001 98.0747,-48 108.075,-51.5001 108.075,-44.5001"/>
</g>
<!-- Node7 -->
<g id="node7" class="node"><title>Node7</title>
<g id="a_node7"><a xlink:href="main_8cc.html#ae96b9adf5e390d1a516e3fe5164714cc" target="_top" xlink:title="remover_pre_requisitos">
<polygon fill="white" stroke="black" points="134,-0.5 134,-19.5 252,-19.5 252,-0.5 134,-0.5"/>
<text text-anchor="middle" x="193" y="-7.5" font-family="Helvetica,sans-Serif" font-size="10.00">remover_pre_requisitos</text>
</a>
</g>
</g>
<!-- Node1&#45;&gt;Node7 -->
<g id="edge8" class="edge"><title>Node1&#45;&gt;Node7</title>
<path fill="none" stroke="midnightblue" d="M95.4929,-35.8258C115.128,-30.5713 137.766,-24.5134 156.179,-19.5859"/>
<polygon fill="midnightblue" stroke="midnightblue" points="94.5879,-32.4448 85.8326,-38.411 96.3975,-39.2069 94.5879,-32.4448"/>
</g>
<!-- Node3 -->
<g id="node3" class="node"><title>Node3</title>
<g id="a_node3"><a xlink:href="main_8cc.html#af852bc15cf3d5217386a9bb0bf3b9abd" target="_top" xlink:title="operacoes_grafo">
<polygon fill="white" stroke="black" points="288.5,-38.5 288.5,-57.5 377.5,-57.5 377.5,-38.5 288.5,-38.5"/>
<text text-anchor="middle" x="333" y="-45.5" font-family="Helvetica,sans-Serif" font-size="10.00">operacoes_grafo</text>
</a>
</g>
</g>
<!-- Node2&#45;&gt;Node3 -->
<g id="edge2" class="edge"><title>Node2&#45;&gt;Node3</title>
<path fill="none" stroke="midnightblue" d="M238.473,-73.7538C257.495,-68.516 279.375,-62.4909 297.188,-57.5859"/>
<polygon fill="midnightblue" stroke="midnightblue" points="237.535,-70.3817 228.823,-76.411 239.394,-77.1305 237.535,-70.3817"/>
</g>
<!-- Node4 -->
<g id="node4" class="node"><title>Node4</title>
<g id="a_node4"><a xlink:href="main_8cc.html#af1ccf694bcf905341f10b534e5a272fa" target="_top" xlink:title="abrir_arquivo">
<polygon fill="white" stroke="black" points="414,-57.5 414,-76.5 486,-76.5 486,-57.5 414,-57.5"/>
<text text-anchor="middle" x="450" y="-64.5" font-family="Helvetica,sans-Serif" font-size="10.00">abrir_arquivo</text>
</a>
</g>
</g>
<!-- Node3&#45;&gt;Node4 -->
<g id="edge3" class="edge"><title>Node3&#45;&gt;Node4</title>
<path fill="none" stroke="midnightblue" d="M387.736,-56.8781C396.617,-58.3454 405.619,-59.8327 413.888,-61.199"/>
<polygon fill="midnightblue" stroke="midnightblue" points="388.241,-53.4143 377.805,-55.2373 387.1,-60.3206 388.241,-53.4143"/>
</g>
<!-- Node5 -->
<g id="node5" class="node"><title>Node5</title>
<g id="a_node5"><a xlink:href="main_8cc.html#ae66f6b31b5ad750f1fe042a706a4e3d4" target="_top" xlink:title="main">
<polygon fill="white" stroke="black" points="522,-38.5 522,-57.5 560,-57.5 560,-38.5 522,-38.5"/>
<text text-anchor="middle" x="541" y="-45.5" font-family="Helvetica,sans-Serif" font-size="10.00">main</text>
</a>
</g>
</g>
<!-- Node3&#45;&gt;Node5 -->
<g id="edge5" class="edge"><title>Node3&#45;&gt;Node5</title>
<path fill="none" stroke="midnightblue" d="M387.725,-48C432.01,-48 492.194,-48 521.894,-48"/>
<polygon fill="midnightblue" stroke="midnightblue" points="387.687,-44.5001 377.687,-48 387.687,-51.5001 387.687,-44.5001"/>
</g>
<!-- Node4&#45;&gt;Node5 -->
<g id="edge4" class="edge"><title>Node4&#45;&gt;Node5</title>
<path fill="none" stroke="midnightblue" d="M496.067,-57.3789C505.24,-55.4207 514.38,-53.4694 521.929,-51.8578"/>
<polygon fill="midnightblue" stroke="midnightblue" points="495.224,-53.98 486.175,-59.4907 496.686,-60.8257 495.224,-53.98"/>
</g>
<!-- Node6&#45;&gt;Node3 -->
<g id="edge7" class="edge"><title>Node6&#45;&gt;Node3</title>
<path fill="none" stroke="midnightblue" d="M244.449,-48C258.736,-48 274.171,-48 288.043,-48"/>
<polygon fill="midnightblue" stroke="midnightblue" points="244.286,-44.5001 234.286,-48 244.286,-51.5001 244.286,-44.5001"/>
</g>
<!-- Node7&#45;&gt;Node3 -->
<g id="edge9" class="edge"><title>Node7&#45;&gt;Node3</title>
<path fill="none" stroke="midnightblue" d="M238.473,-22.2462C257.495,-27.484 279.375,-33.5091 297.188,-38.4141"/>
<polygon fill="midnightblue" stroke="midnightblue" points="239.394,-18.8695 228.823,-19.589 237.535,-25.6183 239.394,-18.8695"/>
</g>
</g>
</svg>
