<?xml version="1.0" encoding="UTF-8" standalone="no"?>
<!DOCTYPE svg PUBLIC "-//W3C//DTD SVG 1.1//EN"
 "http://www.w3.org/Graphics/SVG/1.1/DTD/svg11.dtd">
<!-- Generated by graphviz version 2.36.0 (20140111.2315)
 -->
<!-- Title: abrir_arquivo Pages: 1 -->
<svg width="912pt" height="1528pt"
 viewBox="0.00 0.00 912.00 1527.89" xmlns="http://www.w3.org/2000/svg" xmlns:xlink="http://www.w3.org/1999/xlink">
<g id="graph0" class="graph" transform="scale(1 1) rotate(0) translate(4 1523.89)">
<title>abrir_arquivo</title>
<polygon fill="white" stroke="none" points="-4,4 -4,-1523.89 908,-1523.89 908,4 -4,4"/>
<!-- Node1 -->
<g id="node1" class="node"><title>Node1</title>
<polygon fill="#bfbfbf" stroke="black" points="0,-1272.39 0,-1291.39 72,-1291.39 72,-1272.39 0,-1272.39"/>
<text text-anchor="middle" x="36" y="-1279.39" font-family="Helvetica,sans-Serif" font-size="10.00">abrir_arquivo</text>
</g>
<!-- Node2 -->
<g id="node2" class="node"><title>Node2</title>
<g id="a_node2"><a xlink:href="grafo_8cc.html#aa0ebaaf04a0e9c455c6571246b5c1e15" target="_top" xlink:title="cria_grafo">
<polygon fill="white" stroke="black" points="247.5,-1353.39 247.5,-1372.39 306.5,-1372.39 306.5,-1353.39 247.5,-1353.39"/>
<text text-anchor="middle" x="277" y="-1360.39" font-family="Helvetica,sans-Serif" font-size="10.00">cria_grafo</text>
</a>
</g>
</g>
<!-- Node1&#45;&gt;Node2 -->
<g id="edge1" class="edge"><title>Node1&#45;&gt;Node2</title>
<path fill="none" stroke="midnightblue" d="M65.355,-1291.5C108.298,-1306.05 189.903,-1333.71 237.962,-1350"/>
<polygon fill="midnightblue" stroke="midnightblue" points="237.088,-1353.39 247.682,-1353.29 239.335,-1346.77 237.088,-1353.39"/>
</g>
<!-- Node3 -->
<g id="node3" class="node"><title>Node3</title>
<g id="a_node3"><a xlink:href="main_8cc.html#ad2a06ffdf1033b3b1c11f337fa12553b" target="_top" xlink:title="imprimirRotulo">
<polygon fill="white" stroke="black" points="696,-636.387 696,-655.387 776,-655.387 776,-636.387 696,-636.387"/>
<text text-anchor="middle" x="736" y="-643.387" font-family="Helvetica,sans-Serif" font-size="10.00">imprimirRotulo</text>
</a>
</g>
</g>
<!-- Node1&#45;&gt;Node3 -->
<g id="edge2" class="edge"><title>Node1&#45;&gt;Node3</title>
<path fill="none" stroke="midnightblue" d="M72.231,-1281.89C118.851,-1281.89 203.595,-1281.89 276,-1281.89 276,-1281.89 276,-1281.89 422,-1281.89 534.5,-1281.89 584.219,-1260.56 648,-1167.89 706.015,-1083.59 728.94,-750.751 733.915,-665.739"/>
<polygon fill="midnightblue" stroke="midnightblue" points="737.416,-665.818 734.489,-655.636 730.427,-665.421 737.416,-665.818"/>
</g>
<!-- Node4 -->
<g id="node4" class="node"><title>Node4</title>
<g id="a_node4"><a xlink:href="main_8cc.html#abe7109d6b800c7cd9f5c2097bc8df894" target="_top" xlink:title="destruir_menu">
<polygon fill="white" stroke="black" points="697,-348.387 697,-367.387 775,-367.387 775,-348.387 697,-348.387"/>
<text text-anchor="middle" x="736" y="-355.387" font-family="Helvetica,sans-Serif" font-size="10.00">destruir_menu</text>
</a>
</g>
</g>
<!-- Node1&#45;&gt;Node4 -->
<g id="edge3" class="edge"><title>Node1&#45;&gt;Node4</title>
<path fill="none" stroke="midnightblue" d="M37.4695,-1272.26C42.65,-1169.09 91.7062,-267.516 234,-47.8874 246.76,-28.1923 252.533,-15.8874 276,-15.8874 276,-15.8874 276,-15.8874 422,-15.8874 522.799,-15.8874 570.632,29.7232 648,-34.8874 695.734,-74.75 724.491,-273.983 732.614,-338.027"/>
<polygon fill="midnightblue" stroke="midnightblue" points="729.189,-338.849 733.891,-348.343 736.136,-337.989 729.189,-338.849"/>
</g>
<!-- Node5 -->
<g id="node5" class="node"><title>Node5</title>
<g id="a_node5"><a xlink:href="grafo_8cc.html#a07e2bda52af22bd5988dfab266b696f3" target="_top" xlink:title="le_grafo">
<polygon fill="white" stroke="black" points="127.5,-1376.39 127.5,-1395.39 178.5,-1395.39 178.5,-1376.39 127.5,-1376.39"/>
<text text-anchor="middle" x="153" y="-1383.39" font-family="Helvetica,sans-Serif" font-size="10.00">le_grafo</text>
</a>
</g>
</g>
<!-- Node1&#45;&gt;Node5 -->
<g id="edge4" class="edge"><title>Node1&#45;&gt;Node5</title>
<path fill="none" stroke="midnightblue" d="M45.7897,-1291.51C58.8241,-1305.58 84.2955,-1332.33 108,-1352.89 114.797,-1358.78 122.55,-1364.81 129.636,-1370.07"/>
<polygon fill="midnightblue" stroke="midnightblue" points="127.988,-1373.2 138.132,-1376.26 132.11,-1367.54 127.988,-1373.2"/>
</g>
<!-- Node9 -->
<g id="node9" class="node"><title>Node9</title>
<g id="a_node9"><a xlink:href="main_8cc.html#af852bc15cf3d5217386a9bb0bf3b9abd" target="_top" xlink:title="operacoes_grafo">
<polygon fill="white" stroke="black" points="108.5,-595.387 108.5,-614.387 197.5,-614.387 197.5,-595.387 108.5,-595.387"/>
<text text-anchor="middle" x="153" y="-602.387" font-family="Helvetica,sans-Serif" font-size="10.00">operacoes_grafo</text>
</a>
</g>
</g>
<!-- Node1&#45;&gt;Node9 -->
<g id="edge9" class="edge"><title>Node1&#45;&gt;Node9</title>
<path fill="none" stroke="midnightblue" d="M38.6257,-1272.32C51.072,-1199.05 131.247,-727.06 148.664,-624.525"/>
<polygon fill="midnightblue" stroke="midnightblue" points="152.127,-625.037 150.352,-614.592 145.226,-623.864 152.127,-625.037"/>
</g>
<!-- Node5&#45;&gt;Node2 -->
<g id="edge5" class="edge"><title>Node5&#45;&gt;Node2</title>
<path fill="none" stroke="midnightblue" d="M178.689,-1381.23C195.568,-1378.05 218.28,-1373.77 237.516,-1370.14"/>
<polygon fill="midnightblue" stroke="midnightblue" points="238.319,-1373.55 247.497,-1368.26 237.022,-1366.67 238.319,-1373.55"/>
</g>
<!-- Node6 -->
<g id="node6" class="node"><title>Node6</title>
<g id="a_node6"><a xlink:href="grafo_8cc.html#a563a8912631e461ec1d9a2bff50426d9" target="_top" xlink:title="insere_tarefa">
<polygon fill="white" stroke="black" points="384.5,-1462.39 384.5,-1481.39 457.5,-1481.39 457.5,-1462.39 384.5,-1462.39"/>
<text text-anchor="middle" x="421" y="-1469.39" font-family="Helvetica,sans-Serif" font-size="10.00">insere_tarefa</text>
</a>
</g>
</g>
<!-- Node5&#45;&gt;Node6 -->
<g id="edge6" class="edge"><title>Node5&#45;&gt;Node6</title>
<path fill="none" stroke="midnightblue" d="M178.548,-1393.82C224.774,-1408.77 325.086,-1441.2 380.767,-1459.2"/>
<polygon fill="midnightblue" stroke="midnightblue" points="379.701,-1462.54 390.293,-1462.28 381.854,-1455.88 379.701,-1462.54"/>
</g>
<!-- Node7 -->
<g id="node7" class="node"><title>Node7</title>
<g id="a_node7"><a xlink:href="grafo_8cc.html#a3fe6389b74d0356a95800a3d29d7d664" target="_top" xlink:title="insere_prerequisitos">
<polygon fill="white" stroke="black" points="684,-1462.39 684,-1481.39 788,-1481.39 788,-1462.39 684,-1462.39"/>
<text text-anchor="middle" x="736" y="-1469.39" font-family="Helvetica,sans-Serif" font-size="10.00">insere_prerequisitos</text>
</a>
</g>
</g>
<!-- Node5&#45;&gt;Node7 -->
<g id="edge7" class="edge"><title>Node5&#45;&gt;Node7</title>
<path fill="none" stroke="midnightblue" d="M166.274,-1395.5C196.409,-1418.33 277.333,-1475.11 356,-1490.89 468.898,-1513.54 604.298,-1496.4 678.85,-1483.25"/>
<polygon fill="midnightblue" stroke="midnightblue" points="679.739,-1486.65 688.958,-1481.43 678.495,-1479.76 679.739,-1486.65"/>
</g>
<!-- Node8 -->
<g id="node8" class="node"><title>Node8</title>
<g id="a_node8"><a xlink:href="grafo_8cc.html#a0e6585acadedc05719f93fa778cf1dcb" target="_top" xlink:title="procura_tarefa">
<polygon fill="white" stroke="black" points="824.5,-1500.39 824.5,-1519.39 903.5,-1519.39 903.5,-1500.39 824.5,-1500.39"/>
<text text-anchor="middle" x="864" y="-1507.39" font-family="Helvetica,sans-Serif" font-size="10.00">procura_tarefa</text>
</a>
</g>
</g>
<!-- Node7&#45;&gt;Node8 -->
<g id="edge8" class="edge"><title>Node7&#45;&gt;Node8</title>
<path fill="none" stroke="midnightblue" d="M768.795,-1481.48C784.762,-1486.29 804.307,-1492.19 821.447,-1497.36"/>
<polygon fill="midnightblue" stroke="midnightblue" points="820.63,-1500.76 831.215,-1500.3 822.652,-1494.06 820.63,-1500.76"/>
</g>
<!-- Node9&#45;&gt;Node4 -->
<g id="edge11" class="edge"><title>Node9&#45;&gt;Node4</title>
<path fill="none" stroke="midnightblue" d="M154.403,-595.297C157.391,-537.882 181.225,-238.237 356,-121.887 410.015,-85.9292 594.77,-84.7782 648,-121.887 720.64,-172.528 732.789,-291.018 734.701,-338.095"/>
<polygon fill="midnightblue" stroke="midnightblue" points="731.206,-338.311 734.994,-348.206 738.203,-338.109 731.206,-338.311"/>
</g>
<!-- Node10 -->
<g id="node10" class="node"><title>Node10</title>
<g id="a_node10"><a xlink:href="main_8cc.html#a8b39b6c1f4d3623c384e80826e5b633e" target="_top" xlink:title="print_operacoes">
<polygon fill="white" stroke="black" points="234,-690.387 234,-709.387 320,-709.387 320,-690.387 234,-690.387"/>
<text text-anchor="middle" x="277" y="-697.387" font-family="Helvetica,sans-Serif" font-size="10.00">print_operacoes</text>
</a>
</g>
</g>
<!-- Node9&#45;&gt;Node10 -->
<g id="edge10" class="edge"><title>Node9&#45;&gt;Node10</title>
<path fill="none" stroke="midnightblue" d="M163.786,-614.791C178.325,-629.214 206.844,-656.398 234,-675.887 238.407,-679.05 243.264,-682.145 248.064,-685.005"/>
<polygon fill="midnightblue" stroke="midnightblue" points="246.671,-688.24 257.088,-690.17 250.148,-682.165 246.671,-688.24"/>
</g>
<!-- Node11 -->
<g id="node11" class="node"><title>Node11</title>
<g id="a_node11"><a xlink:href="main_8cc.html#adb3b0c3b009c68f86673eb7bdeef601c" target="_top" xlink:title="inserir_tarefa">
<polygon fill="white" stroke="black" points="240.5,-1082.39 240.5,-1101.39 313.5,-1101.39 313.5,-1082.39 240.5,-1082.39"/>
<text text-anchor="middle" x="277" y="-1089.39" font-family="Helvetica,sans-Serif" font-size="10.00">inserir_tarefa</text>
</a>
</g>
</g>
<!-- Node9&#45;&gt;Node11 -->
<g id="edge12" class="edge"><title>Node9&#45;&gt;Node11</title>
<path fill="none" stroke="midnightblue" d="M156.437,-614.615C171.367,-674.213 250.512,-990.144 271.101,-1072.33"/>
<polygon fill="midnightblue" stroke="midnightblue" points="267.732,-1073.29 273.557,-1082.14 274.522,-1071.59 267.732,-1073.29"/>
</g>
<!-- Node16 -->
<g id="node16" class="node"><title>Node16</title>
<g id="a_node16"><a xlink:href="main_8cc.html#a16c89e840263b1af21caf3211b6640b2" target="_top" xlink:title="inserir_novo_pre_requisito">
<polygon fill="white" stroke="black" points="356,-1006.39 356,-1025.39 486,-1025.39 486,-1006.39 356,-1006.39"/>
<text text-anchor="middle" x="421" y="-1013.39" font-family="Helvetica,sans-Serif" font-size="10.00">inserir_novo_pre_requisito</text>
</a>
</g>
</g>
<!-- Node9&#45;&gt;Node16 -->
<g id="edge29" class="edge"><title>Node9&#45;&gt;Node16</title>
<path fill="none" stroke="midnightblue" d="M171.576,-614.455C187.641,-623.065 212.154,-635.867 234,-645.887 271.509,-663.092 292.441,-650.172 320,-680.887 358.895,-724.237 339.473,-751.041 356,-806.887 376.689,-876.798 402.371,-959.49 413.899,-996.403"/>
<polygon fill="midnightblue" stroke="midnightblue" points="410.676,-997.824 417.001,-1006.32 417.357,-995.735 410.676,-997.824"/>
</g>
<!-- Node17 -->
<g id="node17" class="node"><title>Node17</title>
<g id="a_node17"><a xlink:href="main_8cc.html#ab5f698491708904442d9d4f8583cd809" target="_top" xlink:title="remover_tarefa">
<polygon fill="white" stroke="black" points="380,-462.387 380,-481.387 462,-481.387 462,-462.387 380,-462.387"/>
<text text-anchor="middle" x="421" y="-469.387" font-family="Helvetica,sans-Serif" font-size="10.00">remover_tarefa</text>
</a>
</g>
</g>
<!-- Node9&#45;&gt;Node17 -->
<g id="edge35" class="edge"><title>Node9&#45;&gt;Node17</title>
<path fill="none" stroke="midnightblue" d="M173.13,-595.322C219.317,-572.229 337.121,-513.327 391.589,-486.093"/>
<polygon fill="midnightblue" stroke="midnightblue" points="393.307,-489.147 400.686,-481.544 390.176,-482.886 393.307,-489.147"/>
</g>
<!-- Node20 -->
<g id="node20" class="node"><title>Node20</title>
<g id="a_node20"><a xlink:href="main_8cc.html#ae96b9adf5e390d1a516e3fe5164714cc" target="_top" xlink:title="remover_pre_requisitos">
<polygon fill="white" stroke="black" points="362,-778.387 362,-797.387 480,-797.387 480,-778.387 362,-778.387"/>
<text text-anchor="middle" x="421" y="-785.387" font-family="Helvetica,sans-Serif" font-size="10.00">remover_pre_requisitos</text>
</a>
</g>
</g>
<!-- Node9&#45;&gt;Node20 -->
<g id="edge43" class="edge"><title>Node9&#45;&gt;Node20</title>
<path fill="none" stroke="midnightblue" d="M197.597,-607.979C233.204,-612.322 283.44,-622.767 320,-647.887 343.639,-664.129 388.087,-734.788 408.82,-769.08"/>
<polygon fill="midnightblue" stroke="midnightblue" points="406.077,-771.311 414.224,-778.085 412.079,-767.709 406.077,-771.311"/>
</g>
<!-- Node22 -->
<g id="node22" class="node"><title>Node22</title>
<g id="a_node22"><a xlink:href="main_8cc.html#a7769e05575359d89d7467b1e46940ecf" target="_top" xlink:title="editar_tarefa">
<polygon fill="white" stroke="black" points="241.5,-576.387 241.5,-595.387 312.5,-595.387 312.5,-576.387 241.5,-576.387"/>
<text text-anchor="middle" x="277" y="-583.387" font-family="Helvetica,sans-Serif" font-size="10.00">editar_tarefa</text>
</a>
</g>
</g>
<!-- Node9&#45;&gt;Node22 -->
<g id="edge49" class="edge"><title>Node9&#45;&gt;Node22</title>
<path fill="none" stroke="midnightblue" d="M197.7,-598.082C208.581,-596.387 220.262,-594.568 231.195,-592.865"/>
<polygon fill="midnightblue" stroke="midnightblue" points="232.056,-596.273 241.398,-591.276 230.978,-589.357 232.056,-596.273"/>
</g>
<!-- Node26 -->
<g id="node26" class="node"><title>Node26</title>
<g id="a_node26"><a xlink:href="main_8cc.html#a5d247f6e8ee275a8cd007f922ae2acb3" target="_top" xlink:title="visualizador_tarefas">
<polygon fill="white" stroke="black" points="369,-329.387 369,-348.387 473,-348.387 473,-329.387 369,-329.387"/>
<text text-anchor="middle" x="421" y="-336.387" font-family="Helvetica,sans-Serif" font-size="10.00">visualizador_tarefas</text>
</a>
</g>
</g>
<!-- Node9&#45;&gt;Node26 -->
<g id="edge64" class="edge"><title>Node9&#45;&gt;Node26</title>
<path fill="none" stroke="midnightblue" d="M162.717,-595.188C177.247,-579.097 207.446,-545.97 234,-518.887 294.325,-457.36 368.633,-387.017 402.132,-355.584"/>
<polygon fill="midnightblue" stroke="midnightblue" points="404.832,-357.851 409.736,-348.46 400.046,-352.742 404.832,-357.851"/>
</g>
<!-- Node31 -->
<g id="node31" class="node"><title>Node31</title>
<g id="a_node31"><a xlink:href="main_8cc.html#abc30d77428eefe83c569f49b7e48a7f8" target="_top" xlink:title="imprimir_em_arquivo">
<polygon fill="white" stroke="black" points="531.5,-44.3874 531.5,-63.3874 638.5,-63.3874 638.5,-44.3874 531.5,-44.3874"/>
<text text-anchor="middle" x="585" y="-51.3874" font-family="Helvetica,sans-Serif" font-size="10.00">imprimir_em_arquivo</text>
</a>
</g>
</g>
<!-- Node9&#45;&gt;Node31 -->
<g id="edge76" class="edge"><title>Node9&#45;&gt;Node31</title>
<path fill="none" stroke="midnightblue" d="M153.904,-595.086C153.475,-529.188 154.529,-151.081 234,-77.8874 274.442,-40.64 431.919,-43.9926 521.241,-49.2052"/>
<polygon fill="midnightblue" stroke="midnightblue" points="521.06,-52.7006 531.254,-49.814 521.485,-45.7135 521.06,-52.7006"/>
</g>
<!-- Node11&#45;&gt;Node3 -->
<g id="edge13" class="edge"><title>Node11&#45;&gt;Node3</title>
<path fill="none" stroke="midnightblue" d="M313.611,-1097.41C386.806,-1106.58 555.068,-1116.05 648,-1027.89 701.637,-977.002 726.917,-737.06 733.321,-665.854"/>
<polygon fill="midnightblue" stroke="midnightblue" points="736.834,-665.86 734.217,-655.593 729.86,-665.251 736.834,-665.86"/>
</g>
<!-- Node11&#45;&gt;Node4 -->
<g id="edge15" class="edge"><title>Node11&#45;&gt;Node4</title>
<path fill="none" stroke="midnightblue" d="M279.148,-1082.39C284.256,-1039.98 305.307,-863.791 320,-718.887 328.981,-630.315 311.501,-396.995 356,-319.887 425.881,-198.797 527.349,-132.25 648,-202.887 698.703,-232.572 722.11,-303.838 730.777,-338.415"/>
<polygon fill="midnightblue" stroke="midnightblue" points="727.394,-339.319 733.089,-348.253 734.208,-337.717 727.394,-339.319"/>
</g>
<!-- Node11&#45;&gt;Node6 -->
<g id="edge19" class="edge"><title>Node11&#45;&gt;Node6</title>
<path fill="none" stroke="midnightblue" d="M279.57,-1101.66C288.392,-1156.1 332.231,-1420.45 356,-1447.89 361.021,-1453.68 367.586,-1458.08 374.595,-1461.42"/>
<polygon fill="midnightblue" stroke="midnightblue" points="373.741,-1464.85 384.324,-1465.35 376.36,-1458.36 373.741,-1464.85"/>
</g>
<!-- Node12 -->
<g id="node12" class="node"><title>Node12</title>
<g id="a_node12"><a xlink:href="grafo_8cc.html#a1e996ff4a17fa0e42fc8ff6bdc605dc1" target="_top" xlink:title="pesquisa_tarefa">
<polygon fill="white" stroke="black" points="693,-1215.39 693,-1234.39 779,-1234.39 779,-1215.39 693,-1215.39"/>
<text text-anchor="middle" x="736" y="-1222.39" font-family="Helvetica,sans-Serif" font-size="10.00">pesquisa_tarefa</text>
</a>
</g>
</g>
<!-- Node11&#45;&gt;Node12 -->
<g id="edge14" class="edge"><title>Node11&#45;&gt;Node12</title>
<path fill="none" stroke="midnightblue" d="M280.211,-1101.53C287.041,-1129.51 310.165,-1211.95 356,-1262.89 413.308,-1326.57 439.353,-1338.31 522,-1360.89 576.021,-1375.64 598.878,-1387.78 648,-1360.89 693.746,-1335.85 718.953,-1275.36 729.311,-1244.19"/>
<polygon fill="midnightblue" stroke="midnightblue" points="732.7,-1245.08 732.365,-1234.49 726.023,-1242.97 732.7,-1245.08"/>
</g>
<!-- Node13 -->
<g id="node13" class="node"><title>Node13</title>
<g id="a_node13"><a xlink:href="main_8cc.html#acec6efd5f1ee225764d814040f142268" target="_top" xlink:title="erro_id_existente">
<polygon fill="white" stroke="black" points="539.5,-614.387 539.5,-633.387 630.5,-633.387 630.5,-614.387 539.5,-614.387"/>
<text text-anchor="middle" x="585" y="-621.387" font-family="Helvetica,sans-Serif" font-size="10.00">erro_id_existente</text>
</a>
</g>
</g>
<!-- Node11&#45;&gt;Node13 -->
<g id="edge16" class="edge"><title>Node11&#45;&gt;Node13</title>
<path fill="none" stroke="midnightblue" d="M278.194,-1082.19C279.59,-1022.98 290.037,-710.691 356,-648.887 401.903,-605.878 477.971,-606.429 529.498,-613.157"/>
<polygon fill="midnightblue" stroke="midnightblue" points="529.067,-616.631 539.46,-614.574 530.053,-609.701 529.067,-616.631"/>
</g>
<!-- Node14 -->
<g id="node14" class="node"><title>Node14</title>
<g id="a_node14"><a xlink:href="main_8cc.html#a5c0ceb9634231b92e0dfc9db33b727fa" target="_top" xlink:title="tela_inserir_pre_requisito">
<polygon fill="white" stroke="black" points="358.5,-1234.39 358.5,-1253.39 483.5,-1253.39 483.5,-1234.39 358.5,-1234.39"/>
<text text-anchor="middle" x="421" y="-1241.39" font-family="Helvetica,sans-Serif" font-size="10.00">tela_inserir_pre_requisito</text>
</a>
</g>
</g>
<!-- Node11&#45;&gt;Node14 -->
<g id="edge20" class="edge"><title>Node11&#45;&gt;Node14</title>
<path fill="none" stroke="midnightblue" d="M281.284,-1101.4C289.852,-1124.86 315.095,-1186.05 356,-1219.89 360.92,-1223.96 366.6,-1227.38 372.502,-1230.24"/>
<polygon fill="midnightblue" stroke="midnightblue" points="371.316,-1233.54 381.884,-1234.29 374.092,-1227.11 371.316,-1233.54"/>
</g>
<!-- Node13&#45;&gt;Node3 -->
<g id="edge17" class="edge"><title>Node13&#45;&gt;Node3</title>
<path fill="none" stroke="midnightblue" d="M630.705,-630.488C648.046,-633.049 667.965,-635.99 685.719,-638.611"/>
<polygon fill="midnightblue" stroke="midnightblue" points="685.481,-642.114 695.885,-640.112 686.504,-635.189 685.481,-642.114"/>
</g>
<!-- Node13&#45;&gt;Node4 -->
<g id="edge18" class="edge"><title>Node13&#45;&gt;Node4</title>
<path fill="none" stroke="midnightblue" d="M598.355,-614.05C611.983,-602.678 633.852,-582.825 648,-561.887 689.792,-500.041 718.18,-414.876 729.498,-377.177"/>
<polygon fill="midnightblue" stroke="midnightblue" points="732.89,-378.05 732.347,-367.469 726.173,-376.079 732.89,-378.05"/>
</g>
<!-- Node14&#45;&gt;Node3 -->
<g id="edge21" class="edge"><title>Node14&#45;&gt;Node3</title>
<path fill="none" stroke="midnightblue" d="M452.547,-1234.35C502.108,-1217.21 599.382,-1176.23 648,-1105.89 698.982,-1032.12 726.712,-743.788 733.398,-665.561"/>
<polygon fill="midnightblue" stroke="midnightblue" points="736.886,-665.851 734.232,-655.594 729.91,-665.267 736.886,-665.851"/>
</g>
<!-- Node14&#45;&gt;Node4 -->
<g id="edge24" class="edge"><title>Node14&#45;&gt;Node4</title>
<path fill="none" stroke="midnightblue" d="M427.541,-1234.29C441.561,-1210.43 480.306,-1147.11 522,-1101.89 571.411,-1048.29 613.917,-1061.32 648,-996.887 686.625,-923.863 672.294,-708.664 684,-626.887 697.446,-532.957 720.933,-421.95 730.625,-377.613"/>
<polygon fill="midnightblue" stroke="midnightblue" points="734.097,-378.124 732.827,-367.605 727.26,-376.62 734.097,-378.124"/>
</g>
<!-- Node14&#45;&gt;Node7 -->
<g id="edge23" class="edge"><title>Node14&#45;&gt;Node7</title>
<path fill="none" stroke="midnightblue" d="M424.968,-1253.46C434.288,-1281.9 465.741,-1366.59 522,-1409.89 565.982,-1443.74 627.939,-1459.12 673.699,-1466.11"/>
<polygon fill="midnightblue" stroke="midnightblue" points="673.394,-1469.6 683.789,-1467.55 674.386,-1462.67 673.394,-1469.6"/>
</g>
<!-- Node14&#45;&gt;Node8 -->
<g id="edge28" class="edge"><title>Node14&#45;&gt;Node8</title>
<path fill="none" stroke="midnightblue" d="M423.801,-1253.83C430.353,-1287.03 456.085,-1395 522,-1448.89 606.322,-1517.82 741.986,-1519.75 814.158,-1514.98"/>
<polygon fill="midnightblue" stroke="midnightblue" points="814.614,-1518.46 824.332,-1514.24 814.103,-1511.48 814.614,-1518.46"/>
</g>
<!-- Node14&#45;&gt;Node12 -->
<g id="edge22" class="edge"><title>Node14&#45;&gt;Node12</title>
<path fill="none" stroke="midnightblue" d="M428.292,-1253.6C442.227,-1274.09 477.966,-1321.31 522,-1338.89 574.008,-1359.65 597.808,-1363.72 648,-1338.89 688.167,-1319.01 714.861,-1270.73 727.171,-1243.81"/>
<polygon fill="midnightblue" stroke="midnightblue" points="730.379,-1245.21 731.182,-1234.64 723.966,-1242.4 730.379,-1245.21"/>
</g>
<!-- Node15 -->
<g id="node15" class="node"><title>Node15</title>
<g id="a_node15"><a xlink:href="main_8cc.html#aef0e5ebaf10f94ec3baf710468b2bca8" target="_top" xlink:title="erro_insere_pre_requisito">
<polygon fill="white" stroke="black" points="522.5,-968.387 522.5,-987.387 647.5,-987.387 647.5,-968.387 522.5,-968.387"/>
<text text-anchor="middle" x="585" y="-975.387" font-family="Helvetica,sans-Serif" font-size="10.00">erro_insere_pre_requisito</text>
</a>
</g>
</g>
<!-- Node14&#45;&gt;Node15 -->
<g id="edge25" class="edge"><title>Node14&#45;&gt;Node15</title>
<path fill="none" stroke="midnightblue" d="M423.272,-1234.05C428.448,-1197.94 451.14,-1071.17 522,-1001.89 526.023,-997.954 530.763,-994.648 535.799,-991.873"/>
<polygon fill="midnightblue" stroke="midnightblue" points="537.582,-994.901 545.096,-987.432 534.564,-988.585 537.582,-994.901"/>
</g>
<!-- Node15&#45;&gt;Node3 -->
<g id="edge26" class="edge"><title>Node15&#45;&gt;Node3</title>
<path fill="none" stroke="midnightblue" d="M626.736,-968.322C634.645,-964.874 642.251,-960.204 648,-953.887 725.526,-868.705 734.545,-719.529 735.17,-665.845"/>
<polygon fill="midnightblue" stroke="midnightblue" points="738.67,-665.641 735.195,-655.633 731.67,-665.624 738.67,-665.641"/>
</g>
<!-- Node15&#45;&gt;Node4 -->
<g id="edge27" class="edge"><title>Node15&#45;&gt;Node4</title>
<path fill="none" stroke="midnightblue" d="M629.144,-968.284C636.403,-964.854 643.145,-960.201 648,-953.887 692.565,-895.936 673.183,-699.188 684,-626.887 698.04,-533.044 721.194,-421.988 730.712,-377.626"/>
<polygon fill="midnightblue" stroke="midnightblue" points="734.185,-378.125 732.872,-367.612 727.342,-376.649 734.185,-378.125"/>
</g>
<!-- Node16&#45;&gt;Node3 -->
<g id="edge30" class="edge"><title>Node16&#45;&gt;Node3</title>
<path fill="none" stroke="midnightblue" d="M463.253,-1025.44C513.135,-1034.37 596.758,-1040.56 648,-996.887 699.604,-952.903 726.063,-733.253 733.072,-665.692"/>
<polygon fill="midnightblue" stroke="midnightblue" points="736.573,-665.858 734.094,-655.557 729.608,-665.156 736.573,-665.858"/>
</g>
<!-- Node16&#45;&gt;Node4 -->
<g id="edge32" class="edge"><title>Node16&#45;&gt;Node4</title>
<path fill="none" stroke="midnightblue" d="M436.373,-1006.31C455.334,-994.007 490.049,-972.604 522,-958.887 575.748,-935.814 610.325,-965.629 648,-920.887 690.396,-870.539 673.864,-691.924 684,-626.887 698.612,-533.132 721.446,-422.027 730.795,-377.638"/>
<polygon fill="midnightblue" stroke="midnightblue" points="734.269,-378.126 732.916,-367.618 727.421,-376.677 734.269,-378.126"/>
</g>
<!-- Node16&#45;&gt;Node7 -->
<g id="edge34" class="edge"><title>Node16&#45;&gt;Node7</title>
<path fill="none" stroke="midnightblue" d="M424.95,-1025.5C441.358,-1078.96 520.678,-1337.25 522,-1338.89 562.365,-1388.91 593.751,-1375.41 648,-1409.89 671.194,-1424.63 696.684,-1443.08 714.042,-1456"/>
<polygon fill="midnightblue" stroke="midnightblue" points="712.222,-1459.01 722.323,-1462.21 716.42,-1453.41 712.222,-1459.01"/>
</g>
<!-- Node16&#45;&gt;Node12 -->
<g id="edge31" class="edge"><title>Node16&#45;&gt;Node12</title>
<path fill="none" stroke="midnightblue" d="M424.804,-1025.68C433.666,-1054.74 463.972,-1140.99 522,-1181.89 569.303,-1215.22 636.396,-1224.05 682.577,-1225.77"/>
<polygon fill="midnightblue" stroke="midnightblue" points="682.587,-1229.27 692.679,-1226.04 682.778,-1222.27 682.587,-1229.27"/>
</g>
<!-- Node16&#45;&gt;Node15 -->
<g id="edge33" class="edge"><title>Node16&#45;&gt;Node15</title>
<path fill="none" stroke="midnightblue" d="M462.879,-1006.3C484.353,-1001.26 510.86,-995.044 533.597,-989.71"/>
<polygon fill="midnightblue" stroke="midnightblue" points="534.478,-993.099 543.415,-987.407 532.879,-986.284 534.478,-993.099"/>
</g>
<!-- Node17&#45;&gt;Node3 -->
<g id="edge36" class="edge"><title>Node17&#45;&gt;Node3</title>
<path fill="none" stroke="midnightblue" d="M462.319,-464.62C510.515,-458.179 591.704,-454.676 648,-490.887 697.18,-522.521 721.221,-592.249 730.393,-626.344"/>
<polygon fill="midnightblue" stroke="midnightblue" points="727.009,-627.237 732.862,-636.068 733.793,-625.514 727.009,-627.237"/>
</g>
<!-- Node17&#45;&gt;Node4 -->
<g id="edge38" class="edge"><title>Node17&#45;&gt;Node4</title>
<path fill="none" stroke="midnightblue" d="M427.407,-462.351C447.637,-426.707 517.917,-303.23 522,-300.887 570.575,-273.022 594.338,-284.874 648,-300.887 674.523,-308.802 700.474,-327.674 717.03,-341.544"/>
<polygon fill="midnightblue" stroke="midnightblue" points="714.933,-344.358 724.785,-348.257 719.515,-339.065 714.933,-344.358"/>
</g>
<!-- Node17&#45;&gt;Node12 -->
<g id="edge37" class="edge"><title>Node17&#45;&gt;Node12</title>
<path fill="none" stroke="midnightblue" d="M424.729,-481.441C434.215,-513.536 468.141,-619.528 522,-691.887 566.386,-751.52 610.55,-737.672 648,-801.887 728.538,-939.986 735.269,-1141.49 735.27,-1204.97"/>
<polygon fill="midnightblue" stroke="midnightblue" points="731.769,-1205.15 735.209,-1215.17 738.769,-1205.2 731.769,-1205.15"/>
</g>
<!-- Node18 -->
<g id="node18" class="node"><title>Node18</title>
<g id="a_node18"><a xlink:href="main_8cc.html#a8e3083a90f6cf70bdfd6abd70494c74e" target="_top" xlink:title="erro_id_inexistente">
<polygon fill="white" stroke="black" points="536,-500.387 536,-519.387 634,-519.387 634,-500.387 536,-500.387"/>
<text text-anchor="middle" x="585" y="-507.387" font-family="Helvetica,sans-Serif" font-size="10.00">erro_id_inexistente</text>
</a>
</g>
</g>
<!-- Node17&#45;&gt;Node18 -->
<g id="edge39" class="edge"><title>Node17&#45;&gt;Node18</title>
<path fill="none" stroke="midnightblue" d="M462.045,-481.281C483.592,-486.335 510.387,-492.62 533.368,-498.011"/>
<polygon fill="midnightblue" stroke="midnightblue" points="532.755,-501.462 543.29,-500.338 534.354,-494.647 532.755,-501.462"/>
</g>
<!-- Node19 -->
<g id="node19" class="node"><title>Node19</title>
<g id="a_node19"><a xlink:href="grafo_8cc.html#abab0a8730861a86fe9a0713b3dcc018b" target="_top" xlink:title="remove_tarefa">
<polygon fill="white" stroke="black" points="545.5,-424.387 545.5,-443.387 624.5,-443.387 624.5,-424.387 545.5,-424.387"/>
<text text-anchor="middle" x="585" y="-431.387" font-family="Helvetica,sans-Serif" font-size="10.00">remove_tarefa</text>
</a>
</g>
</g>
<!-- Node17&#45;&gt;Node19 -->
<g id="edge42" class="edge"><title>Node17&#45;&gt;Node19</title>
<path fill="none" stroke="midnightblue" d="M462.045,-462.494C484.263,-457.283 512.06,-450.762 535.502,-445.263"/>
<polygon fill="midnightblue" stroke="midnightblue" points="536.317,-448.667 545.253,-442.976 534.718,-441.852 536.317,-448.667"/>
</g>
<!-- Node18&#45;&gt;Node3 -->
<g id="edge40" class="edge"><title>Node18&#45;&gt;Node3</title>
<path fill="none" stroke="midnightblue" d="M596.716,-519.668C621.952,-542.703 685.36,-600.578 716.776,-629.253"/>
<polygon fill="midnightblue" stroke="midnightblue" points="714.636,-632.039 724.381,-636.195 719.355,-626.869 714.636,-632.039"/>
</g>
<!-- Node18&#45;&gt;Node4 -->
<g id="edge41" class="edge"><title>Node18&#45;&gt;Node4</title>
<path fill="none" stroke="midnightblue" d="M597.243,-500.076C609.875,-488.933 630.854,-470.067 648,-452.887 674.148,-426.689 702.85,-394.658 719.875,-375.286"/>
<polygon fill="midnightblue" stroke="midnightblue" points="722.668,-377.408 726.619,-367.578 717.4,-372.799 722.668,-377.408"/>
</g>
<!-- Node20&#45;&gt;Node3 -->
<g id="edge44" class="edge"><title>Node20&#45;&gt;Node3</title>
<path fill="none" stroke="midnightblue" d="M461.043,-778.279C507.29,-766.036 585.887,-742.484 648,-709.887 673.308,-696.606 699.323,-676.45 716.229,-662.316"/>
<polygon fill="midnightblue" stroke="midnightblue" points="718.842,-664.688 724.189,-655.541 714.305,-659.358 718.842,-664.688"/>
</g>
<!-- Node20&#45;&gt;Node4 -->
<g id="edge46" class="edge"><title>Node20&#45;&gt;Node4</title>
<path fill="none" stroke="midnightblue" d="M434.594,-778.384C452.93,-764.953 488.455,-740.438 522,-725.887 575.212,-702.805 607.165,-733.081 648,-691.887 693.267,-646.222 723.78,-442.385 732.463,-377.672"/>
<polygon fill="midnightblue" stroke="midnightblue" points="735.956,-377.956 733.789,-367.585 729.016,-377.043 735.956,-377.956"/>
</g>
<!-- Node20&#45;&gt;Node12 -->
<g id="edge45" class="edge"><title>Node20&#45;&gt;Node12</title>
<path fill="none" stroke="midnightblue" d="M425.429,-797.606C436.548,-828.428 473.705,-926.118 522,-996.887 582.149,-1085.03 675.849,-1172.52 715.852,-1208.18"/>
<polygon fill="midnightblue" stroke="midnightblue" points="713.733,-1210.98 723.542,-1214.98 718.371,-1205.73 713.733,-1210.98"/>
</g>
<!-- Node20&#45;&gt;Node18 -->
<g id="edge47" class="edge"><title>Node20&#45;&gt;Node18</title>
<path fill="none" stroke="midnightblue" d="M428.872,-778.151C441.188,-760.474 467.464,-721.702 486,-686.887 504.705,-651.755 503.059,-639.894 522,-604.887 537.142,-576.902 557.866,-546.402 571.095,-527.708"/>
<polygon fill="midnightblue" stroke="midnightblue" points="573.964,-529.713 576.93,-519.542 568.268,-525.644 573.964,-529.713"/>
</g>
<!-- Node21 -->
<g id="node21" class="node"><title>Node21</title>
<g id="a_node21"><a xlink:href="grafo_8cc.html#ad1f78512cd30c15264c68265f61296a6" target="_top" xlink:title="remove_prerequisitos">
<polygon fill="white" stroke="black" points="530,-892.387 530,-911.387 640,-911.387 640,-892.387 530,-892.387"/>
<text text-anchor="middle" x="585" y="-899.387" font-family="Helvetica,sans-Serif" font-size="10.00">remove_prerequisitos</text>
</a>
</g>
</g>
<!-- Node20&#45;&gt;Node21 -->
<g id="edge48" class="edge"><title>Node20&#45;&gt;Node21</title>
<path fill="none" stroke="midnightblue" d="M430.461,-797.547C446.647,-815.522 483.793,-854.406 522,-877.887 528.49,-881.876 535.755,-885.403 542.963,-888.442"/>
<polygon fill="midnightblue" stroke="midnightblue" points="542.093,-891.861 552.68,-892.28 544.665,-885.351 542.093,-891.861"/>
</g>
<!-- Node22&#45;&gt;Node3 -->
<g id="edge50" class="edge"><title>Node22&#45;&gt;Node3</title>
<path fill="none" stroke="midnightblue" d="M312.576,-583.268C378.825,-579.206 527.75,-574.713 648,-604.887 670.067,-610.425 693.291,-621.683 710.188,-631.003"/>
<polygon fill="midnightblue" stroke="midnightblue" points="708.925,-634.311 719.349,-636.209 712.384,-628.225 708.925,-634.311"/>
</g>
<!-- Node22&#45;&gt;Node4 -->
<g id="edge52" class="edge"><title>Node22&#45;&gt;Node4</title>
<path fill="none" stroke="midnightblue" d="M278.146,-576.329C279.258,-517.984 288.306,-210.453 356,-153.887 405.793,-112.28 593.86,-118.119 648,-153.887 711.857,-196.076 729,-295.74 733.474,-338.189"/>
<polygon fill="midnightblue" stroke="midnightblue" points="730.006,-338.697 734.411,-348.333 736.977,-338.053 730.006,-338.697"/>
</g>
<!-- Node22&#45;&gt;Node12 -->
<g id="edge51" class="edge"><title>Node22&#45;&gt;Node12</title>
<path fill="none" stroke="midnightblue" d="M283.479,-595.498C292.74,-612.243 311.324,-648.114 320,-680.887 360.474,-833.765 291.259,-890.602 356,-1034.89 400.685,-1134.48 423.031,-1169.85 522,-1215.89 572.748,-1239.49 637.864,-1238.35 682.667,-1233.46"/>
<polygon fill="midnightblue" stroke="midnightblue" points="683.234,-1236.92 692.75,-1232.26 682.406,-1229.97 683.234,-1236.92"/>
</g>
<!-- Node22&#45;&gt;Node18 -->
<g id="edge53" class="edge"><title>Node22&#45;&gt;Node18</title>
<path fill="none" stroke="midnightblue" d="M312.507,-577.317C366.993,-563.784 473.137,-537.422 535.34,-521.973"/>
<polygon fill="midnightblue" stroke="midnightblue" points="536.442,-525.306 545.303,-519.498 534.754,-518.512 536.442,-525.306"/>
</g>
<!-- Node23 -->
<g id="node23" class="node"><title>Node23</title>
<g id="a_node23"><a xlink:href="main_8cc.html#a8d8002aa0f76981dad9ce30329767981" target="_top" xlink:title="edicao_tarefa">
<polygon fill="white" stroke="black" points="383.5,-658.387 383.5,-677.387 458.5,-677.387 458.5,-658.387 383.5,-658.387"/>
<text text-anchor="middle" x="421" y="-665.387" font-family="Helvetica,sans-Serif" font-size="10.00">edicao_tarefa</text>
</a>
</g>
</g>
<!-- Node22&#45;&gt;Node23 -->
<g id="edge54" class="edge"><title>Node22&#45;&gt;Node23</title>
<path fill="none" stroke="midnightblue" d="M294.773,-595.439C302.467,-599.829 311.703,-605.111 320,-609.887 345.376,-624.497 374.307,-641.292 394.499,-653.037"/>
<polygon fill="midnightblue" stroke="midnightblue" points="392.983,-656.204 403.387,-658.208 396.504,-650.153 392.983,-656.204"/>
</g>
<!-- Node23&#45;&gt;Node3 -->
<g id="edge55" class="edge"><title>Node23&#45;&gt;Node3</title>
<path fill="none" stroke="midnightblue" d="M451.34,-677.393C494.875,-690.072 578.876,-709.037 648,-691.887 671.926,-685.951 696.517,-672.095 713.425,-661.131"/>
<polygon fill="midnightblue" stroke="midnightblue" points="715.612,-663.879 721.974,-655.407 711.717,-658.062 715.612,-663.879"/>
</g>
<!-- Node23&#45;&gt;Node4 -->
<g id="edge57" class="edge"><title>Node23&#45;&gt;Node4</title>
<path fill="none" stroke="midnightblue" d="M437.19,-658.189C456.738,-645.738 491.783,-623.516 522,-604.887 577.669,-570.567 603.453,-576.768 648,-528.887 690.993,-482.677 718.006,-411.185 729.14,-377.158"/>
<polygon fill="midnightblue" stroke="midnightblue" points="732.515,-378.096 732.198,-367.506 725.841,-375.983 732.515,-378.096"/>
</g>
<!-- Node23&#45;&gt;Node12 -->
<g id="edge56" class="edge"><title>Node23&#45;&gt;Node12</title>
<path fill="none" stroke="midnightblue" d="M427.542,-677.572C441.276,-700.988 478.905,-761.699 522,-801.887 570.688,-847.291 609.087,-828.871 648,-882.887 722.879,-986.829 733.479,-1149.13 734.849,-1205.12"/>
<polygon fill="midnightblue" stroke="midnightblue" points="731.35,-1205.18 735.019,-1215.12 738.349,-1205.06 731.35,-1205.18"/>
</g>
<!-- Node23&#45;&gt;Node13 -->
<g id="edge58" class="edge"><title>Node23&#45;&gt;Node13</title>
<path fill="none" stroke="midnightblue" d="M457.152,-658.34C481.14,-651.825 513.128,-643.137 538.98,-636.115"/>
<polygon fill="midnightblue" stroke="midnightblue" points="540.184,-639.415 548.917,-633.416 538.349,-632.66 540.184,-639.415"/>
</g>
<!-- Node24 -->
<g id="node24" class="node"><title>Node24</title>
<g id="a_node24"><a xlink:href="main_8cc.html#a5f90fb7a7aa9c2393d70b4f95d675955" target="_top" xlink:title="tela_inserir_pre_requisito\l_edicao">
<polygon fill="white" stroke="black" points="522.5,-652.887 522.5,-682.887 647.5,-682.887 647.5,-652.887 522.5,-652.887"/>
<text text-anchor="start" x="530.5" y="-670.887" font-family="Helvetica,sans-Serif" font-size="10.00">tela_inserir_pre_requisito</text>
<text text-anchor="middle" x="585" y="-659.887" font-family="Helvetica,sans-Serif" font-size="10.00">_edicao</text>
</a>
</g>
</g>
<!-- Node23&#45;&gt;Node24 -->
<g id="edge59" class="edge"><title>Node23&#45;&gt;Node24</title>
<path fill="none" stroke="midnightblue" d="M458.76,-667.887C474.592,-667.887 493.677,-667.887 512.123,-667.887"/>
<polygon fill="midnightblue" stroke="midnightblue" points="512.28,-671.387 522.28,-667.887 512.28,-664.387 512.28,-671.387"/>
</g>
<!-- Node25 -->
<g id="node25" class="node"><title>Node25</title>
<g id="a_node25"><a xlink:href="grafo_8cc.html#adaeb2e2aa0bf8a2fbb149376a33bd443" target="_top" xlink:title="edita_tarefa">
<polygon fill="white" stroke="black" points="551,-1310.39 551,-1329.39 619,-1329.39 619,-1310.39 551,-1310.39"/>
<text text-anchor="middle" x="585" y="-1317.39" font-family="Helvetica,sans-Serif" font-size="10.00">edita_tarefa</text>
</a>
</g>
</g>
<!-- Node23&#45;&gt;Node25 -->
<g id="edge61" class="edge"><title>Node23&#45;&gt;Node25</title>
<path fill="none" stroke="midnightblue" d="M430.011,-677.477C443.868,-694.621 472.153,-732.178 486,-768.887 522.207,-864.874 504.328,-895.832 522,-996.887 542.163,-1112.19 569.791,-1249.95 579.999,-1300.26"/>
<polygon fill="midnightblue" stroke="midnightblue" points="576.583,-1301.03 582.005,-1310.13 583.442,-1299.63 576.583,-1301.03"/>
</g>
<!-- Node24&#45;&gt;Node3 -->
<g id="edge60" class="edge"><title>Node24&#45;&gt;Node3</title>
<path fill="none" stroke="midnightblue" d="M647.895,-658.749C660.513,-656.885 673.628,-654.949 685.735,-653.161"/>
<polygon fill="midnightblue" stroke="midnightblue" points="686.253,-656.623 695.634,-651.7 685.23,-649.698 686.253,-656.623"/>
</g>
<!-- Node25&#45;&gt;Node7 -->
<g id="edge62" class="edge"><title>Node25&#45;&gt;Node7</title>
<path fill="none" stroke="midnightblue" d="M595.716,-1329.5C607.966,-1341.65 629.644,-1363.22 648,-1381.89 672.839,-1407.15 701.326,-1436.74 718.74,-1454.9"/>
<polygon fill="midnightblue" stroke="midnightblue" points="716.463,-1457.58 725.909,-1462.38 721.517,-1452.74 716.463,-1457.58"/>
</g>
<!-- Node25&#45;&gt;Node12 -->
<g id="edge63" class="edge"><title>Node25&#45;&gt;Node12</title>
<path fill="none" stroke="midnightblue" d="M616.21,-1310.36C626.613,-1306.52 638.123,-1301.63 648,-1295.89 674.501,-1280.47 701.275,-1257.2 717.985,-1241.54"/>
<polygon fill="midnightblue" stroke="midnightblue" points="720.511,-1243.97 725.334,-1234.54 715.681,-1238.91 720.511,-1243.97"/>
</g>
<!-- Node26&#45;&gt;Node4 -->
<g id="edge66" class="edge"><title>Node26&#45;&gt;Node4</title>
<path fill="none" stroke="midnightblue" d="M426.824,-329.088C438.963,-305.702 473.318,-246.941 522,-224.887 573.01,-201.779 598.742,-198.248 648,-224.887 692.94,-249.191 718.385,-307.92 729.026,-338.558"/>
<polygon fill="midnightblue" stroke="midnightblue" points="725.724,-339.72 732.18,-348.121 732.372,-337.528 725.724,-339.72"/>
</g>
<!-- Node27 -->
<g id="node27" class="node"><title>Node27</title>
<g id="a_node27"><a xlink:href="main_8cc.html#a4611d53166aabe6d0fb24bcfd407bd53" target="_top" xlink:title="print_visualizador">
<polygon fill="white" stroke="black" points="539,-234.387 539,-253.387 631,-253.387 631,-234.387 539,-234.387"/>
<text text-anchor="middle" x="585" y="-241.387" font-family="Helvetica,sans-Serif" font-size="10.00">print_visualizador</text>
</a>
</g>
</g>
<!-- Node26&#45;&gt;Node27 -->
<g id="edge65" class="edge"><title>Node26&#45;&gt;Node27</title>
<path fill="none" stroke="midnightblue" d="M433.385,-329.362C451.328,-314.693 487.682,-286.341 522,-267.887 529.372,-263.923 537.542,-260.279 545.467,-257.092"/>
<polygon fill="midnightblue" stroke="midnightblue" points="546.869,-260.303 554.942,-253.44 544.352,-253.771 546.869,-260.303"/>
</g>
<!-- Node28 -->
<g id="node28" class="node"><title>Node28</title>
<g id="a_node28"><a xlink:href="main_8cc.html#aa0ac4a2d1125c89ec5acc37dfde748c6" target="_top" xlink:title="ver_tarefas">
<polygon fill="white" stroke="black" points="552.5,-386.387 552.5,-405.387 617.5,-405.387 617.5,-386.387 552.5,-386.387"/>
<text text-anchor="middle" x="585" y="-393.387" font-family="Helvetica,sans-Serif" font-size="10.00">ver_tarefas</text>
</a>
</g>
</g>
<!-- Node26&#45;&gt;Node28 -->
<g id="edge67" class="edge"><title>Node26&#45;&gt;Node28</title>
<path fill="none" stroke="midnightblue" d="M445.682,-348.391C465.844,-356.36 495.647,-367.853 522,-376.887 528.583,-379.144 535.601,-381.419 542.461,-383.571"/>
<polygon fill="midnightblue" stroke="midnightblue" points="541.742,-387.012 552.33,-386.621 543.809,-380.324 541.742,-387.012"/>
</g>
<!-- Node29 -->
<g id="node29" class="node"><title>Node29</title>
<g id="a_node29"><a xlink:href="main_8cc.html#a4f8f29b1eba21e0b51992f8de173a582" target="_top" xlink:title="mostrar_pre_requisitos">
<polygon fill="white" stroke="black" points="527,-348.387 527,-367.387 643,-367.387 643,-348.387 527,-348.387"/>
<text text-anchor="middle" x="585" y="-355.387" font-family="Helvetica,sans-Serif" font-size="10.00">mostrar_pre_requisitos</text>
</a>
</g>
</g>
<!-- Node26&#45;&gt;Node29 -->
<g id="edge70" class="edge"><title>Node26&#45;&gt;Node29</title>
<path fill="none" stroke="midnightblue" d="M473.258,-344.899C487.116,-346.524 502.323,-348.308 516.91,-350.019"/>
<polygon fill="midnightblue" stroke="midnightblue" points="516.545,-353.5 526.885,-351.189 517.361,-346.548 516.545,-353.5"/>
</g>
<!-- Node30 -->
<g id="node30" class="node"><title>Node30</title>
<g id="a_node30"><a xlink:href="main_8cc.html#ab05b93d97a47c67aab51426cdad29a86" target="_top" xlink:title="ver_tarefas_concluidas">
<polygon fill="white" stroke="black" points="526.5,-310.387 526.5,-329.387 643.5,-329.387 643.5,-310.387 526.5,-310.387"/>
<text text-anchor="middle" x="585" y="-317.387" font-family="Helvetica,sans-Serif" font-size="10.00">ver_tarefas_concluidas</text>
</a>
</g>
</g>
<!-- Node26&#45;&gt;Node30 -->
<g id="edge73" class="edge"><title>Node26&#45;&gt;Node30</title>
<path fill="none" stroke="midnightblue" d="M473.258,-332.876C486.834,-331.283 501.704,-329.539 516.017,-327.861"/>
<polygon fill="midnightblue" stroke="midnightblue" points="516.79,-331.294 526.315,-326.653 515.975,-324.342 516.79,-331.294"/>
</g>
<!-- Node28&#45;&gt;Node3 -->
<g id="edge68" class="edge"><title>Node28&#45;&gt;Node3</title>
<path fill="none" stroke="midnightblue" d="M617.547,-399.788C628.312,-402.504 639.711,-407.104 648,-414.887 710.648,-473.718 728.532,-582.134 733.341,-626.345"/>
<polygon fill="midnightblue" stroke="midnightblue" points="729.863,-626.745 734.32,-636.356 736.83,-626.063 729.863,-626.745"/>
</g>
<!-- Node28&#45;&gt;Node4 -->
<g id="edge69" class="edge"><title>Node28&#45;&gt;Node4</title>
<path fill="none" stroke="midnightblue" d="M617.599,-387.829C637.988,-382.629 664.881,-375.77 687.782,-369.929"/>
<polygon fill="midnightblue" stroke="midnightblue" points="688.828,-373.275 697.653,-367.412 687.099,-366.492 688.828,-373.275"/>
</g>
<!-- Node29&#45;&gt;Node3 -->
<g id="edge71" class="edge"><title>Node29&#45;&gt;Node3</title>
<path fill="none" stroke="midnightblue" d="M634.345,-367.474C639.372,-369.932 644.069,-373.017 648,-376.887 719.394,-447.188 732.247,-576.416 734.525,-625.894"/>
<polygon fill="midnightblue" stroke="midnightblue" points="731.038,-626.316 734.894,-636.184 738.034,-626.065 731.038,-626.316"/>
</g>
<!-- Node29&#45;&gt;Node4 -->
<g id="edge72" class="edge"><title>Node29&#45;&gt;Node4</title>
<path fill="none" stroke="midnightblue" d="M643.181,-357.887C657.438,-357.887 672.59,-357.887 686.39,-357.887"/>
<polygon fill="midnightblue" stroke="midnightblue" points="686.641,-361.387 696.641,-357.887 686.641,-354.387 686.641,-361.387"/>
</g>
<!-- Node30&#45;&gt;Node3 -->
<g id="edge74" class="edge"><title>Node30&#45;&gt;Node3</title>
<path fill="none" stroke="midnightblue" d="M634.791,-329.487C639.677,-331.945 644.22,-335.026 648,-338.887 728.514,-421.128 735.645,-572.077 735.474,-626.05"/>
<polygon fill="midnightblue" stroke="midnightblue" points="731.971,-626.256 735.344,-636.299 738.97,-626.344 731.971,-626.256"/>
</g>
<!-- Node30&#45;&gt;Node4 -->
<g id="edge75" class="edge"><title>Node30&#45;&gt;Node4</title>
<path fill="none" stroke="midnightblue" d="M623.599,-329.476C643.084,-334.446 667.075,-340.564 687.796,-345.849"/>
<polygon fill="midnightblue" stroke="midnightblue" points="687.117,-349.287 697.671,-348.367 688.846,-342.505 687.117,-349.287"/>
</g>
<!-- Node31&#45;&gt;Node3 -->
<g id="edge77" class="edge"><title>Node31&#45;&gt;Node3</title>
<path fill="none" stroke="midnightblue" d="M590.144,-63.7454C600.934,-89.7106 630.285,-162.294 648,-224.887 670.187,-303.279 717.805,-554.153 731.343,-626.306"/>
<polygon fill="midnightblue" stroke="midnightblue" points="727.933,-627.112 733.213,-636.297 734.813,-625.824 727.933,-627.112"/>
</g>
<!-- Node31&#45;&gt;Node4 -->
<g id="edge79" class="edge"><title>Node31&#45;&gt;Node4</title>
<path fill="none" stroke="midnightblue" d="M626.291,-63.4277C634.322,-66.8821 642.091,-71.5614 648,-77.8874 719.245,-154.155 732.175,-287.859 734.5,-338.078"/>
<polygon fill="midnightblue" stroke="midnightblue" points="731.008,-338.362 734.872,-348.227 738.003,-338.105 731.008,-338.362"/>
</g>
<!-- Node32 -->
<g id="node32" class="node"><title>Node32</title>
<g id="a_node32"><a xlink:href="grafo_8cc.html#ac7a63f8753e7dbbb4117e6d4ebaa5933" target="_top" xlink:title="imprime_grafo">
<polygon fill="white" stroke="black" points="697,-44.3874 697,-63.3874 775,-63.3874 775,-44.3874 697,-44.3874"/>
<text text-anchor="middle" x="736" y="-51.3874" font-family="Helvetica,sans-Serif" font-size="10.00">imprime_grafo</text>
</a>
</g>
</g>
<!-- Node31&#45;&gt;Node32 -->
<g id="edge78" class="edge"><title>Node31&#45;&gt;Node32</title>
<path fill="none" stroke="midnightblue" d="M638.532,-53.8874C654.189,-53.8874 671.268,-53.8874 686.645,-53.8874"/>
<polygon fill="midnightblue" stroke="midnightblue" points="686.981,-57.3875 696.981,-53.8874 686.981,-50.3875 686.981,-57.3875"/>
</g>
</g>
</svg>
