<?xml version="1.0" encoding="UTF-8" standalone="no"?>
<!DOCTYPE svg PUBLIC "-//W3C//DTD SVG 1.1//EN"
 "http://www.w3.org/Graphics/SVG/1.1/DTD/svg11.dtd">
<!-- Generated by graphviz version 2.36.0 (20140111.2315)
 -->
<!-- Title: filtrar_tarefas_completadas Pages: 1 -->
<svg width="420pt" height="236pt"
 viewBox="0.00 0.00 420.00 236.00" xmlns="http://www.w3.org/2000/svg" xmlns:xlink="http://www.w3.org/1999/xlink">
<g id="graph0" class="graph" transform="scale(1 1) rotate(0) translate(4 232)">
<title>filtrar_tarefas_completadas</title>
<polygon fill="white" stroke="none" points="-4,4 -4,-232 416,-232 416,4 -4,4"/>
<!-- Node1 -->
<g id="node1" class="node"><title>Node1</title>
<polygon fill="#bfbfbf" stroke="black" points="0,-151.5 0,-170.5 134,-170.5 134,-151.5 0,-151.5"/>
<text text-anchor="middle" x="67" y="-158.5" font-family="Helvetica,sans-Serif" font-size="10.00">filtrar_tarefas_completadas</text>
</g>
<!-- Node2 -->
<g id="node2" class="node"><title>Node2</title>
<g id="a_node2"><a xlink:href="main_8cc.html#ad2a06ffdf1033b3b1c11f337fa12553b" target="_top" xlink:title="imprimirRotulo">
<polygon fill="white" stroke="black" points="332,-208.5 332,-227.5 412,-227.5 412,-208.5 332,-208.5"/>
<text text-anchor="middle" x="372" y="-215.5" font-family="Helvetica,sans-Serif" font-size="10.00">imprimirRotulo</text>
</a>
</g>
</g>
<!-- Node1&#45;&gt;Node2 -->
<g id="edge1" class="edge"><title>Node1&#45;&gt;Node2</title>
<path fill="none" stroke="midnightblue" d="M88.6042,-170.508C108.865,-179.415 140.898,-192.326 170,-199 221.023,-210.701 280.92,-215.216 321.973,-216.947"/>
<polygon fill="midnightblue" stroke="midnightblue" points="321.861,-220.445 331.988,-217.33 322.129,-213.451 321.861,-220.445"/>
</g>
<!-- Node3 -->
<g id="node3" class="node"><title>Node3</title>
<g id="a_node3"><a xlink:href="main_8cc.html#abe7109d6b800c7cd9f5c2097bc8df894" target="_top" xlink:title="destruir_menu">
<polygon fill="white" stroke="black" points="333,-170.5 333,-189.5 411,-189.5 411,-170.5 333,-170.5"/>
<text text-anchor="middle" x="372" y="-177.5" font-family="Helvetica,sans-Serif" font-size="10.00">destruir_menu</text>
</a>
</g>
</g>
<!-- Node1&#45;&gt;Node3 -->
<g id="edge2" class="edge"><title>Node1&#45;&gt;Node3</title>
<path fill="none" stroke="midnightblue" d="M134.118,-156.692C179.775,-154.769 241.795,-154.241 296,-161 307.43,-162.425 319.617,-165.027 330.772,-167.858"/>
<polygon fill="midnightblue" stroke="midnightblue" points="330.112,-171.304 340.676,-170.495 331.913,-164.54 330.112,-171.304"/>
</g>
<!-- Node4 -->
<g id="node4" class="node"><title>Node4</title>
<g id="a_node4"><a xlink:href="grafo_8cc.html#abce1552216c6841949c616cecd5a4c0b" target="_top" xlink:title="tarefas_concluidas">
<polygon fill="white" stroke="black" points="184,-76.5 184,-95.5 282,-95.5 282,-76.5 184,-76.5"/>
<text text-anchor="middle" x="233" y="-83.5" font-family="Helvetica,sans-Serif" font-size="10.00">tarefas_concluidas</text>
</a>
</g>
</g>
<!-- Node1&#45;&gt;Node4 -->
<g id="edge3" class="edge"><title>Node1&#45;&gt;Node4</title>
<path fill="none" stroke="midnightblue" d="M89.1044,-151.349C117.765,-138.241 169.165,-114.736 201.876,-99.7763"/>
<polygon fill="midnightblue" stroke="midnightblue" points="203.338,-102.956 210.977,-95.6144 200.427,-96.5904 203.338,-102.956"/>
</g>
<!-- Node9 -->
<g id="node9" class="node"><title>Node9</title>
<g id="a_node9"><a xlink:href="main_8cc.html#aaaa25a5b0eda0fab944a03026249b324" target="_top" xlink:title="mostrar_tarefas_filtradas">
<polygon fill="white" stroke="black" points="170.5,-170.5 170.5,-189.5 295.5,-189.5 295.5,-170.5 170.5,-170.5"/>
<text text-anchor="middle" x="233" y="-177.5" font-family="Helvetica,sans-Serif" font-size="10.00">mostrar_tarefas_filtradas</text>
</a>
</g>
</g>
<!-- Node1&#45;&gt;Node9 -->
<g id="edge9" class="edge"><title>Node1&#45;&gt;Node9</title>
<path fill="none" stroke="midnightblue" d="M134.232,-168.673C142.794,-169.665 151.595,-170.685 160.241,-171.686"/>
<polygon fill="midnightblue" stroke="midnightblue" points="159.96,-175.177 170.296,-172.851 160.765,-168.224 159.96,-175.177"/>
</g>
<!-- Node5 -->
<g id="node5" class="node"><title>Node5</title>
<g id="a_node5"><a xlink:href="grafo_8cc.html#acbf9093cdf86cc258309a203729436b2" target="_top" xlink:title="insere_lista">
<polygon fill="white" stroke="black" points="339,-132.5 339,-151.5 405,-151.5 405,-132.5 339,-132.5"/>
<text text-anchor="middle" x="372" y="-139.5" font-family="Helvetica,sans-Serif" font-size="10.00">insere_lista</text>
</a>
</g>
</g>
<!-- Node4&#45;&gt;Node5 -->
<g id="edge4" class="edge"><title>Node4&#45;&gt;Node5</title>
<path fill="none" stroke="midnightblue" d="M257.551,-95.6267C279.839,-104.737 313.494,-118.494 338.364,-128.66"/>
<polygon fill="midnightblue" stroke="midnightblue" points="337.175,-131.955 347.756,-132.499 339.824,-125.475 337.175,-131.955"/>
</g>
<!-- Node6 -->
<g id="node6" class="node"><title>Node6</title>
<g id="a_node6"><a xlink:href="grafo_8cc.html#a6884bc1455bdfb3648b3e2514998e599" target="_top" xlink:title="tempo_minimo">
<polygon fill="white" stroke="black" points="332,-76.5 332,-95.5 412,-95.5 412,-76.5 332,-76.5"/>
<text text-anchor="middle" x="372" y="-83.5" font-family="Helvetica,sans-Serif" font-size="10.00">tempo_minimo</text>
</a>
</g>
</g>
<!-- Node4&#45;&gt;Node6 -->
<g id="edge5" class="edge"><title>Node4&#45;&gt;Node6</title>
<path fill="none" stroke="midnightblue" d="M282.301,-86C295.066,-86 308.86,-86 321.678,-86"/>
<polygon fill="midnightblue" stroke="midnightblue" points="321.711,-89.5001 331.711,-86 321.711,-82.5001 321.711,-89.5001"/>
</g>
<!-- Node7 -->
<g id="node7" class="node"><title>Node7</title>
<g id="a_node7"><a xlink:href="grafo_8cc.html#ae12d615ab927bce766dcc94b9f1b404d" target="_top" xlink:title="remove_lista">
<polygon fill="white" stroke="black" points="336,-38.5 336,-57.5 408,-57.5 408,-38.5 336,-38.5"/>
<text text-anchor="middle" x="372" y="-45.5" font-family="Helvetica,sans-Serif" font-size="10.00">remove_lista</text>
</a>
</g>
</g>
<!-- Node4&#45;&gt;Node7 -->
<g id="edge7" class="edge"><title>Node4&#45;&gt;Node7</title>
<path fill="none" stroke="midnightblue" d="M268.571,-76.411C286.175,-71.5281 307.779,-65.5357 326.601,-60.315"/>
<polygon fill="midnightblue" stroke="midnightblue" points="327.739,-63.6315 336.44,-57.5859 325.868,-56.8862 327.739,-63.6315"/>
</g>
<!-- Node8 -->
<g id="node8" class="node"><title>Node8</title>
<g id="a_node8"><a xlink:href="grafo_8cc.html#a755ed9b778398a7614e61bdb3084717b" target="_top" xlink:title="compara">
<polygon fill="white" stroke="black" points="345,-0.5 345,-19.5 399,-19.5 399,-0.5 345,-0.5"/>
<text text-anchor="middle" x="372" y="-7.5" font-family="Helvetica,sans-Serif" font-size="10.00">compara</text>
</a>
</g>
</g>
<!-- Node4&#45;&gt;Node8 -->
<g id="edge8" class="edge"><title>Node4&#45;&gt;Node8</title>
<path fill="none" stroke="midnightblue" d="M249.753,-76.3561C268.949,-64.7174 302.478,-44.7494 332,-29 335.084,-27.3549 338.331,-25.6818 341.581,-24.0451"/>
<polygon fill="midnightblue" stroke="midnightblue" points="343.2,-27.1491 350.616,-19.5816 340.1,-20.8732 343.2,-27.1491"/>
</g>
<!-- Node6&#45;&gt;Node6 -->
<g id="edge6" class="edge"><title>Node6&#45;&gt;Node6</title>
<path fill="none" stroke="midnightblue" d="M350.73,-95.7571C340.383,-104.565 347.473,-114 372,-114 387.713,-114 396.269,-110.128 397.67,-105.029"/>
<polygon fill="midnightblue" stroke="midnightblue" points="400.719,-103.291 393.27,-95.7571 394.395,-106.292 400.719,-103.291"/>
</g>
<!-- Node9&#45;&gt;Node2 -->
<g id="edge10" class="edge"><title>Node9&#45;&gt;Node2</title>
<path fill="none" stroke="midnightblue" d="M268.571,-189.589C286.175,-194.472 307.779,-200.464 326.601,-205.685"/>
<polygon fill="midnightblue" stroke="midnightblue" points="325.868,-209.114 336.44,-208.414 327.739,-202.369 325.868,-209.114"/>
</g>
<!-- Node9&#45;&gt;Node3 -->
<g id="edge11" class="edge"><title>Node9&#45;&gt;Node3</title>
<path fill="none" stroke="midnightblue" d="M295.687,-180C304.773,-180 314.021,-180 322.782,-180"/>
<polygon fill="midnightblue" stroke="midnightblue" points="322.805,-183.5 332.805,-180 322.805,-176.5 322.805,-183.5"/>
</g>
</g>
</svg>
