<?xml version="1.0" encoding="UTF-8" standalone="no"?>
<!DOCTYPE svg PUBLIC "-//W3C//DTD SVG 1.1//EN"
 "http://www.w3.org/Graphics/SVG/1.1/DTD/svg11.dtd">
<!-- Generated by graphviz version 2.36.0 (20140111.2315)
 -->
<!-- Title: imprimir_em_arquivo Pages: 1 -->
<svg width="424pt" height="47pt"
 viewBox="0.00 0.00 424.00 47.00" xmlns="http://www.w3.org/2000/svg" xmlns:xlink="http://www.w3.org/1999/xlink">
<g id="graph0" class="graph" transform="scale(1 1) rotate(0) translate(4 43)">
<title>imprimir_em_arquivo</title>
<polygon fill="white" stroke="none" points="-4,4 -4,-43 420,-43 420,4 -4,4"/>
<!-- Node1 -->
<g id="node1" class="node"><title>Node1</title>
<polygon fill="#bfbfbf" stroke="black" points="0.5,-0.5 0.5,-19.5 107.5,-19.5 107.5,-0.5 0.5,-0.5"/>
<text text-anchor="middle" x="54" y="-7.5" font-family="Helvetica,sans-Serif" font-size="10.00">imprimir_em_arquivo</text>
</g>
<!-- Node2 -->
<g id="node2" class="node"><title>Node2</title>
<g id="a_node2"><a xlink:href="main_8cc.html#af852bc15cf3d5217386a9bb0bf3b9abd" target="_top" xlink:title="operacoes_grafo">
<polygon fill="white" stroke="black" points="144.5,-0.5 144.5,-19.5 233.5,-19.5 233.5,-0.5 144.5,-0.5"/>
<text text-anchor="middle" x="189" y="-7.5" font-family="Helvetica,sans-Serif" font-size="10.00">operacoes_grafo</text>
</a>
</g>
</g>
<!-- Node1&#45;&gt;Node2 -->
<g id="edge1" class="edge"><title>Node1&#45;&gt;Node2</title>
<path fill="none" stroke="midnightblue" d="M117.683,-10C126.711,-10 135.834,-10 144.382,-10"/>
<polygon fill="midnightblue" stroke="midnightblue" points="117.565,-6.5001 107.565,-10 117.565,-13.5001 117.565,-6.5001"/>
</g>
<!-- Node3 -->
<g id="node3" class="node"><title>Node3</title>
<g id="a_node3"><a xlink:href="main_8cc.html#af1ccf694bcf905341f10b534e5a272fa" target="_top" xlink:title="abrir_arquivo">
<polygon fill="white" stroke="black" points="270,-19.5 270,-38.5 342,-38.5 342,-19.5 270,-19.5"/>
<text text-anchor="middle" x="306" y="-26.5" font-family="Helvetica,sans-Serif" font-size="10.00">abrir_arquivo</text>
</a>
</g>
</g>
<!-- Node2&#45;&gt;Node3 -->
<g id="edge2" class="edge"><title>Node2&#45;&gt;Node3</title>
<path fill="none" stroke="midnightblue" d="M243.736,-18.8781C252.617,-20.3454 261.619,-21.8327 269.888,-23.199"/>
<polygon fill="midnightblue" stroke="midnightblue" points="244.241,-15.4143 233.805,-17.2373 243.1,-22.3206 244.241,-15.4143"/>
</g>
<!-- Node4 -->
<g id="node4" class="node"><title>Node4</title>
<g id="a_node4"><a xlink:href="main_8cc.html#ae66f6b31b5ad750f1fe042a706a4e3d4" target="_top" xlink:title="main">
<polygon fill="white" stroke="black" points="378,-0.5 378,-19.5 416,-19.5 416,-0.5 378,-0.5"/>
<text text-anchor="middle" x="397" y="-7.5" font-family="Helvetica,sans-Serif" font-size="10.00">main</text>
</a>
</g>
</g>
<!-- Node2&#45;&gt;Node4 -->
<g id="edge4" class="edge"><title>Node2&#45;&gt;Node4</title>
<path fill="none" stroke="midnightblue" d="M243.725,-10C288.01,-10 348.194,-10 377.894,-10"/>
<polygon fill="midnightblue" stroke="midnightblue" points="243.687,-6.5001 233.687,-10 243.687,-13.5001 243.687,-6.5001"/>
</g>
<!-- Node3&#45;&gt;Node4 -->
<g id="edge3" class="edge"><title>Node3&#45;&gt;Node4</title>
<path fill="none" stroke="midnightblue" d="M352.067,-19.3789C361.24,-17.4207 370.38,-15.4694 377.929,-13.8578"/>
<polygon fill="midnightblue" stroke="midnightblue" points="351.224,-15.98 342.175,-21.4907 352.686,-22.8257 351.224,-15.98"/>
</g>
</g>
</svg>
