<?xml version="1.0" encoding="UTF-8" standalone="no"?>
<!DOCTYPE svg PUBLIC "-//W3C//DTD SVG 1.1//EN"
 "http://www.w3.org/Graphics/SVG/1.1/DTD/svg11.dtd">
<!-- Generated by graphviz version 2.36.0 (20140111.2315)
 -->
<!-- Title: filtrar_tarefas_completadas Pages: 1 -->
<svg width="420pt" height="274pt"
 viewBox="0.00 0.00 420.00 274.00" xmlns="http://www.w3.org/2000/svg" xmlns:xlink="http://www.w3.org/1999/xlink">
<g id="graph0" class="graph" transform="scale(1 1) rotate(0) translate(4 270)">
<title>filtrar_tarefas_completadas</title>
<polygon fill="white" stroke="none" points="-4,4 -4,-270 416,-270 416,4 -4,4"/>
<!-- Node1 -->
<g id="node1" class="node"><title>Node1</title>
<polygon fill="#bfbfbf" stroke="black" points="0,-189.5 0,-208.5 134,-208.5 134,-189.5 0,-189.5"/>
<text text-anchor="middle" x="67" y="-196.5" font-family="Helvetica,sans-Serif" font-size="10.00">filtrar_tarefas_completadas</text>
</g>
<!-- Node2 -->
<g id="node2" class="node"><title>Node2</title>
<g id="a_node2"><a xlink:href="main_8cc.html#ad2a06ffdf1033b3b1c11f337fa12553b" target="_top" xlink:title="imprimirRotulo">
<polygon fill="white" stroke="black" points="332,-246.5 332,-265.5 412,-265.5 412,-246.5 332,-246.5"/>
<text text-anchor="middle" x="372" y="-253.5" font-family="Helvetica,sans-Serif" font-size="10.00">imprimirRotulo</text>
</a>
</g>
</g>
<!-- Node1&#45;&gt;Node2 -->
<g id="edge1" class="edge"><title>Node1&#45;&gt;Node2</title>
<path fill="none" stroke="midnightblue" d="M88.6042,-208.508C108.865,-217.415 140.898,-230.326 170,-237 221.023,-248.701 280.92,-253.216 321.973,-254.947"/>
<polygon fill="midnightblue" stroke="midnightblue" points="321.861,-258.445 331.988,-255.33 322.129,-251.451 321.861,-258.445"/>
</g>
<!-- Node3 -->
<g id="node3" class="node"><title>Node3</title>
<g id="a_node3"><a xlink:href="main_8cc.html#abe7109d6b800c7cd9f5c2097bc8df894" target="_top" xlink:title="destruir_menu">
<polygon fill="white" stroke="black" points="333,-170.5 333,-189.5 411,-189.5 411,-170.5 333,-170.5"/>
<text text-anchor="middle" x="372" y="-177.5" font-family="Helvetica,sans-Serif" font-size="10.00">destruir_menu</text>
</a>
</g>
</g>
<!-- Node1&#45;&gt;Node3 -->
<g id="edge2" class="edge"><title>Node1&#45;&gt;Node3</title>
<path fill="none" stroke="midnightblue" d="M134.12,-194.854C190.975,-191.289 271.648,-186.23 322.64,-183.032"/>
<polygon fill="midnightblue" stroke="midnightblue" points="322.978,-186.518 332.739,-182.399 322.54,-179.532 322.978,-186.518"/>
</g>
<!-- Node4 -->
<g id="node4" class="node"><title>Node4</title>
<g id="a_node4"><a xlink:href="grafo_8cc.html#abce1552216c6841949c616cecd5a4c0b" target="_top" xlink:title="tarefas_concluidas">
<polygon fill="white" stroke="black" points="184,-76.5 184,-95.5 282,-95.5 282,-76.5 184,-76.5"/>
<text text-anchor="middle" x="233" y="-83.5" font-family="Helvetica,sans-Serif" font-size="10.00">tarefas_concluidas</text>
</a>
</g>
</g>
<!-- Node1&#45;&gt;Node4 -->
<g id="edge3" class="edge"><title>Node1&#45;&gt;Node4</title>
<path fill="none" stroke="midnightblue" d="M81.9825,-189.366C110.425,-169.768 175.229,-125.116 209.612,-101.426"/>
<polygon fill="midnightblue" stroke="midnightblue" points="211.804,-104.166 218.053,-95.6099 207.832,-98.4017 211.804,-104.166"/>
</g>
<!-- Node9 -->
<g id="node9" class="node"><title>Node9</title>
<g id="a_node9"><a xlink:href="main_8cc.html#aaaa25a5b0eda0fab944a03026249b324" target="_top" xlink:title="mostrar_tarefas_filtradas">
<polygon fill="white" stroke="black" points="170.5,-208.5 170.5,-227.5 295.5,-227.5 295.5,-208.5 170.5,-208.5"/>
<text text-anchor="middle" x="233" y="-215.5" font-family="Helvetica,sans-Serif" font-size="10.00">mostrar_tarefas_filtradas</text>
</a>
</g>
</g>
<!-- Node1&#45;&gt;Node9 -->
<g id="edge9" class="edge"><title>Node1&#45;&gt;Node9</title>
<path fill="none" stroke="midnightblue" d="M134.232,-206.673C142.794,-207.665 151.595,-208.685 160.241,-209.686"/>
<polygon fill="midnightblue" stroke="midnightblue" points="159.96,-213.177 170.296,-210.851 160.765,-206.224 159.96,-213.177"/>
</g>
<!-- Node5 -->
<g id="node5" class="node"><title>Node5</title>
<g id="a_node5"><a xlink:href="grafo_8cc.html#acbf9093cdf86cc258309a203729436b2" target="_top" xlink:title="insere_lista">
<polygon fill="white" stroke="black" points="339,-0.5 339,-19.5 405,-19.5 405,-0.5 339,-0.5"/>
<text text-anchor="middle" x="372" y="-7.5" font-family="Helvetica,sans-Serif" font-size="10.00">insere_lista</text>
</a>
</g>
</g>
<!-- Node4&#45;&gt;Node5 -->
<g id="edge4" class="edge"><title>Node4&#45;&gt;Node5</title>
<path fill="none" stroke="midnightblue" d="M249.753,-76.3561C268.949,-64.7174 302.478,-44.7494 332,-29 335.084,-27.3549 338.331,-25.6818 341.581,-24.0451"/>
<polygon fill="midnightblue" stroke="midnightblue" points="343.2,-27.1491 350.616,-19.5816 340.1,-20.8732 343.2,-27.1491"/>
</g>
<!-- Node6 -->
<g id="node6" class="node"><title>Node6</title>
<g id="a_node6"><a xlink:href="grafo_8cc.html#a6884bc1455bdfb3648b3e2514998e599" target="_top" xlink:title="tempo_minimo">
<polygon fill="white" stroke="black" points="332,-114.5 332,-133.5 412,-133.5 412,-114.5 332,-114.5"/>
<text text-anchor="middle" x="372" y="-121.5" font-family="Helvetica,sans-Serif" font-size="10.00">tempo_minimo</text>
</a>
</g>
</g>
<!-- Node4&#45;&gt;Node6 -->
<g id="edge5" class="edge"><title>Node4&#45;&gt;Node6</title>
<path fill="none" stroke="midnightblue" d="M268.571,-95.589C286.175,-100.472 307.779,-106.464 326.601,-111.685"/>
<polygon fill="midnightblue" stroke="midnightblue" points="325.868,-115.114 336.44,-114.414 327.739,-108.369 325.868,-115.114"/>
</g>
<!-- Node7 -->
<g id="node7" class="node"><title>Node7</title>
<g id="a_node7"><a xlink:href="grafo_8cc.html#ae12d615ab927bce766dcc94b9f1b404d" target="_top" xlink:title="remove_lista">
<polygon fill="white" stroke="black" points="336,-76.5 336,-95.5 408,-95.5 408,-76.5 336,-76.5"/>
<text text-anchor="middle" x="372" y="-83.5" font-family="Helvetica,sans-Serif" font-size="10.00">remove_lista</text>
</a>
</g>
</g>
<!-- Node4&#45;&gt;Node7 -->
<g id="edge7" class="edge"><title>Node4&#45;&gt;Node7</title>
<path fill="none" stroke="midnightblue" d="M282.301,-86C296.298,-86 311.53,-86 325.359,-86"/>
<polygon fill="midnightblue" stroke="midnightblue" points="325.616,-89.5001 335.616,-86 325.616,-82.5001 325.616,-89.5001"/>
</g>
<!-- Node8 -->
<g id="node8" class="node"><title>Node8</title>
<g id="a_node8"><a xlink:href="grafo_8cc.html#a755ed9b778398a7614e61bdb3084717b" target="_top" xlink:title="compara">
<polygon fill="white" stroke="black" points="345,-38.5 345,-57.5 399,-57.5 399,-38.5 345,-38.5"/>
<text text-anchor="middle" x="372" y="-45.5" font-family="Helvetica,sans-Serif" font-size="10.00">compara</text>
</a>
</g>
</g>
<!-- Node4&#45;&gt;Node8 -->
<g id="edge8" class="edge"><title>Node4&#45;&gt;Node8</title>
<path fill="none" stroke="midnightblue" d="M268.571,-76.411C288.779,-70.8059 314.257,-63.739 334.747,-58.0556"/>
<polygon fill="midnightblue" stroke="midnightblue" points="335.955,-61.3526 344.656,-55.3071 334.084,-54.6073 335.955,-61.3526"/>
</g>
<!-- Node6&#45;&gt;Node6 -->
<g id="edge6" class="edge"><title>Node6&#45;&gt;Node6</title>
<path fill="none" stroke="midnightblue" d="M350.73,-133.757C340.383,-142.565 347.473,-152 372,-152 387.713,-152 396.269,-148.128 397.67,-143.029"/>
<polygon fill="midnightblue" stroke="midnightblue" points="400.719,-141.291 393.27,-133.757 394.395,-144.292 400.719,-141.291"/>
</g>
<!-- Node9&#45;&gt;Node2 -->
<g id="edge10" class="edge"><title>Node9&#45;&gt;Node2</title>
<path fill="none" stroke="midnightblue" d="M268.571,-227.589C286.175,-232.472 307.779,-238.464 326.601,-243.685"/>
<polygon fill="midnightblue" stroke="midnightblue" points="325.868,-247.114 336.44,-246.414 327.739,-240.369 325.868,-247.114"/>
</g>
<!-- Node9&#45;&gt;Node3 -->
<g id="edge12" class="edge"><title>Node9&#45;&gt;Node3</title>
<path fill="none" stroke="midnightblue" d="M268.571,-208.411C286.175,-203.528 307.779,-197.536 326.601,-192.315"/>
<polygon fill="midnightblue" stroke="midnightblue" points="327.739,-195.631 336.44,-189.586 325.868,-188.886 327.739,-195.631"/>
</g>
<!-- Node10 -->
<g id="node10" class="node"><title>Node10</title>
<g id="a_node10"><a xlink:href="grafo_8cc.html#a0e6585acadedc05719f93fa778cf1dcb" target="_top" xlink:title="procura_tarefa">
<polygon fill="white" stroke="black" points="332.5,-208.5 332.5,-227.5 411.5,-227.5 411.5,-208.5 332.5,-208.5"/>
<text text-anchor="middle" x="372" y="-215.5" font-family="Helvetica,sans-Serif" font-size="10.00">procura_tarefa</text>
</a>
</g>
</g>
<!-- Node9&#45;&gt;Node10 -->
<g id="edge11" class="edge"><title>Node9&#45;&gt;Node10</title>
<path fill="none" stroke="midnightblue" d="M295.687,-218C304.573,-218 313.615,-218 322.204,-218"/>
<polygon fill="midnightblue" stroke="midnightblue" points="322.416,-221.5 332.416,-218 322.416,-214.5 322.416,-221.5"/>
</g>
</g>
</svg>
