<?xml version="1.0" encoding="UTF-8" standalone="no"?>
<!DOCTYPE svg PUBLIC "-//W3C//DTD SVG 1.1//EN"
 "http://www.w3.org/Graphics/SVG/1.1/DTD/svg11.dtd">
<!-- Generated by graphviz version 2.36.0 (20140111.2315)
 -->
<!-- Title: edicao_tarefa Pages: 1 -->
<svg width="502pt" height="214pt"
 viewBox="0.00 0.00 502.00 213.97" xmlns="http://www.w3.org/2000/svg" xmlns:xlink="http://www.w3.org/1999/xlink">
<g id="graph0" class="graph" transform="scale(1 1) rotate(0) translate(4 209.973)">
<title>edicao_tarefa</title>
<polygon fill="white" stroke="none" points="-4,4 -4,-209.973 498,-209.973 498,4 -4,4"/>
<!-- Node1 -->
<g id="node1" class="node"><title>Node1</title>
<polygon fill="#bfbfbf" stroke="black" points="0.5,-95.5 0.5,-114.5 75.5,-114.5 75.5,-95.5 0.5,-95.5"/>
<text text-anchor="middle" x="38" y="-102.5" font-family="Helvetica,sans-Serif" font-size="10.00">edicao_tarefa</text>
</g>
<!-- Node2 -->
<g id="node2" class="node"><title>Node2</title>
<g id="a_node2"><a xlink:href="main_8cc.html#ad2a06ffdf1033b3b1c11f337fa12553b" target="_top" xlink:title="imprimirRotulo">
<polygon fill="white" stroke="black" points="286,-158.5 286,-177.5 366,-177.5 366,-158.5 286,-158.5"/>
<text text-anchor="middle" x="326" y="-165.5" font-family="Helvetica,sans-Serif" font-size="10.00">imprimirRotulo</text>
</a>
</g>
</g>
<!-- Node1&#45;&gt;Node2 -->
<g id="edge1" class="edge"><title>Node1&#45;&gt;Node2</title>
<path fill="none" stroke="midnightblue" d="M43.5237,-114.697C53.0382,-133.778 77.1544,-175.751 112,-192 171.919,-219.941 251.257,-197.542 294.202,-181.216"/>
<polygon fill="midnightblue" stroke="midnightblue" points="295.525,-184.457 303.549,-177.538 292.962,-177.943 295.525,-184.457"/>
</g>
<!-- Node3 -->
<g id="node3" class="node"><title>Node3</title>
<g id="a_node3"><a xlink:href="grafo_8cc.html#a1e996ff4a17fa0e42fc8ff6bdc605dc1" target="_top" xlink:title="pesquisa_tarefa">
<polygon fill="white" stroke="black" points="283,-38.5 283,-57.5 369,-57.5 369,-38.5 283,-38.5"/>
<text text-anchor="middle" x="326" y="-45.5" font-family="Helvetica,sans-Serif" font-size="10.00">pesquisa_tarefa</text>
</a>
</g>
</g>
<!-- Node1&#45;&gt;Node3 -->
<g id="edge2" class="edge"><title>Node1&#45;&gt;Node3</title>
<path fill="none" stroke="midnightblue" d="M75.5126,-97.723C125.518,-87.7569 215.602,-69.8031 272.744,-58.4146"/>
<polygon fill="midnightblue" stroke="midnightblue" points="273.542,-61.8245 282.665,-56.4374 272.174,-54.9595 273.542,-61.8245"/>
</g>
<!-- Node4 -->
<g id="node4" class="node"><title>Node4</title>
<g id="a_node4"><a xlink:href="main_8cc.html#abe7109d6b800c7cd9f5c2097bc8df894" target="_top" xlink:title="destruir_menu">
<polygon fill="white" stroke="black" points="287,-95.5 287,-114.5 365,-114.5 365,-95.5 287,-95.5"/>
<text text-anchor="middle" x="326" y="-102.5" font-family="Helvetica,sans-Serif" font-size="10.00">destruir_menu</text>
</a>
</g>
</g>
<!-- Node1&#45;&gt;Node4 -->
<g id="edge3" class="edge"><title>Node1&#45;&gt;Node4</title>
<path fill="none" stroke="midnightblue" d="M75.5126,-105C126.69,-105 219.848,-105 276.708,-105"/>
<polygon fill="midnightblue" stroke="midnightblue" points="276.885,-108.5 286.885,-105 276.885,-101.5 276.885,-108.5"/>
</g>
<!-- Node5 -->
<g id="node5" class="node"><title>Node5</title>
<g id="a_node5"><a xlink:href="main_8cc.html#acec6efd5f1ee225764d814040f142268" target="_top" xlink:title="erro_id_existente">
<polygon fill="white" stroke="black" points="129.5,-114.5 129.5,-133.5 220.5,-133.5 220.5,-114.5 129.5,-114.5"/>
<text text-anchor="middle" x="175" y="-121.5" font-family="Helvetica,sans-Serif" font-size="10.00">erro_id_existente</text>
</a>
</g>
</g>
<!-- Node1&#45;&gt;Node5 -->
<g id="edge4" class="edge"><title>Node1&#45;&gt;Node5</title>
<path fill="none" stroke="midnightblue" d="M75.5329,-110.142C88.9835,-112.035 104.529,-114.223 119.236,-116.293"/>
<polygon fill="midnightblue" stroke="midnightblue" points="118.859,-119.774 129.249,-117.702 119.835,-112.842 118.859,-119.774"/>
</g>
<!-- Node6 -->
<g id="node6" class="node"><title>Node6</title>
<g id="a_node6"><a xlink:href="main_8cc.html#a5f90fb7a7aa9c2393d70b4f95d675955" target="_top" xlink:title="tela_inserir_pre_requisito\l_edicao">
<polygon fill="white" stroke="black" points="112.5,-153 112.5,-183 237.5,-183 237.5,-153 112.5,-153"/>
<text text-anchor="start" x="120.5" y="-171" font-family="Helvetica,sans-Serif" font-size="10.00">tela_inserir_pre_requisito</text>
<text text-anchor="middle" x="175" y="-160" font-family="Helvetica,sans-Serif" font-size="10.00">_edicao</text>
</a>
</g>
</g>
<!-- Node1&#45;&gt;Node6 -->
<g id="edge7" class="edge"><title>Node1&#45;&gt;Node6</title>
<path fill="none" stroke="midnightblue" d="M56.1701,-114.538C70.8169,-122.529 92.5337,-134.034 112,-143 116.381,-145.018 120.974,-147.04 125.595,-149.011"/>
<polygon fill="midnightblue" stroke="midnightblue" points="124.482,-152.339 135.058,-152.968 127.182,-145.881 124.482,-152.339"/>
</g>
<!-- Node7 -->
<g id="node7" class="node"><title>Node7</title>
<g id="a_node7"><a xlink:href="grafo_8cc.html#adaeb2e2aa0bf8a2fbb149376a33bd443" target="_top" xlink:title="edita_tarefa">
<polygon fill="white" stroke="black" points="141,-0.5 141,-19.5 209,-19.5 209,-0.5 141,-0.5"/>
<text text-anchor="middle" x="175" y="-7.5" font-family="Helvetica,sans-Serif" font-size="10.00">edita_tarefa</text>
</a>
</g>
</g>
<!-- Node1&#45;&gt;Node7 -->
<g id="edge9" class="edge"><title>Node1&#45;&gt;Node7</title>
<path fill="none" stroke="midnightblue" d="M46.5778,-95.4789C58.887,-80.5595 84.6203,-51.5658 112,-34 118.345,-29.9293 125.488,-26.3735 132.609,-23.3349"/>
<polygon fill="midnightblue" stroke="midnightblue" points="134.228,-26.4579 142.228,-19.5121 131.643,-19.9527 134.228,-26.4579"/>
</g>
<!-- Node5&#45;&gt;Node2 -->
<g id="edge5" class="edge"><title>Node5&#45;&gt;Node2</title>
<path fill="none" stroke="midnightblue" d="M208.331,-133.547C230.199,-140.005 259.295,-148.597 282.96,-155.585"/>
<polygon fill="midnightblue" stroke="midnightblue" points="282.15,-158.996 292.732,-158.471 284.133,-152.282 282.15,-158.996"/>
</g>
<!-- Node5&#45;&gt;Node4 -->
<g id="edge6" class="edge"><title>Node5&#45;&gt;Node4</title>
<path fill="none" stroke="midnightblue" d="M220.705,-118.299C238.415,-116.041 258.814,-113.44 276.849,-111.14"/>
<polygon fill="midnightblue" stroke="midnightblue" points="277.397,-114.599 286.874,-109.862 276.511,-107.655 277.397,-114.599"/>
</g>
<!-- Node6&#45;&gt;Node2 -->
<g id="edge8" class="edge"><title>Node6&#45;&gt;Node2</title>
<path fill="none" stroke="midnightblue" d="M237.895,-168C250.387,-168 263.366,-168 275.371,-168"/>
<polygon fill="midnightblue" stroke="midnightblue" points="275.634,-171.5 285.634,-168 275.634,-164.5 275.634,-171.5"/>
</g>
<!-- Node7&#45;&gt;Node3 -->
<g id="edge12" class="edge"><title>Node7&#45;&gt;Node3</title>
<path fill="none" stroke="midnightblue" d="M209.068,-18.4334C229.216,-23.572 255.293,-30.2225 277.611,-35.9143"/>
<polygon fill="midnightblue" stroke="midnightblue" points="277.012,-39.3733 287.566,-38.4532 278.741,-32.5904 277.012,-39.3733"/>
</g>
<!-- Node8 -->
<g id="node8" class="node"><title>Node8</title>
<g id="a_node8"><a xlink:href="grafo_8cc.html#a3fe6389b74d0356a95800a3d29d7d664" target="_top" xlink:title="insere_prerequisitos">
<polygon fill="white" stroke="black" points="274,-0.5 274,-19.5 378,-19.5 378,-0.5 274,-0.5"/>
<text text-anchor="middle" x="326" y="-7.5" font-family="Helvetica,sans-Serif" font-size="10.00">insere_prerequisitos</text>
</a>
</g>
</g>
<!-- Node7&#45;&gt;Node8 -->
<g id="edge10" class="edge"><title>Node7&#45;&gt;Node8</title>
<path fill="none" stroke="midnightblue" d="M209.068,-10C225.127,-10 244.953,-10 263.639,-10"/>
<polygon fill="midnightblue" stroke="midnightblue" points="263.873,-13.5001 273.873,-10 263.872,-6.5001 263.873,-13.5001"/>
</g>
<!-- Node9 -->
<g id="node9" class="node"><title>Node9</title>
<g id="a_node9"><a xlink:href="grafo_8cc.html#a0e6585acadedc05719f93fa778cf1dcb" target="_top" xlink:title="procura_tarefa">
<polygon fill="white" stroke="black" points="414.5,-0.5 414.5,-19.5 493.5,-19.5 493.5,-0.5 414.5,-0.5"/>
<text text-anchor="middle" x="454" y="-7.5" font-family="Helvetica,sans-Serif" font-size="10.00">procura_tarefa</text>
</a>
</g>
</g>
<!-- Node8&#45;&gt;Node9 -->
<g id="edge11" class="edge"><title>Node8&#45;&gt;Node9</title>
<path fill="none" stroke="midnightblue" d="M378.249,-10C386.774,-10 395.597,-10 404.062,-10"/>
<polygon fill="midnightblue" stroke="midnightblue" points="404.168,-13.5001 414.168,-10 404.168,-6.5001 404.168,-13.5001"/>
</g>
</g>
</svg>
