<?xml version="1.0" encoding="UTF-8" standalone="no"?>
<!DOCTYPE svg PUBLIC "-//W3C//DTD SVG 1.1//EN"
 "http://www.w3.org/Graphics/SVG/1.1/DTD/svg11.dtd">
<!-- Generated by graphviz version 2.36.0 (20140111.2315)
 -->
<!-- Title: Grafo Pages: 1 -->
<svg width="136pt" height="164pt"
 viewBox="0.00 0.00 136.00 164.00" xmlns="http://www.w3.org/2000/svg" xmlns:xlink="http://www.w3.org/1999/xlink">
<g id="graph0" class="graph" transform="scale(1 1) rotate(0) translate(4 160)">
<title>Grafo</title>
<polygon fill="white" stroke="none" points="-4,4 -4,-160 132,-160 132,4 -4,4"/>
<!-- Node1 -->
<g id="node1" class="node"><title>Node1</title>
<polygon fill="#bfbfbf" stroke="black" points="18.5,-0.5 18.5,-19.5 59.5,-19.5 59.5,-0.5 18.5,-0.5"/>
<text text-anchor="middle" x="39" y="-7.5" font-family="Helvetica,sans-Serif" font-size="10.00">Grafo</text>
</g>
<!-- Node2 -->
<g id="node2" class="node"><title>Node2</title>
<g id="a_node2"><a xlink:href="structTarefa.html" target="_top" xlink:title="Tarefa">
<polygon fill="white" stroke="black" points="17,-68.5 17,-87.5 61,-87.5 61,-68.5 17,-68.5"/>
<text text-anchor="middle" x="39" y="-75.5" font-family="Helvetica,sans-Serif" font-size="10.00">Tarefa</text>
</a>
</g>
</g>
<!-- Node2&#45;&gt;Node1 -->
<g id="edge1" class="edge"><title>Node2&#45;&gt;Node1</title>
<path fill="none" stroke="#9a32cd" stroke-dasharray="5,2" d="M39,-58.0413C39,-45.4724 39,-29.5631 39,-19.8411"/>
<polygon fill="#9a32cd" stroke="#9a32cd" points="35.5001,-58.3716 39,-68.3717 42.5001,-58.3717 35.5001,-58.3716"/>
<text text-anchor="middle" x="44" y="-41.5" font-family="Helvetica,sans-Serif" font-size="10.00"> T</text>
</g>
<!-- Node2&#45;&gt;Node2 -->
<g id="edge4" class="edge"><title>Node2&#45;&gt;Node2</title>
<path fill="none" stroke="#9a32cd" stroke-dasharray="5,2" d="M71.1113,-83.5914C75.2587,-82.6238 78,-80.76 78,-78 78,-73.3516 70.2241,-71.2452 61.051,-71.681"/>
<polygon fill="#9a32cd" stroke="#9a32cd" points="70.7725,-80.1067 61.051,-84.319 71.2774,-87.0885 70.7725,-80.1067"/>
<text text-anchor="middle" x="89" y="-75.5" font-family="Helvetica,sans-Serif" font-size="10.00"> prox</text>
</g>
<!-- Node3 -->
<g id="node3" class="node"><title>Node3</title>
<g id="a_node3"><a xlink:href="structPreRequisitos.html" target="_top" xlink:title="PreRequisitos">
<polygon fill="white" stroke="black" points="0,-136.5 0,-155.5 78,-155.5 78,-136.5 0,-136.5"/>
<text text-anchor="middle" x="39" y="-143.5" font-family="Helvetica,sans-Serif" font-size="10.00">PreRequisitos</text>
</a>
</g>
</g>
<!-- Node3&#45;&gt;Node2 -->
<g id="edge2" class="edge"><title>Node3&#45;&gt;Node2</title>
<path fill="none" stroke="#9a32cd" stroke-dasharray="5,2" d="M39,-126.041C39,-113.472 39,-97.5631 39,-87.8411"/>
<polygon fill="#9a32cd" stroke="#9a32cd" points="35.5001,-126.372 39,-136.372 42.5001,-126.372 35.5001,-126.372"/>
<text text-anchor="middle" x="83.5" y="-109.5" font-family="Helvetica,sans-Serif" font-size="10.00"> prerequisitos_tarefa</text>
</g>
<!-- Node3&#45;&gt;Node3 -->
<g id="edge3" class="edge"><title>Node3&#45;&gt;Node3</title>
<path fill="none" stroke="#9a32cd" stroke-dasharray="5,2" d="M88.2752,-151.149C93.0046,-150.103 96,-148.386 96,-146 96,-142.182 88.3317,-140.079 78.1622,-139.691"/>
<polygon fill="#9a32cd" stroke="#9a32cd" points="87.6982,-147.692 78.1622,-152.309 88.4959,-154.647 87.6982,-147.692"/>
<text text-anchor="middle" x="107" y="-143.5" font-family="Helvetica,sans-Serif" font-size="10.00"> prox</text>
</g>
</g>
</svg>
